  0
SECTION
  2
BLOCKS
  0
ENDSEC
  0
SECTION
  2
ENTITIES
  0
LINE
  8
0
 10
40.4369
 20
-44.4114
 11
41.0451
 21
-44.2553
  0
LINE
  8
0
 10
41.0451
 20
-44.2553
 11
41.6289
 21
-44.0241
  0
LINE
  8
0
 10
41.6289
 20
-44.0241
 11
42.1791
 21
-43.7216
  0
LINE
  8
0
 10
42.1791
 20
-43.7216
 11
42.6871
 21
-43.3526
  0
LINE
  8
0
 10
42.6871
 20
-43.3526
 11
43.1448
 21
-42.9227
  0
LINE
  8
0
 10
43.1448
 20
-42.9227
 11
43.5451
 21
-42.4389
  0
LINE
  8
0
 10
43.5451
 20
-42.4389
 11
43.8815
 21
-41.9088
  0
LINE
  8
0
 10
43.8815
 20
-41.9088
 11
44.1489
 21
-41.3406
  0
LINE
  8
0
 10
44.1489
 20
-41.3406
 11
44.3429
 21
-40.7434
  0
LINE
  8
0
 10
44.3429
 20
-40.7434
 11
44.4606
 21
-40.1267
  0
LINE
  8
0
 10
44.4606
 20
-40.1267
 11
44.5
 21
-39.5
  0
LINE
  8
0
 10
44.5
 20
-39.5
 11
44.5
 21
39.5
  0
LINE
  8
0
 10
44.5
 20
39.5
 11
44.4606
 21
40.1267
  0
LINE
  8
0
 10
44.4606
 20
40.1267
 11
44.3429
 21
40.7434
  0
LINE
  8
0
 10
44.3429
 20
40.7434
 11
44.1489
 21
41.3406
  0
LINE
  8
0
 10
44.1489
 20
41.3406
 11
43.8815
 21
41.9088
  0
LINE
  8
0
 10
43.8815
 20
41.9088
 11
43.5451
 21
42.4389
  0
LINE
  8
0
 10
43.5451
 20
42.4389
 11
43.1448
 21
42.9227
  0
LINE
  8
0
 10
43.1448
 20
42.9227
 11
42.6871
 21
43.3526
  0
LINE
  8
0
 10
42.6871
 20
43.3526
 11
42.1791
 21
43.7216
  0
LINE
  8
0
 10
42.1791
 20
43.7216
 11
41.6289
 21
44.0241
  0
LINE
  8
0
 10
41.6289
 20
44.0241
 11
41.0451
 21
44.2553
  0
LINE
  8
0
 10
41.0451
 20
44.2553
 11
40.4369
 21
44.4114
  0
LINE
  8
0
 10
40.4369
 20
44.4114
 11
39.8139
 21
44.4901
  0
LINE
  8
0
 10
39.8139
 20
44.4901
 11
-39.8139
 21
44.4901
  0
LINE
  8
0
 10
-39.8139
 20
44.4901
 11
-40.4369
 21
44.4114
  0
LINE
  8
0
 10
-40.4369
 20
44.4114
 11
-41.0451
 21
44.2553
  0
LINE
  8
0
 10
-41.0451
 20
44.2553
 11
-41.6289
 21
44.0241
  0
LINE
  8
0
 10
-41.6289
 20
44.0241
 11
-42.1791
 21
43.7216
  0
LINE
  8
0
 10
-42.1791
 20
43.7216
 11
-42.6871
 21
43.3526
  0
LINE
  8
0
 10
-42.6871
 20
43.3526
 11
-43.1448
 21
42.9227
  0
LINE
  8
0
 10
-43.1448
 20
42.9227
 11
-43.5451
 21
42.4389
  0
LINE
  8
0
 10
-43.5451
 20
42.4389
 11
-43.8815
 21
41.9088
  0
LINE
  8
0
 10
-43.8815
 20
41.9088
 11
-44.1489
 21
41.3406
  0
LINE
  8
0
 10
-44.1489
 20
41.3406
 11
-44.3429
 21
40.7434
  0
LINE
  8
0
 10
-44.3429
 20
40.7434
 11
-44.4606
 21
40.1267
  0
LINE
  8
0
 10
-44.4606
 20
40.1267
 11
-44.5
 21
39.5
  0
LINE
  8
0
 10
-44.5
 20
39.5
 11
-44.5
 21
-39.5
  0
LINE
  8
0
 10
-44.5
 20
-39.5
 11
-44.4606
 21
-40.1267
  0
LINE
  8
0
 10
-44.4606
 20
-40.1267
 11
-44.3429
 21
-40.7434
  0
LINE
  8
0
 10
-44.3429
 20
-40.7434
 11
-44.1489
 21
-41.3406
  0
LINE
  8
0
 10
-44.1489
 20
-41.3406
 11
-43.8815
 21
-41.9088
  0
LINE
  8
0
 10
-43.8815
 20
-41.9088
 11
-43.5451
 21
-42.4389
  0
LINE
  8
0
 10
-43.5451
 20
-42.4389
 11
-43.1448
 21
-42.9227
  0
LINE
  8
0
 10
-43.1448
 20
-42.9227
 11
-42.6871
 21
-43.3526
  0
LINE
  8
0
 10
-42.6871
 20
-43.3526
 11
-42.1791
 21
-43.7216
  0
LINE
  8
0
 10
-42.1791
 20
-43.7216
 11
-41.6289
 21
-44.0241
  0
LINE
  8
0
 10
-41.6289
 20
-44.0241
 11
-41.0451
 21
-44.2553
  0
LINE
  8
0
 10
-41.0451
 20
-44.2553
 11
-40.4369
 21
-44.4114
  0
LINE
  8
0
 10
-40.4369
 20
-44.4114
 11
-39.8139
 21
-44.4901
  0
LINE
  8
0
 10
-39.8139
 20
-44.4901
 11
39.8139
 21
-44.4901
  0
LINE
  8
0
 10
39.8139
 20
-44.4901
 11
40.4369
 21
-44.4114
  0
LINE
  8
0
 10
22.3116
 20
34.5059
 11
21.9379
 21
34.5531
  0
LINE
  8
0
 10
21.9379
 20
34.5531
 11
21.5729
 21
34.6468
  0
LINE
  8
0
 10
21.5729
 20
34.6468
 11
21.2227
 21
34.7855
  0
LINE
  8
0
 10
21.2227
 20
34.7855
 11
20.8925
 21
34.967
  0
LINE
  8
0
 10
20.8925
 20
34.967
 11
20.5877
 21
35.1885
  0
LINE
  8
0
 10
20.5877
 20
35.1885
 11
20.3131
 21
35.4464
  0
LINE
  8
0
 10
20.3131
 20
35.4464
 11
20.0729
 21
35.7366
  0
LINE
  8
0
 10
20.0729
 20
35.7366
 11
19.8711
 21
36.0547
  0
LINE
  8
0
 10
19.8711
 20
36.0547
 11
19.7107
 21
36.3956
  0
LINE
  8
0
 10
19.7107
 20
36.3956
 11
19.5942
 21
36.7539
  0
LINE
  8
0
 10
19.5942
 20
36.7539
 11
19.5237
 21
37.124
  0
LINE
  8
0
 10
19.5237
 20
37.124
 11
19.5
 21
37.5
  0
LINE
  8
0
 10
19.5
 20
37.5
 11
19.5237
 21
37.876
  0
LINE
  8
0
 10
19.5237
 20
37.876
 11
19.5942
 21
38.2461
  0
LINE
  8
0
 10
19.5942
 20
38.2461
 11
19.7107
 21
38.6044
  0
LINE
  8
0
 10
19.7107
 20
38.6044
 11
19.8711
 21
38.9453
  0
LINE
  8
0
 10
19.8711
 20
38.9453
 11
20.0729
 21
39.2634
  0
LINE
  8
0
 10
20.0729
 20
39.2634
 11
20.3131
 21
39.5536
  0
LINE
  8
0
 10
20.3131
 20
39.5536
 11
20.5877
 21
39.8115
  0
LINE
  8
0
 10
20.5877
 20
39.8115
 11
20.8925
 21
40.033
  0
LINE
  8
0
 10
20.8925
 20
40.033
 11
21.2227
 21
40.2145
  0
LINE
  8
0
 10
21.2227
 20
40.2145
 11
21.5729
 21
40.3532
  0
LINE
  8
0
 10
21.5729
 20
40.3532
 11
21.9379
 21
40.4469
  0
LINE
  8
0
 10
21.9379
 20
40.4469
 11
22.3116
 21
40.4941
  0
LINE
  8
0
 10
22.3116
 20
40.4941
 11
22.6884
 21
40.4941
  0
LINE
  8
0
 10
22.6884
 20
40.4941
 11
23.0621
 21
40.4469
  0
LINE
  8
0
 10
23.0621
 20
40.4469
 11
23.427
 21
40.3532
  0
LINE
  8
0
 10
23.427
 20
40.3532
 11
23.7773
 21
40.2145
  0
LINE
  8
0
 10
23.7773
 20
40.2145
 11
24.1075
 21
40.033
  0
LINE
  8
0
 10
24.1075
 20
40.033
 11
24.4123
 21
39.8115
  0
LINE
  8
0
 10
24.4123
 20
39.8115
 11
24.6869
 21
39.5536
  0
LINE
  8
0
 10
24.6869
 20
39.5536
 11
24.927
 21
39.2634
  0
LINE
  8
0
 10
24.927
 20
39.2634
 11
25.1289
 21
38.9453
  0
LINE
  8
0
 10
25.1289
 20
38.9453
 11
25.2893
 21
38.6044
  0
LINE
  8
0
 10
25.2893
 20
38.6044
 11
25.4057
 21
38.2461
  0
LINE
  8
0
 10
25.4057
 20
38.2461
 11
25.4763
 21
37.876
  0
LINE
  8
0
 10
25.4763
 20
37.876
 11
25.5
 21
37.5
  0
LINE
  8
0
 10
25.5
 20
37.5
 11
25.4763
 21
37.124
  0
LINE
  8
0
 10
25.4763
 20
37.124
 11
25.4057
 21
36.7539
  0
LINE
  8
0
 10
25.4057
 20
36.7539
 11
25.2893
 21
36.3956
  0
LINE
  8
0
 10
25.2893
 20
36.3956
 11
25.1289
 21
36.0547
  0
LINE
  8
0
 10
25.1289
 20
36.0547
 11
24.927
 21
35.7366
  0
LINE
  8
0
 10
24.927
 20
35.7366
 11
24.6869
 21
35.4464
  0
LINE
  8
0
 10
24.6869
 20
35.4464
 11
24.4123
 21
35.1885
  0
LINE
  8
0
 10
24.4123
 20
35.1885
 11
24.1075
 21
34.967
  0
LINE
  8
0
 10
24.1075
 20
34.967
 11
23.7773
 21
34.7855
  0
LINE
  8
0
 10
23.7773
 20
34.7855
 11
23.427
 21
34.6468
  0
LINE
  8
0
 10
23.427
 20
34.6468
 11
23.0621
 21
34.5531
  0
LINE
  8
0
 10
23.0621
 20
34.5531
 11
22.6884
 21
34.5059
  0
LINE
  8
0
 10
22.6884
 20
34.5059
 11
22.3116
 21
34.5059
  0
LINE
  8
0
 10
-7.68837
 20
34.5059
 11
-8.06213
 21
34.5531
  0
LINE
  8
0
 10
-8.06213
 20
34.5531
 11
-8.42705
 21
34.6468
  0
LINE
  8
0
 10
-8.42705
 20
34.6468
 11
-8.77733
 21
34.7855
  0
LINE
  8
0
 10
-8.77733
 20
34.7855
 11
-9.10747
 21
34.967
  0
LINE
  8
0
 10
-9.10747
 20
34.967
 11
-9.41226
 21
35.1885
  0
LINE
  8
0
 10
-9.41226
 20
35.1885
 11
-9.6869
 21
35.4464
  0
LINE
  8
0
 10
-9.6869
 20
35.4464
 11
-9.92705
 21
35.7366
  0
LINE
  8
0
 10
-9.92705
 20
35.7366
 11
-10.1289
 21
36.0547
  0
LINE
  8
0
 10
-10.1289
 20
36.0547
 11
-10.2893
 21
36.3956
  0
LINE
  8
0
 10
-10.2893
 20
36.3956
 11
-10.4057
 21
36.7539
  0
LINE
  8
0
 10
-10.4057
 20
36.7539
 11
-10.4763
 21
37.124
  0
LINE
  8
0
 10
-10.4763
 20
37.124
 11
-10.5
 21
37.5
  0
LINE
  8
0
 10
-10.5
 20
37.5
 11
-10.4763
 21
37.876
  0
LINE
  8
0
 10
-10.4763
 20
37.876
 11
-10.4057
 21
38.2461
  0
LINE
  8
0
 10
-10.4057
 20
38.2461
 11
-10.2893
 21
38.6044
  0
LINE
  8
0
 10
-10.2893
 20
38.6044
 11
-10.1289
 21
38.9453
  0
LINE
  8
0
 10
-10.1289
 20
38.9453
 11
-9.92705
 21
39.2634
  0
LINE
  8
0
 10
-9.92705
 20
39.2634
 11
-9.6869
 21
39.5536
  0
LINE
  8
0
 10
-9.6869
 20
39.5536
 11
-9.41226
 21
39.8115
  0
LINE
  8
0
 10
-9.41226
 20
39.8115
 11
-9.10747
 21
40.033
  0
LINE
  8
0
 10
-9.10747
 20
40.033
 11
-8.77733
 21
40.2145
  0
LINE
  8
0
 10
-8.77733
 20
40.2145
 11
-8.42705
 21
40.3532
  0
LINE
  8
0
 10
-8.42705
 20
40.3532
 11
-8.06213
 21
40.4469
  0
LINE
  8
0
 10
-8.06213
 20
40.4469
 11
-7.68837
 21
40.4941
  0
LINE
  8
0
 10
-7.68837
 20
40.4941
 11
-7.31161
 21
40.4941
  0
LINE
  8
0
 10
-7.31161
 20
40.4941
 11
-6.93785
 21
40.4469
  0
LINE
  8
0
 10
-6.93785
 20
40.4469
 11
-6.57294
 21
40.3532
  0
LINE
  8
0
 10
-6.57294
 20
40.3532
 11
-6.22266
 21
40.2145
  0
LINE
  8
0
 10
-6.22266
 20
40.2145
 11
-5.89252
 21
40.033
  0
LINE
  8
0
 10
-5.89252
 20
40.033
 11
-5.58772
 21
39.8115
  0
LINE
  8
0
 10
-5.58772
 20
39.8115
 11
-5.31308
 21
39.5536
  0
LINE
  8
0
 10
-5.31308
 20
39.5536
 11
-5.07294
 21
39.2634
  0
LINE
  8
0
 10
-5.07294
 20
39.2634
 11
-4.87108
 21
38.9453
  0
LINE
  8
0
 10
-4.87108
 20
38.9453
 11
-4.71066
 21
38.6044
  0
LINE
  8
0
 10
-4.71066
 20
38.6044
 11
-4.59424
 21
38.2461
  0
LINE
  8
0
 10
-4.59424
 20
38.2461
 11
-4.52365
 21
37.876
  0
LINE
  8
0
 10
-4.52365
 20
37.876
 11
-4.5
 21
37.5
  0
LINE
  8
0
 10
-4.5
 20
37.5
 11
-4.52365
 21
37.124
  0
LINE
  8
0
 10
-4.52365
 20
37.124
 11
-4.59424
 21
36.7539
  0
LINE
  8
0
 10
-4.59424
 20
36.7539
 11
-4.71066
 21
36.3956
  0
LINE
  8
0
 10
-4.71066
 20
36.3956
 11
-4.87108
 21
36.0547
  0
LINE
  8
0
 10
-4.87108
 20
36.0547
 11
-5.07294
 21
35.7366
  0
LINE
  8
0
 10
-5.07294
 20
35.7366
 11
-5.31308
 21
35.4464
  0
LINE
  8
0
 10
-5.31308
 20
35.4464
 11
-5.58772
 21
35.1885
  0
LINE
  8
0
 10
-5.58772
 20
35.1885
 11
-5.89252
 21
34.967
  0
LINE
  8
0
 10
-5.89252
 20
34.967
 11
-6.22266
 21
34.7855
  0
LINE
  8
0
 10
-6.22266
 20
34.7855
 11
-6.57294
 21
34.6468
  0
LINE
  8
0
 10
-6.57294
 20
34.6468
 11
-6.93785
 21
34.5531
  0
LINE
  8
0
 10
-6.93785
 20
34.5531
 11
-7.31161
 21
34.5059
  0
LINE
  8
0
 10
-7.31161
 20
34.5059
 11
-7.68837
 21
34.5059
  0
LINE
  8
0
 10
37.3116
 20
34.5059
 11
36.9379
 21
34.5531
  0
LINE
  8
0
 10
36.9379
 20
34.5531
 11
36.5729
 21
34.6468
  0
LINE
  8
0
 10
36.5729
 20
34.6468
 11
36.2227
 21
34.7855
  0
LINE
  8
0
 10
36.2227
 20
34.7855
 11
35.8925
 21
34.967
  0
LINE
  8
0
 10
35.8925
 20
34.967
 11
35.5877
 21
35.1885
  0
LINE
  8
0
 10
35.5877
 20
35.1885
 11
35.3131
 21
35.4464
  0
LINE
  8
0
 10
35.3131
 20
35.4464
 11
35.0729
 21
35.7366
  0
LINE
  8
0
 10
35.0729
 20
35.7366
 11
34.8711
 21
36.0547
  0
LINE
  8
0
 10
34.8711
 20
36.0547
 11
34.7107
 21
36.3956
  0
LINE
  8
0
 10
34.7107
 20
36.3956
 11
34.5942
 21
36.7539
  0
LINE
  8
0
 10
34.5942
 20
36.7539
 11
34.5237
 21
37.124
  0
LINE
  8
0
 10
34.5237
 20
37.124
 11
34.5
 21
37.5
  0
LINE
  8
0
 10
34.5
 20
37.5
 11
34.5237
 21
37.876
  0
LINE
  8
0
 10
34.5237
 20
37.876
 11
34.5942
 21
38.2461
  0
LINE
  8
0
 10
34.5942
 20
38.2461
 11
34.7107
 21
38.6044
  0
LINE
  8
0
 10
34.7107
 20
38.6044
 11
34.8711
 21
38.9453
  0
LINE
  8
0
 10
34.8711
 20
38.9453
 11
35.0729
 21
39.2634
  0
LINE
  8
0
 10
35.0729
 20
39.2634
 11
35.3131
 21
39.5536
  0
LINE
  8
0
 10
35.3131
 20
39.5536
 11
35.5877
 21
39.8115
  0
LINE
  8
0
 10
35.5877
 20
39.8115
 11
35.8925
 21
40.033
  0
LINE
  8
0
 10
35.8925
 20
40.033
 11
36.2227
 21
40.2145
  0
LINE
  8
0
 10
36.2227
 20
40.2145
 11
36.5729
 21
40.3532
  0
LINE
  8
0
 10
36.5729
 20
40.3532
 11
36.9379
 21
40.4469
  0
LINE
  8
0
 10
36.9379
 20
40.4469
 11
37.3116
 21
40.4941
  0
LINE
  8
0
 10
37.3116
 20
40.4941
 11
37.6884
 21
40.4941
  0
LINE
  8
0
 10
37.6884
 20
40.4941
 11
38.0621
 21
40.4469
  0
LINE
  8
0
 10
38.0621
 20
40.4469
 11
38.427
 21
40.3532
  0
LINE
  8
0
 10
38.427
 20
40.3532
 11
38.7773
 21
40.2145
  0
LINE
  8
0
 10
38.7773
 20
40.2145
 11
39.1075
 21
40.033
  0
LINE
  8
0
 10
39.1075
 20
40.033
 11
39.4123
 21
39.8115
  0
LINE
  8
0
 10
39.4123
 20
39.8115
 11
39.6869
 21
39.5536
  0
LINE
  8
0
 10
39.6869
 20
39.5536
 11
39.927
 21
39.2634
  0
LINE
  8
0
 10
39.927
 20
39.2634
 11
40.1289
 21
38.9453
  0
LINE
  8
0
 10
40.1289
 20
38.9453
 11
40.2893
 21
38.6044
  0
LINE
  8
0
 10
40.2893
 20
38.6044
 11
40.4057
 21
38.2461
  0
LINE
  8
0
 10
40.4057
 20
38.2461
 11
40.4763
 21
37.876
  0
LINE
  8
0
 10
40.4763
 20
37.876
 11
40.5
 21
37.5
  0
LINE
  8
0
 10
40.5
 20
37.5
 11
40.4763
 21
37.124
  0
LINE
  8
0
 10
40.4763
 20
37.124
 11
40.4057
 21
36.7539
  0
LINE
  8
0
 10
40.4057
 20
36.7539
 11
40.2893
 21
36.3956
  0
LINE
  8
0
 10
40.2893
 20
36.3956
 11
40.1289
 21
36.0547
  0
LINE
  8
0
 10
40.1289
 20
36.0547
 11
39.927
 21
35.7366
  0
LINE
  8
0
 10
39.927
 20
35.7366
 11
39.6869
 21
35.4464
  0
LINE
  8
0
 10
39.6869
 20
35.4464
 11
39.4123
 21
35.1885
  0
LINE
  8
0
 10
39.4123
 20
35.1885
 11
39.1075
 21
34.967
  0
LINE
  8
0
 10
39.1075
 20
34.967
 11
38.7773
 21
34.7855
  0
LINE
  8
0
 10
38.7773
 20
34.7855
 11
38.427
 21
34.6468
  0
LINE
  8
0
 10
38.427
 20
34.6468
 11
38.0621
 21
34.5531
  0
LINE
  8
0
 10
38.0621
 20
34.5531
 11
37.6884
 21
34.5059
  0
LINE
  8
0
 10
37.6884
 20
34.5059
 11
37.3116
 21
34.5059
  0
LINE
  8
0
 10
-25.4057
 20
38.2461
 11
-25.2893
 21
38.6044
  0
LINE
  8
0
 10
-25.2893
 20
38.6044
 11
-25.1289
 21
38.9453
  0
LINE
  8
0
 10
-25.1289
 20
38.9453
 11
-24.927
 21
39.2634
  0
LINE
  8
0
 10
-24.927
 20
39.2634
 11
-24.6869
 21
39.5536
  0
LINE
  8
0
 10
-24.6869
 20
39.5536
 11
-24.4123
 21
39.8115
  0
LINE
  8
0
 10
-24.4123
 20
39.8115
 11
-24.1075
 21
40.033
  0
LINE
  8
0
 10
-24.1075
 20
40.033
 11
-23.7773
 21
40.2145
  0
LINE
  8
0
 10
-23.7773
 20
40.2145
 11
-23.427
 21
40.3532
  0
LINE
  8
0
 10
-23.427
 20
40.3532
 11
-23.0621
 21
40.4469
  0
LINE
  8
0
 10
-23.0621
 20
40.4469
 11
-22.6884
 21
40.4941
  0
LINE
  8
0
 10
-22.6884
 20
40.4941
 11
-22.3116
 21
40.4941
  0
LINE
  8
0
 10
-22.3116
 20
40.4941
 11
-21.9379
 21
40.4469
  0
LINE
  8
0
 10
-21.9379
 20
40.4469
 11
-21.5729
 21
40.3532
  0
LINE
  8
0
 10
-21.5729
 20
40.3532
 11
-21.2227
 21
40.2145
  0
LINE
  8
0
 10
-21.2227
 20
40.2145
 11
-20.8925
 21
40.033
  0
LINE
  8
0
 10
-20.8925
 20
40.033
 11
-20.5877
 21
39.8115
  0
LINE
  8
0
 10
-20.5877
 20
39.8115
 11
-20.3131
 21
39.5536
  0
LINE
  8
0
 10
-20.3131
 20
39.5536
 11
-20.0729
 21
39.2634
  0
LINE
  8
0
 10
-20.0729
 20
39.2634
 11
-19.8711
 21
38.9453
  0
LINE
  8
0
 10
-19.8711
 20
38.9453
 11
-19.7107
 21
38.6044
  0
LINE
  8
0
 10
-19.7107
 20
38.6044
 11
-19.5942
 21
38.2461
  0
LINE
  8
0
 10
-19.5942
 20
38.2461
 11
-19.5237
 21
37.876
  0
LINE
  8
0
 10
-19.5237
 20
37.876
 11
-19.5
 21
37.5
  0
LINE
  8
0
 10
-19.5
 20
37.5
 11
-19.5237
 21
37.124
  0
LINE
  8
0
 10
-19.5237
 20
37.124
 11
-19.5942
 21
36.7539
  0
LINE
  8
0
 10
-19.5942
 20
36.7539
 11
-19.7107
 21
36.3956
  0
LINE
  8
0
 10
-19.7107
 20
36.3956
 11
-19.8711
 21
36.0547
  0
LINE
  8
0
 10
-19.8711
 20
36.0547
 11
-20.0729
 21
35.7366
  0
LINE
  8
0
 10
-20.0729
 20
35.7366
 11
-20.3131
 21
35.4464
  0
LINE
  8
0
 10
-20.3131
 20
35.4464
 11
-20.5877
 21
35.1885
  0
LINE
  8
0
 10
-20.5877
 20
35.1885
 11
-20.8925
 21
34.967
  0
LINE
  8
0
 10
-20.8925
 20
34.967
 11
-21.2227
 21
34.7855
  0
LINE
  8
0
 10
-21.2227
 20
34.7855
 11
-21.5729
 21
34.6468
  0
LINE
  8
0
 10
-21.5729
 20
34.6468
 11
-21.9379
 21
34.5531
  0
LINE
  8
0
 10
-21.9379
 20
34.5531
 11
-22.3116
 21
34.5059
  0
LINE
  8
0
 10
-22.3116
 20
34.5059
 11
-22.6884
 21
34.5059
  0
LINE
  8
0
 10
-22.6884
 20
34.5059
 11
-23.0621
 21
34.5531
  0
LINE
  8
0
 10
-23.0621
 20
34.5531
 11
-23.427
 21
34.6468
  0
LINE
  8
0
 10
-23.427
 20
34.6468
 11
-23.7773
 21
34.7855
  0
LINE
  8
0
 10
-23.7773
 20
34.7855
 11
-24.1075
 21
34.967
  0
LINE
  8
0
 10
-24.1075
 20
34.967
 11
-24.4123
 21
35.1885
  0
LINE
  8
0
 10
-24.4123
 20
35.1885
 11
-24.6869
 21
35.4464
  0
LINE
  8
0
 10
-24.6869
 20
35.4464
 11
-24.927
 21
35.7366
  0
LINE
  8
0
 10
-24.927
 20
35.7366
 11
-25.1289
 21
36.0547
  0
LINE
  8
0
 10
-25.1289
 20
36.0547
 11
-25.2893
 21
36.3956
  0
LINE
  8
0
 10
-25.2893
 20
36.3956
 11
-25.4057
 21
36.7539
  0
LINE
  8
0
 10
-25.4057
 20
36.7539
 11
-25.4763
 21
37.124
  0
LINE
  8
0
 10
-25.4763
 20
37.124
 11
-25.5
 21
37.5
  0
LINE
  8
0
 10
-25.5
 20
37.5
 11
-25.4763
 21
37.876
  0
LINE
  8
0
 10
-25.4763
 20
37.876
 11
-25.4057
 21
38.2461
  0
LINE
  8
0
 10
-37.6884
 20
34.5059
 11
-38.0621
 21
34.5531
  0
LINE
  8
0
 10
-38.0621
 20
34.5531
 11
-38.427
 21
34.6468
  0
LINE
  8
0
 10
-38.427
 20
34.6468
 11
-38.7773
 21
34.7855
  0
LINE
  8
0
 10
-38.7773
 20
34.7855
 11
-39.1075
 21
34.967
  0
LINE
  8
0
 10
-39.1075
 20
34.967
 11
-39.4123
 21
35.1885
  0
LINE
  8
0
 10
-39.4123
 20
35.1885
 11
-39.6869
 21
35.4464
  0
LINE
  8
0
 10
-39.6869
 20
35.4464
 11
-39.927
 21
35.7366
  0
LINE
  8
0
 10
-39.927
 20
35.7366
 11
-40.1289
 21
36.0547
  0
LINE
  8
0
 10
-40.1289
 20
36.0547
 11
-40.2893
 21
36.3956
  0
LINE
  8
0
 10
-40.2893
 20
36.3956
 11
-40.4057
 21
36.7539
  0
LINE
  8
0
 10
-40.4057
 20
36.7539
 11
-40.4763
 21
37.124
  0
LINE
  8
0
 10
-40.4763
 20
37.124
 11
-40.5
 21
37.5
  0
LINE
  8
0
 10
-40.5
 20
37.5
 11
-40.4763
 21
37.876
  0
LINE
  8
0
 10
-40.4763
 20
37.876
 11
-40.4057
 21
38.2461
  0
LINE
  8
0
 10
-40.4057
 20
38.2461
 11
-40.2893
 21
38.6044
  0
LINE
  8
0
 10
-40.2893
 20
38.6044
 11
-40.1289
 21
38.9453
  0
LINE
  8
0
 10
-40.1289
 20
38.9453
 11
-39.927
 21
39.2634
  0
LINE
  8
0
 10
-39.927
 20
39.2634
 11
-39.6869
 21
39.5536
  0
LINE
  8
0
 10
-39.6869
 20
39.5536
 11
-39.4123
 21
39.8115
  0
LINE
  8
0
 10
-39.4123
 20
39.8115
 11
-39.1075
 21
40.033
  0
LINE
  8
0
 10
-39.1075
 20
40.033
 11
-38.7773
 21
40.2145
  0
LINE
  8
0
 10
-38.7773
 20
40.2145
 11
-38.427
 21
40.3532
  0
LINE
  8
0
 10
-38.427
 20
40.3532
 11
-38.0621
 21
40.4469
  0
LINE
  8
0
 10
-38.0621
 20
40.4469
 11
-37.6884
 21
40.4941
  0
LINE
  8
0
 10
-37.6884
 20
40.4941
 11
-37.3116
 21
40.4941
  0
LINE
  8
0
 10
-37.3116
 20
40.4941
 11
-36.9379
 21
40.4469
  0
LINE
  8
0
 10
-36.9379
 20
40.4469
 11
-36.5729
 21
40.3532
  0
LINE
  8
0
 10
-36.5729
 20
40.3532
 11
-36.2227
 21
40.2145
  0
LINE
  8
0
 10
-36.2227
 20
40.2145
 11
-35.8925
 21
40.033
  0
LINE
  8
0
 10
-35.8925
 20
40.033
 11
-35.5877
 21
39.8115
  0
LINE
  8
0
 10
-35.5877
 20
39.8115
 11
-35.3131
 21
39.5536
  0
LINE
  8
0
 10
-35.3131
 20
39.5536
 11
-35.0729
 21
39.2634
  0
LINE
  8
0
 10
-35.0729
 20
39.2634
 11
-34.8711
 21
38.9453
  0
LINE
  8
0
 10
-34.8711
 20
38.9453
 11
-34.7107
 21
38.6044
  0
LINE
  8
0
 10
-34.7107
 20
38.6044
 11
-34.5942
 21
38.2461
  0
LINE
  8
0
 10
-34.5942
 20
38.2461
 11
-34.5237
 21
37.876
  0
LINE
  8
0
 10
-34.5237
 20
37.876
 11
-34.5
 21
37.5
  0
LINE
  8
0
 10
-34.5
 20
37.5
 11
-34.5237
 21
37.124
  0
LINE
  8
0
 10
-34.5237
 20
37.124
 11
-34.5942
 21
36.7539
  0
LINE
  8
0
 10
-34.5942
 20
36.7539
 11
-34.7107
 21
36.3956
  0
LINE
  8
0
 10
-34.7107
 20
36.3956
 11
-34.8711
 21
36.0547
  0
LINE
  8
0
 10
-34.8711
 20
36.0547
 11
-35.0729
 21
35.7366
  0
LINE
  8
0
 10
-35.0729
 20
35.7366
 11
-35.3131
 21
35.4464
  0
LINE
  8
0
 10
-35.3131
 20
35.4464
 11
-35.5877
 21
35.1885
  0
LINE
  8
0
 10
-35.5877
 20
35.1885
 11
-35.8925
 21
34.967
  0
LINE
  8
0
 10
-35.8925
 20
34.967
 11
-36.2227
 21
34.7855
  0
LINE
  8
0
 10
-36.2227
 20
34.7855
 11
-36.5729
 21
34.6468
  0
LINE
  8
0
 10
-36.5729
 20
34.6468
 11
-36.9379
 21
34.5531
  0
LINE
  8
0
 10
-36.9379
 20
34.5531
 11
-37.3116
 21
34.5059
  0
LINE
  8
0
 10
-37.3116
 20
34.5059
 11
-37.6884
 21
34.5059
  0
LINE
  8
0
 10
7.31161
 20
34.5059
 11
6.93785
 21
34.5531
  0
LINE
  8
0
 10
6.93785
 20
34.5531
 11
6.57294
 21
34.6468
  0
LINE
  8
0
 10
6.57294
 20
34.6468
 11
6.22266
 21
34.7855
  0
LINE
  8
0
 10
6.22266
 20
34.7855
 11
5.89252
 21
34.967
  0
LINE
  8
0
 10
5.89252
 20
34.967
 11
5.58772
 21
35.1885
  0
LINE
  8
0
 10
5.58772
 20
35.1885
 11
5.31308
 21
35.4464
  0
LINE
  8
0
 10
5.31308
 20
35.4464
 11
5.07294
 21
35.7366
  0
LINE
  8
0
 10
5.07294
 20
35.7366
 11
4.87108
 21
36.0547
  0
LINE
  8
0
 10
4.87108
 20
36.0547
 11
4.71066
 21
36.3956
  0
LINE
  8
0
 10
4.71066
 20
36.3956
 11
4.59424
 21
36.7539
  0
LINE
  8
0
 10
4.59424
 20
36.7539
 11
4.52365
 21
37.124
  0
LINE
  8
0
 10
4.52365
 20
37.124
 11
4.5
 21
37.5
  0
LINE
  8
0
 10
4.5
 20
37.5
 11
4.52365
 21
37.876
  0
LINE
  8
0
 10
4.52365
 20
37.876
 11
4.59424
 21
38.2461
  0
LINE
  8
0
 10
4.59424
 20
38.2461
 11
4.71066
 21
38.6044
  0
LINE
  8
0
 10
4.71066
 20
38.6044
 11
4.87108
 21
38.9453
  0
LINE
  8
0
 10
4.87108
 20
38.9453
 11
5.07294
 21
39.2634
  0
LINE
  8
0
 10
5.07294
 20
39.2634
 11
5.31308
 21
39.5536
  0
LINE
  8
0
 10
5.31308
 20
39.5536
 11
5.58772
 21
39.8115
  0
LINE
  8
0
 10
5.58772
 20
39.8115
 11
5.89252
 21
40.033
  0
LINE
  8
0
 10
5.89252
 20
40.033
 11
6.22266
 21
40.2145
  0
LINE
  8
0
 10
6.22266
 20
40.2145
 11
6.57294
 21
40.3532
  0
LINE
  8
0
 10
6.57294
 20
40.3532
 11
6.93785
 21
40.4469
  0
LINE
  8
0
 10
6.93785
 20
40.4469
 11
7.31161
 21
40.4941
  0
LINE
  8
0
 10
7.31161
 20
40.4941
 11
7.68837
 21
40.4941
  0
LINE
  8
0
 10
7.68837
 20
40.4941
 11
8.06213
 21
40.4469
  0
LINE
  8
0
 10
8.06213
 20
40.4469
 11
8.42705
 21
40.3532
  0
LINE
  8
0
 10
8.42705
 20
40.3532
 11
8.77733
 21
40.2145
  0
LINE
  8
0
 10
8.77733
 20
40.2145
 11
9.10747
 21
40.033
  0
LINE
  8
0
 10
9.10747
 20
40.033
 11
9.41226
 21
39.8115
  0
LINE
  8
0
 10
9.41226
 20
39.8115
 11
9.6869
 21
39.5536
  0
LINE
  8
0
 10
9.6869
 20
39.5536
 11
9.92705
 21
39.2634
  0
LINE
  8
0
 10
9.92705
 20
39.2634
 11
10.1289
 21
38.9453
  0
LINE
  8
0
 10
10.1289
 20
38.9453
 11
10.2893
 21
38.6044
  0
LINE
  8
0
 10
10.2893
 20
38.6044
 11
10.4057
 21
38.2461
  0
LINE
  8
0
 10
10.4057
 20
38.2461
 11
10.4763
 21
37.876
  0
LINE
  8
0
 10
10.4763
 20
37.876
 11
10.5
 21
37.5
  0
LINE
  8
0
 10
10.5
 20
37.5
 11
10.4763
 21
37.124
  0
LINE
  8
0
 10
10.4763
 20
37.124
 11
10.4057
 21
36.7539
  0
LINE
  8
0
 10
10.4057
 20
36.7539
 11
10.2893
 21
36.3956
  0
LINE
  8
0
 10
10.2893
 20
36.3956
 11
10.1289
 21
36.0547
  0
LINE
  8
0
 10
10.1289
 20
36.0547
 11
9.92705
 21
35.7366
  0
LINE
  8
0
 10
9.92705
 20
35.7366
 11
9.6869
 21
35.4464
  0
LINE
  8
0
 10
9.6869
 20
35.4464
 11
9.41226
 21
35.1885
  0
LINE
  8
0
 10
9.41226
 20
35.1885
 11
9.10747
 21
34.967
  0
LINE
  8
0
 10
9.10747
 20
34.967
 11
8.77733
 21
34.7855
  0
LINE
  8
0
 10
8.77733
 20
34.7855
 11
8.42705
 21
34.6468
  0
LINE
  8
0
 10
8.42705
 20
34.6468
 11
8.06213
 21
34.5531
  0
LINE
  8
0
 10
8.06213
 20
34.5531
 11
7.68837
 21
34.5059
  0
LINE
  8
0
 10
7.68837
 20
34.5059
 11
7.31161
 21
34.5059
  0
LINE
  8
0
 10
14.9058
 20
36.003
 11
14.7189
 21
36.0266
  0
LINE
  8
0
 10
14.7189
 20
36.0266
 11
14.5365
 21
36.0734
  0
LINE
  8
0
 10
14.5365
 20
36.0734
 11
14.3613
 21
36.1428
  0
LINE
  8
0
 10
14.3613
 20
36.1428
 11
14.1963
 21
36.2335
  0
LINE
  8
0
 10
14.1963
 20
36.2335
 11
14.0439
 21
36.3442
  0
LINE
  8
0
 10
14.0439
 20
36.3442
 11
13.9065
 21
36.4732
  0
LINE
  8
0
 10
13.9065
 20
36.4732
 11
13.7865
 21
36.6183
  0
LINE
  8
0
 10
13.7865
 20
36.6183
 11
13.6855
 21
36.7774
  0
LINE
  8
0
 10
13.6855
 20
36.7774
 11
13.6053
 21
36.9478
  0
LINE
  8
0
 10
13.6053
 20
36.9478
 11
13.5471
 21
37.127
  0
LINE
  8
0
 10
13.5471
 20
37.127
 11
13.5118
 21
37.312
  0
LINE
  8
0
 10
13.5118
 20
37.312
 11
13.5
 21
37.5
  0
LINE
  8
0
 10
13.5
 20
37.5
 11
13.5118
 21
37.688
  0
LINE
  8
0
 10
13.5118
 20
37.688
 11
13.5471
 21
37.873
  0
LINE
  8
0
 10
13.5471
 20
37.873
 11
13.6053
 21
38.0522
  0
LINE
  8
0
 10
13.6053
 20
38.0522
 11
13.6855
 21
38.2226
  0
LINE
  8
0
 10
13.6855
 20
38.2226
 11
13.7865
 21
38.3817
  0
LINE
  8
0
 10
13.7865
 20
38.3817
 11
13.9065
 21
38.5268
  0
LINE
  8
0
 10
13.9065
 20
38.5268
 11
14.0439
 21
38.6558
  0
LINE
  8
0
 10
14.0439
 20
38.6558
 11
14.1963
 21
38.7665
  0
LINE
  8
0
 10
14.1963
 20
38.7665
 11
14.3613
 21
38.8572
  0
LINE
  8
0
 10
14.3613
 20
38.8572
 11
14.5365
 21
38.9266
  0
LINE
  8
0
 10
14.5365
 20
38.9266
 11
14.7189
 21
38.9734
  0
LINE
  8
0
 10
14.7189
 20
38.9734
 11
14.9058
 21
38.997
  0
LINE
  8
0
 10
14.9058
 20
38.997
 11
15.0942
 21
38.997
  0
LINE
  8
0
 10
15.0942
 20
38.997
 11
15.2811
 21
38.9734
  0
LINE
  8
0
 10
15.2811
 20
38.9734
 11
15.4635
 21
38.9266
  0
LINE
  8
0
 10
15.4635
 20
38.9266
 11
15.6387
 21
38.8572
  0
LINE
  8
0
 10
15.6387
 20
38.8572
 11
15.8037
 21
38.7665
  0
LINE
  8
0
 10
15.8037
 20
38.7665
 11
15.9561
 21
38.6558
  0
LINE
  8
0
 10
15.9561
 20
38.6558
 11
16.0934
 21
38.5268
  0
LINE
  8
0
 10
16.0934
 20
38.5268
 11
16.2135
 21
38.3817
  0
LINE
  8
0
 10
16.2135
 20
38.3817
 11
16.3145
 21
38.2226
  0
LINE
  8
0
 10
16.3145
 20
38.2226
 11
16.3947
 21
38.0522
  0
LINE
  8
0
 10
16.3947
 20
38.0522
 11
16.4529
 21
37.873
  0
LINE
  8
0
 10
16.4529
 20
37.873
 11
16.4882
 21
37.688
  0
LINE
  8
0
 10
16.4882
 20
37.688
 11
16.5
 21
37.5
  0
LINE
  8
0
 10
16.5
 20
37.5
 11
16.4882
 21
37.312
  0
LINE
  8
0
 10
16.4882
 20
37.312
 11
16.4529
 21
37.127
  0
LINE
  8
0
 10
16.4529
 20
37.127
 11
16.3947
 21
36.9478
  0
LINE
  8
0
 10
16.3947
 20
36.9478
 11
16.3145
 21
36.7774
  0
LINE
  8
0
 10
16.3145
 20
36.7774
 11
16.2135
 21
36.6183
  0
LINE
  8
0
 10
16.2135
 20
36.6183
 11
16.0934
 21
36.4732
  0
LINE
  8
0
 10
16.0934
 20
36.4732
 11
15.9561
 21
36.3442
  0
LINE
  8
0
 10
15.9561
 20
36.3442
 11
15.8037
 21
36.2335
  0
LINE
  8
0
 10
15.8037
 20
36.2335
 11
15.6387
 21
36.1428
  0
LINE
  8
0
 10
15.6387
 20
36.1428
 11
15.4635
 21
36.0734
  0
LINE
  8
0
 10
15.4635
 20
36.0734
 11
15.2811
 21
36.0266
  0
LINE
  8
0
 10
15.2811
 20
36.0266
 11
15.0942
 21
36.003
  0
LINE
  8
0
 10
15.0942
 20
36.003
 11
14.9058
 21
36.003
  0
LINE
  8
0
 10
-0.0941772
 20
36.003
 11
-0.281067
 21
36.0266
  0
LINE
  8
0
 10
-0.281067
 20
36.0266
 11
-0.463516
 21
36.0734
  0
LINE
  8
0
 10
-0.463516
 20
36.0734
 11
-0.638657
 21
36.1428
  0
LINE
  8
0
 10
-0.638657
 20
36.1428
 11
-0.803726
 21
36.2335
  0
LINE
  8
0
 10
-0.803726
 20
36.2335
 11
-0.956131
 21
36.3442
  0
LINE
  8
0
 10
-0.956131
 20
36.3442
 11
-1.09344
 21
36.4732
  0
LINE
  8
0
 10
-1.09344
 20
36.4732
 11
-1.21352
 21
36.6183
  0
LINE
  8
0
 10
-1.21352
 20
36.6183
 11
-1.31445
 21
36.7774
  0
LINE
  8
0
 10
-1.31445
 20
36.7774
 11
-1.39465
 21
36.9478
  0
LINE
  8
0
 10
-1.39465
 20
36.9478
 11
-1.45287
 21
37.127
  0
LINE
  8
0
 10
-1.45287
 20
37.127
 11
-1.48816
 21
37.312
  0
LINE
  8
0
 10
-1.48816
 20
37.312
 11
-1.5
 21
37.5
  0
LINE
  8
0
 10
-1.5
 20
37.5
 11
-1.48816
 21
37.688
  0
LINE
  8
0
 10
-1.48816
 20
37.688
 11
-1.45287
 21
37.873
  0
LINE
  8
0
 10
-1.45287
 20
37.873
 11
-1.39465
 21
38.0522
  0
LINE
  8
0
 10
-1.39465
 20
38.0522
 11
-1.31445
 21
38.2226
  0
LINE
  8
0
 10
-1.31445
 20
38.2226
 11
-1.21352
 21
38.3817
  0
LINE
  8
0
 10
-1.21352
 20
38.3817
 11
-1.09344
 21
38.5268
  0
LINE
  8
0
 10
-1.09344
 20
38.5268
 11
-0.956131
 21
38.6558
  0
LINE
  8
0
 10
-0.956131
 20
38.6558
 11
-0.803726
 21
38.7665
  0
LINE
  8
0
 10
-0.803726
 20
38.7665
 11
-0.638657
 21
38.8572
  0
LINE
  8
0
 10
-0.638657
 20
38.8572
 11
-0.463516
 21
38.9266
  0
LINE
  8
0
 10
-0.463516
 20
38.9266
 11
-0.281067
 21
38.9734
  0
LINE
  8
0
 10
-0.281067
 20
38.9734
 11
-0.0941772
 21
38.997
  0
LINE
  8
0
 10
-0.0941772
 20
38.997
 11
0.0941772
 21
38.997
  0
LINE
  8
0
 10
0.0941772
 20
38.997
 11
0.281067
 21
38.9734
  0
LINE
  8
0
 10
0.281067
 20
38.9734
 11
0.463516
 21
38.9266
  0
LINE
  8
0
 10
0.463516
 20
38.9266
 11
0.638657
 21
38.8572
  0
LINE
  8
0
 10
0.638657
 20
38.8572
 11
0.803726
 21
38.7665
  0
LINE
  8
0
 10
0.803726
 20
38.7665
 11
0.956131
 21
38.6558
  0
LINE
  8
0
 10
0.956131
 20
38.6558
 11
1.09344
 21
38.5268
  0
LINE
  8
0
 10
1.09344
 20
38.5268
 11
1.21352
 21
38.3817
  0
LINE
  8
0
 10
1.21352
 20
38.3817
 11
1.31445
 21
38.2226
  0
LINE
  8
0
 10
1.31445
 20
38.2226
 11
1.39465
 21
38.0522
  0
LINE
  8
0
 10
1.39465
 20
38.0522
 11
1.45287
 21
37.873
  0
LINE
  8
0
 10
1.45287
 20
37.873
 11
1.48816
 21
37.688
  0
LINE
  8
0
 10
1.48816
 20
37.688
 11
1.5
 21
37.5
  0
LINE
  8
0
 10
1.5
 20
37.5
 11
1.48816
 21
37.312
  0
LINE
  8
0
 10
1.48816
 20
37.312
 11
1.45287
 21
37.127
  0
LINE
  8
0
 10
1.45287
 20
37.127
 11
1.39465
 21
36.9478
  0
LINE
  8
0
 10
1.39465
 20
36.9478
 11
1.31445
 21
36.7774
  0
LINE
  8
0
 10
1.31445
 20
36.7774
 11
1.21352
 21
36.6183
  0
LINE
  8
0
 10
1.21352
 20
36.6183
 11
1.09344
 21
36.4732
  0
LINE
  8
0
 10
1.09344
 20
36.4732
 11
0.956131
 21
36.3442
  0
LINE
  8
0
 10
0.956131
 20
36.3442
 11
0.803726
 21
36.2335
  0
LINE
  8
0
 10
0.803726
 20
36.2335
 11
0.638657
 21
36.1428
  0
LINE
  8
0
 10
0.638657
 20
36.1428
 11
0.463516
 21
36.0734
  0
LINE
  8
0
 10
0.463516
 20
36.0734
 11
0.281067
 21
36.0266
  0
LINE
  8
0
 10
0.281067
 20
36.0266
 11
0.0941772
 21
36.003
  0
LINE
  8
0
 10
0.0941772
 20
36.003
 11
-0.0941772
 21
36.003
  0
LINE
  8
0
 10
-15.0942
 20
36.003
 11
-15.2811
 21
36.0266
  0
LINE
  8
0
 10
-15.2811
 20
36.0266
 11
-15.4635
 21
36.0734
  0
LINE
  8
0
 10
-15.4635
 20
36.0734
 11
-15.6387
 21
36.1428
  0
LINE
  8
0
 10
-15.6387
 20
36.1428
 11
-15.8037
 21
36.2335
  0
LINE
  8
0
 10
-15.8037
 20
36.2335
 11
-15.9561
 21
36.3442
  0
LINE
  8
0
 10
-15.9561
 20
36.3442
 11
-16.0934
 21
36.4732
  0
LINE
  8
0
 10
-16.0934
 20
36.4732
 11
-16.2135
 21
36.6183
  0
LINE
  8
0
 10
-16.2135
 20
36.6183
 11
-16.3145
 21
36.7774
  0
LINE
  8
0
 10
-16.3145
 20
36.7774
 11
-16.3947
 21
36.9478
  0
LINE
  8
0
 10
-16.3947
 20
36.9478
 11
-16.4529
 21
37.127
  0
LINE
  8
0
 10
-16.4529
 20
37.127
 11
-16.4882
 21
37.312
  0
LINE
  8
0
 10
-16.4882
 20
37.312
 11
-16.5
 21
37.5
  0
LINE
  8
0
 10
-16.5
 20
37.5
 11
-16.4882
 21
37.688
  0
LINE
  8
0
 10
-16.4882
 20
37.688
 11
-16.4529
 21
37.873
  0
LINE
  8
0
 10
-16.4529
 20
37.873
 11
-16.3947
 21
38.0522
  0
LINE
  8
0
 10
-16.3947
 20
38.0522
 11
-16.3145
 21
38.2226
  0
LINE
  8
0
 10
-16.3145
 20
38.2226
 11
-16.2135
 21
38.3817
  0
LINE
  8
0
 10
-16.2135
 20
38.3817
 11
-16.0934
 21
38.5268
  0
LINE
  8
0
 10
-16.0934
 20
38.5268
 11
-15.9561
 21
38.6558
  0
LINE
  8
0
 10
-15.9561
 20
38.6558
 11
-15.8037
 21
38.7665
  0
LINE
  8
0
 10
-15.8037
 20
38.7665
 11
-15.6387
 21
38.8572
  0
LINE
  8
0
 10
-15.6387
 20
38.8572
 11
-15.4635
 21
38.9266
  0
LINE
  8
0
 10
-15.4635
 20
38.9266
 11
-15.2811
 21
38.9734
  0
LINE
  8
0
 10
-15.2811
 20
38.9734
 11
-15.0942
 21
38.997
  0
LINE
  8
0
 10
-15.0942
 20
38.997
 11
-14.9058
 21
38.997
  0
LINE
  8
0
 10
-14.9058
 20
38.997
 11
-14.7189
 21
38.9734
  0
LINE
  8
0
 10
-14.7189
 20
38.9734
 11
-14.5365
 21
38.9266
  0
LINE
  8
0
 10
-14.5365
 20
38.9266
 11
-14.3613
 21
38.8572
  0
LINE
  8
0
 10
-14.3613
 20
38.8572
 11
-14.1963
 21
38.7665
  0
LINE
  8
0
 10
-14.1963
 20
38.7665
 11
-14.0439
 21
38.6558
  0
LINE
  8
0
 10
-14.0439
 20
38.6558
 11
-13.9065
 21
38.5268
  0
LINE
  8
0
 10
-13.9065
 20
38.5268
 11
-13.7865
 21
38.3817
  0
LINE
  8
0
 10
-13.7865
 20
38.3817
 11
-13.6855
 21
38.2226
  0
LINE
  8
0
 10
-13.6855
 20
38.2226
 11
-13.6053
 21
38.0522
  0
LINE
  8
0
 10
-13.6053
 20
38.0522
 11
-13.5471
 21
37.873
  0
LINE
  8
0
 10
-13.5471
 20
37.873
 11
-13.5118
 21
37.688
  0
LINE
  8
0
 10
-13.5118
 20
37.688
 11
-13.5
 21
37.5
  0
LINE
  8
0
 10
-13.5
 20
37.5
 11
-13.5118
 21
37.312
  0
LINE
  8
0
 10
-13.5118
 20
37.312
 11
-13.5471
 21
37.127
  0
LINE
  8
0
 10
-13.5471
 20
37.127
 11
-13.6053
 21
36.9478
  0
LINE
  8
0
 10
-13.6053
 20
36.9478
 11
-13.6855
 21
36.7774
  0
LINE
  8
0
 10
-13.6855
 20
36.7774
 11
-13.7865
 21
36.6183
  0
LINE
  8
0
 10
-13.7865
 20
36.6183
 11
-13.9065
 21
36.4732
  0
LINE
  8
0
 10
-13.9065
 20
36.4732
 11
-14.0439
 21
36.3442
  0
LINE
  8
0
 10
-14.0439
 20
36.3442
 11
-14.1963
 21
36.2335
  0
LINE
  8
0
 10
-14.1963
 20
36.2335
 11
-14.3613
 21
36.1428
  0
LINE
  8
0
 10
-14.3613
 20
36.1428
 11
-14.5365
 21
36.0734
  0
LINE
  8
0
 10
-14.5365
 20
36.0734
 11
-14.7189
 21
36.0266
  0
LINE
  8
0
 10
-14.7189
 20
36.0266
 11
-14.9058
 21
36.003
  0
LINE
  8
0
 10
-14.9058
 20
36.003
 11
-15.0942
 21
36.003
  0
LINE
  8
0
 10
29.9058
 20
36.003
 11
29.7189
 21
36.0266
  0
LINE
  8
0
 10
29.7189
 20
36.0266
 11
29.5365
 21
36.0734
  0
LINE
  8
0
 10
29.5365
 20
36.0734
 11
29.3613
 21
36.1428
  0
LINE
  8
0
 10
29.3613
 20
36.1428
 11
29.1963
 21
36.2335
  0
LINE
  8
0
 10
29.1963
 20
36.2335
 11
29.0439
 21
36.3442
  0
LINE
  8
0
 10
29.0439
 20
36.3442
 11
28.9065
 21
36.4732
  0
LINE
  8
0
 10
28.9065
 20
36.4732
 11
28.7865
 21
36.6183
  0
LINE
  8
0
 10
28.7865
 20
36.6183
 11
28.6855
 21
36.7774
  0
LINE
  8
0
 10
28.6855
 20
36.7774
 11
28.6053
 21
36.9478
  0
LINE
  8
0
 10
28.6053
 20
36.9478
 11
28.5471
 21
37.127
  0
LINE
  8
0
 10
28.5471
 20
37.127
 11
28.5118
 21
37.312
  0
LINE
  8
0
 10
28.5118
 20
37.312
 11
28.5
 21
37.5
  0
LINE
  8
0
 10
28.5
 20
37.5
 11
28.5118
 21
37.688
  0
LINE
  8
0
 10
28.5118
 20
37.688
 11
28.5471
 21
37.873
  0
LINE
  8
0
 10
28.5471
 20
37.873
 11
28.6053
 21
38.0522
  0
LINE
  8
0
 10
28.6053
 20
38.0522
 11
28.6855
 21
38.2226
  0
LINE
  8
0
 10
28.6855
 20
38.2226
 11
28.7865
 21
38.3817
  0
LINE
  8
0
 10
28.7865
 20
38.3817
 11
28.9065
 21
38.5268
  0
LINE
  8
0
 10
28.9065
 20
38.5268
 11
29.0439
 21
38.6558
  0
LINE
  8
0
 10
29.0439
 20
38.6558
 11
29.1963
 21
38.7665
  0
LINE
  8
0
 10
29.1963
 20
38.7665
 11
29.3613
 21
38.8572
  0
LINE
  8
0
 10
29.3613
 20
38.8572
 11
29.5365
 21
38.9266
  0
LINE
  8
0
 10
29.5365
 20
38.9266
 11
29.7189
 21
38.9734
  0
LINE
  8
0
 10
29.7189
 20
38.9734
 11
29.9058
 21
38.997
  0
LINE
  8
0
 10
29.9058
 20
38.997
 11
30.0942
 21
38.997
  0
LINE
  8
0
 10
30.0942
 20
38.997
 11
30.2811
 21
38.9734
  0
LINE
  8
0
 10
30.2811
 20
38.9734
 11
30.4635
 21
38.9266
  0
LINE
  8
0
 10
30.4635
 20
38.9266
 11
30.6387
 21
38.8572
  0
LINE
  8
0
 10
30.6387
 20
38.8572
 11
30.8037
 21
38.7665
  0
LINE
  8
0
 10
30.8037
 20
38.7665
 11
30.9561
 21
38.6558
  0
LINE
  8
0
 10
30.9561
 20
38.6558
 11
31.0934
 21
38.5268
  0
LINE
  8
0
 10
31.0934
 20
38.5268
 11
31.2135
 21
38.3817
  0
LINE
  8
0
 10
31.2135
 20
38.3817
 11
31.3145
 21
38.2226
  0
LINE
  8
0
 10
31.3145
 20
38.2226
 11
31.3947
 21
38.0522
  0
LINE
  8
0
 10
31.3947
 20
38.0522
 11
31.4529
 21
37.873
  0
LINE
  8
0
 10
31.4529
 20
37.873
 11
31.4882
 21
37.688
  0
LINE
  8
0
 10
31.4882
 20
37.688
 11
31.5
 21
37.5
  0
LINE
  8
0
 10
31.5
 20
37.5
 11
31.4882
 21
37.312
  0
LINE
  8
0
 10
31.4882
 20
37.312
 11
31.4529
 21
37.127
  0
LINE
  8
0
 10
31.4529
 20
37.127
 11
31.3947
 21
36.9478
  0
LINE
  8
0
 10
31.3947
 20
36.9478
 11
31.3145
 21
36.7774
  0
LINE
  8
0
 10
31.3145
 20
36.7774
 11
31.2135
 21
36.6183
  0
LINE
  8
0
 10
31.2135
 20
36.6183
 11
31.0934
 21
36.4732
  0
LINE
  8
0
 10
31.0934
 20
36.4732
 11
30.9561
 21
36.3442
  0
LINE
  8
0
 10
30.9561
 20
36.3442
 11
30.8037
 21
36.2335
  0
LINE
  8
0
 10
30.8037
 20
36.2335
 11
30.6387
 21
36.1428
  0
LINE
  8
0
 10
30.6387
 20
36.1428
 11
30.4635
 21
36.0734
  0
LINE
  8
0
 10
30.4635
 20
36.0734
 11
30.2811
 21
36.0266
  0
LINE
  8
0
 10
30.2811
 20
36.0266
 11
30.0942
 21
36.003
  0
LINE
  8
0
 10
30.0942
 20
36.003
 11
29.9058
 21
36.003
  0
LINE
  8
0
 10
-37.5942
 20
28.503
 11
-37.7811
 21
28.5266
  0
LINE
  8
0
 10
-37.7811
 20
28.5266
 11
-37.9635
 21
28.5734
  0
LINE
  8
0
 10
-37.9635
 20
28.5734
 11
-38.1387
 21
28.6427
  0
LINE
  8
0
 10
-38.1387
 20
28.6427
 11
-38.3037
 21
28.7335
  0
LINE
  8
0
 10
-38.3037
 20
28.7335
 11
-38.4561
 21
28.8442
  0
LINE
  8
0
 10
-38.4561
 20
28.8442
 11
-38.5934
 21
28.9732
  0
LINE
  8
0
 10
-38.5934
 20
28.9732
 11
-38.7135
 21
29.1183
  0
LINE
  8
0
 10
-38.7135
 20
29.1183
 11
-38.8145
 21
29.2774
  0
LINE
  8
0
 10
-38.8145
 20
29.2774
 11
-38.8947
 21
29.4478
  0
LINE
  8
0
 10
-38.8947
 20
29.4478
 11
-38.9529
 21
29.627
  0
LINE
  8
0
 10
-38.9529
 20
29.627
 11
-38.9882
 21
29.812
  0
LINE
  8
0
 10
-38.9882
 20
29.812
 11
-39
 21
30
  0
LINE
  8
0
 10
-39
 20
30
 11
-38.9882
 21
30.188
  0
LINE
  8
0
 10
-38.9882
 20
30.188
 11
-38.9529
 21
30.373
  0
LINE
  8
0
 10
-38.9529
 20
30.373
 11
-38.8947
 21
30.5522
  0
LINE
  8
0
 10
-38.8947
 20
30.5522
 11
-38.8145
 21
30.7226
  0
LINE
  8
0
 10
-38.8145
 20
30.7226
 11
-38.7135
 21
30.8817
  0
LINE
  8
0
 10
-38.7135
 20
30.8817
 11
-38.5934
 21
31.0268
  0
LINE
  8
0
 10
-38.5934
 20
31.0268
 11
-38.4561
 21
31.1558
  0
LINE
  8
0
 10
-38.4561
 20
31.1558
 11
-38.3037
 21
31.2665
  0
LINE
  8
0
 10
-38.3037
 20
31.2665
 11
-38.1387
 21
31.3572
  0
LINE
  8
0
 10
-38.1387
 20
31.3572
 11
-37.9635
 21
31.4266
  0
LINE
  8
0
 10
-37.9635
 20
31.4266
 11
-37.7811
 21
31.4734
  0
LINE
  8
0
 10
-37.7811
 20
31.4734
 11
-37.5942
 21
31.497
  0
LINE
  8
0
 10
-37.5942
 20
31.497
 11
-37.4058
 21
31.497
  0
LINE
  8
0
 10
-37.4058
 20
31.497
 11
-37.2189
 21
31.4734
  0
LINE
  8
0
 10
-37.2189
 20
31.4734
 11
-37.0365
 21
31.4266
  0
LINE
  8
0
 10
-37.0365
 20
31.4266
 11
-36.8613
 21
31.3572
  0
LINE
  8
0
 10
-36.8613
 20
31.3572
 11
-36.6963
 21
31.2665
  0
LINE
  8
0
 10
-36.6963
 20
31.2665
 11
-36.5439
 21
31.1558
  0
LINE
  8
0
 10
-36.5439
 20
31.1558
 11
-36.4065
 21
31.0268
  0
LINE
  8
0
 10
-36.4065
 20
31.0268
 11
-36.2865
 21
30.8817
  0
LINE
  8
0
 10
-36.2865
 20
30.8817
 11
-36.1855
 21
30.7226
  0
LINE
  8
0
 10
-36.1855
 20
30.7226
 11
-36.1053
 21
30.5522
  0
LINE
  8
0
 10
-36.1053
 20
30.5522
 11
-36.0471
 21
30.373
  0
LINE
  8
0
 10
-36.0471
 20
30.373
 11
-36.0118
 21
30.188
  0
LINE
  8
0
 10
-36.0118
 20
30.188
 11
-36
 21
30
  0
LINE
  8
0
 10
-36
 20
30
 11
-36.0118
 21
29.812
  0
LINE
  8
0
 10
-36.0118
 20
29.812
 11
-36.0471
 21
29.627
  0
LINE
  8
0
 10
-36.0471
 20
29.627
 11
-36.1053
 21
29.4478
  0
LINE
  8
0
 10
-36.1053
 20
29.4478
 11
-36.1855
 21
29.2774
  0
LINE
  8
0
 10
-36.1855
 20
29.2774
 11
-36.2865
 21
29.1183
  0
LINE
  8
0
 10
-36.2865
 20
29.1183
 11
-36.4065
 21
28.9732
  0
LINE
  8
0
 10
-36.4065
 20
28.9732
 11
-36.5439
 21
28.8442
  0
LINE
  8
0
 10
-36.5439
 20
28.8442
 11
-36.6963
 21
28.7335
  0
LINE
  8
0
 10
-36.6963
 20
28.7335
 11
-36.8613
 21
28.6427
  0
LINE
  8
0
 10
-36.8613
 20
28.6427
 11
-37.0365
 21
28.5734
  0
LINE
  8
0
 10
-37.0365
 20
28.5734
 11
-37.2189
 21
28.5266
  0
LINE
  8
0
 10
-37.2189
 20
28.5266
 11
-37.4058
 21
28.503
  0
LINE
  8
0
 10
-37.4058
 20
28.503
 11
-37.5942
 21
28.503
  0
LINE
  8
0
 10
37.4058
 20
28.503
 11
37.2189
 21
28.5266
  0
LINE
  8
0
 10
37.2189
 20
28.5266
 11
37.0365
 21
28.5734
  0
LINE
  8
0
 10
37.0365
 20
28.5734
 11
36.8613
 21
28.6427
  0
LINE
  8
0
 10
36.8613
 20
28.6427
 11
36.6963
 21
28.7335
  0
LINE
  8
0
 10
36.6963
 20
28.7335
 11
36.5439
 21
28.8442
  0
LINE
  8
0
 10
36.5439
 20
28.8442
 11
36.4065
 21
28.9732
  0
LINE
  8
0
 10
36.4065
 20
28.9732
 11
36.2865
 21
29.1183
  0
LINE
  8
0
 10
36.2865
 20
29.1183
 11
36.1855
 21
29.2774
  0
LINE
  8
0
 10
36.1855
 20
29.2774
 11
36.1053
 21
29.4478
  0
LINE
  8
0
 10
36.1053
 20
29.4478
 11
36.0471
 21
29.627
  0
LINE
  8
0
 10
36.0471
 20
29.627
 11
36.0118
 21
29.812
  0
LINE
  8
0
 10
36.0118
 20
29.812
 11
36
 21
30
  0
LINE
  8
0
 10
36
 20
30
 11
36.0118
 21
30.188
  0
LINE
  8
0
 10
36.0118
 20
30.188
 11
36.0471
 21
30.373
  0
LINE
  8
0
 10
36.0471
 20
30.373
 11
36.1053
 21
30.5522
  0
LINE
  8
0
 10
36.1053
 20
30.5522
 11
36.1855
 21
30.7226
  0
LINE
  8
0
 10
36.1855
 20
30.7226
 11
36.2865
 21
30.8817
  0
LINE
  8
0
 10
36.2865
 20
30.8817
 11
36.4065
 21
31.0268
  0
LINE
  8
0
 10
36.4065
 20
31.0268
 11
36.5439
 21
31.1558
  0
LINE
  8
0
 10
36.5439
 20
31.1558
 11
36.6963
 21
31.2665
  0
LINE
  8
0
 10
36.6963
 20
31.2665
 11
36.8613
 21
31.3572
  0
LINE
  8
0
 10
36.8613
 20
31.3572
 11
37.0365
 21
31.4266
  0
LINE
  8
0
 10
37.0365
 20
31.4266
 11
37.2189
 21
31.4734
  0
LINE
  8
0
 10
37.2189
 20
31.4734
 11
37.4058
 21
31.497
  0
LINE
  8
0
 10
37.4058
 20
31.497
 11
37.5942
 21
31.497
  0
LINE
  8
0
 10
37.5942
 20
31.497
 11
37.7811
 21
31.4734
  0
LINE
  8
0
 10
37.7811
 20
31.4734
 11
37.9635
 21
31.4266
  0
LINE
  8
0
 10
37.9635
 20
31.4266
 11
38.1387
 21
31.3572
  0
LINE
  8
0
 10
38.1387
 20
31.3572
 11
38.3037
 21
31.2665
  0
LINE
  8
0
 10
38.3037
 20
31.2665
 11
38.4561
 21
31.1558
  0
LINE
  8
0
 10
38.4561
 20
31.1558
 11
38.5934
 21
31.0268
  0
LINE
  8
0
 10
38.5934
 20
31.0268
 11
38.7135
 21
30.8817
  0
LINE
  8
0
 10
38.7135
 20
30.8817
 11
38.8145
 21
30.7226
  0
LINE
  8
0
 10
38.8145
 20
30.7226
 11
38.8947
 21
30.5522
  0
LINE
  8
0
 10
38.8947
 20
30.5522
 11
38.9529
 21
30.373
  0
LINE
  8
0
 10
38.9529
 20
30.373
 11
38.9882
 21
30.188
  0
LINE
  8
0
 10
38.9882
 20
30.188
 11
39
 21
30
  0
LINE
  8
0
 10
39
 20
30
 11
38.9882
 21
29.812
  0
LINE
  8
0
 10
38.9882
 20
29.812
 11
38.9529
 21
29.627
  0
LINE
  8
0
 10
38.9529
 20
29.627
 11
38.8947
 21
29.4478
  0
LINE
  8
0
 10
38.8947
 20
29.4478
 11
38.8145
 21
29.2774
  0
LINE
  8
0
 10
38.8145
 20
29.2774
 11
38.7135
 21
29.1183
  0
LINE
  8
0
 10
38.7135
 20
29.1183
 11
38.5934
 21
28.9732
  0
LINE
  8
0
 10
38.5934
 20
28.9732
 11
38.4561
 21
28.8442
  0
LINE
  8
0
 10
38.4561
 20
28.8442
 11
38.3037
 21
28.7335
  0
LINE
  8
0
 10
38.3037
 20
28.7335
 11
38.1387
 21
28.6427
  0
LINE
  8
0
 10
38.1387
 20
28.6427
 11
37.9635
 21
28.5734
  0
LINE
  8
0
 10
37.9635
 20
28.5734
 11
37.7811
 21
28.5266
  0
LINE
  8
0
 10
37.7811
 20
28.5266
 11
37.5942
 21
28.503
  0
LINE
  8
0
 10
37.5942
 20
28.503
 11
37.4058
 21
28.503
  0
LINE
  8
0
 10
-24.073
 20
24.6635
 11
-24.2973
 21
24.6919
  0
LINE
  8
0
 10
-24.2973
 20
24.6919
 11
-24.5162
 21
24.7481
  0
LINE
  8
0
 10
-24.5162
 20
24.7481
 11
-24.7264
 21
24.8313
  0
LINE
  8
0
 10
-24.7264
 20
24.8313
 11
-24.9245
 21
24.9402
  0
LINE
  8
0
 10
-24.9245
 20
24.9402
 11
-25.1074
 21
25.0731
  0
LINE
  8
0
 10
-25.1074
 20
25.0731
 11
-25.2721
 21
25.2278
  0
LINE
  8
0
 10
-25.2721
 20
25.2278
 11
-25.4162
 21
25.402
  0
LINE
  8
0
 10
-25.4162
 20
25.402
 11
-25.5373
 21
25.5928
  0
LINE
  8
0
 10
-25.5373
 20
25.5928
 11
-25.6336
 21
25.7974
  0
LINE
  8
0
 10
-25.6336
 20
25.7974
 11
-25.7034
 21
26.0123
  0
LINE
  8
0
 10
-25.7034
 20
26.0123
 11
-25.7458
 21
26.2344
  0
LINE
  8
0
 10
-25.7458
 20
26.2344
 11
-25.76
 21
26.46
  0
LINE
  8
0
 10
-25.76
 20
26.46
 11
-25.7458
 21
26.6856
  0
LINE
  8
0
 10
-25.7458
 20
26.6856
 11
-25.7034
 21
26.9076
  0
LINE
  8
0
 10
-25.7034
 20
26.9076
 11
-25.6336
 21
27.1226
  0
LINE
  8
0
 10
-25.6336
 20
27.1226
 11
-25.5373
 21
27.3271
  0
LINE
  8
0
 10
-25.5373
 20
27.3271
 11
-25.4162
 21
27.518
  0
LINE
  8
0
 10
-25.4162
 20
27.518
 11
-25.2721
 21
27.6922
  0
LINE
  8
0
 10
-25.2721
 20
27.6922
 11
-25.1074
 21
27.8469
  0
LINE
  8
0
 10
-25.1074
 20
27.8469
 11
-24.9245
 21
27.9798
  0
LINE
  8
0
 10
-24.9245
 20
27.9798
 11
-24.7264
 21
28.0887
  0
LINE
  8
0
 10
-24.7264
 20
28.0887
 11
-24.5162
 21
28.1719
  0
LINE
  8
0
 10
-24.5162
 20
28.1719
 11
-24.2973
 21
28.2281
  0
LINE
  8
0
 10
-24.2973
 20
28.2281
 11
-24.073
 21
28.2564
  0
LINE
  8
0
 10
-24.073
 20
28.2564
 11
-23.847
 21
28.2564
  0
LINE
  8
0
 10
-23.847
 20
28.2564
 11
-23.6227
 21
28.2281
  0
LINE
  8
0
 10
-23.6227
 20
28.2281
 11
-23.4038
 21
28.1719
  0
LINE
  8
0
 10
-23.4038
 20
28.1719
 11
-23.1936
 21
28.0887
  0
LINE
  8
0
 10
-23.1936
 20
28.0887
 11
-22.9955
 21
27.9798
  0
LINE
  8
0
 10
-22.9955
 20
27.9798
 11
-22.8126
 21
27.8469
  0
LINE
  8
0
 10
-22.8126
 20
27.8469
 11
-22.6478
 21
27.6922
  0
LINE
  8
0
 10
-22.6478
 20
27.6922
 11
-22.5038
 21
27.518
  0
LINE
  8
0
 10
-22.5038
 20
27.518
 11
-22.3826
 21
27.3271
  0
LINE
  8
0
 10
-22.3826
 20
27.3271
 11
-22.2864
 21
27.1226
  0
LINE
  8
0
 10
-22.2864
 20
27.1226
 11
-22.2165
 21
26.9076
  0
LINE
  8
0
 10
-22.2165
 20
26.9076
 11
-22.1742
 21
26.6856
  0
LINE
  8
0
 10
-22.1742
 20
26.6856
 11
-22.16
 21
26.46
  0
LINE
  8
0
 10
-22.16
 20
26.46
 11
-22.1742
 21
26.2344
  0
LINE
  8
0
 10
-22.1742
 20
26.2344
 11
-22.2165
 21
26.0123
  0
LINE
  8
0
 10
-22.2165
 20
26.0123
 11
-22.2864
 21
25.7974
  0
LINE
  8
0
 10
-22.2864
 20
25.7974
 11
-22.3826
 21
25.5928
  0
LINE
  8
0
 10
-22.3826
 20
25.5928
 11
-22.5038
 21
25.402
  0
LINE
  8
0
 10
-22.5038
 20
25.402
 11
-22.6478
 21
25.2278
  0
LINE
  8
0
 10
-22.6478
 20
25.2278
 11
-22.8126
 21
25.0731
  0
LINE
  8
0
 10
-22.8126
 20
25.0731
 11
-22.9955
 21
24.9402
  0
LINE
  8
0
 10
-22.9955
 20
24.9402
 11
-23.1936
 21
24.8313
  0
LINE
  8
0
 10
-23.1936
 20
24.8313
 11
-23.4038
 21
24.7481
  0
LINE
  8
0
 10
-23.4038
 20
24.7481
 11
-23.6227
 21
24.6919
  0
LINE
  8
0
 10
-23.6227
 20
24.6919
 11
-23.847
 21
24.6635
  0
LINE
  8
0
 10
-23.847
 20
24.6635
 11
-24.073
 21
24.6635
  0
LINE
  8
0
 10
23.887
 20
22.2036
 11
23.6627
 21
22.2319
  0
LINE
  8
0
 10
23.6627
 20
22.2319
 11
23.4438
 21
22.2881
  0
LINE
  8
0
 10
23.4438
 20
22.2881
 11
23.2336
 21
22.3713
  0
LINE
  8
0
 10
23.2336
 20
22.3713
 11
23.0355
 21
22.4802
  0
LINE
  8
0
 10
23.0355
 20
22.4802
 11
22.8526
 21
22.6131
  0
LINE
  8
0
 10
22.8526
 20
22.6131
 11
22.6879
 21
22.7678
  0
LINE
  8
0
 10
22.6879
 20
22.7678
 11
22.5438
 21
22.942
  0
LINE
  8
0
 10
22.5438
 20
22.942
 11
22.4226
 21
23.1328
  0
LINE
  8
0
 10
22.4226
 20
23.1328
 11
22.3264
 21
23.3374
  0
LINE
  8
0
 10
22.3264
 20
23.3374
 11
22.2565
 21
23.5524
  0
LINE
  8
0
 10
22.2565
 20
23.5524
 11
22.2142
 21
23.7744
  0
LINE
  8
0
 10
22.2142
 20
23.7744
 11
22.2
 21
24
  0
LINE
  8
0
 10
22.2
 20
24
 11
22.2142
 21
24.2256
  0
LINE
  8
0
 10
22.2142
 20
24.2256
 11
22.2565
 21
24.4476
  0
LINE
  8
0
 10
22.2565
 20
24.4476
 11
22.3264
 21
24.6626
  0
LINE
  8
0
 10
22.3264
 20
24.6626
 11
22.4226
 21
24.8672
  0
LINE
  8
0
 10
22.4226
 20
24.8672
 11
22.5438
 21
25.058
  0
LINE
  8
0
 10
22.5438
 20
25.058
 11
22.6879
 21
25.2322
  0
LINE
  8
0
 10
22.6879
 20
25.2322
 11
22.8526
 21
25.3869
  0
LINE
  8
0
 10
22.8526
 20
25.3869
 11
23.0355
 21
25.5198
  0
LINE
  8
0
 10
23.0355
 20
25.5198
 11
23.2336
 21
25.6287
  0
LINE
  8
0
 10
23.2336
 20
25.6287
 11
23.4438
 21
25.7119
  0
LINE
  8
0
 10
23.4438
 20
25.7119
 11
23.6627
 21
25.7681
  0
LINE
  8
0
 10
23.6627
 20
25.7681
 11
23.887
 21
25.7964
  0
LINE
  8
0
 10
23.887
 20
25.7964
 11
24.113
 21
25.7964
  0
LINE
  8
0
 10
24.113
 20
25.7964
 11
24.3373
 21
25.7681
  0
LINE
  8
0
 10
24.3373
 20
25.7681
 11
24.5562
 21
25.7119
  0
LINE
  8
0
 10
24.5562
 20
25.7119
 11
24.7664
 21
25.6287
  0
LINE
  8
0
 10
24.7664
 20
25.6287
 11
24.9645
 21
25.5198
  0
LINE
  8
0
 10
24.9645
 20
25.5198
 11
25.1474
 21
25.3869
  0
LINE
  8
0
 10
25.1474
 20
25.3869
 11
25.3121
 21
25.2322
  0
LINE
  8
0
 10
25.3121
 20
25.2322
 11
25.4562
 21
25.058
  0
LINE
  8
0
 10
25.4562
 20
25.058
 11
25.5773
 21
24.8672
  0
LINE
  8
0
 10
25.5773
 20
24.8672
 11
25.6736
 21
24.6626
  0
LINE
  8
0
 10
25.6736
 20
24.6626
 11
25.7434
 21
24.4476
  0
LINE
  8
0
 10
25.7434
 20
24.4476
 11
25.7858
 21
24.2256
  0
LINE
  8
0
 10
25.7858
 20
24.2256
 11
25.8
 21
24
  0
LINE
  8
0
 10
25.8
 20
24
 11
25.7858
 21
23.7744
  0
LINE
  8
0
 10
25.7858
 20
23.7744
 11
25.7434
 21
23.5524
  0
LINE
  8
0
 10
25.7434
 20
23.5524
 11
25.6736
 21
23.3374
  0
LINE
  8
0
 10
25.6736
 20
23.3374
 11
25.5773
 21
23.1328
  0
LINE
  8
0
 10
25.5773
 20
23.1328
 11
25.4562
 21
22.942
  0
LINE
  8
0
 10
25.4562
 20
22.942
 11
25.3121
 21
22.7678
  0
LINE
  8
0
 10
25.3121
 20
22.7678
 11
25.1474
 21
22.6131
  0
LINE
  8
0
 10
25.1474
 20
22.6131
 11
24.9645
 21
22.4802
  0
LINE
  8
0
 10
24.9645
 20
22.4802
 11
24.7664
 21
22.3713
  0
LINE
  8
0
 10
24.7664
 20
22.3713
 11
24.5562
 21
22.2881
  0
LINE
  8
0
 10
24.5562
 20
22.2881
 11
24.3373
 21
22.2319
  0
LINE
  8
0
 10
24.3373
 20
22.2319
 11
24.113
 21
22.2036
  0
LINE
  8
0
 10
24.113
 20
22.2036
 11
23.887
 21
22.2036
  0
LINE
  8
0
 10
-37.6884
 20
19.5059
 11
-38.0621
 21
19.5531
  0
LINE
  8
0
 10
-38.0621
 20
19.5531
 11
-38.427
 21
19.6468
  0
LINE
  8
0
 10
-38.427
 20
19.6468
 11
-38.7773
 21
19.7855
  0
LINE
  8
0
 10
-38.7773
 20
19.7855
 11
-39.1075
 21
19.967
  0
LINE
  8
0
 10
-39.1075
 20
19.967
 11
-39.4123
 21
20.1884
  0
LINE
  8
0
 10
-39.4123
 20
20.1884
 11
-39.6869
 21
20.4464
  0
LINE
  8
0
 10
-39.6869
 20
20.4464
 11
-39.927
 21
20.7366
  0
LINE
  8
0
 10
-39.927
 20
20.7366
 11
-40.1289
 21
21.0547
  0
LINE
  8
0
 10
-40.1289
 20
21.0547
 11
-40.2893
 21
21.3956
  0
LINE
  8
0
 10
-40.2893
 20
21.3956
 11
-40.4057
 21
21.7539
  0
LINE
  8
0
 10
-40.4057
 20
21.7539
 11
-40.4763
 21
22.124
  0
LINE
  8
0
 10
-40.4763
 20
22.124
 11
-40.5
 21
22.5
  0
LINE
  8
0
 10
-40.5
 20
22.5
 11
-40.4763
 21
22.876
  0
LINE
  8
0
 10
-40.4763
 20
22.876
 11
-40.4057
 21
23.2461
  0
LINE
  8
0
 10
-40.4057
 20
23.2461
 11
-40.2893
 21
23.6044
  0
LINE
  8
0
 10
-40.2893
 20
23.6044
 11
-40.1289
 21
23.9453
  0
LINE
  8
0
 10
-40.1289
 20
23.9453
 11
-39.927
 21
24.2634
  0
LINE
  8
0
 10
-39.927
 20
24.2634
 11
-39.6869
 21
24.5536
  0
LINE
  8
0
 10
-39.6869
 20
24.5536
 11
-39.4123
 21
24.8115
  0
LINE
  8
0
 10
-39.4123
 20
24.8115
 11
-39.1075
 21
25.033
  0
LINE
  8
0
 10
-39.1075
 20
25.033
 11
-38.7773
 21
25.2145
  0
LINE
  8
0
 10
-38.7773
 20
25.2145
 11
-38.427
 21
25.3532
  0
LINE
  8
0
 10
-38.427
 20
25.3532
 11
-38.0621
 21
25.4469
  0
LINE
  8
0
 10
-38.0621
 20
25.4469
 11
-37.6884
 21
25.4941
  0
LINE
  8
0
 10
-37.6884
 20
25.4941
 11
-37.3116
 21
25.4941
  0
LINE
  8
0
 10
-37.3116
 20
25.4941
 11
-36.9379
 21
25.4469
  0
LINE
  8
0
 10
-36.9379
 20
25.4469
 11
-36.5729
 21
25.3532
  0
LINE
  8
0
 10
-36.5729
 20
25.3532
 11
-36.2227
 21
25.2145
  0
LINE
  8
0
 10
-36.2227
 20
25.2145
 11
-35.8925
 21
25.033
  0
LINE
  8
0
 10
-35.8925
 20
25.033
 11
-35.5877
 21
24.8115
  0
LINE
  8
0
 10
-35.5877
 20
24.8115
 11
-35.3131
 21
24.5536
  0
LINE
  8
0
 10
-35.3131
 20
24.5536
 11
-35.0729
 21
24.2634
  0
LINE
  8
0
 10
-35.0729
 20
24.2634
 11
-34.8711
 21
23.9453
  0
LINE
  8
0
 10
-34.8711
 20
23.9453
 11
-34.7107
 21
23.6044
  0
LINE
  8
0
 10
-34.7107
 20
23.6044
 11
-34.5942
 21
23.2461
  0
LINE
  8
0
 10
-34.5942
 20
23.2461
 11
-34.5237
 21
22.876
  0
LINE
  8
0
 10
-34.5237
 20
22.876
 11
-34.5
 21
22.5
  0
LINE
  8
0
 10
-34.5
 20
22.5
 11
-34.5237
 21
22.124
  0
LINE
  8
0
 10
-34.5237
 20
22.124
 11
-34.5942
 21
21.7539
  0
LINE
  8
0
 10
-34.5942
 20
21.7539
 11
-34.7107
 21
21.3956
  0
LINE
  8
0
 10
-34.7107
 20
21.3956
 11
-34.8711
 21
21.0547
  0
LINE
  8
0
 10
-34.8711
 20
21.0547
 11
-35.0729
 21
20.7366
  0
LINE
  8
0
 10
-35.0729
 20
20.7366
 11
-35.3131
 21
20.4464
  0
LINE
  8
0
 10
-35.3131
 20
20.4464
 11
-35.5877
 21
20.1884
  0
LINE
  8
0
 10
-35.5877
 20
20.1884
 11
-35.8925
 21
19.967
  0
LINE
  8
0
 10
-35.8925
 20
19.967
 11
-36.2227
 21
19.7855
  0
LINE
  8
0
 10
-36.2227
 20
19.7855
 11
-36.5729
 21
19.6468
  0
LINE
  8
0
 10
-36.5729
 20
19.6468
 11
-36.9379
 21
19.5531
  0
LINE
  8
0
 10
-36.9379
 20
19.5531
 11
-37.3116
 21
19.5059
  0
LINE
  8
0
 10
-37.3116
 20
19.5059
 11
-37.6884
 21
19.5059
  0
LINE
  8
0
 10
37.3116
 20
19.5059
 11
36.9379
 21
19.5531
  0
LINE
  8
0
 10
36.9379
 20
19.5531
 11
36.5729
 21
19.6468
  0
LINE
  8
0
 10
36.5729
 20
19.6468
 11
36.2227
 21
19.7855
  0
LINE
  8
0
 10
36.2227
 20
19.7855
 11
35.8925
 21
19.967
  0
LINE
  8
0
 10
35.8925
 20
19.967
 11
35.5877
 21
20.1884
  0
LINE
  8
0
 10
35.5877
 20
20.1884
 11
35.3131
 21
20.4464
  0
LINE
  8
0
 10
35.3131
 20
20.4464
 11
35.0729
 21
20.7366
  0
LINE
  8
0
 10
35.0729
 20
20.7366
 11
34.8711
 21
21.0547
  0
LINE
  8
0
 10
34.8711
 20
21.0547
 11
34.7107
 21
21.3956
  0
LINE
  8
0
 10
34.7107
 20
21.3956
 11
34.5942
 21
21.7539
  0
LINE
  8
0
 10
34.5942
 20
21.7539
 11
34.5237
 21
22.124
  0
LINE
  8
0
 10
34.5237
 20
22.124
 11
34.5
 21
22.5
  0
LINE
  8
0
 10
34.5
 20
22.5
 11
34.5237
 21
22.876
  0
LINE
  8
0
 10
34.5237
 20
22.876
 11
34.5942
 21
23.2461
  0
LINE
  8
0
 10
34.5942
 20
23.2461
 11
34.7107
 21
23.6044
  0
LINE
  8
0
 10
34.7107
 20
23.6044
 11
34.8711
 21
23.9453
  0
LINE
  8
0
 10
34.8711
 20
23.9453
 11
35.0729
 21
24.2634
  0
LINE
  8
0
 10
35.0729
 20
24.2634
 11
35.3131
 21
24.5536
  0
LINE
  8
0
 10
35.3131
 20
24.5536
 11
35.5877
 21
24.8115
  0
LINE
  8
0
 10
35.5877
 20
24.8115
 11
35.8925
 21
25.033
  0
LINE
  8
0
 10
35.8925
 20
25.033
 11
36.2227
 21
25.2145
  0
LINE
  8
0
 10
36.2227
 20
25.2145
 11
36.5729
 21
25.3532
  0
LINE
  8
0
 10
36.5729
 20
25.3532
 11
36.9379
 21
25.4469
  0
LINE
  8
0
 10
36.9379
 20
25.4469
 11
37.3116
 21
25.4941
  0
LINE
  8
0
 10
37.3116
 20
25.4941
 11
37.6884
 21
25.4941
  0
LINE
  8
0
 10
37.6884
 20
25.4941
 11
38.0621
 21
25.4469
  0
LINE
  8
0
 10
38.0621
 20
25.4469
 11
38.427
 21
25.3532
  0
LINE
  8
0
 10
38.427
 20
25.3532
 11
38.7773
 21
25.2145
  0
LINE
  8
0
 10
38.7773
 20
25.2145
 11
39.1075
 21
25.033
  0
LINE
  8
0
 10
39.1075
 20
25.033
 11
39.4123
 21
24.8115
  0
LINE
  8
0
 10
39.4123
 20
24.8115
 11
39.6869
 21
24.5536
  0
LINE
  8
0
 10
39.6869
 20
24.5536
 11
39.927
 21
24.2634
  0
LINE
  8
0
 10
39.927
 20
24.2634
 11
40.1289
 21
23.9453
  0
LINE
  8
0
 10
40.1289
 20
23.9453
 11
40.2893
 21
23.6044
  0
LINE
  8
0
 10
40.2893
 20
23.6044
 11
40.4057
 21
23.2461
  0
LINE
  8
0
 10
40.4057
 20
23.2461
 11
40.4763
 21
22.876
  0
LINE
  8
0
 10
40.4763
 20
22.876
 11
40.5
 21
22.5
  0
LINE
  8
0
 10
40.5
 20
22.5
 11
40.4763
 21
22.124
  0
LINE
  8
0
 10
40.4763
 20
22.124
 11
40.4057
 21
21.7539
  0
LINE
  8
0
 10
40.4057
 20
21.7539
 11
40.2893
 21
21.3956
  0
LINE
  8
0
 10
40.2893
 20
21.3956
 11
40.1289
 21
21.0547
  0
LINE
  8
0
 10
40.1289
 20
21.0547
 11
39.927
 21
20.7366
  0
LINE
  8
0
 10
39.927
 20
20.7366
 11
39.6869
 21
20.4464
  0
LINE
  8
0
 10
39.6869
 20
20.4464
 11
39.4123
 21
20.1884
  0
LINE
  8
0
 10
39.4123
 20
20.1884
 11
39.1075
 21
19.967
  0
LINE
  8
0
 10
39.1075
 20
19.967
 11
38.7773
 21
19.7855
  0
LINE
  8
0
 10
38.7773
 20
19.7855
 11
38.427
 21
19.6468
  0
LINE
  8
0
 10
38.427
 20
19.6468
 11
38.0621
 21
19.5531
  0
LINE
  8
0
 10
38.0621
 20
19.5531
 11
37.6884
 21
19.5059
  0
LINE
  8
0
 10
37.6884
 20
19.5059
 11
37.3116
 21
19.5059
  0
LINE
  8
0
 10
-37.5942
 20
13.5029
 11
-37.7811
 21
13.5266
  0
LINE
  8
0
 10
-37.7811
 20
13.5266
 11
-37.9635
 21
13.5734
  0
LINE
  8
0
 10
-37.9635
 20
13.5734
 11
-38.1387
 21
13.6427
  0
LINE
  8
0
 10
-38.1387
 20
13.6427
 11
-38.3037
 21
13.7335
  0
LINE
  8
0
 10
-38.3037
 20
13.7335
 11
-38.4561
 21
13.8442
  0
LINE
  8
0
 10
-38.4561
 20
13.8442
 11
-38.5934
 21
13.9732
  0
LINE
  8
0
 10
-38.5934
 20
13.9732
 11
-38.7135
 21
14.1183
  0
LINE
  8
0
 10
-38.7135
 20
14.1183
 11
-38.8145
 21
14.2774
  0
LINE
  8
0
 10
-38.8145
 20
14.2774
 11
-38.8947
 21
14.4478
  0
LINE
  8
0
 10
-38.8947
 20
14.4478
 11
-38.9529
 21
14.627
  0
LINE
  8
0
 10
-38.9529
 20
14.627
 11
-38.9882
 21
14.812
  0
LINE
  8
0
 10
-38.9882
 20
14.812
 11
-39
 21
15
  0
LINE
  8
0
 10
-39
 20
15
 11
-38.9882
 21
15.188
  0
LINE
  8
0
 10
-38.9882
 20
15.188
 11
-38.9529
 21
15.373
  0
LINE
  8
0
 10
-38.9529
 20
15.373
 11
-38.8947
 21
15.5522
  0
LINE
  8
0
 10
-38.8947
 20
15.5522
 11
-38.8145
 21
15.7226
  0
LINE
  8
0
 10
-38.8145
 20
15.7226
 11
-38.7135
 21
15.8817
  0
LINE
  8
0
 10
-38.7135
 20
15.8817
 11
-38.5934
 21
16.0268
  0
LINE
  8
0
 10
-38.5934
 20
16.0268
 11
-38.4561
 21
16.1558
  0
LINE
  8
0
 10
-38.4561
 20
16.1558
 11
-38.3037
 21
16.2665
  0
LINE
  8
0
 10
-38.3037
 20
16.2665
 11
-38.1387
 21
16.3572
  0
LINE
  8
0
 10
-38.1387
 20
16.3572
 11
-37.9635
 21
16.4266
  0
LINE
  8
0
 10
-37.9635
 20
16.4266
 11
-37.7811
 21
16.4734
  0
LINE
  8
0
 10
-37.7811
 20
16.4734
 11
-37.5942
 21
16.497
  0
LINE
  8
0
 10
-37.5942
 20
16.497
 11
-37.4058
 21
16.497
  0
LINE
  8
0
 10
-37.4058
 20
16.497
 11
-37.2189
 21
16.4734
  0
LINE
  8
0
 10
-37.2189
 20
16.4734
 11
-37.0365
 21
16.4266
  0
LINE
  8
0
 10
-37.0365
 20
16.4266
 11
-36.8613
 21
16.3572
  0
LINE
  8
0
 10
-36.8613
 20
16.3572
 11
-36.6963
 21
16.2665
  0
LINE
  8
0
 10
-36.6963
 20
16.2665
 11
-36.5439
 21
16.1558
  0
LINE
  8
0
 10
-36.5439
 20
16.1558
 11
-36.4065
 21
16.0268
  0
LINE
  8
0
 10
-36.4065
 20
16.0268
 11
-36.2865
 21
15.8817
  0
LINE
  8
0
 10
-36.2865
 20
15.8817
 11
-36.1855
 21
15.7226
  0
LINE
  8
0
 10
-36.1855
 20
15.7226
 11
-36.1053
 21
15.5522
  0
LINE
  8
0
 10
-36.1053
 20
15.5522
 11
-36.0471
 21
15.373
  0
LINE
  8
0
 10
-36.0471
 20
15.373
 11
-36.0118
 21
15.188
  0
LINE
  8
0
 10
-36.0118
 20
15.188
 11
-36
 21
15
  0
LINE
  8
0
 10
-36
 20
15
 11
-36.0118
 21
14.812
  0
LINE
  8
0
 10
-36.0118
 20
14.812
 11
-36.0471
 21
14.627
  0
LINE
  8
0
 10
-36.0471
 20
14.627
 11
-36.1053
 21
14.4478
  0
LINE
  8
0
 10
-36.1053
 20
14.4478
 11
-36.1855
 21
14.2774
  0
LINE
  8
0
 10
-36.1855
 20
14.2774
 11
-36.2865
 21
14.1183
  0
LINE
  8
0
 10
-36.2865
 20
14.1183
 11
-36.4065
 21
13.9732
  0
LINE
  8
0
 10
-36.4065
 20
13.9732
 11
-36.5439
 21
13.8442
  0
LINE
  8
0
 10
-36.5439
 20
13.8442
 11
-36.6963
 21
13.7335
  0
LINE
  8
0
 10
-36.6963
 20
13.7335
 11
-36.8613
 21
13.6427
  0
LINE
  8
0
 10
-36.8613
 20
13.6427
 11
-37.0365
 21
13.5734
  0
LINE
  8
0
 10
-37.0365
 20
13.5734
 11
-37.2189
 21
13.5266
  0
LINE
  8
0
 10
-37.2189
 20
13.5266
 11
-37.4058
 21
13.5029
  0
LINE
  8
0
 10
-37.4058
 20
13.5029
 11
-37.5942
 21
13.5029
  0
LINE
  8
0
 10
37.4058
 20
13.5029
 11
37.2189
 21
13.5266
  0
LINE
  8
0
 10
37.2189
 20
13.5266
 11
37.0365
 21
13.5734
  0
LINE
  8
0
 10
37.0365
 20
13.5734
 11
36.8613
 21
13.6427
  0
LINE
  8
0
 10
36.8613
 20
13.6427
 11
36.6963
 21
13.7335
  0
LINE
  8
0
 10
36.6963
 20
13.7335
 11
36.5439
 21
13.8442
  0
LINE
  8
0
 10
36.5439
 20
13.8442
 11
36.4065
 21
13.9732
  0
LINE
  8
0
 10
36.4065
 20
13.9732
 11
36.2865
 21
14.1183
  0
LINE
  8
0
 10
36.2865
 20
14.1183
 11
36.1855
 21
14.2774
  0
LINE
  8
0
 10
36.1855
 20
14.2774
 11
36.1053
 21
14.4478
  0
LINE
  8
0
 10
36.1053
 20
14.4478
 11
36.0471
 21
14.627
  0
LINE
  8
0
 10
36.0471
 20
14.627
 11
36.0118
 21
14.812
  0
LINE
  8
0
 10
36.0118
 20
14.812
 11
36
 21
15
  0
LINE
  8
0
 10
36
 20
15
 11
36.0118
 21
15.188
  0
LINE
  8
0
 10
36.0118
 20
15.188
 11
36.0471
 21
15.373
  0
LINE
  8
0
 10
36.0471
 20
15.373
 11
36.1053
 21
15.5522
  0
LINE
  8
0
 10
36.1053
 20
15.5522
 11
36.1855
 21
15.7226
  0
LINE
  8
0
 10
36.1855
 20
15.7226
 11
36.2865
 21
15.8817
  0
LINE
  8
0
 10
36.2865
 20
15.8817
 11
36.4065
 21
16.0268
  0
LINE
  8
0
 10
36.4065
 20
16.0268
 11
36.5439
 21
16.1558
  0
LINE
  8
0
 10
36.5439
 20
16.1558
 11
36.6963
 21
16.2665
  0
LINE
  8
0
 10
36.6963
 20
16.2665
 11
36.8613
 21
16.3572
  0
LINE
  8
0
 10
36.8613
 20
16.3572
 11
37.0365
 21
16.4266
  0
LINE
  8
0
 10
37.0365
 20
16.4266
 11
37.2189
 21
16.4734
  0
LINE
  8
0
 10
37.2189
 20
16.4734
 11
37.4058
 21
16.497
  0
LINE
  8
0
 10
37.4058
 20
16.497
 11
37.5942
 21
16.497
  0
LINE
  8
0
 10
37.5942
 20
16.497
 11
37.7811
 21
16.4734
  0
LINE
  8
0
 10
37.7811
 20
16.4734
 11
37.9635
 21
16.4266
  0
LINE
  8
0
 10
37.9635
 20
16.4266
 11
38.1387
 21
16.3572
  0
LINE
  8
0
 10
38.1387
 20
16.3572
 11
38.3037
 21
16.2665
  0
LINE
  8
0
 10
38.3037
 20
16.2665
 11
38.4561
 21
16.1558
  0
LINE
  8
0
 10
38.4561
 20
16.1558
 11
38.5934
 21
16.0268
  0
LINE
  8
0
 10
38.5934
 20
16.0268
 11
38.7135
 21
15.8817
  0
LINE
  8
0
 10
38.7135
 20
15.8817
 11
38.8145
 21
15.7226
  0
LINE
  8
0
 10
38.8145
 20
15.7226
 11
38.8947
 21
15.5522
  0
LINE
  8
0
 10
38.8947
 20
15.5522
 11
38.9529
 21
15.373
  0
LINE
  8
0
 10
38.9529
 20
15.373
 11
38.9882
 21
15.188
  0
LINE
  8
0
 10
38.9882
 20
15.188
 11
39
 21
15
  0
LINE
  8
0
 10
39
 20
15
 11
38.9882
 21
14.812
  0
LINE
  8
0
 10
38.9882
 20
14.812
 11
38.9529
 21
14.627
  0
LINE
  8
0
 10
38.9529
 20
14.627
 11
38.8947
 21
14.4478
  0
LINE
  8
0
 10
38.8947
 20
14.4478
 11
38.8145
 21
14.2774
  0
LINE
  8
0
 10
38.8145
 20
14.2774
 11
38.7135
 21
14.1183
  0
LINE
  8
0
 10
38.7135
 20
14.1183
 11
38.5934
 21
13.9732
  0
LINE
  8
0
 10
38.5934
 20
13.9732
 11
38.4561
 21
13.8442
  0
LINE
  8
0
 10
38.4561
 20
13.8442
 11
38.3037
 21
13.7335
  0
LINE
  8
0
 10
38.3037
 20
13.7335
 11
38.1387
 21
13.6427
  0
LINE
  8
0
 10
38.1387
 20
13.6427
 11
37.9635
 21
13.5734
  0
LINE
  8
0
 10
37.9635
 20
13.5734
 11
37.7811
 21
13.5266
  0
LINE
  8
0
 10
37.7811
 20
13.5266
 11
37.5942
 21
13.5029
  0
LINE
  8
0
 10
37.5942
 20
13.5029
 11
37.4058
 21
13.5029
  0
LINE
  8
0
 10
37.3116
 20
4.50591
 11
36.9379
 21
4.55313
  0
LINE
  8
0
 10
36.9379
 20
4.55313
 11
36.5729
 21
4.64682
  0
LINE
  8
0
 10
36.5729
 20
4.64682
 11
36.2227
 21
4.78551
  0
LINE
  8
0
 10
36.2227
 20
4.78551
 11
35.8925
 21
4.96701
  0
LINE
  8
0
 10
35.8925
 20
4.96701
 11
35.5877
 21
5.18845
  0
LINE
  8
0
 10
35.5877
 20
5.18845
 11
35.3131
 21
5.44635
  0
LINE
  8
0
 10
35.3131
 20
5.44635
 11
35.0729
 21
5.73663
  0
LINE
  8
0
 10
35.0729
 20
5.73663
 11
34.8711
 21
6.05473
  0
LINE
  8
0
 10
34.8711
 20
6.05473
 11
34.7107
 21
6.39561
  0
LINE
  8
0
 10
34.7107
 20
6.39561
 11
34.5942
 21
6.75392
  0
LINE
  8
0
 10
34.5942
 20
6.75392
 11
34.5237
 21
7.12399
  0
LINE
  8
0
 10
34.5237
 20
7.12399
 11
34.5
 21
7.5
  0
LINE
  8
0
 10
34.5
 20
7.5
 11
34.5237
 21
7.87599
  0
LINE
  8
0
 10
34.5237
 20
7.87599
 11
34.5942
 21
8.24606
  0
LINE
  8
0
 10
34.5942
 20
8.24606
 11
34.7107
 21
8.60437
  0
LINE
  8
0
 10
34.7107
 20
8.60437
 11
34.8711
 21
8.94525
  0
LINE
  8
0
 10
34.8711
 20
8.94525
 11
35.0729
 21
9.26335
  0
LINE
  8
0
 10
35.0729
 20
9.26335
 11
35.3131
 21
9.55363
  0
LINE
  8
0
 10
35.3131
 20
9.55363
 11
35.5877
 21
9.81154
  0
LINE
  8
0
 10
35.5877
 20
9.81154
 11
35.8925
 21
10.033
  0
LINE
  8
0
 10
35.8925
 20
10.033
 11
36.2227
 21
10.2145
  0
LINE
  8
0
 10
36.2227
 20
10.2145
 11
36.5729
 21
10.3532
  0
LINE
  8
0
 10
36.5729
 20
10.3532
 11
36.9379
 21
10.4469
  0
LINE
  8
0
 10
36.9379
 20
10.4469
 11
37.3116
 21
10.4941
  0
LINE
  8
0
 10
37.3116
 20
10.4941
 11
37.6884
 21
10.4941
  0
LINE
  8
0
 10
37.6884
 20
10.4941
 11
38.0621
 21
10.4469
  0
LINE
  8
0
 10
38.0621
 20
10.4469
 11
38.427
 21
10.3532
  0
LINE
  8
0
 10
38.427
 20
10.3532
 11
38.7773
 21
10.2145
  0
LINE
  8
0
 10
38.7773
 20
10.2145
 11
39.1075
 21
10.033
  0
LINE
  8
0
 10
39.1075
 20
10.033
 11
39.4123
 21
9.81154
  0
LINE
  8
0
 10
39.4123
 20
9.81154
 11
39.6869
 21
9.55363
  0
LINE
  8
0
 10
39.6869
 20
9.55363
 11
39.927
 21
9.26335
  0
LINE
  8
0
 10
39.927
 20
9.26335
 11
40.1289
 21
8.94525
  0
LINE
  8
0
 10
40.1289
 20
8.94525
 11
40.2893
 21
8.60437
  0
LINE
  8
0
 10
40.2893
 20
8.60437
 11
40.4057
 21
8.24606
  0
LINE
  8
0
 10
40.4057
 20
8.24606
 11
40.4763
 21
7.87599
  0
LINE
  8
0
 10
40.4763
 20
7.87599
 11
40.5
 21
7.5
  0
LINE
  8
0
 10
40.5
 20
7.5
 11
40.4763
 21
7.12399
  0
LINE
  8
0
 10
40.4763
 20
7.12399
 11
40.4057
 21
6.75392
  0
LINE
  8
0
 10
40.4057
 20
6.75392
 11
40.2893
 21
6.39561
  0
LINE
  8
0
 10
40.2893
 20
6.39561
 11
40.1289
 21
6.05473
  0
LINE
  8
0
 10
40.1289
 20
6.05473
 11
39.927
 21
5.73663
  0
LINE
  8
0
 10
39.927
 20
5.73663
 11
39.6869
 21
5.44635
  0
LINE
  8
0
 10
39.6869
 20
5.44635
 11
39.4123
 21
5.18845
  0
LINE
  8
0
 10
39.4123
 20
5.18845
 11
39.1075
 21
4.96701
  0
LINE
  8
0
 10
39.1075
 20
4.96701
 11
38.7773
 21
4.78551
  0
LINE
  8
0
 10
38.7773
 20
4.78551
 11
38.427
 21
4.64682
  0
LINE
  8
0
 10
38.427
 20
4.64682
 11
38.0621
 21
4.55313
  0
LINE
  8
0
 10
38.0621
 20
4.55313
 11
37.6884
 21
4.50591
  0
LINE
  8
0
 10
37.6884
 20
4.50591
 11
37.3116
 21
4.50591
  0
LINE
  8
0
 10
-37.6884
 20
4.50591
 11
-38.0621
 21
4.55313
  0
LINE
  8
0
 10
-38.0621
 20
4.55313
 11
-38.427
 21
4.64682
  0
LINE
  8
0
 10
-38.427
 20
4.64682
 11
-38.7773
 21
4.78551
  0
LINE
  8
0
 10
-38.7773
 20
4.78551
 11
-39.1075
 21
4.96701
  0
LINE
  8
0
 10
-39.1075
 20
4.96701
 11
-39.4123
 21
5.18845
  0
LINE
  8
0
 10
-39.4123
 20
5.18845
 11
-39.6869
 21
5.44635
  0
LINE
  8
0
 10
-39.6869
 20
5.44635
 11
-39.927
 21
5.73663
  0
LINE
  8
0
 10
-39.927
 20
5.73663
 11
-40.1289
 21
6.05473
  0
LINE
  8
0
 10
-40.1289
 20
6.05473
 11
-40.2893
 21
6.39561
  0
LINE
  8
0
 10
-40.2893
 20
6.39561
 11
-40.4057
 21
6.75392
  0
LINE
  8
0
 10
-40.4057
 20
6.75392
 11
-40.4763
 21
7.12399
  0
LINE
  8
0
 10
-40.4763
 20
7.12399
 11
-40.5
 21
7.5
  0
LINE
  8
0
 10
-40.5
 20
7.5
 11
-40.4763
 21
7.87599
  0
LINE
  8
0
 10
-40.4763
 20
7.87599
 11
-40.4057
 21
8.24606
  0
LINE
  8
0
 10
-40.4057
 20
8.24606
 11
-40.2893
 21
8.60437
  0
LINE
  8
0
 10
-40.2893
 20
8.60437
 11
-40.1289
 21
8.94525
  0
LINE
  8
0
 10
-40.1289
 20
8.94525
 11
-39.927
 21
9.26335
  0
LINE
  8
0
 10
-39.927
 20
9.26335
 11
-39.6869
 21
9.55363
  0
LINE
  8
0
 10
-39.6869
 20
9.55363
 11
-39.4123
 21
9.81154
  0
LINE
  8
0
 10
-39.4123
 20
9.81154
 11
-39.1075
 21
10.033
  0
LINE
  8
0
 10
-39.1075
 20
10.033
 11
-38.7773
 21
10.2145
  0
LINE
  8
0
 10
-38.7773
 20
10.2145
 11
-38.427
 21
10.3532
  0
LINE
  8
0
 10
-38.427
 20
10.3532
 11
-38.0621
 21
10.4469
  0
LINE
  8
0
 10
-38.0621
 20
10.4469
 11
-37.6884
 21
10.4941
  0
LINE
  8
0
 10
-37.6884
 20
10.4941
 11
-37.3116
 21
10.4941
  0
LINE
  8
0
 10
-37.3116
 20
10.4941
 11
-36.9379
 21
10.4469
  0
LINE
  8
0
 10
-36.9379
 20
10.4469
 11
-36.5729
 21
10.3532
  0
LINE
  8
0
 10
-36.5729
 20
10.3532
 11
-36.2227
 21
10.2145
  0
LINE
  8
0
 10
-36.2227
 20
10.2145
 11
-35.8925
 21
10.033
  0
LINE
  8
0
 10
-35.8925
 20
10.033
 11
-35.5877
 21
9.81154
  0
LINE
  8
0
 10
-35.5877
 20
9.81154
 11
-35.3131
 21
9.55363
  0
LINE
  8
0
 10
-35.3131
 20
9.55363
 11
-35.0729
 21
9.26335
  0
LINE
  8
0
 10
-35.0729
 20
9.26335
 11
-34.8711
 21
8.94525
  0
LINE
  8
0
 10
-34.8711
 20
8.94525
 11
-34.7107
 21
8.60437
  0
LINE
  8
0
 10
-34.7107
 20
8.60437
 11
-34.5942
 21
8.24606
  0
LINE
  8
0
 10
-34.5942
 20
8.24606
 11
-34.5237
 21
7.87599
  0
LINE
  8
0
 10
-34.5237
 20
7.87599
 11
-34.5
 21
7.5
  0
LINE
  8
0
 10
-34.5
 20
7.5
 11
-34.5237
 21
7.12399
  0
LINE
  8
0
 10
-34.5237
 20
7.12399
 11
-34.5942
 21
6.75392
  0
LINE
  8
0
 10
-34.5942
 20
6.75392
 11
-34.7107
 21
6.39561
  0
LINE
  8
0
 10
-34.7107
 20
6.39561
 11
-34.8711
 21
6.05473
  0
LINE
  8
0
 10
-34.8711
 20
6.05473
 11
-35.0729
 21
5.73663
  0
LINE
  8
0
 10
-35.0729
 20
5.73663
 11
-35.3131
 21
5.44635
  0
LINE
  8
0
 10
-35.3131
 20
5.44635
 11
-35.5877
 21
5.18845
  0
LINE
  8
0
 10
-35.5877
 20
5.18845
 11
-35.8925
 21
4.96701
  0
LINE
  8
0
 10
-35.8925
 20
4.96701
 11
-36.2227
 21
4.78551
  0
LINE
  8
0
 10
-36.2227
 20
4.78551
 11
-36.5729
 21
4.64682
  0
LINE
  8
0
 10
-36.5729
 20
4.64682
 11
-36.9379
 21
4.55313
  0
LINE
  8
0
 10
-36.9379
 20
4.55313
 11
-37.3116
 21
4.50591
  0
LINE
  8
0
 10
-37.3116
 20
4.50591
 11
-37.6884
 21
4.50591
  0
LINE
  8
0
 10
-37.5942
 20
-1.49704
 11
-37.7811
 21
-1.47342
  0
LINE
  8
0
 10
-37.7811
 20
-1.47342
 11
-37.9635
 21
-1.42657
  0
LINE
  8
0
 10
-37.9635
 20
-1.42657
 11
-38.1387
 21
-1.35724
  0
LINE
  8
0
 10
-38.1387
 20
-1.35724
 11
-38.3037
 21
-1.26648
  0
LINE
  8
0
 10
-38.3037
 20
-1.26648
 11
-38.4561
 21
-1.15576
  0
LINE
  8
0
 10
-38.4561
 20
-1.15576
 11
-38.5934
 21
-1.02681
  0
LINE
  8
0
 10
-38.5934
 20
-1.02681
 11
-38.7135
 21
-0.881668
  0
LINE
  8
0
 10
-38.7135
 20
-0.881668
 11
-38.8145
 21
-0.722626
  0
LINE
  8
0
 10
-38.8145
 20
-0.722626
 11
-38.8947
 21
-0.552185
  0
LINE
  8
0
 10
-38.8947
 20
-0.552185
 11
-38.9529
 21
-0.373032
  0
LINE
  8
0
 10
-38.9529
 20
-0.373032
 11
-38.9882
 21
-0.187988
  0
LINE
  8
0
 10
-38.9882
 20
-0.187988
 11
-39
 21
0
  0
LINE
  8
0
 10
-39
 20
0
 11
-38.9882
 21
0.187988
  0
LINE
  8
0
 10
-38.9882
 20
0.187988
 11
-38.9529
 21
0.373032
  0
LINE
  8
0
 10
-38.9529
 20
0.373032
 11
-38.8947
 21
0.552185
  0
LINE
  8
0
 10
-38.8947
 20
0.552185
 11
-38.8145
 21
0.722626
  0
LINE
  8
0
 10
-38.8145
 20
0.722626
 11
-38.7135
 21
0.881668
  0
LINE
  8
0
 10
-38.7135
 20
0.881668
 11
-38.5934
 21
1.02681
  0
LINE
  8
0
 10
-38.5934
 20
1.02681
 11
-38.4561
 21
1.15576
  0
LINE
  8
0
 10
-38.4561
 20
1.15576
 11
-38.3037
 21
1.26648
  0
LINE
  8
0
 10
-38.3037
 20
1.26648
 11
-38.1387
 21
1.35724
  0
LINE
  8
0
 10
-38.1387
 20
1.35724
 11
-37.9635
 21
1.42657
  0
LINE
  8
0
 10
-37.9635
 20
1.42657
 11
-37.7811
 21
1.47342
  0
LINE
  8
0
 10
-37.7811
 20
1.47342
 11
-37.5942
 21
1.49704
  0
LINE
  8
0
 10
-37.5942
 20
1.49704
 11
-37.4058
 21
1.49704
  0
LINE
  8
0
 10
-37.4058
 20
1.49704
 11
-37.2189
 21
1.47342
  0
LINE
  8
0
 10
-37.2189
 20
1.47342
 11
-37.0365
 21
1.42657
  0
LINE
  8
0
 10
-37.0365
 20
1.42657
 11
-36.8613
 21
1.35724
  0
LINE
  8
0
 10
-36.8613
 20
1.35724
 11
-36.6963
 21
1.26648
  0
LINE
  8
0
 10
-36.6963
 20
1.26648
 11
-36.5439
 21
1.15576
  0
LINE
  8
0
 10
-36.5439
 20
1.15576
 11
-36.4065
 21
1.02681
  0
LINE
  8
0
 10
-36.4065
 20
1.02681
 11
-36.2865
 21
0.881668
  0
LINE
  8
0
 10
-36.2865
 20
0.881668
 11
-36.1855
 21
0.722626
  0
LINE
  8
0
 10
-36.1855
 20
0.722626
 11
-36.1053
 21
0.552185
  0
LINE
  8
0
 10
-36.1053
 20
0.552185
 11
-36.0471
 21
0.373032
  0
LINE
  8
0
 10
-36.0471
 20
0.373032
 11
-36.0118
 21
0.187988
  0
LINE
  8
0
 10
-36.0118
 20
0.187988
 11
-36
 21
0
  0
LINE
  8
0
 10
-36
 20
0
 11
-36.0118
 21
-0.187988
  0
LINE
  8
0
 10
-36.0118
 20
-0.187988
 11
-36.0471
 21
-0.373032
  0
LINE
  8
0
 10
-36.0471
 20
-0.373032
 11
-36.1053
 21
-0.552185
  0
LINE
  8
0
 10
-36.1053
 20
-0.552185
 11
-36.1855
 21
-0.722626
  0
LINE
  8
0
 10
-36.1855
 20
-0.722626
 11
-36.2865
 21
-0.881668
  0
LINE
  8
0
 10
-36.2865
 20
-0.881668
 11
-36.4065
 21
-1.02681
  0
LINE
  8
0
 10
-36.4065
 20
-1.02681
 11
-36.5439
 21
-1.15576
  0
LINE
  8
0
 10
-36.5439
 20
-1.15576
 11
-36.6963
 21
-1.26648
  0
LINE
  8
0
 10
-36.6963
 20
-1.26648
 11
-36.8613
 21
-1.35724
  0
LINE
  8
0
 10
-36.8613
 20
-1.35724
 11
-37.0365
 21
-1.42657
  0
LINE
  8
0
 10
-37.0365
 20
-1.42657
 11
-37.2189
 21
-1.47342
  0
LINE
  8
0
 10
-37.2189
 20
-1.47342
 11
-37.4058
 21
-1.49704
  0
LINE
  8
0
 10
-37.4058
 20
-1.49704
 11
-37.5942
 21
-1.49704
  0
LINE
  8
0
 10
37.4058
 20
-1.49704
 11
37.2189
 21
-1.47342
  0
LINE
  8
0
 10
37.2189
 20
-1.47342
 11
37.0365
 21
-1.42657
  0
LINE
  8
0
 10
37.0365
 20
-1.42657
 11
36.8613
 21
-1.35724
  0
LINE
  8
0
 10
36.8613
 20
-1.35724
 11
36.6963
 21
-1.26648
  0
LINE
  8
0
 10
36.6963
 20
-1.26648
 11
36.5439
 21
-1.15576
  0
LINE
  8
0
 10
36.5439
 20
-1.15576
 11
36.4065
 21
-1.02681
  0
LINE
  8
0
 10
36.4065
 20
-1.02681
 11
36.2865
 21
-0.881668
  0
LINE
  8
0
 10
36.2865
 20
-0.881668
 11
36.1855
 21
-0.722626
  0
LINE
  8
0
 10
36.1855
 20
-0.722626
 11
36.1053
 21
-0.552185
  0
LINE
  8
0
 10
36.1053
 20
-0.552185
 11
36.0471
 21
-0.373032
  0
LINE
  8
0
 10
36.0471
 20
-0.373032
 11
36.0118
 21
-0.187988
  0
LINE
  8
0
 10
36.0118
 20
-0.187988
 11
36
 21
0
  0
LINE
  8
0
 10
36
 20
0
 11
36.0118
 21
0.187988
  0
LINE
  8
0
 10
36.0118
 20
0.187988
 11
36.0471
 21
0.373032
  0
LINE
  8
0
 10
36.0471
 20
0.373032
 11
36.1053
 21
0.552185
  0
LINE
  8
0
 10
36.1053
 20
0.552185
 11
36.1855
 21
0.722626
  0
LINE
  8
0
 10
36.1855
 20
0.722626
 11
36.2865
 21
0.881668
  0
LINE
  8
0
 10
36.2865
 20
0.881668
 11
36.4065
 21
1.02681
  0
LINE
  8
0
 10
36.4065
 20
1.02681
 11
36.5439
 21
1.15576
  0
LINE
  8
0
 10
36.5439
 20
1.15576
 11
36.6963
 21
1.26648
  0
LINE
  8
0
 10
36.6963
 20
1.26648
 11
36.8613
 21
1.35724
  0
LINE
  8
0
 10
36.8613
 20
1.35724
 11
37.0365
 21
1.42657
  0
LINE
  8
0
 10
37.0365
 20
1.42657
 11
37.2189
 21
1.47342
  0
LINE
  8
0
 10
37.2189
 20
1.47342
 11
37.4058
 21
1.49704
  0
LINE
  8
0
 10
37.4058
 20
1.49704
 11
37.5942
 21
1.49704
  0
LINE
  8
0
 10
37.5942
 20
1.49704
 11
37.7811
 21
1.47342
  0
LINE
  8
0
 10
37.7811
 20
1.47342
 11
37.9635
 21
1.42657
  0
LINE
  8
0
 10
37.9635
 20
1.42657
 11
38.1387
 21
1.35724
  0
LINE
  8
0
 10
38.1387
 20
1.35724
 11
38.3037
 21
1.26648
  0
LINE
  8
0
 10
38.3037
 20
1.26648
 11
38.4561
 21
1.15576
  0
LINE
  8
0
 10
38.4561
 20
1.15576
 11
38.5934
 21
1.02681
  0
LINE
  8
0
 10
38.5934
 20
1.02681
 11
38.7135
 21
0.881668
  0
LINE
  8
0
 10
38.7135
 20
0.881668
 11
38.8145
 21
0.722626
  0
LINE
  8
0
 10
38.8145
 20
0.722626
 11
38.8947
 21
0.552185
  0
LINE
  8
0
 10
38.8947
 20
0.552185
 11
38.9529
 21
0.373032
  0
LINE
  8
0
 10
38.9529
 20
0.373032
 11
38.9882
 21
0.187988
  0
LINE
  8
0
 10
38.9882
 20
0.187988
 11
39
 21
0
  0
LINE
  8
0
 10
39
 20
0
 11
38.9882
 21
-0.187988
  0
LINE
  8
0
 10
38.9882
 20
-0.187988
 11
38.9529
 21
-0.373032
  0
LINE
  8
0
 10
38.9529
 20
-0.373032
 11
38.8947
 21
-0.552185
  0
LINE
  8
0
 10
38.8947
 20
-0.552185
 11
38.8145
 21
-0.722626
  0
LINE
  8
0
 10
38.8145
 20
-0.722626
 11
38.7135
 21
-0.881668
  0
LINE
  8
0
 10
38.7135
 20
-0.881668
 11
38.5934
 21
-1.02681
  0
LINE
  8
0
 10
38.5934
 20
-1.02681
 11
38.4561
 21
-1.15576
  0
LINE
  8
0
 10
38.4561
 20
-1.15576
 11
38.3037
 21
-1.26648
  0
LINE
  8
0
 10
38.3037
 20
-1.26648
 11
38.1387
 21
-1.35724
  0
LINE
  8
0
 10
38.1387
 20
-1.35724
 11
37.9635
 21
-1.42657
  0
LINE
  8
0
 10
37.9635
 20
-1.42657
 11
37.7811
 21
-1.47342
  0
LINE
  8
0
 10
37.7811
 20
-1.47342
 11
37.5942
 21
-1.49704
  0
LINE
  8
0
 10
37.5942
 20
-1.49704
 11
37.4058
 21
-1.49704
  0
LINE
  8
0
 10
-37.6884
 20
-10.4941
 11
-38.0621
 21
-10.4469
  0
LINE
  8
0
 10
-38.0621
 20
-10.4469
 11
-38.427
 21
-10.3532
  0
LINE
  8
0
 10
-38.427
 20
-10.3532
 11
-38.7773
 21
-10.2145
  0
LINE
  8
0
 10
-38.7773
 20
-10.2145
 11
-39.1075
 21
-10.033
  0
LINE
  8
0
 10
-39.1075
 20
-10.033
 11
-39.4123
 21
-9.81154
  0
LINE
  8
0
 10
-39.4123
 20
-9.81154
 11
-39.6869
 21
-9.55363
  0
LINE
  8
0
 10
-39.6869
 20
-9.55363
 11
-39.927
 21
-9.26335
  0
LINE
  8
0
 10
-39.927
 20
-9.26335
 11
-40.1289
 21
-8.94525
  0
LINE
  8
0
 10
-40.1289
 20
-8.94525
 11
-40.2893
 21
-8.60437
  0
LINE
  8
0
 10
-40.2893
 20
-8.60437
 11
-40.4057
 21
-8.24606
  0
LINE
  8
0
 10
-40.4057
 20
-8.24606
 11
-40.4763
 21
-7.87599
  0
LINE
  8
0
 10
-40.4763
 20
-7.87599
 11
-40.5
 21
-7.5
  0
LINE
  8
0
 10
-40.5
 20
-7.5
 11
-40.4763
 21
-7.12399
  0
LINE
  8
0
 10
-40.4763
 20
-7.12399
 11
-40.4057
 21
-6.75392
  0
LINE
  8
0
 10
-40.4057
 20
-6.75392
 11
-40.2893
 21
-6.39561
  0
LINE
  8
0
 10
-40.2893
 20
-6.39561
 11
-40.1289
 21
-6.05473
  0
LINE
  8
0
 10
-40.1289
 20
-6.05473
 11
-39.927
 21
-5.73663
  0
LINE
  8
0
 10
-39.927
 20
-5.73663
 11
-39.6869
 21
-5.44635
  0
LINE
  8
0
 10
-39.6869
 20
-5.44635
 11
-39.4123
 21
-5.18845
  0
LINE
  8
0
 10
-39.4123
 20
-5.18845
 11
-39.1075
 21
-4.96701
  0
LINE
  8
0
 10
-39.1075
 20
-4.96701
 11
-38.7773
 21
-4.78551
  0
LINE
  8
0
 10
-38.7773
 20
-4.78551
 11
-38.427
 21
-4.64682
  0
LINE
  8
0
 10
-38.427
 20
-4.64682
 11
-38.0621
 21
-4.55313
  0
LINE
  8
0
 10
-38.0621
 20
-4.55313
 11
-37.6884
 21
-4.50591
  0
LINE
  8
0
 10
-37.6884
 20
-4.50591
 11
-37.3116
 21
-4.50591
  0
LINE
  8
0
 10
-37.3116
 20
-4.50591
 11
-36.9379
 21
-4.55313
  0
LINE
  8
0
 10
-36.9379
 20
-4.55313
 11
-36.5729
 21
-4.64682
  0
LINE
  8
0
 10
-36.5729
 20
-4.64682
 11
-36.2227
 21
-4.78551
  0
LINE
  8
0
 10
-36.2227
 20
-4.78551
 11
-35.8925
 21
-4.96701
  0
LINE
  8
0
 10
-35.8925
 20
-4.96701
 11
-35.5877
 21
-5.18845
  0
LINE
  8
0
 10
-35.5877
 20
-5.18845
 11
-35.3131
 21
-5.44635
  0
LINE
  8
0
 10
-35.3131
 20
-5.44635
 11
-35.0729
 21
-5.73663
  0
LINE
  8
0
 10
-35.0729
 20
-5.73663
 11
-34.8711
 21
-6.05473
  0
LINE
  8
0
 10
-34.8711
 20
-6.05473
 11
-34.7107
 21
-6.39561
  0
LINE
  8
0
 10
-34.7107
 20
-6.39561
 11
-34.5942
 21
-6.75392
  0
LINE
  8
0
 10
-34.5942
 20
-6.75392
 11
-34.5237
 21
-7.12399
  0
LINE
  8
0
 10
-34.5237
 20
-7.12399
 11
-34.5
 21
-7.5
  0
LINE
  8
0
 10
-34.5
 20
-7.5
 11
-34.5237
 21
-7.87599
  0
LINE
  8
0
 10
-34.5237
 20
-7.87599
 11
-34.5942
 21
-8.24606
  0
LINE
  8
0
 10
-34.5942
 20
-8.24606
 11
-34.7107
 21
-8.60437
  0
LINE
  8
0
 10
-34.7107
 20
-8.60437
 11
-34.8711
 21
-8.94525
  0
LINE
  8
0
 10
-34.8711
 20
-8.94525
 11
-35.0729
 21
-9.26335
  0
LINE
  8
0
 10
-35.0729
 20
-9.26335
 11
-35.3131
 21
-9.55363
  0
LINE
  8
0
 10
-35.3131
 20
-9.55363
 11
-35.5877
 21
-9.81154
  0
LINE
  8
0
 10
-35.5877
 20
-9.81154
 11
-35.8925
 21
-10.033
  0
LINE
  8
0
 10
-35.8925
 20
-10.033
 11
-36.2227
 21
-10.2145
  0
LINE
  8
0
 10
-36.2227
 20
-10.2145
 11
-36.5729
 21
-10.3532
  0
LINE
  8
0
 10
-36.5729
 20
-10.3532
 11
-36.9379
 21
-10.4469
  0
LINE
  8
0
 10
-36.9379
 20
-10.4469
 11
-37.3116
 21
-10.4941
  0
LINE
  8
0
 10
-37.3116
 20
-10.4941
 11
-37.6884
 21
-10.4941
  0
LINE
  8
0
 10
37.3116
 20
-10.4941
 11
36.9379
 21
-10.4469
  0
LINE
  8
0
 10
36.9379
 20
-10.4469
 11
36.5729
 21
-10.3532
  0
LINE
  8
0
 10
36.5729
 20
-10.3532
 11
36.2227
 21
-10.2145
  0
LINE
  8
0
 10
36.2227
 20
-10.2145
 11
35.8925
 21
-10.033
  0
LINE
  8
0
 10
35.8925
 20
-10.033
 11
35.5877
 21
-9.81154
  0
LINE
  8
0
 10
35.5877
 20
-9.81154
 11
35.3131
 21
-9.55363
  0
LINE
  8
0
 10
35.3131
 20
-9.55363
 11
35.0729
 21
-9.26335
  0
LINE
  8
0
 10
35.0729
 20
-9.26335
 11
34.8711
 21
-8.94525
  0
LINE
  8
0
 10
34.8711
 20
-8.94525
 11
34.7107
 21
-8.60437
  0
LINE
  8
0
 10
34.7107
 20
-8.60437
 11
34.5942
 21
-8.24606
  0
LINE
  8
0
 10
34.5942
 20
-8.24606
 11
34.5237
 21
-7.87599
  0
LINE
  8
0
 10
34.5237
 20
-7.87599
 11
34.5
 21
-7.5
  0
LINE
  8
0
 10
34.5
 20
-7.5
 11
34.5237
 21
-7.12399
  0
LINE
  8
0
 10
34.5237
 20
-7.12399
 11
34.5942
 21
-6.75392
  0
LINE
  8
0
 10
34.5942
 20
-6.75392
 11
34.7107
 21
-6.39561
  0
LINE
  8
0
 10
34.7107
 20
-6.39561
 11
34.8711
 21
-6.05473
  0
LINE
  8
0
 10
34.8711
 20
-6.05473
 11
35.0729
 21
-5.73663
  0
LINE
  8
0
 10
35.0729
 20
-5.73663
 11
35.3131
 21
-5.44635
  0
LINE
  8
0
 10
35.3131
 20
-5.44635
 11
35.5877
 21
-5.18845
  0
LINE
  8
0
 10
35.5877
 20
-5.18845
 11
35.8925
 21
-4.96701
  0
LINE
  8
0
 10
35.8925
 20
-4.96701
 11
36.2227
 21
-4.78551
  0
LINE
  8
0
 10
36.2227
 20
-4.78551
 11
36.5729
 21
-4.64682
  0
LINE
  8
0
 10
36.5729
 20
-4.64682
 11
36.9379
 21
-4.55313
  0
LINE
  8
0
 10
36.9379
 20
-4.55313
 11
37.3116
 21
-4.50591
  0
LINE
  8
0
 10
37.3116
 20
-4.50591
 11
37.6884
 21
-4.50591
  0
LINE
  8
0
 10
37.6884
 20
-4.50591
 11
38.0621
 21
-4.55313
  0
LINE
  8
0
 10
38.0621
 20
-4.55313
 11
38.427
 21
-4.64682
  0
LINE
  8
0
 10
38.427
 20
-4.64682
 11
38.7773
 21
-4.78551
  0
LINE
  8
0
 10
38.7773
 20
-4.78551
 11
39.1075
 21
-4.96701
  0
LINE
  8
0
 10
39.1075
 20
-4.96701
 11
39.4123
 21
-5.18845
  0
LINE
  8
0
 10
39.4123
 20
-5.18845
 11
39.6869
 21
-5.44635
  0
LINE
  8
0
 10
39.6869
 20
-5.44635
 11
39.927
 21
-5.73663
  0
LINE
  8
0
 10
39.927
 20
-5.73663
 11
40.1289
 21
-6.05473
  0
LINE
  8
0
 10
40.1289
 20
-6.05473
 11
40.2893
 21
-6.39561
  0
LINE
  8
0
 10
40.2893
 20
-6.39561
 11
40.4057
 21
-6.75392
  0
LINE
  8
0
 10
40.4057
 20
-6.75392
 11
40.4763
 21
-7.12399
  0
LINE
  8
0
 10
40.4763
 20
-7.12399
 11
40.5
 21
-7.5
  0
LINE
  8
0
 10
40.5
 20
-7.5
 11
40.4763
 21
-7.87599
  0
LINE
  8
0
 10
40.4763
 20
-7.87599
 11
40.4057
 21
-8.24606
  0
LINE
  8
0
 10
40.4057
 20
-8.24606
 11
40.2893
 21
-8.60437
  0
LINE
  8
0
 10
40.2893
 20
-8.60437
 11
40.1289
 21
-8.94525
  0
LINE
  8
0
 10
40.1289
 20
-8.94525
 11
39.927
 21
-9.26335
  0
LINE
  8
0
 10
39.927
 20
-9.26335
 11
39.6869
 21
-9.55363
  0
LINE
  8
0
 10
39.6869
 20
-9.55363
 11
39.4123
 21
-9.81154
  0
LINE
  8
0
 10
39.4123
 20
-9.81154
 11
39.1075
 21
-10.033
  0
LINE
  8
0
 10
39.1075
 20
-10.033
 11
38.7773
 21
-10.2145
  0
LINE
  8
0
 10
38.7773
 20
-10.2145
 11
38.427
 21
-10.3532
  0
LINE
  8
0
 10
38.427
 20
-10.3532
 11
38.0621
 21
-10.4469
  0
LINE
  8
0
 10
38.0621
 20
-10.4469
 11
37.6884
 21
-10.4941
  0
LINE
  8
0
 10
37.6884
 20
-10.4941
 11
37.3116
 21
-10.4941
  0
LINE
  8
0
 10
-37.5942
 20
-16.497
 11
-37.7811
 21
-16.4734
  0
LINE
  8
0
 10
-37.7811
 20
-16.4734
 11
-37.9635
 21
-16.4266
  0
LINE
  8
0
 10
-37.9635
 20
-16.4266
 11
-38.1387
 21
-16.3572
  0
LINE
  8
0
 10
-38.1387
 20
-16.3572
 11
-38.3037
 21
-16.2665
  0
LINE
  8
0
 10
-38.3037
 20
-16.2665
 11
-38.4561
 21
-16.1558
  0
LINE
  8
0
 10
-38.4561
 20
-16.1558
 11
-38.5934
 21
-16.0268
  0
LINE
  8
0
 10
-38.5934
 20
-16.0268
 11
-38.7135
 21
-15.8817
  0
LINE
  8
0
 10
-38.7135
 20
-15.8817
 11
-38.8145
 21
-15.7226
  0
LINE
  8
0
 10
-38.8145
 20
-15.7226
 11
-38.8947
 21
-15.5522
  0
LINE
  8
0
 10
-38.8947
 20
-15.5522
 11
-38.9529
 21
-15.373
  0
LINE
  8
0
 10
-38.9529
 20
-15.373
 11
-38.9882
 21
-15.188
  0
LINE
  8
0
 10
-38.9882
 20
-15.188
 11
-39
 21
-15
  0
LINE
  8
0
 10
-39
 20
-15
 11
-38.9882
 21
-14.812
  0
LINE
  8
0
 10
-38.9882
 20
-14.812
 11
-38.9529
 21
-14.627
  0
LINE
  8
0
 10
-38.9529
 20
-14.627
 11
-38.8947
 21
-14.4478
  0
LINE
  8
0
 10
-38.8947
 20
-14.4478
 11
-38.8145
 21
-14.2774
  0
LINE
  8
0
 10
-38.8145
 20
-14.2774
 11
-38.7135
 21
-14.1183
  0
LINE
  8
0
 10
-38.7135
 20
-14.1183
 11
-38.5934
 21
-13.9732
  0
LINE
  8
0
 10
-38.5934
 20
-13.9732
 11
-38.4561
 21
-13.8442
  0
LINE
  8
0
 10
-38.4561
 20
-13.8442
 11
-38.3037
 21
-13.7335
  0
LINE
  8
0
 10
-38.3037
 20
-13.7335
 11
-38.1387
 21
-13.6427
  0
LINE
  8
0
 10
-38.1387
 20
-13.6427
 11
-37.9635
 21
-13.5734
  0
LINE
  8
0
 10
-37.9635
 20
-13.5734
 11
-37.7811
 21
-13.5266
  0
LINE
  8
0
 10
-37.7811
 20
-13.5266
 11
-37.5942
 21
-13.5029
  0
LINE
  8
0
 10
-37.5942
 20
-13.5029
 11
-37.4058
 21
-13.5029
  0
LINE
  8
0
 10
-37.4058
 20
-13.5029
 11
-37.2189
 21
-13.5266
  0
LINE
  8
0
 10
-37.2189
 20
-13.5266
 11
-37.0365
 21
-13.5734
  0
LINE
  8
0
 10
-37.0365
 20
-13.5734
 11
-36.8613
 21
-13.6427
  0
LINE
  8
0
 10
-36.8613
 20
-13.6427
 11
-36.6963
 21
-13.7335
  0
LINE
  8
0
 10
-36.6963
 20
-13.7335
 11
-36.5439
 21
-13.8442
  0
LINE
  8
0
 10
-36.5439
 20
-13.8442
 11
-36.4065
 21
-13.9732
  0
LINE
  8
0
 10
-36.4065
 20
-13.9732
 11
-36.2865
 21
-14.1183
  0
LINE
  8
0
 10
-36.2865
 20
-14.1183
 11
-36.1855
 21
-14.2774
  0
LINE
  8
0
 10
-36.1855
 20
-14.2774
 11
-36.1053
 21
-14.4478
  0
LINE
  8
0
 10
-36.1053
 20
-14.4478
 11
-36.0471
 21
-14.627
  0
LINE
  8
0
 10
-36.0471
 20
-14.627
 11
-36.0118
 21
-14.812
  0
LINE
  8
0
 10
-36.0118
 20
-14.812
 11
-36
 21
-15
  0
LINE
  8
0
 10
-36
 20
-15
 11
-36.0118
 21
-15.188
  0
LINE
  8
0
 10
-36.0118
 20
-15.188
 11
-36.0471
 21
-15.373
  0
LINE
  8
0
 10
-36.0471
 20
-15.373
 11
-36.1053
 21
-15.5522
  0
LINE
  8
0
 10
-36.1053
 20
-15.5522
 11
-36.1855
 21
-15.7226
  0
LINE
  8
0
 10
-36.1855
 20
-15.7226
 11
-36.2865
 21
-15.8817
  0
LINE
  8
0
 10
-36.2865
 20
-15.8817
 11
-36.4065
 21
-16.0268
  0
LINE
  8
0
 10
-36.4065
 20
-16.0268
 11
-36.5439
 21
-16.1558
  0
LINE
  8
0
 10
-36.5439
 20
-16.1558
 11
-36.6963
 21
-16.2665
  0
LINE
  8
0
 10
-36.6963
 20
-16.2665
 11
-36.8613
 21
-16.3572
  0
LINE
  8
0
 10
-36.8613
 20
-16.3572
 11
-37.0365
 21
-16.4266
  0
LINE
  8
0
 10
-37.0365
 20
-16.4266
 11
-37.2189
 21
-16.4734
  0
LINE
  8
0
 10
-37.2189
 20
-16.4734
 11
-37.4058
 21
-16.497
  0
LINE
  8
0
 10
-37.4058
 20
-16.497
 11
-37.5942
 21
-16.497
  0
LINE
  8
0
 10
37.4058
 20
-16.497
 11
37.2189
 21
-16.4734
  0
LINE
  8
0
 10
37.2189
 20
-16.4734
 11
37.0365
 21
-16.4266
  0
LINE
  8
0
 10
37.0365
 20
-16.4266
 11
36.8613
 21
-16.3572
  0
LINE
  8
0
 10
36.8613
 20
-16.3572
 11
36.6963
 21
-16.2665
  0
LINE
  8
0
 10
36.6963
 20
-16.2665
 11
36.5439
 21
-16.1558
  0
LINE
  8
0
 10
36.5439
 20
-16.1558
 11
36.4065
 21
-16.0268
  0
LINE
  8
0
 10
36.4065
 20
-16.0268
 11
36.2865
 21
-15.8817
  0
LINE
  8
0
 10
36.2865
 20
-15.8817
 11
36.1855
 21
-15.7226
  0
LINE
  8
0
 10
36.1855
 20
-15.7226
 11
36.1053
 21
-15.5522
  0
LINE
  8
0
 10
36.1053
 20
-15.5522
 11
36.0471
 21
-15.373
  0
LINE
  8
0
 10
36.0471
 20
-15.373
 11
36.0118
 21
-15.188
  0
LINE
  8
0
 10
36.0118
 20
-15.188
 11
36
 21
-15
  0
LINE
  8
0
 10
36
 20
-15
 11
36.0118
 21
-14.812
  0
LINE
  8
0
 10
36.0118
 20
-14.812
 11
36.0471
 21
-14.627
  0
LINE
  8
0
 10
36.0471
 20
-14.627
 11
36.1053
 21
-14.4478
  0
LINE
  8
0
 10
36.1053
 20
-14.4478
 11
36.1855
 21
-14.2774
  0
LINE
  8
0
 10
36.1855
 20
-14.2774
 11
36.2865
 21
-14.1183
  0
LINE
  8
0
 10
36.2865
 20
-14.1183
 11
36.4065
 21
-13.9732
  0
LINE
  8
0
 10
36.4065
 20
-13.9732
 11
36.5439
 21
-13.8442
  0
LINE
  8
0
 10
36.5439
 20
-13.8442
 11
36.6963
 21
-13.7335
  0
LINE
  8
0
 10
36.6963
 20
-13.7335
 11
36.8613
 21
-13.6427
  0
LINE
  8
0
 10
36.8613
 20
-13.6427
 11
37.0365
 21
-13.5734
  0
LINE
  8
0
 10
37.0365
 20
-13.5734
 11
37.2189
 21
-13.5266
  0
LINE
  8
0
 10
37.2189
 20
-13.5266
 11
37.4058
 21
-13.5029
  0
LINE
  8
0
 10
37.4058
 20
-13.5029
 11
37.5942
 21
-13.5029
  0
LINE
  8
0
 10
37.5942
 20
-13.5029
 11
37.7811
 21
-13.5266
  0
LINE
  8
0
 10
37.7811
 20
-13.5266
 11
37.9635
 21
-13.5734
  0
LINE
  8
0
 10
37.9635
 20
-13.5734
 11
38.1387
 21
-13.6427
  0
LINE
  8
0
 10
38.1387
 20
-13.6427
 11
38.3037
 21
-13.7335
  0
LINE
  8
0
 10
38.3037
 20
-13.7335
 11
38.4561
 21
-13.8442
  0
LINE
  8
0
 10
38.4561
 20
-13.8442
 11
38.5934
 21
-13.9732
  0
LINE
  8
0
 10
38.5934
 20
-13.9732
 11
38.7135
 21
-14.1183
  0
LINE
  8
0
 10
38.7135
 20
-14.1183
 11
38.8145
 21
-14.2774
  0
LINE
  8
0
 10
38.8145
 20
-14.2774
 11
38.8947
 21
-14.4478
  0
LINE
  8
0
 10
38.8947
 20
-14.4478
 11
38.9529
 21
-14.627
  0
LINE
  8
0
 10
38.9529
 20
-14.627
 11
38.9882
 21
-14.812
  0
LINE
  8
0
 10
38.9882
 20
-14.812
 11
39
 21
-15
  0
LINE
  8
0
 10
39
 20
-15
 11
38.9882
 21
-15.188
  0
LINE
  8
0
 10
38.9882
 20
-15.188
 11
38.9529
 21
-15.373
  0
LINE
  8
0
 10
38.9529
 20
-15.373
 11
38.8947
 21
-15.5522
  0
LINE
  8
0
 10
38.8947
 20
-15.5522
 11
38.8145
 21
-15.7226
  0
LINE
  8
0
 10
38.8145
 20
-15.7226
 11
38.7135
 21
-15.8817
  0
LINE
  8
0
 10
38.7135
 20
-15.8817
 11
38.5934
 21
-16.0268
  0
LINE
  8
0
 10
38.5934
 20
-16.0268
 11
38.4561
 21
-16.1558
  0
LINE
  8
0
 10
38.4561
 20
-16.1558
 11
38.3037
 21
-16.2665
  0
LINE
  8
0
 10
38.3037
 20
-16.2665
 11
38.1387
 21
-16.3572
  0
LINE
  8
0
 10
38.1387
 20
-16.3572
 11
37.9635
 21
-16.4266
  0
LINE
  8
0
 10
37.9635
 20
-16.4266
 11
37.7811
 21
-16.4734
  0
LINE
  8
0
 10
37.7811
 20
-16.4734
 11
37.5942
 21
-16.497
  0
LINE
  8
0
 10
37.5942
 20
-16.497
 11
37.4058
 21
-16.497
  0
LINE
  8
0
 10
37.3116
 20
-25.4941
 11
36.9379
 21
-25.4469
  0
LINE
  8
0
 10
36.9379
 20
-25.4469
 11
36.5729
 21
-25.3532
  0
LINE
  8
0
 10
36.5729
 20
-25.3532
 11
36.2227
 21
-25.2145
  0
LINE
  8
0
 10
36.2227
 20
-25.2145
 11
35.8925
 21
-25.033
  0
LINE
  8
0
 10
35.8925
 20
-25.033
 11
35.5877
 21
-24.8115
  0
LINE
  8
0
 10
35.5877
 20
-24.8115
 11
35.3131
 21
-24.5536
  0
LINE
  8
0
 10
35.3131
 20
-24.5536
 11
35.0729
 21
-24.2634
  0
LINE
  8
0
 10
35.0729
 20
-24.2634
 11
34.8711
 21
-23.9453
  0
LINE
  8
0
 10
34.8711
 20
-23.9453
 11
34.7107
 21
-23.6044
  0
LINE
  8
0
 10
34.7107
 20
-23.6044
 11
34.5942
 21
-23.2461
  0
LINE
  8
0
 10
34.5942
 20
-23.2461
 11
34.5237
 21
-22.876
  0
LINE
  8
0
 10
34.5237
 20
-22.876
 11
34.5
 21
-22.5
  0
LINE
  8
0
 10
34.5
 20
-22.5
 11
34.5237
 21
-22.124
  0
LINE
  8
0
 10
34.5237
 20
-22.124
 11
34.5942
 21
-21.7539
  0
LINE
  8
0
 10
34.5942
 20
-21.7539
 11
34.7107
 21
-21.3956
  0
LINE
  8
0
 10
34.7107
 20
-21.3956
 11
34.8711
 21
-21.0547
  0
LINE
  8
0
 10
34.8711
 20
-21.0547
 11
35.0729
 21
-20.7366
  0
LINE
  8
0
 10
35.0729
 20
-20.7366
 11
35.3131
 21
-20.4464
  0
LINE
  8
0
 10
35.3131
 20
-20.4464
 11
35.5877
 21
-20.1884
  0
LINE
  8
0
 10
35.5877
 20
-20.1884
 11
35.8925
 21
-19.967
  0
LINE
  8
0
 10
35.8925
 20
-19.967
 11
36.2227
 21
-19.7855
  0
LINE
  8
0
 10
36.2227
 20
-19.7855
 11
36.5729
 21
-19.6468
  0
LINE
  8
0
 10
36.5729
 20
-19.6468
 11
36.9379
 21
-19.5531
  0
LINE
  8
0
 10
36.9379
 20
-19.5531
 11
37.3116
 21
-19.5059
  0
LINE
  8
0
 10
37.3116
 20
-19.5059
 11
37.6884
 21
-19.5059
  0
LINE
  8
0
 10
37.6884
 20
-19.5059
 11
38.0621
 21
-19.5531
  0
LINE
  8
0
 10
38.0621
 20
-19.5531
 11
38.427
 21
-19.6468
  0
LINE
  8
0
 10
38.427
 20
-19.6468
 11
38.7773
 21
-19.7855
  0
LINE
  8
0
 10
38.7773
 20
-19.7855
 11
39.1075
 21
-19.967
  0
LINE
  8
0
 10
39.1075
 20
-19.967
 11
39.4123
 21
-20.1884
  0
LINE
  8
0
 10
39.4123
 20
-20.1884
 11
39.6869
 21
-20.4464
  0
LINE
  8
0
 10
39.6869
 20
-20.4464
 11
39.927
 21
-20.7366
  0
LINE
  8
0
 10
39.927
 20
-20.7366
 11
40.1289
 21
-21.0547
  0
LINE
  8
0
 10
40.1289
 20
-21.0547
 11
40.2893
 21
-21.3956
  0
LINE
  8
0
 10
40.2893
 20
-21.3956
 11
40.4057
 21
-21.7539
  0
LINE
  8
0
 10
40.4057
 20
-21.7539
 11
40.4763
 21
-22.124
  0
LINE
  8
0
 10
40.4763
 20
-22.124
 11
40.5
 21
-22.5
  0
LINE
  8
0
 10
40.5
 20
-22.5
 11
40.4763
 21
-22.876
  0
LINE
  8
0
 10
40.4763
 20
-22.876
 11
40.4057
 21
-23.2461
  0
LINE
  8
0
 10
40.4057
 20
-23.2461
 11
40.2893
 21
-23.6044
  0
LINE
  8
0
 10
40.2893
 20
-23.6044
 11
40.1289
 21
-23.9453
  0
LINE
  8
0
 10
40.1289
 20
-23.9453
 11
39.927
 21
-24.2634
  0
LINE
  8
0
 10
39.927
 20
-24.2634
 11
39.6869
 21
-24.5536
  0
LINE
  8
0
 10
39.6869
 20
-24.5536
 11
39.4123
 21
-24.8115
  0
LINE
  8
0
 10
39.4123
 20
-24.8115
 11
39.1075
 21
-25.033
  0
LINE
  8
0
 10
39.1075
 20
-25.033
 11
38.7773
 21
-25.2145
  0
LINE
  8
0
 10
38.7773
 20
-25.2145
 11
38.427
 21
-25.3532
  0
LINE
  8
0
 10
38.427
 20
-25.3532
 11
38.0621
 21
-25.4469
  0
LINE
  8
0
 10
38.0621
 20
-25.4469
 11
37.6884
 21
-25.4941
  0
LINE
  8
0
 10
37.6884
 20
-25.4941
 11
37.3116
 21
-25.4941
  0
LINE
  8
0
 10
-37.6884
 20
-25.4941
 11
-38.0621
 21
-25.4469
  0
LINE
  8
0
 10
-38.0621
 20
-25.4469
 11
-38.427
 21
-25.3532
  0
LINE
  8
0
 10
-38.427
 20
-25.3532
 11
-38.7773
 21
-25.2145
  0
LINE
  8
0
 10
-38.7773
 20
-25.2145
 11
-39.1075
 21
-25.033
  0
LINE
  8
0
 10
-39.1075
 20
-25.033
 11
-39.4123
 21
-24.8115
  0
LINE
  8
0
 10
-39.4123
 20
-24.8115
 11
-39.6869
 21
-24.5536
  0
LINE
  8
0
 10
-39.6869
 20
-24.5536
 11
-39.927
 21
-24.2634
  0
LINE
  8
0
 10
-39.927
 20
-24.2634
 11
-40.1289
 21
-23.9453
  0
LINE
  8
0
 10
-40.1289
 20
-23.9453
 11
-40.2893
 21
-23.6044
  0
LINE
  8
0
 10
-40.2893
 20
-23.6044
 11
-40.4057
 21
-23.2461
  0
LINE
  8
0
 10
-40.4057
 20
-23.2461
 11
-40.4763
 21
-22.876
  0
LINE
  8
0
 10
-40.4763
 20
-22.876
 11
-40.5
 21
-22.5
  0
LINE
  8
0
 10
-40.5
 20
-22.5
 11
-40.4763
 21
-22.124
  0
LINE
  8
0
 10
-40.4763
 20
-22.124
 11
-40.4057
 21
-21.7539
  0
LINE
  8
0
 10
-40.4057
 20
-21.7539
 11
-40.2893
 21
-21.3956
  0
LINE
  8
0
 10
-40.2893
 20
-21.3956
 11
-40.1289
 21
-21.0547
  0
LINE
  8
0
 10
-40.1289
 20
-21.0547
 11
-39.927
 21
-20.7366
  0
LINE
  8
0
 10
-39.927
 20
-20.7366
 11
-39.6869
 21
-20.4464
  0
LINE
  8
0
 10
-39.6869
 20
-20.4464
 11
-39.4123
 21
-20.1884
  0
LINE
  8
0
 10
-39.4123
 20
-20.1884
 11
-39.1075
 21
-19.967
  0
LINE
  8
0
 10
-39.1075
 20
-19.967
 11
-38.7773
 21
-19.7855
  0
LINE
  8
0
 10
-38.7773
 20
-19.7855
 11
-38.427
 21
-19.6468
  0
LINE
  8
0
 10
-38.427
 20
-19.6468
 11
-38.0621
 21
-19.5531
  0
LINE
  8
0
 10
-38.0621
 20
-19.5531
 11
-37.6884
 21
-19.5059
  0
LINE
  8
0
 10
-37.6884
 20
-19.5059
 11
-37.3116
 21
-19.5059
  0
LINE
  8
0
 10
-37.3116
 20
-19.5059
 11
-36.9379
 21
-19.5531
  0
LINE
  8
0
 10
-36.9379
 20
-19.5531
 11
-36.5729
 21
-19.6468
  0
LINE
  8
0
 10
-36.5729
 20
-19.6468
 11
-36.2227
 21
-19.7855
  0
LINE
  8
0
 10
-36.2227
 20
-19.7855
 11
-35.8925
 21
-19.967
  0
LINE
  8
0
 10
-35.8925
 20
-19.967
 11
-35.5877
 21
-20.1884
  0
LINE
  8
0
 10
-35.5877
 20
-20.1884
 11
-35.3131
 21
-20.4464
  0
LINE
  8
0
 10
-35.3131
 20
-20.4464
 11
-35.0729
 21
-20.7366
  0
LINE
  8
0
 10
-35.0729
 20
-20.7366
 11
-34.8711
 21
-21.0547
  0
LINE
  8
0
 10
-34.8711
 20
-21.0547
 11
-34.7107
 21
-21.3956
  0
LINE
  8
0
 10
-34.7107
 20
-21.3956
 11
-34.5942
 21
-21.7539
  0
LINE
  8
0
 10
-34.5942
 20
-21.7539
 11
-34.5237
 21
-22.124
  0
LINE
  8
0
 10
-34.5237
 20
-22.124
 11
-34.5
 21
-22.5
  0
LINE
  8
0
 10
-34.5
 20
-22.5
 11
-34.5237
 21
-22.876
  0
LINE
  8
0
 10
-34.5237
 20
-22.876
 11
-34.5942
 21
-23.2461
  0
LINE
  8
0
 10
-34.5942
 20
-23.2461
 11
-34.7107
 21
-23.6044
  0
LINE
  8
0
 10
-34.7107
 20
-23.6044
 11
-34.8711
 21
-23.9453
  0
LINE
  8
0
 10
-34.8711
 20
-23.9453
 11
-35.0729
 21
-24.2634
  0
LINE
  8
0
 10
-35.0729
 20
-24.2634
 11
-35.3131
 21
-24.5536
  0
LINE
  8
0
 10
-35.3131
 20
-24.5536
 11
-35.5877
 21
-24.8115
  0
LINE
  8
0
 10
-35.5877
 20
-24.8115
 11
-35.8925
 21
-25.033
  0
LINE
  8
0
 10
-35.8925
 20
-25.033
 11
-36.2227
 21
-25.2145
  0
LINE
  8
0
 10
-36.2227
 20
-25.2145
 11
-36.5729
 21
-25.3532
  0
LINE
  8
0
 10
-36.5729
 20
-25.3532
 11
-36.9379
 21
-25.4469
  0
LINE
  8
0
 10
-36.9379
 20
-25.4469
 11
-37.3116
 21
-25.4941
  0
LINE
  8
0
 10
-37.3116
 20
-25.4941
 11
-37.6884
 21
-25.4941
  0
LINE
  8
0
 10
8.38696
 20
-28.2964
 11
8.1627
 21
-28.2681
  0
LINE
  8
0
 10
8.1627
 20
-28.2681
 11
7.94376
 21
-28.2119
  0
LINE
  8
0
 10
7.94376
 20
-28.2119
 11
7.7336
 21
-28.1287
  0
LINE
  8
0
 10
7.7336
 20
-28.1287
 11
7.53551
 21
-28.0198
  0
LINE
  8
0
 10
7.53551
 20
-28.0198
 11
7.35263
 21
-27.8869
  0
LINE
  8
0
 10
7.35263
 20
-27.8869
 11
7.18785
 21
-27.7322
  0
LINE
  8
0
 10
7.18785
 20
-27.7322
 11
7.04376
 21
-27.558
  0
LINE
  8
0
 10
7.04376
 20
-27.558
 11
6.92264
 21
-27.3672
  0
LINE
  8
0
 10
6.92264
 20
-27.3672
 11
6.8264
 21
-27.1626
  0
LINE
  8
0
 10
6.8264
 20
-27.1626
 11
6.75655
 21
-26.9476
  0
LINE
  8
0
 10
6.75655
 20
-26.9476
 11
6.71419
 21
-26.7256
  0
LINE
  8
0
 10
6.71419
 20
-26.7256
 11
6.7
 21
-26.5
  0
LINE
  8
0
 10
6.7
 20
-26.5
 11
6.71419
 21
-26.2744
  0
LINE
  8
0
 10
6.71419
 20
-26.2744
 11
6.75655
 21
-26.0524
  0
LINE
  8
0
 10
6.75655
 20
-26.0524
 11
6.8264
 21
-25.8374
  0
LINE
  8
0
 10
6.8264
 20
-25.8374
 11
6.92264
 21
-25.6328
  0
LINE
  8
0
 10
6.92264
 20
-25.6328
 11
7.04376
 21
-25.442
  0
LINE
  8
0
 10
7.04376
 20
-25.442
 11
7.18785
 21
-25.2678
  0
LINE
  8
0
 10
7.18785
 20
-25.2678
 11
7.35263
 21
-25.1131
  0
LINE
  8
0
 10
7.35263
 20
-25.1131
 11
7.53551
 21
-24.9802
  0
LINE
  8
0
 10
7.53551
 20
-24.9802
 11
7.7336
 21
-24.8713
  0
LINE
  8
0
 10
7.7336
 20
-24.8713
 11
7.94376
 21
-24.7881
  0
LINE
  8
0
 10
7.94376
 20
-24.7881
 11
8.1627
 21
-24.7319
  0
LINE
  8
0
 10
8.1627
 20
-24.7319
 11
8.38696
 21
-24.7036
  0
LINE
  8
0
 10
8.38696
 20
-24.7036
 11
8.61302
 21
-24.7036
  0
LINE
  8
0
 10
8.61302
 20
-24.7036
 11
8.83728
 21
-24.7319
  0
LINE
  8
0
 10
8.83728
 20
-24.7319
 11
9.05623
 21
-24.7881
  0
LINE
  8
0
 10
9.05623
 20
-24.7881
 11
9.26639
 21
-24.8713
  0
LINE
  8
0
 10
9.26639
 20
-24.8713
 11
9.46448
 21
-24.9802
  0
LINE
  8
0
 10
9.46448
 20
-24.9802
 11
9.64735
 21
-25.1131
  0
LINE
  8
0
 10
9.64735
 20
-25.1131
 11
9.81213
 21
-25.2678
  0
LINE
  8
0
 10
9.81213
 20
-25.2678
 11
9.95622
 21
-25.442
  0
LINE
  8
0
 10
9.95622
 20
-25.442
 11
10.0773
 21
-25.6328
  0
LINE
  8
0
 10
10.0773
 20
-25.6328
 11
10.1736
 21
-25.8374
  0
LINE
  8
0
 10
10.1736
 20
-25.8374
 11
10.2434
 21
-26.0524
  0
LINE
  8
0
 10
10.2434
 20
-26.0524
 11
10.2858
 21
-26.2744
  0
LINE
  8
0
 10
10.2858
 20
-26.2744
 11
10.3
 21
-26.5
  0
LINE
  8
0
 10
10.3
 20
-26.5
 11
10.2858
 21
-26.7256
  0
LINE
  8
0
 10
10.2858
 20
-26.7256
 11
10.2434
 21
-26.9476
  0
LINE
  8
0
 10
10.2434
 20
-26.9476
 11
10.1736
 21
-27.1626
  0
LINE
  8
0
 10
10.1736
 20
-27.1626
 11
10.0773
 21
-27.3672
  0
LINE
  8
0
 10
10.0773
 20
-27.3672
 11
9.95622
 21
-27.558
  0
LINE
  8
0
 10
9.95622
 20
-27.558
 11
9.81213
 21
-27.7322
  0
LINE
  8
0
 10
9.81213
 20
-27.7322
 11
9.64735
 21
-27.8869
  0
LINE
  8
0
 10
9.64735
 20
-27.8869
 11
9.46448
 21
-28.0198
  0
LINE
  8
0
 10
9.46448
 20
-28.0198
 11
9.26639
 21
-28.1287
  0
LINE
  8
0
 10
9.26639
 20
-28.1287
 11
9.05623
 21
-28.2119
  0
LINE
  8
0
 10
9.05623
 20
-28.2119
 11
8.83728
 21
-28.2681
  0
LINE
  8
0
 10
8.83728
 20
-28.2681
 11
8.61302
 21
-28.2964
  0
LINE
  8
0
 10
8.61302
 20
-28.2964
 11
8.38696
 21
-28.2964
  0
LINE
  8
0
 10
-19.613
 20
-28.2964
 11
-19.8373
 21
-28.2681
  0
LINE
  8
0
 10
-19.8373
 20
-28.2681
 11
-20.0562
 21
-28.2119
  0
LINE
  8
0
 10
-20.0562
 20
-28.2119
 11
-20.2664
 21
-28.1287
  0
LINE
  8
0
 10
-20.2664
 20
-28.1287
 11
-20.4645
 21
-28.0198
  0
LINE
  8
0
 10
-20.4645
 20
-28.0198
 11
-20.6474
 21
-27.8869
  0
LINE
  8
0
 10
-20.6474
 20
-27.8869
 11
-20.8121
 21
-27.7322
  0
LINE
  8
0
 10
-20.8121
 20
-27.7322
 11
-20.9562
 21
-27.558
  0
LINE
  8
0
 10
-20.9562
 20
-27.558
 11
-21.0773
 21
-27.3672
  0
LINE
  8
0
 10
-21.0773
 20
-27.3672
 11
-21.1736
 21
-27.1626
  0
LINE
  8
0
 10
-21.1736
 20
-27.1626
 11
-21.2434
 21
-26.9476
  0
LINE
  8
0
 10
-21.2434
 20
-26.9476
 11
-21.2858
 21
-26.7256
  0
LINE
  8
0
 10
-21.2858
 20
-26.7256
 11
-21.3
 21
-26.5
  0
LINE
  8
0
 10
-21.3
 20
-26.5
 11
-21.2858
 21
-26.2744
  0
LINE
  8
0
 10
-21.2858
 20
-26.2744
 11
-21.2434
 21
-26.0524
  0
LINE
  8
0
 10
-21.2434
 20
-26.0524
 11
-21.1736
 21
-25.8374
  0
LINE
  8
0
 10
-21.1736
 20
-25.8374
 11
-21.0773
 21
-25.6328
  0
LINE
  8
0
 10
-21.0773
 20
-25.6328
 11
-20.9562
 21
-25.442
  0
LINE
  8
0
 10
-20.9562
 20
-25.442
 11
-20.8121
 21
-25.2678
  0
LINE
  8
0
 10
-20.8121
 20
-25.2678
 11
-20.6474
 21
-25.1131
  0
LINE
  8
0
 10
-20.6474
 20
-25.1131
 11
-20.4645
 21
-24.9802
  0
LINE
  8
0
 10
-20.4645
 20
-24.9802
 11
-20.2664
 21
-24.8713
  0
LINE
  8
0
 10
-20.2664
 20
-24.8713
 11
-20.0562
 21
-24.7881
  0
LINE
  8
0
 10
-20.0562
 20
-24.7881
 11
-19.8373
 21
-24.7319
  0
LINE
  8
0
 10
-19.8373
 20
-24.7319
 11
-19.613
 21
-24.7036
  0
LINE
  8
0
 10
-19.613
 20
-24.7036
 11
-19.387
 21
-24.7036
  0
LINE
  8
0
 10
-19.387
 20
-24.7036
 11
-19.1627
 21
-24.7319
  0
LINE
  8
0
 10
-19.1627
 20
-24.7319
 11
-18.9438
 21
-24.7881
  0
LINE
  8
0
 10
-18.9438
 20
-24.7881
 11
-18.7336
 21
-24.8713
  0
LINE
  8
0
 10
-18.7336
 20
-24.8713
 11
-18.5355
 21
-24.9802
  0
LINE
  8
0
 10
-18.5355
 20
-24.9802
 11
-18.3526
 21
-25.1131
  0
LINE
  8
0
 10
-18.3526
 20
-25.1131
 11
-18.1879
 21
-25.2678
  0
LINE
  8
0
 10
-18.1879
 20
-25.2678
 11
-18.0438
 21
-25.442
  0
LINE
  8
0
 10
-18.0438
 20
-25.442
 11
-17.9226
 21
-25.6328
  0
LINE
  8
0
 10
-17.9226
 20
-25.6328
 11
-17.8264
 21
-25.8374
  0
LINE
  8
0
 10
-17.8264
 20
-25.8374
 11
-17.7565
 21
-26.0524
  0
LINE
  8
0
 10
-17.7565
 20
-26.0524
 11
-17.7142
 21
-26.2744
  0
LINE
  8
0
 10
-17.7142
 20
-26.2744
 11
-17.7
 21
-26.5
  0
LINE
  8
0
 10
-17.7
 20
-26.5
 11
-17.7142
 21
-26.7256
  0
LINE
  8
0
 10
-17.7142
 20
-26.7256
 11
-17.7565
 21
-26.9476
  0
LINE
  8
0
 10
-17.7565
 20
-26.9476
 11
-17.8264
 21
-27.1626
  0
LINE
  8
0
 10
-17.8264
 20
-27.1626
 11
-17.9226
 21
-27.3672
  0
LINE
  8
0
 10
-17.9226
 20
-27.3672
 11
-18.0438
 21
-27.558
  0
LINE
  8
0
 10
-18.0438
 20
-27.558
 11
-18.1879
 21
-27.7322
  0
LINE
  8
0
 10
-18.1879
 20
-27.7322
 11
-18.3526
 21
-27.8869
  0
LINE
  8
0
 10
-18.3526
 20
-27.8869
 11
-18.5355
 21
-28.0198
  0
LINE
  8
0
 10
-18.5355
 20
-28.0198
 11
-18.7336
 21
-28.1287
  0
LINE
  8
0
 10
-18.7336
 20
-28.1287
 11
-18.9438
 21
-28.2119
  0
LINE
  8
0
 10
-18.9438
 20
-28.2119
 11
-19.1627
 21
-28.2681
  0
LINE
  8
0
 10
-19.1627
 20
-28.2681
 11
-19.387
 21
-28.2964
  0
LINE
  8
0
 10
-19.387
 20
-28.2964
 11
-19.613
 21
-28.2964
  0
LINE
  8
0
 10
-37.5942
 20
-31.497
 11
-37.7811
 21
-31.4734
  0
LINE
  8
0
 10
-37.7811
 20
-31.4734
 11
-37.9635
 21
-31.4266
  0
LINE
  8
0
 10
-37.9635
 20
-31.4266
 11
-38.1387
 21
-31.3572
  0
LINE
  8
0
 10
-38.1387
 20
-31.3572
 11
-38.3037
 21
-31.2665
  0
LINE
  8
0
 10
-38.3037
 20
-31.2665
 11
-38.4561
 21
-31.1558
  0
LINE
  8
0
 10
-38.4561
 20
-31.1558
 11
-38.5934
 21
-31.0268
  0
LINE
  8
0
 10
-38.5934
 20
-31.0268
 11
-38.7135
 21
-30.8817
  0
LINE
  8
0
 10
-38.7135
 20
-30.8817
 11
-38.8145
 21
-30.7226
  0
LINE
  8
0
 10
-38.8145
 20
-30.7226
 11
-38.8947
 21
-30.5522
  0
LINE
  8
0
 10
-38.8947
 20
-30.5522
 11
-38.9529
 21
-30.373
  0
LINE
  8
0
 10
-38.9529
 20
-30.373
 11
-38.9882
 21
-30.188
  0
LINE
  8
0
 10
-38.9882
 20
-30.188
 11
-39
 21
-30
  0
LINE
  8
0
 10
-39
 20
-30
 11
-38.9882
 21
-29.812
  0
LINE
  8
0
 10
-38.9882
 20
-29.812
 11
-38.9529
 21
-29.627
  0
LINE
  8
0
 10
-38.9529
 20
-29.627
 11
-38.8947
 21
-29.4478
  0
LINE
  8
0
 10
-38.8947
 20
-29.4478
 11
-38.8145
 21
-29.2774
  0
LINE
  8
0
 10
-38.8145
 20
-29.2774
 11
-38.7135
 21
-29.1183
  0
LINE
  8
0
 10
-38.7135
 20
-29.1183
 11
-38.5934
 21
-28.9732
  0
LINE
  8
0
 10
-38.5934
 20
-28.9732
 11
-38.4561
 21
-28.8442
  0
LINE
  8
0
 10
-38.4561
 20
-28.8442
 11
-38.3037
 21
-28.7335
  0
LINE
  8
0
 10
-38.3037
 20
-28.7335
 11
-38.1387
 21
-28.6427
  0
LINE
  8
0
 10
-38.1387
 20
-28.6427
 11
-37.9635
 21
-28.5734
  0
LINE
  8
0
 10
-37.9635
 20
-28.5734
 11
-37.7811
 21
-28.5266
  0
LINE
  8
0
 10
-37.7811
 20
-28.5266
 11
-37.5942
 21
-28.503
  0
LINE
  8
0
 10
-37.5942
 20
-28.503
 11
-37.4058
 21
-28.503
  0
LINE
  8
0
 10
-37.4058
 20
-28.503
 11
-37.2189
 21
-28.5266
  0
LINE
  8
0
 10
-37.2189
 20
-28.5266
 11
-37.0365
 21
-28.5734
  0
LINE
  8
0
 10
-37.0365
 20
-28.5734
 11
-36.8613
 21
-28.6427
  0
LINE
  8
0
 10
-36.8613
 20
-28.6427
 11
-36.6963
 21
-28.7335
  0
LINE
  8
0
 10
-36.6963
 20
-28.7335
 11
-36.5439
 21
-28.8442
  0
LINE
  8
0
 10
-36.5439
 20
-28.8442
 11
-36.4065
 21
-28.9732
  0
LINE
  8
0
 10
-36.4065
 20
-28.9732
 11
-36.2865
 21
-29.1183
  0
LINE
  8
0
 10
-36.2865
 20
-29.1183
 11
-36.1855
 21
-29.2774
  0
LINE
  8
0
 10
-36.1855
 20
-29.2774
 11
-36.1053
 21
-29.4478
  0
LINE
  8
0
 10
-36.1053
 20
-29.4478
 11
-36.0471
 21
-29.627
  0
LINE
  8
0
 10
-36.0471
 20
-29.627
 11
-36.0118
 21
-29.812
  0
LINE
  8
0
 10
-36.0118
 20
-29.812
 11
-36
 21
-30
  0
LINE
  8
0
 10
-36
 20
-30
 11
-36.0118
 21
-30.188
  0
LINE
  8
0
 10
-36.0118
 20
-30.188
 11
-36.0471
 21
-30.373
  0
LINE
  8
0
 10
-36.0471
 20
-30.373
 11
-36.1053
 21
-30.5522
  0
LINE
  8
0
 10
-36.1053
 20
-30.5522
 11
-36.1855
 21
-30.7226
  0
LINE
  8
0
 10
-36.1855
 20
-30.7226
 11
-36.2865
 21
-30.8817
  0
LINE
  8
0
 10
-36.2865
 20
-30.8817
 11
-36.4065
 21
-31.0268
  0
LINE
  8
0
 10
-36.4065
 20
-31.0268
 11
-36.5439
 21
-31.1558
  0
LINE
  8
0
 10
-36.5439
 20
-31.1558
 11
-36.6963
 21
-31.2665
  0
LINE
  8
0
 10
-36.6963
 20
-31.2665
 11
-36.8613
 21
-31.3572
  0
LINE
  8
0
 10
-36.8613
 20
-31.3572
 11
-37.0365
 21
-31.4266
  0
LINE
  8
0
 10
-37.0365
 20
-31.4266
 11
-37.2189
 21
-31.4734
  0
LINE
  8
0
 10
-37.2189
 20
-31.4734
 11
-37.4058
 21
-31.497
  0
LINE
  8
0
 10
-37.4058
 20
-31.497
 11
-37.5942
 21
-31.497
  0
LINE
  8
0
 10
37.4058
 20
-31.497
 11
37.2189
 21
-31.4734
  0
LINE
  8
0
 10
37.2189
 20
-31.4734
 11
37.0365
 21
-31.4266
  0
LINE
  8
0
 10
37.0365
 20
-31.4266
 11
36.8613
 21
-31.3572
  0
LINE
  8
0
 10
36.8613
 20
-31.3572
 11
36.6963
 21
-31.2665
  0
LINE
  8
0
 10
36.6963
 20
-31.2665
 11
36.5439
 21
-31.1558
  0
LINE
  8
0
 10
36.5439
 20
-31.1558
 11
36.4065
 21
-31.0268
  0
LINE
  8
0
 10
36.4065
 20
-31.0268
 11
36.2865
 21
-30.8817
  0
LINE
  8
0
 10
36.2865
 20
-30.8817
 11
36.1855
 21
-30.7226
  0
LINE
  8
0
 10
36.1855
 20
-30.7226
 11
36.1053
 21
-30.5522
  0
LINE
  8
0
 10
36.1053
 20
-30.5522
 11
36.0471
 21
-30.373
  0
LINE
  8
0
 10
36.0471
 20
-30.373
 11
36.0118
 21
-30.188
  0
LINE
  8
0
 10
36.0118
 20
-30.188
 11
36
 21
-30
  0
LINE
  8
0
 10
36
 20
-30
 11
36.0118
 21
-29.812
  0
LINE
  8
0
 10
36.0118
 20
-29.812
 11
36.0471
 21
-29.627
  0
LINE
  8
0
 10
36.0471
 20
-29.627
 11
36.1053
 21
-29.4478
  0
LINE
  8
0
 10
36.1053
 20
-29.4478
 11
36.1855
 21
-29.2774
  0
LINE
  8
0
 10
36.1855
 20
-29.2774
 11
36.2865
 21
-29.1183
  0
LINE
  8
0
 10
36.2865
 20
-29.1183
 11
36.4065
 21
-28.9732
  0
LINE
  8
0
 10
36.4065
 20
-28.9732
 11
36.5439
 21
-28.8442
  0
LINE
  8
0
 10
36.5439
 20
-28.8442
 11
36.6963
 21
-28.7335
  0
LINE
  8
0
 10
36.6963
 20
-28.7335
 11
36.8613
 21
-28.6427
  0
LINE
  8
0
 10
36.8613
 20
-28.6427
 11
37.0365
 21
-28.5734
  0
LINE
  8
0
 10
37.0365
 20
-28.5734
 11
37.2189
 21
-28.5266
  0
LINE
  8
0
 10
37.2189
 20
-28.5266
 11
37.4058
 21
-28.503
  0
LINE
  8
0
 10
37.4058
 20
-28.503
 11
37.5942
 21
-28.503
  0
LINE
  8
0
 10
37.5942
 20
-28.503
 11
37.7811
 21
-28.5266
  0
LINE
  8
0
 10
37.7811
 20
-28.5266
 11
37.9635
 21
-28.5734
  0
LINE
  8
0
 10
37.9635
 20
-28.5734
 11
38.1387
 21
-28.6427
  0
LINE
  8
0
 10
38.1387
 20
-28.6427
 11
38.3037
 21
-28.7335
  0
LINE
  8
0
 10
38.3037
 20
-28.7335
 11
38.4561
 21
-28.8442
  0
LINE
  8
0
 10
38.4561
 20
-28.8442
 11
38.5934
 21
-28.9732
  0
LINE
  8
0
 10
38.5934
 20
-28.9732
 11
38.7135
 21
-29.1183
  0
LINE
  8
0
 10
38.7135
 20
-29.1183
 11
38.8145
 21
-29.2774
  0
LINE
  8
0
 10
38.8145
 20
-29.2774
 11
38.8947
 21
-29.4478
  0
LINE
  8
0
 10
38.8947
 20
-29.4478
 11
38.9529
 21
-29.627
  0
LINE
  8
0
 10
38.9529
 20
-29.627
 11
38.9882
 21
-29.812
  0
LINE
  8
0
 10
38.9882
 20
-29.812
 11
39
 21
-30
  0
LINE
  8
0
 10
39
 20
-30
 11
38.9882
 21
-30.188
  0
LINE
  8
0
 10
38.9882
 20
-30.188
 11
38.9529
 21
-30.373
  0
LINE
  8
0
 10
38.9529
 20
-30.373
 11
38.8947
 21
-30.5522
  0
LINE
  8
0
 10
38.8947
 20
-30.5522
 11
38.8145
 21
-30.7226
  0
LINE
  8
0
 10
38.8145
 20
-30.7226
 11
38.7135
 21
-30.8817
  0
LINE
  8
0
 10
38.7135
 20
-30.8817
 11
38.5934
 21
-31.0268
  0
LINE
  8
0
 10
38.5934
 20
-31.0268
 11
38.4561
 21
-31.1558
  0
LINE
  8
0
 10
38.4561
 20
-31.1558
 11
38.3037
 21
-31.2665
  0
LINE
  8
0
 10
38.3037
 20
-31.2665
 11
38.1387
 21
-31.3572
  0
LINE
  8
0
 10
38.1387
 20
-31.3572
 11
37.9635
 21
-31.4266
  0
LINE
  8
0
 10
37.9635
 20
-31.4266
 11
37.7811
 21
-31.4734
  0
LINE
  8
0
 10
37.7811
 20
-31.4734
 11
37.5942
 21
-31.497
  0
LINE
  8
0
 10
37.5942
 20
-31.497
 11
37.4058
 21
-31.497
  0
LINE
  8
0
 10
22.3116
 20
-40.4941
 11
21.9379
 21
-40.4469
  0
LINE
  8
0
 10
21.9379
 20
-40.4469
 11
21.5729
 21
-40.3532
  0
LINE
  8
0
 10
21.5729
 20
-40.3532
 11
21.2227
 21
-40.2145
  0
LINE
  8
0
 10
21.2227
 20
-40.2145
 11
20.8925
 21
-40.033
  0
LINE
  8
0
 10
20.8925
 20
-40.033
 11
20.5877
 21
-39.8115
  0
LINE
  8
0
 10
20.5877
 20
-39.8115
 11
20.3131
 21
-39.5536
  0
LINE
  8
0
 10
20.3131
 20
-39.5536
 11
20.0729
 21
-39.2634
  0
LINE
  8
0
 10
20.0729
 20
-39.2634
 11
19.8711
 21
-38.9453
  0
LINE
  8
0
 10
19.8711
 20
-38.9453
 11
19.7107
 21
-38.6044
  0
LINE
  8
0
 10
19.7107
 20
-38.6044
 11
19.5942
 21
-38.2461
  0
LINE
  8
0
 10
19.5942
 20
-38.2461
 11
19.5237
 21
-37.876
  0
LINE
  8
0
 10
19.5237
 20
-37.876
 11
19.5
 21
-37.5
  0
LINE
  8
0
 10
19.5
 20
-37.5
 11
19.5237
 21
-37.124
  0
LINE
  8
0
 10
19.5237
 20
-37.124
 11
19.5942
 21
-36.7539
  0
LINE
  8
0
 10
19.5942
 20
-36.7539
 11
19.7107
 21
-36.3956
  0
LINE
  8
0
 10
19.7107
 20
-36.3956
 11
19.8711
 21
-36.0547
  0
LINE
  8
0
 10
19.8711
 20
-36.0547
 11
20.0729
 21
-35.7366
  0
LINE
  8
0
 10
20.0729
 20
-35.7366
 11
20.3131
 21
-35.4464
  0
LINE
  8
0
 10
20.3131
 20
-35.4464
 11
20.5877
 21
-35.1885
  0
LINE
  8
0
 10
20.5877
 20
-35.1885
 11
20.8925
 21
-34.967
  0
LINE
  8
0
 10
20.8925
 20
-34.967
 11
21.2227
 21
-34.7855
  0
LINE
  8
0
 10
21.2227
 20
-34.7855
 11
21.5729
 21
-34.6468
  0
LINE
  8
0
 10
21.5729
 20
-34.6468
 11
21.9379
 21
-34.5531
  0
LINE
  8
0
 10
21.9379
 20
-34.5531
 11
22.3116
 21
-34.5059
  0
LINE
  8
0
 10
22.3116
 20
-34.5059
 11
22.6884
 21
-34.5059
  0
LINE
  8
0
 10
22.6884
 20
-34.5059
 11
23.0621
 21
-34.5531
  0
LINE
  8
0
 10
23.0621
 20
-34.5531
 11
23.427
 21
-34.6468
  0
LINE
  8
0
 10
23.427
 20
-34.6468
 11
23.7773
 21
-34.7855
  0
LINE
  8
0
 10
23.7773
 20
-34.7855
 11
24.1075
 21
-34.967
  0
LINE
  8
0
 10
24.1075
 20
-34.967
 11
24.4123
 21
-35.1885
  0
LINE
  8
0
 10
24.4123
 20
-35.1885
 11
24.6869
 21
-35.4464
  0
LINE
  8
0
 10
24.6869
 20
-35.4464
 11
24.927
 21
-35.7366
  0
LINE
  8
0
 10
24.927
 20
-35.7366
 11
25.1289
 21
-36.0547
  0
LINE
  8
0
 10
25.1289
 20
-36.0547
 11
25.2893
 21
-36.3956
  0
LINE
  8
0
 10
25.2893
 20
-36.3956
 11
25.4057
 21
-36.7539
  0
LINE
  8
0
 10
25.4057
 20
-36.7539
 11
25.4763
 21
-37.124
  0
LINE
  8
0
 10
25.4763
 20
-37.124
 11
25.5
 21
-37.5
  0
LINE
  8
0
 10
25.5
 20
-37.5
 11
25.4763
 21
-37.876
  0
LINE
  8
0
 10
25.4763
 20
-37.876
 11
25.4057
 21
-38.2461
  0
LINE
  8
0
 10
25.4057
 20
-38.2461
 11
25.2893
 21
-38.6044
  0
LINE
  8
0
 10
25.2893
 20
-38.6044
 11
25.1289
 21
-38.9453
  0
LINE
  8
0
 10
25.1289
 20
-38.9453
 11
24.927
 21
-39.2634
  0
LINE
  8
0
 10
24.927
 20
-39.2634
 11
24.6869
 21
-39.5536
  0
LINE
  8
0
 10
24.6869
 20
-39.5536
 11
24.4123
 21
-39.8115
  0
LINE
  8
0
 10
24.4123
 20
-39.8115
 11
24.1075
 21
-40.033
  0
LINE
  8
0
 10
24.1075
 20
-40.033
 11
23.7773
 21
-40.2145
  0
LINE
  8
0
 10
23.7773
 20
-40.2145
 11
23.427
 21
-40.3532
  0
LINE
  8
0
 10
23.427
 20
-40.3532
 11
23.0621
 21
-40.4469
  0
LINE
  8
0
 10
23.0621
 20
-40.4469
 11
22.6884
 21
-40.4941
  0
LINE
  8
0
 10
22.6884
 20
-40.4941
 11
22.3116
 21
-40.4941
  0
LINE
  8
0
 10
-22.6884
 20
-40.4941
 11
-23.0621
 21
-40.4469
  0
LINE
  8
0
 10
-23.0621
 20
-40.4469
 11
-23.427
 21
-40.3532
  0
LINE
  8
0
 10
-23.427
 20
-40.3532
 11
-23.7773
 21
-40.2145
  0
LINE
  8
0
 10
-23.7773
 20
-40.2145
 11
-24.1075
 21
-40.033
  0
LINE
  8
0
 10
-24.1075
 20
-40.033
 11
-24.4123
 21
-39.8115
  0
LINE
  8
0
 10
-24.4123
 20
-39.8115
 11
-24.6869
 21
-39.5536
  0
LINE
  8
0
 10
-24.6869
 20
-39.5536
 11
-24.927
 21
-39.2634
  0
LINE
  8
0
 10
-24.927
 20
-39.2634
 11
-25.1289
 21
-38.9453
  0
LINE
  8
0
 10
-25.1289
 20
-38.9453
 11
-25.2893
 21
-38.6044
  0
LINE
  8
0
 10
-25.2893
 20
-38.6044
 11
-25.4057
 21
-38.2461
  0
LINE
  8
0
 10
-25.4057
 20
-38.2461
 11
-25.4763
 21
-37.876
  0
LINE
  8
0
 10
-25.4763
 20
-37.876
 11
-25.5
 21
-37.5
  0
LINE
  8
0
 10
-25.5
 20
-37.5
 11
-25.4763
 21
-37.124
  0
LINE
  8
0
 10
-25.4763
 20
-37.124
 11
-25.4057
 21
-36.7539
  0
LINE
  8
0
 10
-25.4057
 20
-36.7539
 11
-25.2893
 21
-36.3956
  0
LINE
  8
0
 10
-25.2893
 20
-36.3956
 11
-25.1289
 21
-36.0547
  0
LINE
  8
0
 10
-25.1289
 20
-36.0547
 11
-24.927
 21
-35.7366
  0
LINE
  8
0
 10
-24.927
 20
-35.7366
 11
-24.6869
 21
-35.4464
  0
LINE
  8
0
 10
-24.6869
 20
-35.4464
 11
-24.4123
 21
-35.1885
  0
LINE
  8
0
 10
-24.4123
 20
-35.1885
 11
-24.1075
 21
-34.967
  0
LINE
  8
0
 10
-24.1075
 20
-34.967
 11
-23.7773
 21
-34.7855
  0
LINE
  8
0
 10
-23.7773
 20
-34.7855
 11
-23.427
 21
-34.6468
  0
LINE
  8
0
 10
-23.427
 20
-34.6468
 11
-23.0621
 21
-34.5531
  0
LINE
  8
0
 10
-23.0621
 20
-34.5531
 11
-22.6884
 21
-34.5059
  0
LINE
  8
0
 10
-22.6884
 20
-34.5059
 11
-22.3116
 21
-34.5059
  0
LINE
  8
0
 10
-22.3116
 20
-34.5059
 11
-21.9379
 21
-34.5531
  0
LINE
  8
0
 10
-21.9379
 20
-34.5531
 11
-21.5729
 21
-34.6468
  0
LINE
  8
0
 10
-21.5729
 20
-34.6468
 11
-21.2227
 21
-34.7855
  0
LINE
  8
0
 10
-21.2227
 20
-34.7855
 11
-20.8925
 21
-34.967
  0
LINE
  8
0
 10
-20.8925
 20
-34.967
 11
-20.5877
 21
-35.1885
  0
LINE
  8
0
 10
-20.5877
 20
-35.1885
 11
-20.3131
 21
-35.4464
  0
LINE
  8
0
 10
-20.3131
 20
-35.4464
 11
-20.0729
 21
-35.7366
  0
LINE
  8
0
 10
-20.0729
 20
-35.7366
 11
-19.8711
 21
-36.0547
  0
LINE
  8
0
 10
-19.8711
 20
-36.0547
 11
-19.7107
 21
-36.3956
  0
LINE
  8
0
 10
-19.7107
 20
-36.3956
 11
-19.5942
 21
-36.7539
  0
LINE
  8
0
 10
-19.5942
 20
-36.7539
 11
-19.5237
 21
-37.124
  0
LINE
  8
0
 10
-19.5237
 20
-37.124
 11
-19.5
 21
-37.5
  0
LINE
  8
0
 10
-19.5
 20
-37.5
 11
-19.5237
 21
-37.876
  0
LINE
  8
0
 10
-19.5237
 20
-37.876
 11
-19.5942
 21
-38.2461
  0
LINE
  8
0
 10
-19.5942
 20
-38.2461
 11
-19.7107
 21
-38.6044
  0
LINE
  8
0
 10
-19.7107
 20
-38.6044
 11
-19.8711
 21
-38.9453
  0
LINE
  8
0
 10
-19.8711
 20
-38.9453
 11
-20.0729
 21
-39.2634
  0
LINE
  8
0
 10
-20.0729
 20
-39.2634
 11
-20.3131
 21
-39.5536
  0
LINE
  8
0
 10
-20.3131
 20
-39.5536
 11
-20.5877
 21
-39.8115
  0
LINE
  8
0
 10
-20.5877
 20
-39.8115
 11
-20.8925
 21
-40.033
  0
LINE
  8
0
 10
-20.8925
 20
-40.033
 11
-21.2227
 21
-40.2145
  0
LINE
  8
0
 10
-21.2227
 20
-40.2145
 11
-21.5729
 21
-40.3532
  0
LINE
  8
0
 10
-21.5729
 20
-40.3532
 11
-21.9379
 21
-40.4469
  0
LINE
  8
0
 10
-21.9379
 20
-40.4469
 11
-22.3116
 21
-40.4941
  0
LINE
  8
0
 10
-22.3116
 20
-40.4941
 11
-22.6884
 21
-40.4941
  0
LINE
  8
0
 10
7.31161
 20
-40.4941
 11
6.93785
 21
-40.4469
  0
LINE
  8
0
 10
6.93785
 20
-40.4469
 11
6.57294
 21
-40.3532
  0
LINE
  8
0
 10
6.57294
 20
-40.3532
 11
6.22266
 21
-40.2145
  0
LINE
  8
0
 10
6.22266
 20
-40.2145
 11
5.89252
 21
-40.033
  0
LINE
  8
0
 10
5.89252
 20
-40.033
 11
5.58772
 21
-39.8115
  0
LINE
  8
0
 10
5.58772
 20
-39.8115
 11
5.31308
 21
-39.5536
  0
LINE
  8
0
 10
5.31308
 20
-39.5536
 11
5.07294
 21
-39.2634
  0
LINE
  8
0
 10
5.07294
 20
-39.2634
 11
4.87108
 21
-38.9453
  0
LINE
  8
0
 10
4.87108
 20
-38.9453
 11
4.71066
 21
-38.6044
  0
LINE
  8
0
 10
4.71066
 20
-38.6044
 11
4.59424
 21
-38.2461
  0
LINE
  8
0
 10
4.59424
 20
-38.2461
 11
4.52365
 21
-37.876
  0
LINE
  8
0
 10
4.52365
 20
-37.876
 11
4.5
 21
-37.5
  0
LINE
  8
0
 10
4.5
 20
-37.5
 11
4.52365
 21
-37.124
  0
LINE
  8
0
 10
4.52365
 20
-37.124
 11
4.59424
 21
-36.7539
  0
LINE
  8
0
 10
4.59424
 20
-36.7539
 11
4.71066
 21
-36.3956
  0
LINE
  8
0
 10
4.71066
 20
-36.3956
 11
4.87108
 21
-36.0547
  0
LINE
  8
0
 10
4.87108
 20
-36.0547
 11
5.07294
 21
-35.7366
  0
LINE
  8
0
 10
5.07294
 20
-35.7366
 11
5.31308
 21
-35.4464
  0
LINE
  8
0
 10
5.31308
 20
-35.4464
 11
5.58772
 21
-35.1885
  0
LINE
  8
0
 10
5.58772
 20
-35.1885
 11
5.89252
 21
-34.967
  0
LINE
  8
0
 10
5.89252
 20
-34.967
 11
6.22266
 21
-34.7855
  0
LINE
  8
0
 10
6.22266
 20
-34.7855
 11
6.57294
 21
-34.6468
  0
LINE
  8
0
 10
6.57294
 20
-34.6468
 11
6.93785
 21
-34.5531
  0
LINE
  8
0
 10
6.93785
 20
-34.5531
 11
7.31161
 21
-34.5059
  0
LINE
  8
0
 10
7.31161
 20
-34.5059
 11
7.68837
 21
-34.5059
  0
LINE
  8
0
 10
7.68837
 20
-34.5059
 11
8.06213
 21
-34.5531
  0
LINE
  8
0
 10
8.06213
 20
-34.5531
 11
8.42705
 21
-34.6468
  0
LINE
  8
0
 10
8.42705
 20
-34.6468
 11
8.77733
 21
-34.7855
  0
LINE
  8
0
 10
8.77733
 20
-34.7855
 11
9.10747
 21
-34.967
  0
LINE
  8
0
 10
9.10747
 20
-34.967
 11
9.41226
 21
-35.1885
  0
LINE
  8
0
 10
9.41226
 20
-35.1885
 11
9.6869
 21
-35.4464
  0
LINE
  8
0
 10
9.6869
 20
-35.4464
 11
9.92705
 21
-35.7366
  0
LINE
  8
0
 10
9.92705
 20
-35.7366
 11
10.1289
 21
-36.0547
  0
LINE
  8
0
 10
10.1289
 20
-36.0547
 11
10.2893
 21
-36.3956
  0
LINE
  8
0
 10
10.2893
 20
-36.3956
 11
10.4057
 21
-36.7539
  0
LINE
  8
0
 10
10.4057
 20
-36.7539
 11
10.4763
 21
-37.124
  0
LINE
  8
0
 10
10.4763
 20
-37.124
 11
10.5
 21
-37.5
  0
LINE
  8
0
 10
10.5
 20
-37.5
 11
10.4763
 21
-37.876
  0
LINE
  8
0
 10
10.4763
 20
-37.876
 11
10.4057
 21
-38.2461
  0
LINE
  8
0
 10
10.4057
 20
-38.2461
 11
10.2893
 21
-38.6044
  0
LINE
  8
0
 10
10.2893
 20
-38.6044
 11
10.1289
 21
-38.9453
  0
LINE
  8
0
 10
10.1289
 20
-38.9453
 11
9.92705
 21
-39.2634
  0
LINE
  8
0
 10
9.92705
 20
-39.2634
 11
9.6869
 21
-39.5536
  0
LINE
  8
0
 10
9.6869
 20
-39.5536
 11
9.41226
 21
-39.8115
  0
LINE
  8
0
 10
9.41226
 20
-39.8115
 11
9.10747
 21
-40.033
  0
LINE
  8
0
 10
9.10747
 20
-40.033
 11
8.77733
 21
-40.2145
  0
LINE
  8
0
 10
8.77733
 20
-40.2145
 11
8.42705
 21
-40.3532
  0
LINE
  8
0
 10
8.42705
 20
-40.3532
 11
8.06213
 21
-40.4469
  0
LINE
  8
0
 10
8.06213
 20
-40.4469
 11
7.68837
 21
-40.4941
  0
LINE
  8
0
 10
7.68837
 20
-40.4941
 11
7.31161
 21
-40.4941
  0
LINE
  8
0
 10
37.3116
 20
-40.4941
 11
36.9379
 21
-40.4469
  0
LINE
  8
0
 10
36.9379
 20
-40.4469
 11
36.5729
 21
-40.3532
  0
LINE
  8
0
 10
36.5729
 20
-40.3532
 11
36.2227
 21
-40.2145
  0
LINE
  8
0
 10
36.2227
 20
-40.2145
 11
35.8925
 21
-40.033
  0
LINE
  8
0
 10
35.8925
 20
-40.033
 11
35.5877
 21
-39.8115
  0
LINE
  8
0
 10
35.5877
 20
-39.8115
 11
35.3131
 21
-39.5536
  0
LINE
  8
0
 10
35.3131
 20
-39.5536
 11
35.0729
 21
-39.2634
  0
LINE
  8
0
 10
35.0729
 20
-39.2634
 11
34.8711
 21
-38.9453
  0
LINE
  8
0
 10
34.8711
 20
-38.9453
 11
34.7107
 21
-38.6044
  0
LINE
  8
0
 10
34.7107
 20
-38.6044
 11
34.5942
 21
-38.2461
  0
LINE
  8
0
 10
34.5942
 20
-38.2461
 11
34.5237
 21
-37.876
  0
LINE
  8
0
 10
34.5237
 20
-37.876
 11
34.5
 21
-37.5
  0
LINE
  8
0
 10
34.5
 20
-37.5
 11
34.5237
 21
-37.124
  0
LINE
  8
0
 10
34.5237
 20
-37.124
 11
34.5942
 21
-36.7539
  0
LINE
  8
0
 10
34.5942
 20
-36.7539
 11
34.7107
 21
-36.3956
  0
LINE
  8
0
 10
34.7107
 20
-36.3956
 11
34.8711
 21
-36.0547
  0
LINE
  8
0
 10
34.8711
 20
-36.0547
 11
35.0729
 21
-35.7366
  0
LINE
  8
0
 10
35.0729
 20
-35.7366
 11
35.3131
 21
-35.4464
  0
LINE
  8
0
 10
35.3131
 20
-35.4464
 11
35.5877
 21
-35.1885
  0
LINE
  8
0
 10
35.5877
 20
-35.1885
 11
35.8925
 21
-34.967
  0
LINE
  8
0
 10
35.8925
 20
-34.967
 11
36.2227
 21
-34.7855
  0
LINE
  8
0
 10
36.2227
 20
-34.7855
 11
36.5729
 21
-34.6468
  0
LINE
  8
0
 10
36.5729
 20
-34.6468
 11
36.9379
 21
-34.5531
  0
LINE
  8
0
 10
36.9379
 20
-34.5531
 11
37.3116
 21
-34.5059
  0
LINE
  8
0
 10
37.3116
 20
-34.5059
 11
37.6884
 21
-34.5059
  0
LINE
  8
0
 10
37.6884
 20
-34.5059
 11
38.0621
 21
-34.5531
  0
LINE
  8
0
 10
38.0621
 20
-34.5531
 11
38.427
 21
-34.6468
  0
LINE
  8
0
 10
38.427
 20
-34.6468
 11
38.7773
 21
-34.7855
  0
LINE
  8
0
 10
38.7773
 20
-34.7855
 11
39.1075
 21
-34.967
  0
LINE
  8
0
 10
39.1075
 20
-34.967
 11
39.4123
 21
-35.1885
  0
LINE
  8
0
 10
39.4123
 20
-35.1885
 11
39.6869
 21
-35.4464
  0
LINE
  8
0
 10
39.6869
 20
-35.4464
 11
39.927
 21
-35.7366
  0
LINE
  8
0
 10
39.927
 20
-35.7366
 11
40.1289
 21
-36.0547
  0
LINE
  8
0
 10
40.1289
 20
-36.0547
 11
40.2893
 21
-36.3956
  0
LINE
  8
0
 10
40.2893
 20
-36.3956
 11
40.4057
 21
-36.7539
  0
LINE
  8
0
 10
40.4057
 20
-36.7539
 11
40.4763
 21
-37.124
  0
LINE
  8
0
 10
40.4763
 20
-37.124
 11
40.5
 21
-37.5
  0
LINE
  8
0
 10
40.5
 20
-37.5
 11
40.4763
 21
-37.876
  0
LINE
  8
0
 10
40.4763
 20
-37.876
 11
40.4057
 21
-38.2461
  0
LINE
  8
0
 10
40.4057
 20
-38.2461
 11
40.2893
 21
-38.6044
  0
LINE
  8
0
 10
40.2893
 20
-38.6044
 11
40.1289
 21
-38.9453
  0
LINE
  8
0
 10
40.1289
 20
-38.9453
 11
39.927
 21
-39.2634
  0
LINE
  8
0
 10
39.927
 20
-39.2634
 11
39.6869
 21
-39.5536
  0
LINE
  8
0
 10
39.6869
 20
-39.5536
 11
39.4123
 21
-39.8115
  0
LINE
  8
0
 10
39.4123
 20
-39.8115
 11
39.1075
 21
-40.033
  0
LINE
  8
0
 10
39.1075
 20
-40.033
 11
38.7773
 21
-40.2145
  0
LINE
  8
0
 10
38.7773
 20
-40.2145
 11
38.427
 21
-40.3532
  0
LINE
  8
0
 10
38.427
 20
-40.3532
 11
38.0621
 21
-40.4469
  0
LINE
  8
0
 10
38.0621
 20
-40.4469
 11
37.6884
 21
-40.4941
  0
LINE
  8
0
 10
37.6884
 20
-40.4941
 11
37.3116
 21
-40.4941
  0
LINE
  8
0
 10
-37.6884
 20
-40.4941
 11
-38.0621
 21
-40.4469
  0
LINE
  8
0
 10
-38.0621
 20
-40.4469
 11
-38.427
 21
-40.3532
  0
LINE
  8
0
 10
-38.427
 20
-40.3532
 11
-38.7773
 21
-40.2145
  0
LINE
  8
0
 10
-38.7773
 20
-40.2145
 11
-39.1075
 21
-40.033
  0
LINE
  8
0
 10
-39.1075
 20
-40.033
 11
-39.4123
 21
-39.8115
  0
LINE
  8
0
 10
-39.4123
 20
-39.8115
 11
-39.6869
 21
-39.5536
  0
LINE
  8
0
 10
-39.6869
 20
-39.5536
 11
-39.927
 21
-39.2634
  0
LINE
  8
0
 10
-39.927
 20
-39.2634
 11
-40.1289
 21
-38.9453
  0
LINE
  8
0
 10
-40.1289
 20
-38.9453
 11
-40.2893
 21
-38.6044
  0
LINE
  8
0
 10
-40.2893
 20
-38.6044
 11
-40.4057
 21
-38.2461
  0
LINE
  8
0
 10
-40.4057
 20
-38.2461
 11
-40.4763
 21
-37.876
  0
LINE
  8
0
 10
-40.4763
 20
-37.876
 11
-40.5
 21
-37.5
  0
LINE
  8
0
 10
-40.5
 20
-37.5
 11
-40.4763
 21
-37.124
  0
LINE
  8
0
 10
-40.4763
 20
-37.124
 11
-40.4057
 21
-36.7539
  0
LINE
  8
0
 10
-40.4057
 20
-36.7539
 11
-40.2893
 21
-36.3956
  0
LINE
  8
0
 10
-40.2893
 20
-36.3956
 11
-40.1289
 21
-36.0547
  0
LINE
  8
0
 10
-40.1289
 20
-36.0547
 11
-39.927
 21
-35.7366
  0
LINE
  8
0
 10
-39.927
 20
-35.7366
 11
-39.6869
 21
-35.4464
  0
LINE
  8
0
 10
-39.6869
 20
-35.4464
 11
-39.4123
 21
-35.1885
  0
LINE
  8
0
 10
-39.4123
 20
-35.1885
 11
-39.1075
 21
-34.967
  0
LINE
  8
0
 10
-39.1075
 20
-34.967
 11
-38.7773
 21
-34.7855
  0
LINE
  8
0
 10
-38.7773
 20
-34.7855
 11
-38.427
 21
-34.6468
  0
LINE
  8
0
 10
-38.427
 20
-34.6468
 11
-38.0621
 21
-34.5531
  0
LINE
  8
0
 10
-38.0621
 20
-34.5531
 11
-37.6884
 21
-34.5059
  0
LINE
  8
0
 10
-37.6884
 20
-34.5059
 11
-37.3116
 21
-34.5059
  0
LINE
  8
0
 10
-37.3116
 20
-34.5059
 11
-36.9379
 21
-34.5531
  0
LINE
  8
0
 10
-36.9379
 20
-34.5531
 11
-36.5729
 21
-34.6468
  0
LINE
  8
0
 10
-36.5729
 20
-34.6468
 11
-36.2227
 21
-34.7855
  0
LINE
  8
0
 10
-36.2227
 20
-34.7855
 11
-35.8925
 21
-34.967
  0
LINE
  8
0
 10
-35.8925
 20
-34.967
 11
-35.5877
 21
-35.1885
  0
LINE
  8
0
 10
-35.5877
 20
-35.1885
 11
-35.3131
 21
-35.4464
  0
LINE
  8
0
 10
-35.3131
 20
-35.4464
 11
-35.0729
 21
-35.7366
  0
LINE
  8
0
 10
-35.0729
 20
-35.7366
 11
-34.8711
 21
-36.0547
  0
LINE
  8
0
 10
-34.8711
 20
-36.0547
 11
-34.7107
 21
-36.3956
  0
LINE
  8
0
 10
-34.7107
 20
-36.3956
 11
-34.5942
 21
-36.7539
  0
LINE
  8
0
 10
-34.5942
 20
-36.7539
 11
-34.5237
 21
-37.124
  0
LINE
  8
0
 10
-34.5237
 20
-37.124
 11
-34.5
 21
-37.5
  0
LINE
  8
0
 10
-34.5
 20
-37.5
 11
-34.5237
 21
-37.876
  0
LINE
  8
0
 10
-34.5237
 20
-37.876
 11
-34.5942
 21
-38.2461
  0
LINE
  8
0
 10
-34.5942
 20
-38.2461
 11
-34.7107
 21
-38.6044
  0
LINE
  8
0
 10
-34.7107
 20
-38.6044
 11
-34.8711
 21
-38.9453
  0
LINE
  8
0
 10
-34.8711
 20
-38.9453
 11
-35.0729
 21
-39.2634
  0
LINE
  8
0
 10
-35.0729
 20
-39.2634
 11
-35.3131
 21
-39.5536
  0
LINE
  8
0
 10
-35.3131
 20
-39.5536
 11
-35.5877
 21
-39.8115
  0
LINE
  8
0
 10
-35.5877
 20
-39.8115
 11
-35.8925
 21
-40.033
  0
LINE
  8
0
 10
-35.8925
 20
-40.033
 11
-36.2227
 21
-40.2145
  0
LINE
  8
0
 10
-36.2227
 20
-40.2145
 11
-36.5729
 21
-40.3532
  0
LINE
  8
0
 10
-36.5729
 20
-40.3532
 11
-36.9379
 21
-40.4469
  0
LINE
  8
0
 10
-36.9379
 20
-40.4469
 11
-37.3116
 21
-40.4941
  0
LINE
  8
0
 10
-37.3116
 20
-40.4941
 11
-37.6884
 21
-40.4941
  0
LINE
  8
0
 10
-7.68837
 20
-40.4941
 11
-8.06213
 21
-40.4469
  0
LINE
  8
0
 10
-8.06213
 20
-40.4469
 11
-8.42705
 21
-40.3532
  0
LINE
  8
0
 10
-8.42705
 20
-40.3532
 11
-8.77733
 21
-40.2145
  0
LINE
  8
0
 10
-8.77733
 20
-40.2145
 11
-9.10747
 21
-40.033
  0
LINE
  8
0
 10
-9.10747
 20
-40.033
 11
-9.41226
 21
-39.8115
  0
LINE
  8
0
 10
-9.41226
 20
-39.8115
 11
-9.6869
 21
-39.5536
  0
LINE
  8
0
 10
-9.6869
 20
-39.5536
 11
-9.92705
 21
-39.2634
  0
LINE
  8
0
 10
-9.92705
 20
-39.2634
 11
-10.1289
 21
-38.9453
  0
LINE
  8
0
 10
-10.1289
 20
-38.9453
 11
-10.2893
 21
-38.6044
  0
LINE
  8
0
 10
-10.2893
 20
-38.6044
 11
-10.4057
 21
-38.2461
  0
LINE
  8
0
 10
-10.4057
 20
-38.2461
 11
-10.4763
 21
-37.876
  0
LINE
  8
0
 10
-10.4763
 20
-37.876
 11
-10.5
 21
-37.5
  0
LINE
  8
0
 10
-10.5
 20
-37.5
 11
-10.4763
 21
-37.124
  0
LINE
  8
0
 10
-10.4763
 20
-37.124
 11
-10.4057
 21
-36.7539
  0
LINE
  8
0
 10
-10.4057
 20
-36.7539
 11
-10.2893
 21
-36.3956
  0
LINE
  8
0
 10
-10.2893
 20
-36.3956
 11
-10.1289
 21
-36.0547
  0
LINE
  8
0
 10
-10.1289
 20
-36.0547
 11
-9.92705
 21
-35.7366
  0
LINE
  8
0
 10
-9.92705
 20
-35.7366
 11
-9.6869
 21
-35.4464
  0
LINE
  8
0
 10
-9.6869
 20
-35.4464
 11
-9.41226
 21
-35.1885
  0
LINE
  8
0
 10
-9.41226
 20
-35.1885
 11
-9.10747
 21
-34.967
  0
LINE
  8
0
 10
-9.10747
 20
-34.967
 11
-8.77733
 21
-34.7855
  0
LINE
  8
0
 10
-8.77733
 20
-34.7855
 11
-8.42705
 21
-34.6468
  0
LINE
  8
0
 10
-8.42705
 20
-34.6468
 11
-8.06213
 21
-34.5531
  0
LINE
  8
0
 10
-8.06213
 20
-34.5531
 11
-7.68837
 21
-34.5059
  0
LINE
  8
0
 10
-7.68837
 20
-34.5059
 11
-7.31161
 21
-34.5059
  0
LINE
  8
0
 10
-7.31161
 20
-34.5059
 11
-6.93785
 21
-34.5531
  0
LINE
  8
0
 10
-6.93785
 20
-34.5531
 11
-6.57294
 21
-34.6468
  0
LINE
  8
0
 10
-6.57294
 20
-34.6468
 11
-6.22266
 21
-34.7855
  0
LINE
  8
0
 10
-6.22266
 20
-34.7855
 11
-5.89252
 21
-34.967
  0
LINE
  8
0
 10
-5.89252
 20
-34.967
 11
-5.58772
 21
-35.1885
  0
LINE
  8
0
 10
-5.58772
 20
-35.1885
 11
-5.31308
 21
-35.4464
  0
LINE
  8
0
 10
-5.31308
 20
-35.4464
 11
-5.07294
 21
-35.7366
  0
LINE
  8
0
 10
-5.07294
 20
-35.7366
 11
-4.87108
 21
-36.0547
  0
LINE
  8
0
 10
-4.87108
 20
-36.0547
 11
-4.71066
 21
-36.3956
  0
LINE
  8
0
 10
-4.71066
 20
-36.3956
 11
-4.59424
 21
-36.7539
  0
LINE
  8
0
 10
-4.59424
 20
-36.7539
 11
-4.52365
 21
-37.124
  0
LINE
  8
0
 10
-4.52365
 20
-37.124
 11
-4.5
 21
-37.5
  0
LINE
  8
0
 10
-4.5
 20
-37.5
 11
-4.52365
 21
-37.876
  0
LINE
  8
0
 10
-4.52365
 20
-37.876
 11
-4.59424
 21
-38.2461
  0
LINE
  8
0
 10
-4.59424
 20
-38.2461
 11
-4.71066
 21
-38.6044
  0
LINE
  8
0
 10
-4.71066
 20
-38.6044
 11
-4.87108
 21
-38.9453
  0
LINE
  8
0
 10
-4.87108
 20
-38.9453
 11
-5.07294
 21
-39.2634
  0
LINE
  8
0
 10
-5.07294
 20
-39.2634
 11
-5.31308
 21
-39.5536
  0
LINE
  8
0
 10
-5.31308
 20
-39.5536
 11
-5.58772
 21
-39.8115
  0
LINE
  8
0
 10
-5.58772
 20
-39.8115
 11
-5.89252
 21
-40.033
  0
LINE
  8
0
 10
-5.89252
 20
-40.033
 11
-6.22266
 21
-40.2145
  0
LINE
  8
0
 10
-6.22266
 20
-40.2145
 11
-6.57294
 21
-40.3532
  0
LINE
  8
0
 10
-6.57294
 20
-40.3532
 11
-6.93785
 21
-40.4469
  0
LINE
  8
0
 10
-6.93785
 20
-40.4469
 11
-7.31161
 21
-40.4941
  0
LINE
  8
0
 10
-7.31161
 20
-40.4941
 11
-7.68837
 21
-40.4941
  0
LINE
  8
0
 10
-15.0942
 20
-38.997
 11
-15.2811
 21
-38.9734
  0
LINE
  8
0
 10
-15.2811
 20
-38.9734
 11
-15.4635
 21
-38.9266
  0
LINE
  8
0
 10
-15.4635
 20
-38.9266
 11
-15.6387
 21
-38.8572
  0
LINE
  8
0
 10
-15.6387
 20
-38.8572
 11
-15.8037
 21
-38.7665
  0
LINE
  8
0
 10
-15.8037
 20
-38.7665
 11
-15.9561
 21
-38.6558
  0
LINE
  8
0
 10
-15.9561
 20
-38.6558
 11
-16.0934
 21
-38.5268
  0
LINE
  8
0
 10
-16.0934
 20
-38.5268
 11
-16.2135
 21
-38.3817
  0
LINE
  8
0
 10
-16.2135
 20
-38.3817
 11
-16.3145
 21
-38.2226
  0
LINE
  8
0
 10
-16.3145
 20
-38.2226
 11
-16.3947
 21
-38.0522
  0
LINE
  8
0
 10
-16.3947
 20
-38.0522
 11
-16.4529
 21
-37.873
  0
LINE
  8
0
 10
-16.4529
 20
-37.873
 11
-16.4882
 21
-37.688
  0
LINE
  8
0
 10
-16.4882
 20
-37.688
 11
-16.5
 21
-37.5
  0
LINE
  8
0
 10
-16.5
 20
-37.5
 11
-16.4882
 21
-37.312
  0
LINE
  8
0
 10
-16.4882
 20
-37.312
 11
-16.4529
 21
-37.127
  0
LINE
  8
0
 10
-16.4529
 20
-37.127
 11
-16.3947
 21
-36.9478
  0
LINE
  8
0
 10
-16.3947
 20
-36.9478
 11
-16.3145
 21
-36.7774
  0
LINE
  8
0
 10
-16.3145
 20
-36.7774
 11
-16.2135
 21
-36.6183
  0
LINE
  8
0
 10
-16.2135
 20
-36.6183
 11
-16.0934
 21
-36.4732
  0
LINE
  8
0
 10
-16.0934
 20
-36.4732
 11
-15.9561
 21
-36.3442
  0
LINE
  8
0
 10
-15.9561
 20
-36.3442
 11
-15.8037
 21
-36.2335
  0
LINE
  8
0
 10
-15.8037
 20
-36.2335
 11
-15.6387
 21
-36.1428
  0
LINE
  8
0
 10
-15.6387
 20
-36.1428
 11
-15.4635
 21
-36.0734
  0
LINE
  8
0
 10
-15.4635
 20
-36.0734
 11
-15.2811
 21
-36.0266
  0
LINE
  8
0
 10
-15.2811
 20
-36.0266
 11
-15.0942
 21
-36.003
  0
LINE
  8
0
 10
-15.0942
 20
-36.003
 11
-14.9058
 21
-36.003
  0
LINE
  8
0
 10
-14.9058
 20
-36.003
 11
-14.7189
 21
-36.0266
  0
LINE
  8
0
 10
-14.7189
 20
-36.0266
 11
-14.5365
 21
-36.0734
  0
LINE
  8
0
 10
-14.5365
 20
-36.0734
 11
-14.3613
 21
-36.1428
  0
LINE
  8
0
 10
-14.3613
 20
-36.1428
 11
-14.1963
 21
-36.2335
  0
LINE
  8
0
 10
-14.1963
 20
-36.2335
 11
-14.0439
 21
-36.3442
  0
LINE
  8
0
 10
-14.0439
 20
-36.3442
 11
-13.9065
 21
-36.4732
  0
LINE
  8
0
 10
-13.9065
 20
-36.4732
 11
-13.7865
 21
-36.6183
  0
LINE
  8
0
 10
-13.7865
 20
-36.6183
 11
-13.6855
 21
-36.7774
  0
LINE
  8
0
 10
-13.6855
 20
-36.7774
 11
-13.6053
 21
-36.9478
  0
LINE
  8
0
 10
-13.6053
 20
-36.9478
 11
-13.5471
 21
-37.127
  0
LINE
  8
0
 10
-13.5471
 20
-37.127
 11
-13.5118
 21
-37.312
  0
LINE
  8
0
 10
-13.5118
 20
-37.312
 11
-13.5
 21
-37.5
  0
LINE
  8
0
 10
-13.5
 20
-37.5
 11
-13.5118
 21
-37.688
  0
LINE
  8
0
 10
-13.5118
 20
-37.688
 11
-13.5471
 21
-37.873
  0
LINE
  8
0
 10
-13.5471
 20
-37.873
 11
-13.6053
 21
-38.0522
  0
LINE
  8
0
 10
-13.6053
 20
-38.0522
 11
-13.6855
 21
-38.2226
  0
LINE
  8
0
 10
-13.6855
 20
-38.2226
 11
-13.7865
 21
-38.3817
  0
LINE
  8
0
 10
-13.7865
 20
-38.3817
 11
-13.9065
 21
-38.5268
  0
LINE
  8
0
 10
-13.9065
 20
-38.5268
 11
-14.0439
 21
-38.6558
  0
LINE
  8
0
 10
-14.0439
 20
-38.6558
 11
-14.1963
 21
-38.7665
  0
LINE
  8
0
 10
-14.1963
 20
-38.7665
 11
-14.3613
 21
-38.8572
  0
LINE
  8
0
 10
-14.3613
 20
-38.8572
 11
-14.5365
 21
-38.9266
  0
LINE
  8
0
 10
-14.5365
 20
-38.9266
 11
-14.7189
 21
-38.9734
  0
LINE
  8
0
 10
-14.7189
 20
-38.9734
 11
-14.9058
 21
-38.997
  0
LINE
  8
0
 10
-14.9058
 20
-38.997
 11
-15.0942
 21
-38.997
  0
LINE
  8
0
 10
-0.0941772
 20
-38.997
 11
-0.281067
 21
-38.9734
  0
LINE
  8
0
 10
-0.281067
 20
-38.9734
 11
-0.463516
 21
-38.9266
  0
LINE
  8
0
 10
-0.463516
 20
-38.9266
 11
-0.638657
 21
-38.8572
  0
LINE
  8
0
 10
-0.638657
 20
-38.8572
 11
-0.803726
 21
-38.7665
  0
LINE
  8
0
 10
-0.803726
 20
-38.7665
 11
-0.956131
 21
-38.6558
  0
LINE
  8
0
 10
-0.956131
 20
-38.6558
 11
-1.09344
 21
-38.5268
  0
LINE
  8
0
 10
-1.09344
 20
-38.5268
 11
-1.21352
 21
-38.3817
  0
LINE
  8
0
 10
-1.21352
 20
-38.3817
 11
-1.31445
 21
-38.2226
  0
LINE
  8
0
 10
-1.31445
 20
-38.2226
 11
-1.39465
 21
-38.0522
  0
LINE
  8
0
 10
-1.39465
 20
-38.0522
 11
-1.45287
 21
-37.873
  0
LINE
  8
0
 10
-1.45287
 20
-37.873
 11
-1.48816
 21
-37.688
  0
LINE
  8
0
 10
-1.48816
 20
-37.688
 11
-1.5
 21
-37.5
  0
LINE
  8
0
 10
-1.5
 20
-37.5
 11
-1.48816
 21
-37.312
  0
LINE
  8
0
 10
-1.48816
 20
-37.312
 11
-1.45287
 21
-37.127
  0
LINE
  8
0
 10
-1.45287
 20
-37.127
 11
-1.39465
 21
-36.9478
  0
LINE
  8
0
 10
-1.39465
 20
-36.9478
 11
-1.31445
 21
-36.7774
  0
LINE
  8
0
 10
-1.31445
 20
-36.7774
 11
-1.21352
 21
-36.6183
  0
LINE
  8
0
 10
-1.21352
 20
-36.6183
 11
-1.09344
 21
-36.4732
  0
LINE
  8
0
 10
-1.09344
 20
-36.4732
 11
-0.956131
 21
-36.3442
  0
LINE
  8
0
 10
-0.956131
 20
-36.3442
 11
-0.803726
 21
-36.2335
  0
LINE
  8
0
 10
-0.803726
 20
-36.2335
 11
-0.638657
 21
-36.1428
  0
LINE
  8
0
 10
-0.638657
 20
-36.1428
 11
-0.463516
 21
-36.0734
  0
LINE
  8
0
 10
-0.463516
 20
-36.0734
 11
-0.281067
 21
-36.0266
  0
LINE
  8
0
 10
-0.281067
 20
-36.0266
 11
-0.0941772
 21
-36.003
  0
LINE
  8
0
 10
-0.0941772
 20
-36.003
 11
0.0941772
 21
-36.003
  0
LINE
  8
0
 10
0.0941772
 20
-36.003
 11
0.281067
 21
-36.0266
  0
LINE
  8
0
 10
0.281067
 20
-36.0266
 11
0.463516
 21
-36.0734
  0
LINE
  8
0
 10
0.463516
 20
-36.0734
 11
0.638657
 21
-36.1428
  0
LINE
  8
0
 10
0.638657
 20
-36.1428
 11
0.803726
 21
-36.2335
  0
LINE
  8
0
 10
0.803726
 20
-36.2335
 11
0.956131
 21
-36.3442
  0
LINE
  8
0
 10
0.956131
 20
-36.3442
 11
1.09344
 21
-36.4732
  0
LINE
  8
0
 10
1.09344
 20
-36.4732
 11
1.21352
 21
-36.6183
  0
LINE
  8
0
 10
1.21352
 20
-36.6183
 11
1.31445
 21
-36.7774
  0
LINE
  8
0
 10
1.31445
 20
-36.7774
 11
1.39465
 21
-36.9478
  0
LINE
  8
0
 10
1.39465
 20
-36.9478
 11
1.45287
 21
-37.127
  0
LINE
  8
0
 10
1.45287
 20
-37.127
 11
1.48816
 21
-37.312
  0
LINE
  8
0
 10
1.48816
 20
-37.312
 11
1.5
 21
-37.5
  0
LINE
  8
0
 10
1.5
 20
-37.5
 11
1.48816
 21
-37.688
  0
LINE
  8
0
 10
1.48816
 20
-37.688
 11
1.45287
 21
-37.873
  0
LINE
  8
0
 10
1.45287
 20
-37.873
 11
1.39465
 21
-38.0522
  0
LINE
  8
0
 10
1.39465
 20
-38.0522
 11
1.31445
 21
-38.2226
  0
LINE
  8
0
 10
1.31445
 20
-38.2226
 11
1.21352
 21
-38.3817
  0
LINE
  8
0
 10
1.21352
 20
-38.3817
 11
1.09344
 21
-38.5268
  0
LINE
  8
0
 10
1.09344
 20
-38.5268
 11
0.956131
 21
-38.6558
  0
LINE
  8
0
 10
0.956131
 20
-38.6558
 11
0.803726
 21
-38.7665
  0
LINE
  8
0
 10
0.803726
 20
-38.7665
 11
0.638657
 21
-38.8572
  0
LINE
  8
0
 10
0.638657
 20
-38.8572
 11
0.463516
 21
-38.9266
  0
LINE
  8
0
 10
0.463516
 20
-38.9266
 11
0.281067
 21
-38.9734
  0
LINE
  8
0
 10
0.281067
 20
-38.9734
 11
0.0941772
 21
-38.997
  0
LINE
  8
0
 10
0.0941772
 20
-38.997
 11
-0.0941772
 21
-38.997
  0
LINE
  8
0
 10
-30.0942
 20
-38.997
 11
-30.2811
 21
-38.9734
  0
LINE
  8
0
 10
-30.2811
 20
-38.9734
 11
-30.4635
 21
-38.9266
  0
LINE
  8
0
 10
-30.4635
 20
-38.9266
 11
-30.6387
 21
-38.8572
  0
LINE
  8
0
 10
-30.6387
 20
-38.8572
 11
-30.8037
 21
-38.7665
  0
LINE
  8
0
 10
-30.8037
 20
-38.7665
 11
-30.9561
 21
-38.6558
  0
LINE
  8
0
 10
-30.9561
 20
-38.6558
 11
-31.0934
 21
-38.5268
  0
LINE
  8
0
 10
-31.0934
 20
-38.5268
 11
-31.2135
 21
-38.3817
  0
LINE
  8
0
 10
-31.2135
 20
-38.3817
 11
-31.3145
 21
-38.2226
  0
LINE
  8
0
 10
-31.3145
 20
-38.2226
 11
-31.3947
 21
-38.0522
  0
LINE
  8
0
 10
-31.3947
 20
-38.0522
 11
-31.4529
 21
-37.873
  0
LINE
  8
0
 10
-31.4529
 20
-37.873
 11
-31.4882
 21
-37.688
  0
LINE
  8
0
 10
-31.4882
 20
-37.688
 11
-31.5
 21
-37.5
  0
LINE
  8
0
 10
-31.5
 20
-37.5
 11
-31.4882
 21
-37.312
  0
LINE
  8
0
 10
-31.4882
 20
-37.312
 11
-31.4529
 21
-37.127
  0
LINE
  8
0
 10
-31.4529
 20
-37.127
 11
-31.3947
 21
-36.9478
  0
LINE
  8
0
 10
-31.3947
 20
-36.9478
 11
-31.3145
 21
-36.7774
  0
LINE
  8
0
 10
-31.3145
 20
-36.7774
 11
-31.2135
 21
-36.6183
  0
LINE
  8
0
 10
-31.2135
 20
-36.6183
 11
-31.0934
 21
-36.4732
  0
LINE
  8
0
 10
-31.0934
 20
-36.4732
 11
-30.9561
 21
-36.3442
  0
LINE
  8
0
 10
-30.9561
 20
-36.3442
 11
-30.8037
 21
-36.2335
  0
LINE
  8
0
 10
-30.8037
 20
-36.2335
 11
-30.6387
 21
-36.1428
  0
LINE
  8
0
 10
-30.6387
 20
-36.1428
 11
-30.4635
 21
-36.0734
  0
LINE
  8
0
 10
-30.4635
 20
-36.0734
 11
-30.2811
 21
-36.0266
  0
LINE
  8
0
 10
-30.2811
 20
-36.0266
 11
-30.0942
 21
-36.003
  0
LINE
  8
0
 10
-30.0942
 20
-36.003
 11
-29.9058
 21
-36.003
  0
LINE
  8
0
 10
-29.9058
 20
-36.003
 11
-29.7189
 21
-36.0266
  0
LINE
  8
0
 10
-29.7189
 20
-36.0266
 11
-29.5365
 21
-36.0734
  0
LINE
  8
0
 10
-29.5365
 20
-36.0734
 11
-29.3613
 21
-36.1428
  0
LINE
  8
0
 10
-29.3613
 20
-36.1428
 11
-29.1963
 21
-36.2335
  0
LINE
  8
0
 10
-29.1963
 20
-36.2335
 11
-29.0439
 21
-36.3442
  0
LINE
  8
0
 10
-29.0439
 20
-36.3442
 11
-28.9065
 21
-36.4732
  0
LINE
  8
0
 10
-28.9065
 20
-36.4732
 11
-28.7865
 21
-36.6183
  0
LINE
  8
0
 10
-28.7865
 20
-36.6183
 11
-28.6855
 21
-36.7774
  0
LINE
  8
0
 10
-28.6855
 20
-36.7774
 11
-28.6053
 21
-36.9478
  0
LINE
  8
0
 10
-28.6053
 20
-36.9478
 11
-28.5471
 21
-37.127
  0
LINE
  8
0
 10
-28.5471
 20
-37.127
 11
-28.5118
 21
-37.312
  0
LINE
  8
0
 10
-28.5118
 20
-37.312
 11
-28.5
 21
-37.5
  0
LINE
  8
0
 10
-28.5
 20
-37.5
 11
-28.5118
 21
-37.688
  0
LINE
  8
0
 10
-28.5118
 20
-37.688
 11
-28.5471
 21
-37.873
  0
LINE
  8
0
 10
-28.5471
 20
-37.873
 11
-28.6053
 21
-38.0522
  0
LINE
  8
0
 10
-28.6053
 20
-38.0522
 11
-28.6855
 21
-38.2226
  0
LINE
  8
0
 10
-28.6855
 20
-38.2226
 11
-28.7865
 21
-38.3817
  0
LINE
  8
0
 10
-28.7865
 20
-38.3817
 11
-28.9065
 21
-38.5268
  0
LINE
  8
0
 10
-28.9065
 20
-38.5268
 11
-29.0439
 21
-38.6558
  0
LINE
  8
0
 10
-29.0439
 20
-38.6558
 11
-29.1963
 21
-38.7665
  0
LINE
  8
0
 10
-29.1963
 20
-38.7665
 11
-29.3613
 21
-38.8572
  0
LINE
  8
0
 10
-29.3613
 20
-38.8572
 11
-29.5365
 21
-38.9266
  0
LINE
  8
0
 10
-29.5365
 20
-38.9266
 11
-29.7189
 21
-38.9734
  0
LINE
  8
0
 10
-29.7189
 20
-38.9734
 11
-29.9058
 21
-38.997
  0
LINE
  8
0
 10
-29.9058
 20
-38.997
 11
-30.0942
 21
-38.997
  0
LINE
  8
0
 10
14.9058
 20
-38.997
 11
14.7189
 21
-38.9734
  0
LINE
  8
0
 10
14.7189
 20
-38.9734
 11
14.5365
 21
-38.9266
  0
LINE
  8
0
 10
14.5365
 20
-38.9266
 11
14.3613
 21
-38.8572
  0
LINE
  8
0
 10
14.3613
 20
-38.8572
 11
14.1963
 21
-38.7665
  0
LINE
  8
0
 10
14.1963
 20
-38.7665
 11
14.0439
 21
-38.6558
  0
LINE
  8
0
 10
14.0439
 20
-38.6558
 11
13.9065
 21
-38.5268
  0
LINE
  8
0
 10
13.9065
 20
-38.5268
 11
13.7865
 21
-38.3817
  0
LINE
  8
0
 10
13.7865
 20
-38.3817
 11
13.6855
 21
-38.2226
  0
LINE
  8
0
 10
13.6855
 20
-38.2226
 11
13.6053
 21
-38.0522
  0
LINE
  8
0
 10
13.6053
 20
-38.0522
 11
13.5471
 21
-37.873
  0
LINE
  8
0
 10
13.5471
 20
-37.873
 11
13.5118
 21
-37.688
  0
LINE
  8
0
 10
13.5118
 20
-37.688
 11
13.5
 21
-37.5
  0
LINE
  8
0
 10
13.5
 20
-37.5
 11
13.5118
 21
-37.312
  0
LINE
  8
0
 10
13.5118
 20
-37.312
 11
13.5471
 21
-37.127
  0
LINE
  8
0
 10
13.5471
 20
-37.127
 11
13.6053
 21
-36.9478
  0
LINE
  8
0
 10
13.6053
 20
-36.9478
 11
13.6855
 21
-36.7774
  0
LINE
  8
0
 10
13.6855
 20
-36.7774
 11
13.7865
 21
-36.6183
  0
LINE
  8
0
 10
13.7865
 20
-36.6183
 11
13.9065
 21
-36.4732
  0
LINE
  8
0
 10
13.9065
 20
-36.4732
 11
14.0439
 21
-36.3442
  0
LINE
  8
0
 10
14.0439
 20
-36.3442
 11
14.1963
 21
-36.2335
  0
LINE
  8
0
 10
14.1963
 20
-36.2335
 11
14.3613
 21
-36.1428
  0
LINE
  8
0
 10
14.3613
 20
-36.1428
 11
14.5365
 21
-36.0734
  0
LINE
  8
0
 10
14.5365
 20
-36.0734
 11
14.7189
 21
-36.0266
  0
LINE
  8
0
 10
14.7189
 20
-36.0266
 11
14.9058
 21
-36.003
  0
LINE
  8
0
 10
14.9058
 20
-36.003
 11
15.0942
 21
-36.003
  0
LINE
  8
0
 10
15.0942
 20
-36.003
 11
15.2811
 21
-36.0266
  0
LINE
  8
0
 10
15.2811
 20
-36.0266
 11
15.4635
 21
-36.0734
  0
LINE
  8
0
 10
15.4635
 20
-36.0734
 11
15.6387
 21
-36.1428
  0
LINE
  8
0
 10
15.6387
 20
-36.1428
 11
15.8037
 21
-36.2335
  0
LINE
  8
0
 10
15.8037
 20
-36.2335
 11
15.9561
 21
-36.3442
  0
LINE
  8
0
 10
15.9561
 20
-36.3442
 11
16.0934
 21
-36.4732
  0
LINE
  8
0
 10
16.0934
 20
-36.4732
 11
16.2135
 21
-36.6183
  0
LINE
  8
0
 10
16.2135
 20
-36.6183
 11
16.3145
 21
-36.7774
  0
LINE
  8
0
 10
16.3145
 20
-36.7774
 11
16.3947
 21
-36.9478
  0
LINE
  8
0
 10
16.3947
 20
-36.9478
 11
16.4529
 21
-37.127
  0
LINE
  8
0
 10
16.4529
 20
-37.127
 11
16.4882
 21
-37.312
  0
LINE
  8
0
 10
16.4882
 20
-37.312
 11
16.5
 21
-37.5
  0
LINE
  8
0
 10
16.5
 20
-37.5
 11
16.4882
 21
-37.688
  0
LINE
  8
0
 10
16.4882
 20
-37.688
 11
16.4529
 21
-37.873
  0
LINE
  8
0
 10
16.4529
 20
-37.873
 11
16.3947
 21
-38.0522
  0
LINE
  8
0
 10
16.3947
 20
-38.0522
 11
16.3145
 21
-38.2226
  0
LINE
  8
0
 10
16.3145
 20
-38.2226
 11
16.2135
 21
-38.3817
  0
LINE
  8
0
 10
16.2135
 20
-38.3817
 11
16.0934
 21
-38.5268
  0
LINE
  8
0
 10
16.0934
 20
-38.5268
 11
15.9561
 21
-38.6558
  0
LINE
  8
0
 10
15.9561
 20
-38.6558
 11
15.8037
 21
-38.7665
  0
LINE
  8
0
 10
15.8037
 20
-38.7665
 11
15.6387
 21
-38.8572
  0
LINE
  8
0
 10
15.6387
 20
-38.8572
 11
15.4635
 21
-38.9266
  0
LINE
  8
0
 10
15.4635
 20
-38.9266
 11
15.2811
 21
-38.9734
  0
LINE
  8
0
 10
15.2811
 20
-38.9734
 11
15.0942
 21
-38.997
  0
LINE
  8
0
 10
15.0942
 20
-38.997
 11
14.9058
 21
-38.997
  0
LINE
  8
0
 10
29.9058
 20
-38.997
 11
29.7189
 21
-38.9734
  0
LINE
  8
0
 10
29.7189
 20
-38.9734
 11
29.5365
 21
-38.9266
  0
LINE
  8
0
 10
29.5365
 20
-38.9266
 11
29.3613
 21
-38.8572
  0
LINE
  8
0
 10
29.3613
 20
-38.8572
 11
29.1963
 21
-38.7665
  0
LINE
  8
0
 10
29.1963
 20
-38.7665
 11
29.0439
 21
-38.6558
  0
LINE
  8
0
 10
29.0439
 20
-38.6558
 11
28.9065
 21
-38.5268
  0
LINE
  8
0
 10
28.9065
 20
-38.5268
 11
28.7865
 21
-38.3817
  0
LINE
  8
0
 10
28.7865
 20
-38.3817
 11
28.6855
 21
-38.2226
  0
LINE
  8
0
 10
28.6855
 20
-38.2226
 11
28.6053
 21
-38.0522
  0
LINE
  8
0
 10
28.6053
 20
-38.0522
 11
28.5471
 21
-37.873
  0
LINE
  8
0
 10
28.5471
 20
-37.873
 11
28.5118
 21
-37.688
  0
LINE
  8
0
 10
28.5118
 20
-37.688
 11
28.5
 21
-37.5
  0
LINE
  8
0
 10
28.5
 20
-37.5
 11
28.5118
 21
-37.312
  0
LINE
  8
0
 10
28.5118
 20
-37.312
 11
28.5471
 21
-37.127
  0
LINE
  8
0
 10
28.5471
 20
-37.127
 11
28.6053
 21
-36.9478
  0
LINE
  8
0
 10
28.6053
 20
-36.9478
 11
28.6855
 21
-36.7774
  0
LINE
  8
0
 10
28.6855
 20
-36.7774
 11
28.7865
 21
-36.6183
  0
LINE
  8
0
 10
28.7865
 20
-36.6183
 11
28.9065
 21
-36.4732
  0
LINE
  8
0
 10
28.9065
 20
-36.4732
 11
29.0439
 21
-36.3442
  0
LINE
  8
0
 10
29.0439
 20
-36.3442
 11
29.1963
 21
-36.2335
  0
LINE
  8
0
 10
29.1963
 20
-36.2335
 11
29.3613
 21
-36.1428
  0
LINE
  8
0
 10
29.3613
 20
-36.1428
 11
29.5365
 21
-36.0734
  0
LINE
  8
0
 10
29.5365
 20
-36.0734
 11
29.7189
 21
-36.0266
  0
LINE
  8
0
 10
29.7189
 20
-36.0266
 11
29.9058
 21
-36.003
  0
LINE
  8
0
 10
29.9058
 20
-36.003
 11
30.0942
 21
-36.003
  0
LINE
  8
0
 10
30.0942
 20
-36.003
 11
30.2811
 21
-36.0266
  0
LINE
  8
0
 10
30.2811
 20
-36.0266
 11
30.4635
 21
-36.0734
  0
LINE
  8
0
 10
30.4635
 20
-36.0734
 11
30.6387
 21
-36.1428
  0
LINE
  8
0
 10
30.6387
 20
-36.1428
 11
30.8037
 21
-36.2335
  0
LINE
  8
0
 10
30.8037
 20
-36.2335
 11
30.9561
 21
-36.3442
  0
LINE
  8
0
 10
30.9561
 20
-36.3442
 11
31.0934
 21
-36.4732
  0
LINE
  8
0
 10
31.0934
 20
-36.4732
 11
31.2135
 21
-36.6183
  0
LINE
  8
0
 10
31.2135
 20
-36.6183
 11
31.3145
 21
-36.7774
  0
LINE
  8
0
 10
31.3145
 20
-36.7774
 11
31.3947
 21
-36.9478
  0
LINE
  8
0
 10
31.3947
 20
-36.9478
 11
31.4529
 21
-37.127
  0
LINE
  8
0
 10
31.4529
 20
-37.127
 11
31.4882
 21
-37.312
  0
LINE
  8
0
 10
31.4882
 20
-37.312
 11
31.5
 21
-37.5
  0
LINE
  8
0
 10
31.5
 20
-37.5
 11
31.4882
 21
-37.688
  0
LINE
  8
0
 10
31.4882
 20
-37.688
 11
31.4529
 21
-37.873
  0
LINE
  8
0
 10
31.4529
 20
-37.873
 11
31.3947
 21
-38.0522
  0
LINE
  8
0
 10
31.3947
 20
-38.0522
 11
31.3145
 21
-38.2226
  0
LINE
  8
0
 10
31.3145
 20
-38.2226
 11
31.2135
 21
-38.3817
  0
LINE
  8
0
 10
31.2135
 20
-38.3817
 11
31.0934
 21
-38.5268
  0
LINE
  8
0
 10
31.0934
 20
-38.5268
 11
30.9561
 21
-38.6558
  0
LINE
  8
0
 10
30.9561
 20
-38.6558
 11
30.8037
 21
-38.7665
  0
LINE
  8
0
 10
30.8037
 20
-38.7665
 11
30.6387
 21
-38.8572
  0
LINE
  8
0
 10
30.6387
 20
-38.8572
 11
30.4635
 21
-38.9266
  0
LINE
  8
0
 10
30.4635
 20
-38.9266
 11
30.2811
 21
-38.9734
  0
LINE
  8
0
 10
30.2811
 20
-38.9734
 11
30.0942
 21
-38.997
  0
LINE
  8
0
 10
30.0942
 20
-38.997
 11
29.9058
 21
-38.997
  0
LINE
  8
0
 10
-28.5471
 20
37.127
 11
-28.6053
 21
36.9478
  0
LINE
  8
0
 10
-28.6053
 20
36.9478
 11
-28.6855
 21
36.7774
  0
LINE
  8
0
 10
-28.6855
 20
36.7774
 11
-28.7865
 21
36.6183
  0
LINE
  8
0
 10
-28.7865
 20
36.6183
 11
-28.9065
 21
36.4732
  0
LINE
  8
0
 10
-28.9065
 20
36.4732
 11
-29.0439
 21
36.3442
  0
LINE
  8
0
 10
-29.0439
 20
36.3442
 11
-29.1963
 21
36.2335
  0
LINE
  8
0
 10
-29.1963
 20
36.2335
 11
-29.3613
 21
36.1428
  0
LINE
  8
0
 10
-29.3613
 20
36.1428
 11
-29.5365
 21
36.0734
  0
LINE
  8
0
 10
-29.5365
 20
36.0734
 11
-29.7189
 21
36.0266
  0
LINE
  8
0
 10
-29.7189
 20
36.0266
 11
-29.9058
 21
36.003
  0
LINE
  8
0
 10
-29.9058
 20
36.003
 11
-30.0942
 21
36.003
  0
LINE
  8
0
 10
-30.0942
 20
36.003
 11
-30.2811
 21
36.0266
  0
LINE
  8
0
 10
-30.2811
 20
36.0266
 11
-30.4635
 21
36.0734
  0
LINE
  8
0
 10
-30.4635
 20
36.0734
 11
-30.6387
 21
36.1428
  0
LINE
  8
0
 10
-30.6387
 20
36.1428
 11
-30.8037
 21
36.2335
  0
LINE
  8
0
 10
-30.8037
 20
36.2335
 11
-30.9561
 21
36.3442
  0
LINE
  8
0
 10
-30.9561
 20
36.3442
 11
-31.0934
 21
36.4732
  0
LINE
  8
0
 10
-31.0934
 20
36.4732
 11
-31.2135
 21
36.6183
  0
LINE
  8
0
 10
-31.2135
 20
36.6183
 11
-31.3145
 21
36.7774
  0
LINE
  8
0
 10
-31.3145
 20
36.7774
 11
-31.3947
 21
36.9478
  0
LINE
  8
0
 10
-31.3947
 20
36.9478
 11
-31.4529
 21
37.127
  0
LINE
  8
0
 10
-31.4529
 20
37.127
 11
-31.4882
 21
37.312
  0
LINE
  8
0
 10
-31.4882
 20
37.312
 11
-31.5
 21
37.5
  0
LINE
  8
0
 10
-31.5
 20
37.5
 11
-31.4882
 21
37.688
  0
LINE
  8
0
 10
-31.4882
 20
37.688
 11
-31.4529
 21
37.873
  0
LINE
  8
0
 10
-31.4529
 20
37.873
 11
-31.3947
 21
38.0522
  0
LINE
  8
0
 10
-31.3947
 20
38.0522
 11
-31.3145
 21
38.2226
  0
LINE
  8
0
 10
-31.3145
 20
38.2226
 11
-31.2135
 21
38.3817
  0
LINE
  8
0
 10
-31.2135
 20
38.3817
 11
-31.0934
 21
38.5268
  0
LINE
  8
0
 10
-31.0934
 20
38.5268
 11
-30.9561
 21
38.6558
  0
LINE
  8
0
 10
-30.9561
 20
38.6558
 11
-30.8037
 21
38.7665
  0
LINE
  8
0
 10
-30.8037
 20
38.7665
 11
-30.6387
 21
38.8572
  0
LINE
  8
0
 10
-30.6387
 20
38.8572
 11
-30.4635
 21
38.9266
  0
LINE
  8
0
 10
-30.4635
 20
38.9266
 11
-30.2811
 21
38.9734
  0
LINE
  8
0
 10
-30.2811
 20
38.9734
 11
-30.0942
 21
38.997
  0
LINE
  8
0
 10
-30.0942
 20
38.997
 11
-29.9058
 21
38.997
  0
LINE
  8
0
 10
-29.9058
 20
38.997
 11
-29.7189
 21
38.9734
  0
LINE
  8
0
 10
-29.7189
 20
38.9734
 11
-29.5365
 21
38.9266
  0
LINE
  8
0
 10
-29.5365
 20
38.9266
 11
-29.3613
 21
38.8572
  0
LINE
  8
0
 10
-29.3613
 20
38.8572
 11
-29.1963
 21
38.7665
  0
LINE
  8
0
 10
-29.1963
 20
38.7665
 11
-29.0439
 21
38.6558
  0
LINE
  8
0
 10
-29.0439
 20
38.6558
 11
-28.9065
 21
38.5268
  0
LINE
  8
0
 10
-28.9065
 20
38.5268
 11
-28.7865
 21
38.3817
  0
LINE
  8
0
 10
-28.7865
 20
38.3817
 11
-28.6855
 21
38.2226
  0
LINE
  8
0
 10
-28.6855
 20
38.2226
 11
-28.6053
 21
38.0522
  0
LINE
  8
0
 10
-28.6053
 20
38.0522
 11
-28.5471
 21
37.873
  0
LINE
  8
0
 10
-28.5471
 20
37.873
 11
-28.5118
 21
37.688
  0
LINE
  8
0
 10
-28.5118
 20
37.688
 11
-28.5
 21
37.5
  0
LINE
  8
0
 10
-28.5
 20
37.5
 11
-28.5118
 21
37.312
  0
LINE
  8
0
 10
-28.5118
 20
37.312
 11
-28.5471
 21
37.127
  0
ENDSEC
  0
SECTION
  2
OBJECTS
  0
DICTIONARY
  0
ENDSEC
  0
EOF
