  0
SECTION
  2
BLOCKS
  0
ENDSEC
  0
SECTION
  2
ENTITIES
  0
LINE
  8
0
 10
25.4369
 20
-44.4114
 11
26.0451
 21
-44.2553
  0
LINE
  8
0
 10
26.0451
 20
-44.2553
 11
26.6289
 21
-44.0241
  0
LINE
  8
0
 10
26.6289
 20
-44.0241
 11
27.1791
 21
-43.7216
  0
LINE
  8
0
 10
27.1791
 20
-43.7216
 11
27.6871
 21
-43.3526
  0
LINE
  8
0
 10
27.6871
 20
-43.3526
 11
28.1448
 21
-42.9227
  0
LINE
  8
0
 10
28.1448
 20
-42.9227
 11
28.5451
 21
-42.4389
  0
LINE
  8
0
 10
28.5451
 20
-42.4389
 11
28.8815
 21
-41.9088
  0
LINE
  8
0
 10
28.8815
 20
-41.9088
 11
29.1489
 21
-41.3406
  0
LINE
  8
0
 10
29.1489
 20
-41.3406
 11
29.3429
 21
-40.7434
  0
LINE
  8
0
 10
29.3429
 20
-40.7434
 11
29.4606
 21
-40.1267
  0
LINE
  8
0
 10
29.4606
 20
-40.1267
 11
29.5
 21
-39.5
  0
LINE
  8
0
 10
29.5
 20
-39.5
 11
29.5
 21
39.5
  0
LINE
  8
0
 10
29.5
 20
39.5
 11
29.4606
 21
40.1267
  0
LINE
  8
0
 10
29.4606
 20
40.1267
 11
29.3429
 21
40.7434
  0
LINE
  8
0
 10
29.3429
 20
40.7434
 11
29.1489
 21
41.3406
  0
LINE
  8
0
 10
29.1489
 20
41.3406
 11
28.8815
 21
41.9088
  0
LINE
  8
0
 10
28.8815
 20
41.9088
 11
28.5451
 21
42.4389
  0
LINE
  8
0
 10
28.5451
 20
42.4389
 11
28.1448
 21
42.9227
  0
LINE
  8
0
 10
28.1448
 20
42.9227
 11
27.6871
 21
43.3526
  0
LINE
  8
0
 10
27.6871
 20
43.3526
 11
27.1791
 21
43.7216
  0
LINE
  8
0
 10
27.1791
 20
43.7216
 11
26.6289
 21
44.0241
  0
LINE
  8
0
 10
26.6289
 20
44.0241
 11
26.0451
 21
44.2553
  0
LINE
  8
0
 10
26.0451
 20
44.2553
 11
25.4369
 21
44.4114
  0
LINE
  8
0
 10
25.4369
 20
44.4114
 11
24.8139
 21
44.4901
  0
LINE
  8
0
 10
24.8139
 20
44.4901
 11
-24.8139
 21
44.4901
  0
LINE
  8
0
 10
-24.8139
 20
44.4901
 11
-25.4369
 21
44.4114
  0
LINE
  8
0
 10
-25.4369
 20
44.4114
 11
-26.0451
 21
44.2553
  0
LINE
  8
0
 10
-26.0451
 20
44.2553
 11
-26.6289
 21
44.0241
  0
LINE
  8
0
 10
-26.6289
 20
44.0241
 11
-27.1791
 21
43.7216
  0
LINE
  8
0
 10
-27.1791
 20
43.7216
 11
-27.6871
 21
43.3526
  0
LINE
  8
0
 10
-27.6871
 20
43.3526
 11
-28.1448
 21
42.9227
  0
LINE
  8
0
 10
-28.1448
 20
42.9227
 11
-28.5451
 21
42.4389
  0
LINE
  8
0
 10
-28.5451
 20
42.4389
 11
-28.8815
 21
41.9088
  0
LINE
  8
0
 10
-28.8815
 20
41.9088
 11
-29.1489
 21
41.3406
  0
LINE
  8
0
 10
-29.1489
 20
41.3406
 11
-29.3429
 21
40.7434
  0
LINE
  8
0
 10
-29.3429
 20
40.7434
 11
-29.4606
 21
40.1267
  0
LINE
  8
0
 10
-29.4606
 20
40.1267
 11
-29.5
 21
39.5
  0
LINE
  8
0
 10
-29.5
 20
39.5
 11
-29.5
 21
-39.5
  0
LINE
  8
0
 10
-29.5
 20
-39.5
 11
-29.4606
 21
-40.1267
  0
LINE
  8
0
 10
-29.4606
 20
-40.1267
 11
-29.3429
 21
-40.7434
  0
LINE
  8
0
 10
-29.3429
 20
-40.7434
 11
-29.1489
 21
-41.3406
  0
LINE
  8
0
 10
-29.1489
 20
-41.3406
 11
-28.8815
 21
-41.9088
  0
LINE
  8
0
 10
-28.8815
 20
-41.9088
 11
-28.5451
 21
-42.4389
  0
LINE
  8
0
 10
-28.5451
 20
-42.4389
 11
-28.1448
 21
-42.9227
  0
LINE
  8
0
 10
-28.1448
 20
-42.9227
 11
-27.6871
 21
-43.3526
  0
LINE
  8
0
 10
-27.6871
 20
-43.3526
 11
-27.1791
 21
-43.7216
  0
LINE
  8
0
 10
-27.1791
 20
-43.7216
 11
-26.6289
 21
-44.0241
  0
LINE
  8
0
 10
-26.6289
 20
-44.0241
 11
-26.0451
 21
-44.2553
  0
LINE
  8
0
 10
-26.0451
 20
-44.2553
 11
-25.4369
 21
-44.4114
  0
LINE
  8
0
 10
-25.4369
 20
-44.4114
 11
-24.8139
 21
-44.4901
  0
LINE
  8
0
 10
-24.8139
 20
-44.4901
 11
24.8139
 21
-44.4901
  0
LINE
  8
0
 10
24.8139
 20
-44.4901
 11
25.4369
 21
-44.4114
  0
LINE
  8
0
 10
22.3116
 20
34.5059
 11
21.9379
 21
34.5531
  0
LINE
  8
0
 10
21.9379
 20
34.5531
 11
21.5729
 21
34.6468
  0
LINE
  8
0
 10
21.5729
 20
34.6468
 11
21.2227
 21
34.7855
  0
LINE
  8
0
 10
21.2227
 20
34.7855
 11
20.8925
 21
34.967
  0
LINE
  8
0
 10
20.8925
 20
34.967
 11
20.5877
 21
35.1885
  0
LINE
  8
0
 10
20.5877
 20
35.1885
 11
20.3131
 21
35.4464
  0
LINE
  8
0
 10
20.3131
 20
35.4464
 11
20.0729
 21
35.7366
  0
LINE
  8
0
 10
20.0729
 20
35.7366
 11
19.8711
 21
36.0547
  0
LINE
  8
0
 10
19.8711
 20
36.0547
 11
19.7107
 21
36.3956
  0
LINE
  8
0
 10
19.7107
 20
36.3956
 11
19.5942
 21
36.7539
  0
LINE
  8
0
 10
19.5942
 20
36.7539
 11
19.5237
 21
37.124
  0
LINE
  8
0
 10
19.5237
 20
37.124
 11
19.5
 21
37.5
  0
LINE
  8
0
 10
19.5
 20
37.5
 11
19.5237
 21
37.876
  0
LINE
  8
0
 10
19.5237
 20
37.876
 11
19.5942
 21
38.2461
  0
LINE
  8
0
 10
19.5942
 20
38.2461
 11
19.7107
 21
38.6044
  0
LINE
  8
0
 10
19.7107
 20
38.6044
 11
19.8711
 21
38.9453
  0
LINE
  8
0
 10
19.8711
 20
38.9453
 11
20.0729
 21
39.2634
  0
LINE
  8
0
 10
20.0729
 20
39.2634
 11
20.3131
 21
39.5536
  0
LINE
  8
0
 10
20.3131
 20
39.5536
 11
20.5877
 21
39.8115
  0
LINE
  8
0
 10
20.5877
 20
39.8115
 11
20.8925
 21
40.033
  0
LINE
  8
0
 10
20.8925
 20
40.033
 11
21.2227
 21
40.2145
  0
LINE
  8
0
 10
21.2227
 20
40.2145
 11
21.5729
 21
40.3532
  0
LINE
  8
0
 10
21.5729
 20
40.3532
 11
21.9379
 21
40.4469
  0
LINE
  8
0
 10
21.9379
 20
40.4469
 11
22.3116
 21
40.4941
  0
LINE
  8
0
 10
22.3116
 20
40.4941
 11
22.6884
 21
40.4941
  0
LINE
  8
0
 10
22.6884
 20
40.4941
 11
23.0621
 21
40.4469
  0
LINE
  8
0
 10
23.0621
 20
40.4469
 11
23.427
 21
40.3532
  0
LINE
  8
0
 10
23.427
 20
40.3532
 11
23.7773
 21
40.2145
  0
LINE
  8
0
 10
23.7773
 20
40.2145
 11
24.1075
 21
40.033
  0
LINE
  8
0
 10
24.1075
 20
40.033
 11
24.4123
 21
39.8115
  0
LINE
  8
0
 10
24.4123
 20
39.8115
 11
24.6869
 21
39.5536
  0
LINE
  8
0
 10
24.6869
 20
39.5536
 11
24.927
 21
39.2634
  0
LINE
  8
0
 10
24.927
 20
39.2634
 11
25.1289
 21
38.9453
  0
LINE
  8
0
 10
25.1289
 20
38.9453
 11
25.2893
 21
38.6044
  0
LINE
  8
0
 10
25.2893
 20
38.6044
 11
25.4057
 21
38.2461
  0
LINE
  8
0
 10
25.4057
 20
38.2461
 11
25.4763
 21
37.876
  0
LINE
  8
0
 10
25.4763
 20
37.876
 11
25.5
 21
37.5
  0
LINE
  8
0
 10
25.5
 20
37.5
 11
25.4763
 21
37.124
  0
LINE
  8
0
 10
25.4763
 20
37.124
 11
25.4057
 21
36.7539
  0
LINE
  8
0
 10
25.4057
 20
36.7539
 11
25.2893
 21
36.3956
  0
LINE
  8
0
 10
25.2893
 20
36.3956
 11
25.1289
 21
36.0547
  0
LINE
  8
0
 10
25.1289
 20
36.0547
 11
24.927
 21
35.7366
  0
LINE
  8
0
 10
24.927
 20
35.7366
 11
24.6869
 21
35.4464
  0
LINE
  8
0
 10
24.6869
 20
35.4464
 11
24.4123
 21
35.1885
  0
LINE
  8
0
 10
24.4123
 20
35.1885
 11
24.1075
 21
34.967
  0
LINE
  8
0
 10
24.1075
 20
34.967
 11
23.7773
 21
34.7855
  0
LINE
  8
0
 10
23.7773
 20
34.7855
 11
23.427
 21
34.6468
  0
LINE
  8
0
 10
23.427
 20
34.6468
 11
23.0621
 21
34.5531
  0
LINE
  8
0
 10
23.0621
 20
34.5531
 11
22.6884
 21
34.5059
  0
LINE
  8
0
 10
22.6884
 20
34.5059
 11
22.3116
 21
34.5059
  0
LINE
  8
0
 10
-7.68837
 20
34.5059
 11
-8.06213
 21
34.5531
  0
LINE
  8
0
 10
-8.06213
 20
34.5531
 11
-8.42705
 21
34.6468
  0
LINE
  8
0
 10
-8.42705
 20
34.6468
 11
-8.77733
 21
34.7855
  0
LINE
  8
0
 10
-8.77733
 20
34.7855
 11
-9.10747
 21
34.967
  0
LINE
  8
0
 10
-9.10747
 20
34.967
 11
-9.41226
 21
35.1885
  0
LINE
  8
0
 10
-9.41226
 20
35.1885
 11
-9.6869
 21
35.4464
  0
LINE
  8
0
 10
-9.6869
 20
35.4464
 11
-9.92705
 21
35.7366
  0
LINE
  8
0
 10
-9.92705
 20
35.7366
 11
-10.1289
 21
36.0547
  0
LINE
  8
0
 10
-10.1289
 20
36.0547
 11
-10.2893
 21
36.3956
  0
LINE
  8
0
 10
-10.2893
 20
36.3956
 11
-10.4057
 21
36.7539
  0
LINE
  8
0
 10
-10.4057
 20
36.7539
 11
-10.4763
 21
37.124
  0
LINE
  8
0
 10
-10.4763
 20
37.124
 11
-10.5
 21
37.5
  0
LINE
  8
0
 10
-10.5
 20
37.5
 11
-10.4763
 21
37.876
  0
LINE
  8
0
 10
-10.4763
 20
37.876
 11
-10.4057
 21
38.2461
  0
LINE
  8
0
 10
-10.4057
 20
38.2461
 11
-10.2893
 21
38.6044
  0
LINE
  8
0
 10
-10.2893
 20
38.6044
 11
-10.1289
 21
38.9453
  0
LINE
  8
0
 10
-10.1289
 20
38.9453
 11
-9.92705
 21
39.2634
  0
LINE
  8
0
 10
-9.92705
 20
39.2634
 11
-9.6869
 21
39.5536
  0
LINE
  8
0
 10
-9.6869
 20
39.5536
 11
-9.41226
 21
39.8115
  0
LINE
  8
0
 10
-9.41226
 20
39.8115
 11
-9.10747
 21
40.033
  0
LINE
  8
0
 10
-9.10747
 20
40.033
 11
-8.77733
 21
40.2145
  0
LINE
  8
0
 10
-8.77733
 20
40.2145
 11
-8.42705
 21
40.3532
  0
LINE
  8
0
 10
-8.42705
 20
40.3532
 11
-8.06213
 21
40.4469
  0
LINE
  8
0
 10
-8.06213
 20
40.4469
 11
-7.68837
 21
40.4941
  0
LINE
  8
0
 10
-7.68837
 20
40.4941
 11
-7.31161
 21
40.4941
  0
LINE
  8
0
 10
-7.31161
 20
40.4941
 11
-6.93785
 21
40.4469
  0
LINE
  8
0
 10
-6.93785
 20
40.4469
 11
-6.57294
 21
40.3532
  0
LINE
  8
0
 10
-6.57294
 20
40.3532
 11
-6.22266
 21
40.2145
  0
LINE
  8
0
 10
-6.22266
 20
40.2145
 11
-5.89252
 21
40.033
  0
LINE
  8
0
 10
-5.89252
 20
40.033
 11
-5.58772
 21
39.8115
  0
LINE
  8
0
 10
-5.58772
 20
39.8115
 11
-5.31308
 21
39.5536
  0
LINE
  8
0
 10
-5.31308
 20
39.5536
 11
-5.07294
 21
39.2634
  0
LINE
  8
0
 10
-5.07294
 20
39.2634
 11
-4.87108
 21
38.9453
  0
LINE
  8
0
 10
-4.87108
 20
38.9453
 11
-4.71066
 21
38.6044
  0
LINE
  8
0
 10
-4.71066
 20
38.6044
 11
-4.59424
 21
38.2461
  0
LINE
  8
0
 10
-4.59424
 20
38.2461
 11
-4.52365
 21
37.876
  0
LINE
  8
0
 10
-4.52365
 20
37.876
 11
-4.5
 21
37.5
  0
LINE
  8
0
 10
-4.5
 20
37.5
 11
-4.52365
 21
37.124
  0
LINE
  8
0
 10
-4.52365
 20
37.124
 11
-4.59424
 21
36.7539
  0
LINE
  8
0
 10
-4.59424
 20
36.7539
 11
-4.71066
 21
36.3956
  0
LINE
  8
0
 10
-4.71066
 20
36.3956
 11
-4.87108
 21
36.0547
  0
LINE
  8
0
 10
-4.87108
 20
36.0547
 11
-5.07294
 21
35.7366
  0
LINE
  8
0
 10
-5.07294
 20
35.7366
 11
-5.31308
 21
35.4464
  0
LINE
  8
0
 10
-5.31308
 20
35.4464
 11
-5.58772
 21
35.1885
  0
LINE
  8
0
 10
-5.58772
 20
35.1885
 11
-5.89252
 21
34.967
  0
LINE
  8
0
 10
-5.89252
 20
34.967
 11
-6.22266
 21
34.7855
  0
LINE
  8
0
 10
-6.22266
 20
34.7855
 11
-6.57294
 21
34.6468
  0
LINE
  8
0
 10
-6.57294
 20
34.6468
 11
-6.93785
 21
34.5531
  0
LINE
  8
0
 10
-6.93785
 20
34.5531
 11
-7.31161
 21
34.5059
  0
LINE
  8
0
 10
-7.31161
 20
34.5059
 11
-7.68837
 21
34.5059
  0
LINE
  8
0
 10
-22.6884
 20
34.5059
 11
-23.0621
 21
34.5531
  0
LINE
  8
0
 10
-23.0621
 20
34.5531
 11
-23.427
 21
34.6468
  0
LINE
  8
0
 10
-23.427
 20
34.6468
 11
-23.7773
 21
34.7855
  0
LINE
  8
0
 10
-23.7773
 20
34.7855
 11
-24.1075
 21
34.967
  0
LINE
  8
0
 10
-24.1075
 20
34.967
 11
-24.4123
 21
35.1885
  0
LINE
  8
0
 10
-24.4123
 20
35.1885
 11
-24.6869
 21
35.4464
  0
LINE
  8
0
 10
-24.6869
 20
35.4464
 11
-24.927
 21
35.7366
  0
LINE
  8
0
 10
-24.927
 20
35.7366
 11
-25.1289
 21
36.0547
  0
LINE
  8
0
 10
-25.1289
 20
36.0547
 11
-25.2893
 21
36.3956
  0
LINE
  8
0
 10
-25.2893
 20
36.3956
 11
-25.4057
 21
36.7539
  0
LINE
  8
0
 10
-25.4057
 20
36.7539
 11
-25.4763
 21
37.124
  0
LINE
  8
0
 10
-25.4763
 20
37.124
 11
-25.5
 21
37.5
  0
LINE
  8
0
 10
-25.5
 20
37.5
 11
-25.4763
 21
37.876
  0
LINE
  8
0
 10
-25.4763
 20
37.876
 11
-25.4057
 21
38.2461
  0
LINE
  8
0
 10
-25.4057
 20
38.2461
 11
-25.2893
 21
38.6044
  0
LINE
  8
0
 10
-25.2893
 20
38.6044
 11
-25.1289
 21
38.9453
  0
LINE
  8
0
 10
-25.1289
 20
38.9453
 11
-24.927
 21
39.2634
  0
LINE
  8
0
 10
-24.927
 20
39.2634
 11
-24.6869
 21
39.5536
  0
LINE
  8
0
 10
-24.6869
 20
39.5536
 11
-24.4123
 21
39.8115
  0
LINE
  8
0
 10
-24.4123
 20
39.8115
 11
-24.1075
 21
40.033
  0
LINE
  8
0
 10
-24.1075
 20
40.033
 11
-23.7773
 21
40.2145
  0
LINE
  8
0
 10
-23.7773
 20
40.2145
 11
-23.427
 21
40.3532
  0
LINE
  8
0
 10
-23.427
 20
40.3532
 11
-23.0621
 21
40.4469
  0
LINE
  8
0
 10
-23.0621
 20
40.4469
 11
-22.6884
 21
40.4941
  0
LINE
  8
0
 10
-22.6884
 20
40.4941
 11
-22.3116
 21
40.4941
  0
LINE
  8
0
 10
-22.3116
 20
40.4941
 11
-21.9379
 21
40.4469
  0
LINE
  8
0
 10
-21.9379
 20
40.4469
 11
-21.5729
 21
40.3532
  0
LINE
  8
0
 10
-21.5729
 20
40.3532
 11
-21.2227
 21
40.2145
  0
LINE
  8
0
 10
-21.2227
 20
40.2145
 11
-20.8925
 21
40.033
  0
LINE
  8
0
 10
-20.8925
 20
40.033
 11
-20.5877
 21
39.8115
  0
LINE
  8
0
 10
-20.5877
 20
39.8115
 11
-20.3131
 21
39.5536
  0
LINE
  8
0
 10
-20.3131
 20
39.5536
 11
-20.0729
 21
39.2634
  0
LINE
  8
0
 10
-20.0729
 20
39.2634
 11
-19.8711
 21
38.9453
  0
LINE
  8
0
 10
-19.8711
 20
38.9453
 11
-19.7107
 21
38.6044
  0
LINE
  8
0
 10
-19.7107
 20
38.6044
 11
-19.5942
 21
38.2461
  0
LINE
  8
0
 10
-19.5942
 20
38.2461
 11
-19.5237
 21
37.876
  0
LINE
  8
0
 10
-19.5237
 20
37.876
 11
-19.5
 21
37.5
  0
LINE
  8
0
 10
-19.5
 20
37.5
 11
-19.5237
 21
37.124
  0
LINE
  8
0
 10
-19.5237
 20
37.124
 11
-19.5942
 21
36.7539
  0
LINE
  8
0
 10
-19.5942
 20
36.7539
 11
-19.7107
 21
36.3956
  0
LINE
  8
0
 10
-19.7107
 20
36.3956
 11
-19.8711
 21
36.0547
  0
LINE
  8
0
 10
-19.8711
 20
36.0547
 11
-20.0729
 21
35.7366
  0
LINE
  8
0
 10
-20.0729
 20
35.7366
 11
-20.3131
 21
35.4464
  0
LINE
  8
0
 10
-20.3131
 20
35.4464
 11
-20.5877
 21
35.1885
  0
LINE
  8
0
 10
-20.5877
 20
35.1885
 11
-20.8925
 21
34.967
  0
LINE
  8
0
 10
-20.8925
 20
34.967
 11
-21.2227
 21
34.7855
  0
LINE
  8
0
 10
-21.2227
 20
34.7855
 11
-21.5729
 21
34.6468
  0
LINE
  8
0
 10
-21.5729
 20
34.6468
 11
-21.9379
 21
34.5531
  0
LINE
  8
0
 10
-21.9379
 20
34.5531
 11
-22.3116
 21
34.5059
  0
LINE
  8
0
 10
-22.3116
 20
34.5059
 11
-22.6884
 21
34.5059
  0
LINE
  8
0
 10
7.31161
 20
34.5059
 11
6.93785
 21
34.5531
  0
LINE
  8
0
 10
6.93785
 20
34.5531
 11
6.57294
 21
34.6468
  0
LINE
  8
0
 10
6.57294
 20
34.6468
 11
6.22266
 21
34.7855
  0
LINE
  8
0
 10
6.22266
 20
34.7855
 11
5.89252
 21
34.967
  0
LINE
  8
0
 10
5.89252
 20
34.967
 11
5.58772
 21
35.1885
  0
LINE
  8
0
 10
5.58772
 20
35.1885
 11
5.31308
 21
35.4464
  0
LINE
  8
0
 10
5.31308
 20
35.4464
 11
5.07294
 21
35.7366
  0
LINE
  8
0
 10
5.07294
 20
35.7366
 11
4.87108
 21
36.0547
  0
LINE
  8
0
 10
4.87108
 20
36.0547
 11
4.71066
 21
36.3956
  0
LINE
  8
0
 10
4.71066
 20
36.3956
 11
4.59424
 21
36.7539
  0
LINE
  8
0
 10
4.59424
 20
36.7539
 11
4.52365
 21
37.124
  0
LINE
  8
0
 10
4.52365
 20
37.124
 11
4.5
 21
37.5
  0
LINE
  8
0
 10
4.5
 20
37.5
 11
4.52365
 21
37.876
  0
LINE
  8
0
 10
4.52365
 20
37.876
 11
4.59424
 21
38.2461
  0
LINE
  8
0
 10
4.59424
 20
38.2461
 11
4.71066
 21
38.6044
  0
LINE
  8
0
 10
4.71066
 20
38.6044
 11
4.87108
 21
38.9453
  0
LINE
  8
0
 10
4.87108
 20
38.9453
 11
5.07294
 21
39.2634
  0
LINE
  8
0
 10
5.07294
 20
39.2634
 11
5.31308
 21
39.5536
  0
LINE
  8
0
 10
5.31308
 20
39.5536
 11
5.58772
 21
39.8115
  0
LINE
  8
0
 10
5.58772
 20
39.8115
 11
5.89252
 21
40.033
  0
LINE
  8
0
 10
5.89252
 20
40.033
 11
6.22266
 21
40.2145
  0
LINE
  8
0
 10
6.22266
 20
40.2145
 11
6.57294
 21
40.3532
  0
LINE
  8
0
 10
6.57294
 20
40.3532
 11
6.93785
 21
40.4469
  0
LINE
  8
0
 10
6.93785
 20
40.4469
 11
7.31161
 21
40.4941
  0
LINE
  8
0
 10
7.31161
 20
40.4941
 11
7.68837
 21
40.4941
  0
LINE
  8
0
 10
7.68837
 20
40.4941
 11
8.06213
 21
40.4469
  0
LINE
  8
0
 10
8.06213
 20
40.4469
 11
8.42705
 21
40.3532
  0
LINE
  8
0
 10
8.42705
 20
40.3532
 11
8.77733
 21
40.2145
  0
LINE
  8
0
 10
8.77733
 20
40.2145
 11
9.10747
 21
40.033
  0
LINE
  8
0
 10
9.10747
 20
40.033
 11
9.41226
 21
39.8115
  0
LINE
  8
0
 10
9.41226
 20
39.8115
 11
9.6869
 21
39.5536
  0
LINE
  8
0
 10
9.6869
 20
39.5536
 11
9.92705
 21
39.2634
  0
LINE
  8
0
 10
9.92705
 20
39.2634
 11
10.1289
 21
38.9453
  0
LINE
  8
0
 10
10.1289
 20
38.9453
 11
10.2893
 21
38.6044
  0
LINE
  8
0
 10
10.2893
 20
38.6044
 11
10.4057
 21
38.2461
  0
LINE
  8
0
 10
10.4057
 20
38.2461
 11
10.4763
 21
37.876
  0
LINE
  8
0
 10
10.4763
 20
37.876
 11
10.5
 21
37.5
  0
LINE
  8
0
 10
10.5
 20
37.5
 11
10.4763
 21
37.124
  0
LINE
  8
0
 10
10.4763
 20
37.124
 11
10.4057
 21
36.7539
  0
LINE
  8
0
 10
10.4057
 20
36.7539
 11
10.2893
 21
36.3956
  0
LINE
  8
0
 10
10.2893
 20
36.3956
 11
10.1289
 21
36.0547
  0
LINE
  8
0
 10
10.1289
 20
36.0547
 11
9.92705
 21
35.7366
  0
LINE
  8
0
 10
9.92705
 20
35.7366
 11
9.6869
 21
35.4464
  0
LINE
  8
0
 10
9.6869
 20
35.4464
 11
9.41226
 21
35.1885
  0
LINE
  8
0
 10
9.41226
 20
35.1885
 11
9.10747
 21
34.967
  0
LINE
  8
0
 10
9.10747
 20
34.967
 11
8.77733
 21
34.7855
  0
LINE
  8
0
 10
8.77733
 20
34.7855
 11
8.42705
 21
34.6468
  0
LINE
  8
0
 10
8.42705
 20
34.6468
 11
8.06213
 21
34.5531
  0
LINE
  8
0
 10
8.06213
 20
34.5531
 11
7.68837
 21
34.5059
  0
LINE
  8
0
 10
7.68837
 20
34.5059
 11
7.31161
 21
34.5059
  0
LINE
  8
0
 10
14.887
 20
35.7036
 11
14.6627
 21
35.7319
  0
LINE
  8
0
 10
14.6627
 20
35.7319
 11
14.4438
 21
35.7881
  0
LINE
  8
0
 10
14.4438
 20
35.7881
 11
14.2336
 21
35.8713
  0
LINE
  8
0
 10
14.2336
 20
35.8713
 11
14.0355
 21
35.9802
  0
LINE
  8
0
 10
14.0355
 20
35.9802
 11
13.8526
 21
36.1131
  0
LINE
  8
0
 10
13.8526
 20
36.1131
 11
13.6879
 21
36.2678
  0
LINE
  8
0
 10
13.6879
 20
36.2678
 11
13.5438
 21
36.442
  0
LINE
  8
0
 10
13.5438
 20
36.442
 11
13.4226
 21
36.6328
  0
LINE
  8
0
 10
13.4226
 20
36.6328
 11
13.3264
 21
36.8374
  0
LINE
  8
0
 10
13.3264
 20
36.8374
 11
13.2565
 21
37.0524
  0
LINE
  8
0
 10
13.2565
 20
37.0524
 11
13.2142
 21
37.2744
  0
LINE
  8
0
 10
13.2142
 20
37.2744
 11
13.2
 21
37.5
  0
LINE
  8
0
 10
13.2
 20
37.5
 11
13.2142
 21
37.7256
  0
LINE
  8
0
 10
13.2142
 20
37.7256
 11
13.2565
 21
37.9476
  0
LINE
  8
0
 10
13.2565
 20
37.9476
 11
13.3264
 21
38.1626
  0
LINE
  8
0
 10
13.3264
 20
38.1626
 11
13.4226
 21
38.3672
  0
LINE
  8
0
 10
13.4226
 20
38.3672
 11
13.5438
 21
38.558
  0
LINE
  8
0
 10
13.5438
 20
38.558
 11
13.6879
 21
38.7322
  0
LINE
  8
0
 10
13.6879
 20
38.7322
 11
13.8526
 21
38.8869
  0
LINE
  8
0
 10
13.8526
 20
38.8869
 11
14.0355
 21
39.0198
  0
LINE
  8
0
 10
14.0355
 20
39.0198
 11
14.2336
 21
39.1287
  0
LINE
  8
0
 10
14.2336
 20
39.1287
 11
14.4438
 21
39.2119
  0
LINE
  8
0
 10
14.4438
 20
39.2119
 11
14.6627
 21
39.2681
  0
LINE
  8
0
 10
14.6627
 20
39.2681
 11
14.887
 21
39.2964
  0
LINE
  8
0
 10
14.887
 20
39.2964
 11
15.113
 21
39.2964
  0
LINE
  8
0
 10
15.113
 20
39.2964
 11
15.3373
 21
39.2681
  0
LINE
  8
0
 10
15.3373
 20
39.2681
 11
15.5562
 21
39.2119
  0
LINE
  8
0
 10
15.5562
 20
39.2119
 11
15.7664
 21
39.1287
  0
LINE
  8
0
 10
15.7664
 20
39.1287
 11
15.9645
 21
39.0198
  0
LINE
  8
0
 10
15.9645
 20
39.0198
 11
16.1474
 21
38.8869
  0
LINE
  8
0
 10
16.1474
 20
38.8869
 11
16.3121
 21
38.7322
  0
LINE
  8
0
 10
16.3121
 20
38.7322
 11
16.4562
 21
38.558
  0
LINE
  8
0
 10
16.4562
 20
38.558
 11
16.5773
 21
38.3672
  0
LINE
  8
0
 10
16.5773
 20
38.3672
 11
16.6736
 21
38.1626
  0
LINE
  8
0
 10
16.6736
 20
38.1626
 11
16.7434
 21
37.9476
  0
LINE
  8
0
 10
16.7434
 20
37.9476
 11
16.7858
 21
37.7256
  0
LINE
  8
0
 10
16.7858
 20
37.7256
 11
16.8
 21
37.5
  0
LINE
  8
0
 10
16.8
 20
37.5
 11
16.7858
 21
37.2744
  0
LINE
  8
0
 10
16.7858
 20
37.2744
 11
16.7434
 21
37.0524
  0
LINE
  8
0
 10
16.7434
 20
37.0524
 11
16.6736
 21
36.8374
  0
LINE
  8
0
 10
16.6736
 20
36.8374
 11
16.5773
 21
36.6328
  0
LINE
  8
0
 10
16.5773
 20
36.6328
 11
16.4562
 21
36.442
  0
LINE
  8
0
 10
16.4562
 20
36.442
 11
16.3121
 21
36.2678
  0
LINE
  8
0
 10
16.3121
 20
36.2678
 11
16.1474
 21
36.1131
  0
LINE
  8
0
 10
16.1474
 20
36.1131
 11
15.9645
 21
35.9802
  0
LINE
  8
0
 10
15.9645
 20
35.9802
 11
15.7664
 21
35.8713
  0
LINE
  8
0
 10
15.7664
 20
35.8713
 11
15.5562
 21
35.7881
  0
LINE
  8
0
 10
15.5562
 20
35.7881
 11
15.3373
 21
35.7319
  0
LINE
  8
0
 10
15.3373
 20
35.7319
 11
15.113
 21
35.7036
  0
LINE
  8
0
 10
15.113
 20
35.7036
 11
14.887
 21
35.7036
  0
LINE
  8
0
 10
-0.113022
 20
35.7036
 11
-0.33728
 21
35.7319
  0
LINE
  8
0
 10
-0.33728
 20
35.7319
 11
-0.556229
 21
35.7881
  0
LINE
  8
0
 10
-0.556229
 20
35.7881
 11
-0.766388
 21
35.8713
  0
LINE
  8
0
 10
-0.766388
 20
35.8713
 11
-0.964478
 21
35.9802
  0
LINE
  8
0
 10
-0.964478
 20
35.9802
 11
-1.14735
 21
36.1131
  0
LINE
  8
0
 10
-1.14735
 20
36.1131
 11
-1.31213
 21
36.2678
  0
LINE
  8
0
 10
-1.31213
 20
36.2678
 11
-1.45622
 21
36.442
  0
LINE
  8
0
 10
-1.45622
 20
36.442
 11
-1.57735
 21
36.6328
  0
LINE
  8
0
 10
-1.57735
 20
36.6328
 11
-1.67358
 21
36.8374
  0
LINE
  8
0
 10
-1.67358
 20
36.8374
 11
-1.74344
 21
37.0524
  0
LINE
  8
0
 10
-1.74344
 20
37.0524
 11
-1.7858
 21
37.2744
  0
LINE
  8
0
 10
-1.7858
 20
37.2744
 11
-1.79999
 21
37.5
  0
LINE
  8
0
 10
-1.79999
 20
37.5
 11
-1.7858
 21
37.7256
  0
LINE
  8
0
 10
-1.7858
 20
37.7256
 11
-1.74344
 21
37.9476
  0
LINE
  8
0
 10
-1.74344
 20
37.9476
 11
-1.67358
 21
38.1626
  0
LINE
  8
0
 10
-1.67358
 20
38.1626
 11
-1.57735
 21
38.3672
  0
LINE
  8
0
 10
-1.57735
 20
38.3672
 11
-1.45622
 21
38.558
  0
LINE
  8
0
 10
-1.45622
 20
38.558
 11
-1.31213
 21
38.7322
  0
LINE
  8
0
 10
-1.31213
 20
38.7322
 11
-1.14735
 21
38.8869
  0
LINE
  8
0
 10
-1.14735
 20
38.8869
 11
-0.964478
 21
39.0198
  0
LINE
  8
0
 10
-0.964478
 20
39.0198
 11
-0.766388
 21
39.1287
  0
LINE
  8
0
 10
-0.766388
 20
39.1287
 11
-0.556229
 21
39.2119
  0
LINE
  8
0
 10
-0.556229
 20
39.2119
 11
-0.33728
 21
39.2681
  0
LINE
  8
0
 10
-0.33728
 20
39.2681
 11
-0.113022
 21
39.2964
  0
LINE
  8
0
 10
-0.113022
 20
39.2964
 11
0.113022
 21
39.2964
  0
LINE
  8
0
 10
0.113022
 20
39.2964
 11
0.33728
 21
39.2681
  0
LINE
  8
0
 10
0.33728
 20
39.2681
 11
0.556229
 21
39.2119
  0
LINE
  8
0
 10
0.556229
 20
39.2119
 11
0.766388
 21
39.1287
  0
LINE
  8
0
 10
0.766388
 20
39.1287
 11
0.964478
 21
39.0198
  0
LINE
  8
0
 10
0.964478
 20
39.0198
 11
1.14735
 21
38.8869
  0
LINE
  8
0
 10
1.14735
 20
38.8869
 11
1.31213
 21
38.7322
  0
LINE
  8
0
 10
1.31213
 20
38.7322
 11
1.45622
 21
38.558
  0
LINE
  8
0
 10
1.45622
 20
38.558
 11
1.57735
 21
38.3672
  0
LINE
  8
0
 10
1.57735
 20
38.3672
 11
1.67358
 21
38.1626
  0
LINE
  8
0
 10
1.67358
 20
38.1626
 11
1.74344
 21
37.9476
  0
LINE
  8
0
 10
1.74344
 20
37.9476
 11
1.7858
 21
37.7256
  0
LINE
  8
0
 10
1.7858
 20
37.7256
 11
1.79999
 21
37.5
  0
LINE
  8
0
 10
1.79999
 20
37.5
 11
1.7858
 21
37.2744
  0
LINE
  8
0
 10
1.7858
 20
37.2744
 11
1.74344
 21
37.0524
  0
LINE
  8
0
 10
1.74344
 20
37.0524
 11
1.67358
 21
36.8374
  0
LINE
  8
0
 10
1.67358
 20
36.8374
 11
1.57735
 21
36.6328
  0
LINE
  8
0
 10
1.57735
 20
36.6328
 11
1.45622
 21
36.442
  0
LINE
  8
0
 10
1.45622
 20
36.442
 11
1.31213
 21
36.2678
  0
LINE
  8
0
 10
1.31213
 20
36.2678
 11
1.14735
 21
36.1131
  0
LINE
  8
0
 10
1.14735
 20
36.1131
 11
0.964478
 21
35.9802
  0
LINE
  8
0
 10
0.964478
 20
35.9802
 11
0.766388
 21
35.8713
  0
LINE
  8
0
 10
0.766388
 20
35.8713
 11
0.556229
 21
35.7881
  0
LINE
  8
0
 10
0.556229
 20
35.7881
 11
0.33728
 21
35.7319
  0
LINE
  8
0
 10
0.33728
 20
35.7319
 11
0.113022
 21
35.7036
  0
LINE
  8
0
 10
0.113022
 20
35.7036
 11
-0.113022
 21
35.7036
  0
LINE
  8
0
 10
-15.0942
 20
36.003
 11
-15.2811
 21
36.0266
  0
LINE
  8
0
 10
-15.2811
 20
36.0266
 11
-15.4635
 21
36.0734
  0
LINE
  8
0
 10
-15.4635
 20
36.0734
 11
-15.6387
 21
36.1428
  0
LINE
  8
0
 10
-15.6387
 20
36.1428
 11
-15.8037
 21
36.2335
  0
LINE
  8
0
 10
-15.8037
 20
36.2335
 11
-15.9561
 21
36.3442
  0
LINE
  8
0
 10
-15.9561
 20
36.3442
 11
-16.0934
 21
36.4732
  0
LINE
  8
0
 10
-16.0934
 20
36.4732
 11
-16.2135
 21
36.6183
  0
LINE
  8
0
 10
-16.2135
 20
36.6183
 11
-16.3145
 21
36.7774
  0
LINE
  8
0
 10
-16.3145
 20
36.7774
 11
-16.3947
 21
36.9478
  0
LINE
  8
0
 10
-16.3947
 20
36.9478
 11
-16.4529
 21
37.127
  0
LINE
  8
0
 10
-16.4529
 20
37.127
 11
-16.4882
 21
37.312
  0
LINE
  8
0
 10
-16.4882
 20
37.312
 11
-16.5
 21
37.5
  0
LINE
  8
0
 10
-16.5
 20
37.5
 11
-16.4882
 21
37.688
  0
LINE
  8
0
 10
-16.4882
 20
37.688
 11
-16.4529
 21
37.873
  0
LINE
  8
0
 10
-16.4529
 20
37.873
 11
-16.3947
 21
38.0522
  0
LINE
  8
0
 10
-16.3947
 20
38.0522
 11
-16.3145
 21
38.2226
  0
LINE
  8
0
 10
-16.3145
 20
38.2226
 11
-16.2135
 21
38.3817
  0
LINE
  8
0
 10
-16.2135
 20
38.3817
 11
-16.0934
 21
38.5268
  0
LINE
  8
0
 10
-16.0934
 20
38.5268
 11
-15.9561
 21
38.6558
  0
LINE
  8
0
 10
-15.9561
 20
38.6558
 11
-15.8037
 21
38.7665
  0
LINE
  8
0
 10
-15.8037
 20
38.7665
 11
-15.6387
 21
38.8572
  0
LINE
  8
0
 10
-15.6387
 20
38.8572
 11
-15.4635
 21
38.9266
  0
LINE
  8
0
 10
-15.4635
 20
38.9266
 11
-15.2811
 21
38.9734
  0
LINE
  8
0
 10
-15.2811
 20
38.9734
 11
-15.0942
 21
38.997
  0
LINE
  8
0
 10
-15.0942
 20
38.997
 11
-14.9058
 21
38.997
  0
LINE
  8
0
 10
-14.9058
 20
38.997
 11
-14.7189
 21
38.9734
  0
LINE
  8
0
 10
-14.7189
 20
38.9734
 11
-14.5365
 21
38.9266
  0
LINE
  8
0
 10
-14.5365
 20
38.9266
 11
-14.3613
 21
38.8572
  0
LINE
  8
0
 10
-14.3613
 20
38.8572
 11
-14.1963
 21
38.7665
  0
LINE
  8
0
 10
-14.1963
 20
38.7665
 11
-14.0439
 21
38.6558
  0
LINE
  8
0
 10
-14.0439
 20
38.6558
 11
-13.9065
 21
38.5268
  0
LINE
  8
0
 10
-13.9065
 20
38.5268
 11
-13.7865
 21
38.3817
  0
LINE
  8
0
 10
-13.7865
 20
38.3817
 11
-13.6855
 21
38.2226
  0
LINE
  8
0
 10
-13.6855
 20
38.2226
 11
-13.6053
 21
38.0522
  0
LINE
  8
0
 10
-13.6053
 20
38.0522
 11
-13.5471
 21
37.873
  0
LINE
  8
0
 10
-13.5471
 20
37.873
 11
-13.5118
 21
37.688
  0
LINE
  8
0
 10
-13.5118
 20
37.688
 11
-13.5
 21
37.5
  0
LINE
  8
0
 10
-13.5
 20
37.5
 11
-13.5118
 21
37.312
  0
LINE
  8
0
 10
-13.5118
 20
37.312
 11
-13.5471
 21
37.127
  0
LINE
  8
0
 10
-13.5471
 20
37.127
 11
-13.6053
 21
36.9478
  0
LINE
  8
0
 10
-13.6053
 20
36.9478
 11
-13.6855
 21
36.7774
  0
LINE
  8
0
 10
-13.6855
 20
36.7774
 11
-13.7865
 21
36.6183
  0
LINE
  8
0
 10
-13.7865
 20
36.6183
 11
-13.9065
 21
36.4732
  0
LINE
  8
0
 10
-13.9065
 20
36.4732
 11
-14.0439
 21
36.3442
  0
LINE
  8
0
 10
-14.0439
 20
36.3442
 11
-14.1963
 21
36.2335
  0
LINE
  8
0
 10
-14.1963
 20
36.2335
 11
-14.3613
 21
36.1428
  0
LINE
  8
0
 10
-14.3613
 20
36.1428
 11
-14.5365
 21
36.0734
  0
LINE
  8
0
 10
-14.5365
 20
36.0734
 11
-14.7189
 21
36.0266
  0
LINE
  8
0
 10
-14.7189
 20
36.0266
 11
-14.9058
 21
36.003
  0
LINE
  8
0
 10
-14.9058
 20
36.003
 11
-15.0942
 21
36.003
  0
LINE
  8
0
 10
-24.073
 20
24.6635
 11
-24.2973
 21
24.6919
  0
LINE
  8
0
 10
-24.2973
 20
24.6919
 11
-24.5162
 21
24.7481
  0
LINE
  8
0
 10
-24.5162
 20
24.7481
 11
-24.7264
 21
24.8313
  0
LINE
  8
0
 10
-24.7264
 20
24.8313
 11
-24.9245
 21
24.9402
  0
LINE
  8
0
 10
-24.9245
 20
24.9402
 11
-25.1074
 21
25.0731
  0
LINE
  8
0
 10
-25.1074
 20
25.0731
 11
-25.2721
 21
25.2278
  0
LINE
  8
0
 10
-25.2721
 20
25.2278
 11
-25.4162
 21
25.402
  0
LINE
  8
0
 10
-25.4162
 20
25.402
 11
-25.5373
 21
25.5928
  0
LINE
  8
0
 10
-25.5373
 20
25.5928
 11
-25.6336
 21
25.7974
  0
LINE
  8
0
 10
-25.6336
 20
25.7974
 11
-25.7034
 21
26.0123
  0
LINE
  8
0
 10
-25.7034
 20
26.0123
 11
-25.7458
 21
26.2344
  0
LINE
  8
0
 10
-25.7458
 20
26.2344
 11
-25.76
 21
26.46
  0
LINE
  8
0
 10
-25.76
 20
26.46
 11
-25.7458
 21
26.6856
  0
LINE
  8
0
 10
-25.7458
 20
26.6856
 11
-25.7034
 21
26.9076
  0
LINE
  8
0
 10
-25.7034
 20
26.9076
 11
-25.6336
 21
27.1226
  0
LINE
  8
0
 10
-25.6336
 20
27.1226
 11
-25.5373
 21
27.3271
  0
LINE
  8
0
 10
-25.5373
 20
27.3271
 11
-25.4162
 21
27.518
  0
LINE
  8
0
 10
-25.4162
 20
27.518
 11
-25.2721
 21
27.6922
  0
LINE
  8
0
 10
-25.2721
 20
27.6922
 11
-25.1074
 21
27.8469
  0
LINE
  8
0
 10
-25.1074
 20
27.8469
 11
-24.9245
 21
27.9798
  0
LINE
  8
0
 10
-24.9245
 20
27.9798
 11
-24.7264
 21
28.0887
  0
LINE
  8
0
 10
-24.7264
 20
28.0887
 11
-24.5162
 21
28.1719
  0
LINE
  8
0
 10
-24.5162
 20
28.1719
 11
-24.2973
 21
28.2281
  0
LINE
  8
0
 10
-24.2973
 20
28.2281
 11
-24.073
 21
28.2564
  0
LINE
  8
0
 10
-24.073
 20
28.2564
 11
-23.847
 21
28.2564
  0
LINE
  8
0
 10
-23.847
 20
28.2564
 11
-23.6227
 21
28.2281
  0
LINE
  8
0
 10
-23.6227
 20
28.2281
 11
-23.4038
 21
28.1719
  0
LINE
  8
0
 10
-23.4038
 20
28.1719
 11
-23.1936
 21
28.0887
  0
LINE
  8
0
 10
-23.1936
 20
28.0887
 11
-22.9955
 21
27.9798
  0
LINE
  8
0
 10
-22.9955
 20
27.9798
 11
-22.8126
 21
27.8469
  0
LINE
  8
0
 10
-22.8126
 20
27.8469
 11
-22.6478
 21
27.6922
  0
LINE
  8
0
 10
-22.6478
 20
27.6922
 11
-22.5038
 21
27.518
  0
LINE
  8
0
 10
-22.5038
 20
27.518
 11
-22.3826
 21
27.3271
  0
LINE
  8
0
 10
-22.3826
 20
27.3271
 11
-22.2864
 21
27.1226
  0
LINE
  8
0
 10
-22.2864
 20
27.1226
 11
-22.2165
 21
26.9076
  0
LINE
  8
0
 10
-22.2165
 20
26.9076
 11
-22.1742
 21
26.6856
  0
LINE
  8
0
 10
-22.1742
 20
26.6856
 11
-22.16
 21
26.46
  0
LINE
  8
0
 10
-22.16
 20
26.46
 11
-22.1742
 21
26.2344
  0
LINE
  8
0
 10
-22.1742
 20
26.2344
 11
-22.2165
 21
26.0123
  0
LINE
  8
0
 10
-22.2165
 20
26.0123
 11
-22.2864
 21
25.7974
  0
LINE
  8
0
 10
-22.2864
 20
25.7974
 11
-22.3826
 21
25.5928
  0
LINE
  8
0
 10
-22.3826
 20
25.5928
 11
-22.5038
 21
25.402
  0
LINE
  8
0
 10
-22.5038
 20
25.402
 11
-22.6478
 21
25.2278
  0
LINE
  8
0
 10
-22.6478
 20
25.2278
 11
-22.8126
 21
25.0731
  0
LINE
  8
0
 10
-22.8126
 20
25.0731
 11
-22.9955
 21
24.9402
  0
LINE
  8
0
 10
-22.9955
 20
24.9402
 11
-23.1936
 21
24.8313
  0
LINE
  8
0
 10
-23.1936
 20
24.8313
 11
-23.4038
 21
24.7481
  0
LINE
  8
0
 10
-23.4038
 20
24.7481
 11
-23.6227
 21
24.6919
  0
LINE
  8
0
 10
-23.6227
 20
24.6919
 11
-23.847
 21
24.6635
  0
LINE
  8
0
 10
-23.847
 20
24.6635
 11
-24.073
 21
24.6635
  0
LINE
  8
0
 10
23.887
 20
22.2036
 11
23.6627
 21
22.2319
  0
LINE
  8
0
 10
23.6627
 20
22.2319
 11
23.4438
 21
22.2881
  0
LINE
  8
0
 10
23.4438
 20
22.2881
 11
23.2336
 21
22.3713
  0
LINE
  8
0
 10
23.2336
 20
22.3713
 11
23.0355
 21
22.4802
  0
LINE
  8
0
 10
23.0355
 20
22.4802
 11
22.8526
 21
22.6131
  0
LINE
  8
0
 10
22.8526
 20
22.6131
 11
22.6879
 21
22.7678
  0
LINE
  8
0
 10
22.6879
 20
22.7678
 11
22.5438
 21
22.942
  0
LINE
  8
0
 10
22.5438
 20
22.942
 11
22.4226
 21
23.1328
  0
LINE
  8
0
 10
22.4226
 20
23.1328
 11
22.3264
 21
23.3374
  0
LINE
  8
0
 10
22.3264
 20
23.3374
 11
22.2565
 21
23.5524
  0
LINE
  8
0
 10
22.2565
 20
23.5524
 11
22.2142
 21
23.7744
  0
LINE
  8
0
 10
22.2142
 20
23.7744
 11
22.2
 21
24
  0
LINE
  8
0
 10
22.2
 20
24
 11
22.2142
 21
24.2256
  0
LINE
  8
0
 10
22.2142
 20
24.2256
 11
22.2565
 21
24.4476
  0
LINE
  8
0
 10
22.2565
 20
24.4476
 11
22.3264
 21
24.6626
  0
LINE
  8
0
 10
22.3264
 20
24.6626
 11
22.4226
 21
24.8672
  0
LINE
  8
0
 10
22.4226
 20
24.8672
 11
22.5438
 21
25.058
  0
LINE
  8
0
 10
22.5438
 20
25.058
 11
22.6879
 21
25.2322
  0
LINE
  8
0
 10
22.6879
 20
25.2322
 11
22.8526
 21
25.3869
  0
LINE
  8
0
 10
22.8526
 20
25.3869
 11
23.0355
 21
25.5198
  0
LINE
  8
0
 10
23.0355
 20
25.5198
 11
23.2336
 21
25.6287
  0
LINE
  8
0
 10
23.2336
 20
25.6287
 11
23.4438
 21
25.7119
  0
LINE
  8
0
 10
23.4438
 20
25.7119
 11
23.6627
 21
25.7681
  0
LINE
  8
0
 10
23.6627
 20
25.7681
 11
23.887
 21
25.7964
  0
LINE
  8
0
 10
23.887
 20
25.7964
 11
24.113
 21
25.7964
  0
LINE
  8
0
 10
24.113
 20
25.7964
 11
24.3373
 21
25.7681
  0
LINE
  8
0
 10
24.3373
 20
25.7681
 11
24.5562
 21
25.7119
  0
LINE
  8
0
 10
24.5562
 20
25.7119
 11
24.7664
 21
25.6287
  0
LINE
  8
0
 10
24.7664
 20
25.6287
 11
24.9645
 21
25.5198
  0
LINE
  8
0
 10
24.9645
 20
25.5198
 11
25.1474
 21
25.3869
  0
LINE
  8
0
 10
25.1474
 20
25.3869
 11
25.3121
 21
25.2322
  0
LINE
  8
0
 10
25.3121
 20
25.2322
 11
25.4562
 21
25.058
  0
LINE
  8
0
 10
25.4562
 20
25.058
 11
25.5773
 21
24.8672
  0
LINE
  8
0
 10
25.5773
 20
24.8672
 11
25.6736
 21
24.6626
  0
LINE
  8
0
 10
25.6736
 20
24.6626
 11
25.7434
 21
24.4476
  0
LINE
  8
0
 10
25.7434
 20
24.4476
 11
25.7858
 21
24.2256
  0
LINE
  8
0
 10
25.7858
 20
24.2256
 11
25.8
 21
24
  0
LINE
  8
0
 10
25.8
 20
24
 11
25.7858
 21
23.7744
  0
LINE
  8
0
 10
25.7858
 20
23.7744
 11
25.7434
 21
23.5524
  0
LINE
  8
0
 10
25.7434
 20
23.5524
 11
25.6736
 21
23.3374
  0
LINE
  8
0
 10
25.6736
 20
23.3374
 11
25.5773
 21
23.1328
  0
LINE
  8
0
 10
25.5773
 20
23.1328
 11
25.4562
 21
22.942
  0
LINE
  8
0
 10
25.4562
 20
22.942
 11
25.3121
 21
22.7678
  0
LINE
  8
0
 10
25.3121
 20
22.7678
 11
25.1474
 21
22.6131
  0
LINE
  8
0
 10
25.1474
 20
22.6131
 11
24.9645
 21
22.4802
  0
LINE
  8
0
 10
24.9645
 20
22.4802
 11
24.7664
 21
22.3713
  0
LINE
  8
0
 10
24.7664
 20
22.3713
 11
24.5562
 21
22.2881
  0
LINE
  8
0
 10
24.5562
 20
22.2881
 11
24.3373
 21
22.2319
  0
LINE
  8
0
 10
24.3373
 20
22.2319
 11
24.113
 21
22.2036
  0
LINE
  8
0
 10
24.113
 20
22.2036
 11
23.887
 21
22.2036
  0
LINE
  8
0
 10
-19.613
 20
-28.2964
 11
-19.8373
 21
-28.2681
  0
LINE
  8
0
 10
-19.8373
 20
-28.2681
 11
-20.0562
 21
-28.2119
  0
LINE
  8
0
 10
-20.0562
 20
-28.2119
 11
-20.2664
 21
-28.1287
  0
LINE
  8
0
 10
-20.2664
 20
-28.1287
 11
-20.4645
 21
-28.0198
  0
LINE
  8
0
 10
-20.4645
 20
-28.0198
 11
-20.6474
 21
-27.8869
  0
LINE
  8
0
 10
-20.6474
 20
-27.8869
 11
-20.8121
 21
-27.7322
  0
LINE
  8
0
 10
-20.8121
 20
-27.7322
 11
-20.9562
 21
-27.558
  0
LINE
  8
0
 10
-20.9562
 20
-27.558
 11
-21.0773
 21
-27.3672
  0
LINE
  8
0
 10
-21.0773
 20
-27.3672
 11
-21.1736
 21
-27.1626
  0
LINE
  8
0
 10
-21.1736
 20
-27.1626
 11
-21.2434
 21
-26.9476
  0
LINE
  8
0
 10
-21.2434
 20
-26.9476
 11
-21.2858
 21
-26.7256
  0
LINE
  8
0
 10
-21.2858
 20
-26.7256
 11
-21.3
 21
-26.5
  0
LINE
  8
0
 10
-21.3
 20
-26.5
 11
-21.2858
 21
-26.2744
  0
LINE
  8
0
 10
-21.2858
 20
-26.2744
 11
-21.2434
 21
-26.0524
  0
LINE
  8
0
 10
-21.2434
 20
-26.0524
 11
-21.1736
 21
-25.8374
  0
LINE
  8
0
 10
-21.1736
 20
-25.8374
 11
-21.0773
 21
-25.6328
  0
LINE
  8
0
 10
-21.0773
 20
-25.6328
 11
-20.9562
 21
-25.442
  0
LINE
  8
0
 10
-20.9562
 20
-25.442
 11
-20.8121
 21
-25.2678
  0
LINE
  8
0
 10
-20.8121
 20
-25.2678
 11
-20.6474
 21
-25.1131
  0
LINE
  8
0
 10
-20.6474
 20
-25.1131
 11
-20.4645
 21
-24.9802
  0
LINE
  8
0
 10
-20.4645
 20
-24.9802
 11
-20.2664
 21
-24.8713
  0
LINE
  8
0
 10
-20.2664
 20
-24.8713
 11
-20.0562
 21
-24.7881
  0
LINE
  8
0
 10
-20.0562
 20
-24.7881
 11
-19.8373
 21
-24.7319
  0
LINE
  8
0
 10
-19.8373
 20
-24.7319
 11
-19.613
 21
-24.7036
  0
LINE
  8
0
 10
-19.613
 20
-24.7036
 11
-19.387
 21
-24.7036
  0
LINE
  8
0
 10
-19.387
 20
-24.7036
 11
-19.1627
 21
-24.7319
  0
LINE
  8
0
 10
-19.1627
 20
-24.7319
 11
-18.9438
 21
-24.7881
  0
LINE
  8
0
 10
-18.9438
 20
-24.7881
 11
-18.7336
 21
-24.8713
  0
LINE
  8
0
 10
-18.7336
 20
-24.8713
 11
-18.5355
 21
-24.9802
  0
LINE
  8
0
 10
-18.5355
 20
-24.9802
 11
-18.3526
 21
-25.1131
  0
LINE
  8
0
 10
-18.3526
 20
-25.1131
 11
-18.1879
 21
-25.2678
  0
LINE
  8
0
 10
-18.1879
 20
-25.2678
 11
-18.0438
 21
-25.442
  0
LINE
  8
0
 10
-18.0438
 20
-25.442
 11
-17.9226
 21
-25.6328
  0
LINE
  8
0
 10
-17.9226
 20
-25.6328
 11
-17.8264
 21
-25.8374
  0
LINE
  8
0
 10
-17.8264
 20
-25.8374
 11
-17.7565
 21
-26.0524
  0
LINE
  8
0
 10
-17.7565
 20
-26.0524
 11
-17.7142
 21
-26.2744
  0
LINE
  8
0
 10
-17.7142
 20
-26.2744
 11
-17.7
 21
-26.5
  0
LINE
  8
0
 10
-17.7
 20
-26.5
 11
-17.7142
 21
-26.7256
  0
LINE
  8
0
 10
-17.7142
 20
-26.7256
 11
-17.7565
 21
-26.9476
  0
LINE
  8
0
 10
-17.7565
 20
-26.9476
 11
-17.8264
 21
-27.1626
  0
LINE
  8
0
 10
-17.8264
 20
-27.1626
 11
-17.9226
 21
-27.3672
  0
LINE
  8
0
 10
-17.9226
 20
-27.3672
 11
-18.0438
 21
-27.558
  0
LINE
  8
0
 10
-18.0438
 20
-27.558
 11
-18.1879
 21
-27.7322
  0
LINE
  8
0
 10
-18.1879
 20
-27.7322
 11
-18.3526
 21
-27.8869
  0
LINE
  8
0
 10
-18.3526
 20
-27.8869
 11
-18.5355
 21
-28.0198
  0
LINE
  8
0
 10
-18.5355
 20
-28.0198
 11
-18.7336
 21
-28.1287
  0
LINE
  8
0
 10
-18.7336
 20
-28.1287
 11
-18.9438
 21
-28.2119
  0
LINE
  8
0
 10
-18.9438
 20
-28.2119
 11
-19.1627
 21
-28.2681
  0
LINE
  8
0
 10
-19.1627
 20
-28.2681
 11
-19.387
 21
-28.2964
  0
LINE
  8
0
 10
-19.387
 20
-28.2964
 11
-19.613
 21
-28.2964
  0
LINE
  8
0
 10
8.38696
 20
-28.2964
 11
8.1627
 21
-28.2681
  0
LINE
  8
0
 10
8.1627
 20
-28.2681
 11
7.94376
 21
-28.2119
  0
LINE
  8
0
 10
7.94376
 20
-28.2119
 11
7.7336
 21
-28.1287
  0
LINE
  8
0
 10
7.7336
 20
-28.1287
 11
7.53551
 21
-28.0198
  0
LINE
  8
0
 10
7.53551
 20
-28.0198
 11
7.35263
 21
-27.8869
  0
LINE
  8
0
 10
7.35263
 20
-27.8869
 11
7.18785
 21
-27.7322
  0
LINE
  8
0
 10
7.18785
 20
-27.7322
 11
7.04376
 21
-27.558
  0
LINE
  8
0
 10
7.04376
 20
-27.558
 11
6.92264
 21
-27.3672
  0
LINE
  8
0
 10
6.92264
 20
-27.3672
 11
6.8264
 21
-27.1626
  0
LINE
  8
0
 10
6.8264
 20
-27.1626
 11
6.75655
 21
-26.9476
  0
LINE
  8
0
 10
6.75655
 20
-26.9476
 11
6.71419
 21
-26.7256
  0
LINE
  8
0
 10
6.71419
 20
-26.7256
 11
6.7
 21
-26.5
  0
LINE
  8
0
 10
6.7
 20
-26.5
 11
6.71419
 21
-26.2744
  0
LINE
  8
0
 10
6.71419
 20
-26.2744
 11
6.75655
 21
-26.0524
  0
LINE
  8
0
 10
6.75655
 20
-26.0524
 11
6.8264
 21
-25.8374
  0
LINE
  8
0
 10
6.8264
 20
-25.8374
 11
6.92264
 21
-25.6328
  0
LINE
  8
0
 10
6.92264
 20
-25.6328
 11
7.04376
 21
-25.442
  0
LINE
  8
0
 10
7.04376
 20
-25.442
 11
7.18785
 21
-25.2678
  0
LINE
  8
0
 10
7.18785
 20
-25.2678
 11
7.35263
 21
-25.1131
  0
LINE
  8
0
 10
7.35263
 20
-25.1131
 11
7.53551
 21
-24.9802
  0
LINE
  8
0
 10
7.53551
 20
-24.9802
 11
7.7336
 21
-24.8713
  0
LINE
  8
0
 10
7.7336
 20
-24.8713
 11
7.94376
 21
-24.7881
  0
LINE
  8
0
 10
7.94376
 20
-24.7881
 11
8.1627
 21
-24.7319
  0
LINE
  8
0
 10
8.1627
 20
-24.7319
 11
8.38696
 21
-24.7036
  0
LINE
  8
0
 10
8.38696
 20
-24.7036
 11
8.61302
 21
-24.7036
  0
LINE
  8
0
 10
8.61302
 20
-24.7036
 11
8.83728
 21
-24.7319
  0
LINE
  8
0
 10
8.83728
 20
-24.7319
 11
9.05623
 21
-24.7881
  0
LINE
  8
0
 10
9.05623
 20
-24.7881
 11
9.26639
 21
-24.8713
  0
LINE
  8
0
 10
9.26639
 20
-24.8713
 11
9.46448
 21
-24.9802
  0
LINE
  8
0
 10
9.46448
 20
-24.9802
 11
9.64735
 21
-25.1131
  0
LINE
  8
0
 10
9.64735
 20
-25.1131
 11
9.81213
 21
-25.2678
  0
LINE
  8
0
 10
9.81213
 20
-25.2678
 11
9.95622
 21
-25.442
  0
LINE
  8
0
 10
9.95622
 20
-25.442
 11
10.0773
 21
-25.6328
  0
LINE
  8
0
 10
10.0773
 20
-25.6328
 11
10.1736
 21
-25.8374
  0
LINE
  8
0
 10
10.1736
 20
-25.8374
 11
10.2434
 21
-26.0524
  0
LINE
  8
0
 10
10.2434
 20
-26.0524
 11
10.2858
 21
-26.2744
  0
LINE
  8
0
 10
10.2858
 20
-26.2744
 11
10.3
 21
-26.5
  0
LINE
  8
0
 10
10.3
 20
-26.5
 11
10.2858
 21
-26.7256
  0
LINE
  8
0
 10
10.2858
 20
-26.7256
 11
10.2434
 21
-26.9476
  0
LINE
  8
0
 10
10.2434
 20
-26.9476
 11
10.1736
 21
-27.1626
  0
LINE
  8
0
 10
10.1736
 20
-27.1626
 11
10.0773
 21
-27.3672
  0
LINE
  8
0
 10
10.0773
 20
-27.3672
 11
9.95622
 21
-27.558
  0
LINE
  8
0
 10
9.95622
 20
-27.558
 11
9.81213
 21
-27.7322
  0
LINE
  8
0
 10
9.81213
 20
-27.7322
 11
9.64735
 21
-27.8869
  0
LINE
  8
0
 10
9.64735
 20
-27.8869
 11
9.46448
 21
-28.0198
  0
LINE
  8
0
 10
9.46448
 20
-28.0198
 11
9.26639
 21
-28.1287
  0
LINE
  8
0
 10
9.26639
 20
-28.1287
 11
9.05623
 21
-28.2119
  0
LINE
  8
0
 10
9.05623
 20
-28.2119
 11
8.83728
 21
-28.2681
  0
LINE
  8
0
 10
8.83728
 20
-28.2681
 11
8.61302
 21
-28.2964
  0
LINE
  8
0
 10
8.61302
 20
-28.2964
 11
8.38696
 21
-28.2964
  0
LINE
  8
0
 10
22.3116
 20
-40.4941
 11
21.9379
 21
-40.4469
  0
LINE
  8
0
 10
21.9379
 20
-40.4469
 11
21.5729
 21
-40.3532
  0
LINE
  8
0
 10
21.5729
 20
-40.3532
 11
21.2227
 21
-40.2145
  0
LINE
  8
0
 10
21.2227
 20
-40.2145
 11
20.8925
 21
-40.033
  0
LINE
  8
0
 10
20.8925
 20
-40.033
 11
20.5877
 21
-39.8115
  0
LINE
  8
0
 10
20.5877
 20
-39.8115
 11
20.3131
 21
-39.5536
  0
LINE
  8
0
 10
20.3131
 20
-39.5536
 11
20.0729
 21
-39.2634
  0
LINE
  8
0
 10
20.0729
 20
-39.2634
 11
19.8711
 21
-38.9453
  0
LINE
  8
0
 10
19.8711
 20
-38.9453
 11
19.7107
 21
-38.6044
  0
LINE
  8
0
 10
19.7107
 20
-38.6044
 11
19.5942
 21
-38.2461
  0
LINE
  8
0
 10
19.5942
 20
-38.2461
 11
19.5237
 21
-37.876
  0
LINE
  8
0
 10
19.5237
 20
-37.876
 11
19.5
 21
-37.5
  0
LINE
  8
0
 10
19.5
 20
-37.5
 11
19.5237
 21
-37.124
  0
LINE
  8
0
 10
19.5237
 20
-37.124
 11
19.5942
 21
-36.7539
  0
LINE
  8
0
 10
19.5942
 20
-36.7539
 11
19.7107
 21
-36.3956
  0
LINE
  8
0
 10
19.7107
 20
-36.3956
 11
19.8711
 21
-36.0547
  0
LINE
  8
0
 10
19.8711
 20
-36.0547
 11
20.0729
 21
-35.7366
  0
LINE
  8
0
 10
20.0729
 20
-35.7366
 11
20.3131
 21
-35.4464
  0
LINE
  8
0
 10
20.3131
 20
-35.4464
 11
20.5877
 21
-35.1885
  0
LINE
  8
0
 10
20.5877
 20
-35.1885
 11
20.8925
 21
-34.967
  0
LINE
  8
0
 10
20.8925
 20
-34.967
 11
21.2227
 21
-34.7855
  0
LINE
  8
0
 10
21.2227
 20
-34.7855
 11
21.5729
 21
-34.6468
  0
LINE
  8
0
 10
21.5729
 20
-34.6468
 11
21.9379
 21
-34.5531
  0
LINE
  8
0
 10
21.9379
 20
-34.5531
 11
22.3116
 21
-34.5059
  0
LINE
  8
0
 10
22.3116
 20
-34.5059
 11
22.6884
 21
-34.5059
  0
LINE
  8
0
 10
22.6884
 20
-34.5059
 11
23.0621
 21
-34.5531
  0
LINE
  8
0
 10
23.0621
 20
-34.5531
 11
23.427
 21
-34.6468
  0
LINE
  8
0
 10
23.427
 20
-34.6468
 11
23.7773
 21
-34.7855
  0
LINE
  8
0
 10
23.7773
 20
-34.7855
 11
24.1075
 21
-34.967
  0
LINE
  8
0
 10
24.1075
 20
-34.967
 11
24.4123
 21
-35.1885
  0
LINE
  8
0
 10
24.4123
 20
-35.1885
 11
24.6869
 21
-35.4464
  0
LINE
  8
0
 10
24.6869
 20
-35.4464
 11
24.927
 21
-35.7366
  0
LINE
  8
0
 10
24.927
 20
-35.7366
 11
25.1289
 21
-36.0547
  0
LINE
  8
0
 10
25.1289
 20
-36.0547
 11
25.2893
 21
-36.3956
  0
LINE
  8
0
 10
25.2893
 20
-36.3956
 11
25.4057
 21
-36.7539
  0
LINE
  8
0
 10
25.4057
 20
-36.7539
 11
25.4763
 21
-37.124
  0
LINE
  8
0
 10
25.4763
 20
-37.124
 11
25.5
 21
-37.5
  0
LINE
  8
0
 10
25.5
 20
-37.5
 11
25.4763
 21
-37.876
  0
LINE
  8
0
 10
25.4763
 20
-37.876
 11
25.4057
 21
-38.2461
  0
LINE
  8
0
 10
25.4057
 20
-38.2461
 11
25.2893
 21
-38.6044
  0
LINE
  8
0
 10
25.2893
 20
-38.6044
 11
25.1289
 21
-38.9453
  0
LINE
  8
0
 10
25.1289
 20
-38.9453
 11
24.927
 21
-39.2634
  0
LINE
  8
0
 10
24.927
 20
-39.2634
 11
24.6869
 21
-39.5536
  0
LINE
  8
0
 10
24.6869
 20
-39.5536
 11
24.4123
 21
-39.8115
  0
LINE
  8
0
 10
24.4123
 20
-39.8115
 11
24.1075
 21
-40.033
  0
LINE
  8
0
 10
24.1075
 20
-40.033
 11
23.7773
 21
-40.2145
  0
LINE
  8
0
 10
23.7773
 20
-40.2145
 11
23.427
 21
-40.3532
  0
LINE
  8
0
 10
23.427
 20
-40.3532
 11
23.0621
 21
-40.4469
  0
LINE
  8
0
 10
23.0621
 20
-40.4469
 11
22.6884
 21
-40.4941
  0
LINE
  8
0
 10
22.6884
 20
-40.4941
 11
22.3116
 21
-40.4941
  0
LINE
  8
0
 10
-22.6884
 20
-40.4941
 11
-23.0621
 21
-40.4469
  0
LINE
  8
0
 10
-23.0621
 20
-40.4469
 11
-23.427
 21
-40.3532
  0
LINE
  8
0
 10
-23.427
 20
-40.3532
 11
-23.7773
 21
-40.2145
  0
LINE
  8
0
 10
-23.7773
 20
-40.2145
 11
-24.1075
 21
-40.033
  0
LINE
  8
0
 10
-24.1075
 20
-40.033
 11
-24.4123
 21
-39.8115
  0
LINE
  8
0
 10
-24.4123
 20
-39.8115
 11
-24.6869
 21
-39.5536
  0
LINE
  8
0
 10
-24.6869
 20
-39.5536
 11
-24.927
 21
-39.2634
  0
LINE
  8
0
 10
-24.927
 20
-39.2634
 11
-25.1289
 21
-38.9453
  0
LINE
  8
0
 10
-25.1289
 20
-38.9453
 11
-25.2893
 21
-38.6044
  0
LINE
  8
0
 10
-25.2893
 20
-38.6044
 11
-25.4057
 21
-38.2461
  0
LINE
  8
0
 10
-25.4057
 20
-38.2461
 11
-25.4763
 21
-37.876
  0
LINE
  8
0
 10
-25.4763
 20
-37.876
 11
-25.5
 21
-37.5
  0
LINE
  8
0
 10
-25.5
 20
-37.5
 11
-25.4763
 21
-37.124
  0
LINE
  8
0
 10
-25.4763
 20
-37.124
 11
-25.4057
 21
-36.7539
  0
LINE
  8
0
 10
-25.4057
 20
-36.7539
 11
-25.2893
 21
-36.3956
  0
LINE
  8
0
 10
-25.2893
 20
-36.3956
 11
-25.1289
 21
-36.0547
  0
LINE
  8
0
 10
-25.1289
 20
-36.0547
 11
-24.927
 21
-35.7366
  0
LINE
  8
0
 10
-24.927
 20
-35.7366
 11
-24.6869
 21
-35.4464
  0
LINE
  8
0
 10
-24.6869
 20
-35.4464
 11
-24.4123
 21
-35.1885
  0
LINE
  8
0
 10
-24.4123
 20
-35.1885
 11
-24.1075
 21
-34.967
  0
LINE
  8
0
 10
-24.1075
 20
-34.967
 11
-23.7773
 21
-34.7855
  0
LINE
  8
0
 10
-23.7773
 20
-34.7855
 11
-23.427
 21
-34.6468
  0
LINE
  8
0
 10
-23.427
 20
-34.6468
 11
-23.0621
 21
-34.5531
  0
LINE
  8
0
 10
-23.0621
 20
-34.5531
 11
-22.6884
 21
-34.5059
  0
LINE
  8
0
 10
-22.6884
 20
-34.5059
 11
-22.3116
 21
-34.5059
  0
LINE
  8
0
 10
-22.3116
 20
-34.5059
 11
-21.9379
 21
-34.5531
  0
LINE
  8
0
 10
-21.9379
 20
-34.5531
 11
-21.5729
 21
-34.6468
  0
LINE
  8
0
 10
-21.5729
 20
-34.6468
 11
-21.2227
 21
-34.7855
  0
LINE
  8
0
 10
-21.2227
 20
-34.7855
 11
-20.8925
 21
-34.967
  0
LINE
  8
0
 10
-20.8925
 20
-34.967
 11
-20.5877
 21
-35.1885
  0
LINE
  8
0
 10
-20.5877
 20
-35.1885
 11
-20.3131
 21
-35.4464
  0
LINE
  8
0
 10
-20.3131
 20
-35.4464
 11
-20.0729
 21
-35.7366
  0
LINE
  8
0
 10
-20.0729
 20
-35.7366
 11
-19.8711
 21
-36.0547
  0
LINE
  8
0
 10
-19.8711
 20
-36.0547
 11
-19.7107
 21
-36.3956
  0
LINE
  8
0
 10
-19.7107
 20
-36.3956
 11
-19.5942
 21
-36.7539
  0
LINE
  8
0
 10
-19.5942
 20
-36.7539
 11
-19.5237
 21
-37.124
  0
LINE
  8
0
 10
-19.5237
 20
-37.124
 11
-19.5
 21
-37.5
  0
LINE
  8
0
 10
-19.5
 20
-37.5
 11
-19.5237
 21
-37.876
  0
LINE
  8
0
 10
-19.5237
 20
-37.876
 11
-19.5942
 21
-38.2461
  0
LINE
  8
0
 10
-19.5942
 20
-38.2461
 11
-19.7107
 21
-38.6044
  0
LINE
  8
0
 10
-19.7107
 20
-38.6044
 11
-19.8711
 21
-38.9453
  0
LINE
  8
0
 10
-19.8711
 20
-38.9453
 11
-20.0729
 21
-39.2634
  0
LINE
  8
0
 10
-20.0729
 20
-39.2634
 11
-20.3131
 21
-39.5536
  0
LINE
  8
0
 10
-20.3131
 20
-39.5536
 11
-20.5877
 21
-39.8115
  0
LINE
  8
0
 10
-20.5877
 20
-39.8115
 11
-20.8925
 21
-40.033
  0
LINE
  8
0
 10
-20.8925
 20
-40.033
 11
-21.2227
 21
-40.2145
  0
LINE
  8
0
 10
-21.2227
 20
-40.2145
 11
-21.5729
 21
-40.3532
  0
LINE
  8
0
 10
-21.5729
 20
-40.3532
 11
-21.9379
 21
-40.4469
  0
LINE
  8
0
 10
-21.9379
 20
-40.4469
 11
-22.3116
 21
-40.4941
  0
LINE
  8
0
 10
-22.3116
 20
-40.4941
 11
-22.6884
 21
-40.4941
  0
LINE
  8
0
 10
7.31161
 20
-40.4941
 11
6.93785
 21
-40.4469
  0
LINE
  8
0
 10
6.93785
 20
-40.4469
 11
6.57294
 21
-40.3532
  0
LINE
  8
0
 10
6.57294
 20
-40.3532
 11
6.22266
 21
-40.2145
  0
LINE
  8
0
 10
6.22266
 20
-40.2145
 11
5.89252
 21
-40.033
  0
LINE
  8
0
 10
5.89252
 20
-40.033
 11
5.58772
 21
-39.8115
  0
LINE
  8
0
 10
5.58772
 20
-39.8115
 11
5.31308
 21
-39.5536
  0
LINE
  8
0
 10
5.31308
 20
-39.5536
 11
5.07294
 21
-39.2634
  0
LINE
  8
0
 10
5.07294
 20
-39.2634
 11
4.87108
 21
-38.9453
  0
LINE
  8
0
 10
4.87108
 20
-38.9453
 11
4.71066
 21
-38.6044
  0
LINE
  8
0
 10
4.71066
 20
-38.6044
 11
4.59424
 21
-38.2461
  0
LINE
  8
0
 10
4.59424
 20
-38.2461
 11
4.52365
 21
-37.876
  0
LINE
  8
0
 10
4.52365
 20
-37.876
 11
4.5
 21
-37.5
  0
LINE
  8
0
 10
4.5
 20
-37.5
 11
4.52365
 21
-37.124
  0
LINE
  8
0
 10
4.52365
 20
-37.124
 11
4.59424
 21
-36.7539
  0
LINE
  8
0
 10
4.59424
 20
-36.7539
 11
4.71066
 21
-36.3956
  0
LINE
  8
0
 10
4.71066
 20
-36.3956
 11
4.87108
 21
-36.0547
  0
LINE
  8
0
 10
4.87108
 20
-36.0547
 11
5.07294
 21
-35.7366
  0
LINE
  8
0
 10
5.07294
 20
-35.7366
 11
5.31308
 21
-35.4464
  0
LINE
  8
0
 10
5.31308
 20
-35.4464
 11
5.58772
 21
-35.1885
  0
LINE
  8
0
 10
5.58772
 20
-35.1885
 11
5.89252
 21
-34.967
  0
LINE
  8
0
 10
5.89252
 20
-34.967
 11
6.22266
 21
-34.7855
  0
LINE
  8
0
 10
6.22266
 20
-34.7855
 11
6.57294
 21
-34.6468
  0
LINE
  8
0
 10
6.57294
 20
-34.6468
 11
6.93785
 21
-34.5531
  0
LINE
  8
0
 10
6.93785
 20
-34.5531
 11
7.31161
 21
-34.5059
  0
LINE
  8
0
 10
7.31161
 20
-34.5059
 11
7.68837
 21
-34.5059
  0
LINE
  8
0
 10
7.68837
 20
-34.5059
 11
8.06213
 21
-34.5531
  0
LINE
  8
0
 10
8.06213
 20
-34.5531
 11
8.42705
 21
-34.6468
  0
LINE
  8
0
 10
8.42705
 20
-34.6468
 11
8.77733
 21
-34.7855
  0
LINE
  8
0
 10
8.77733
 20
-34.7855
 11
9.10747
 21
-34.967
  0
LINE
  8
0
 10
9.10747
 20
-34.967
 11
9.41226
 21
-35.1885
  0
LINE
  8
0
 10
9.41226
 20
-35.1885
 11
9.6869
 21
-35.4464
  0
LINE
  8
0
 10
9.6869
 20
-35.4464
 11
9.92705
 21
-35.7366
  0
LINE
  8
0
 10
9.92705
 20
-35.7366
 11
10.1289
 21
-36.0547
  0
LINE
  8
0
 10
10.1289
 20
-36.0547
 11
10.2893
 21
-36.3956
  0
LINE
  8
0
 10
10.2893
 20
-36.3956
 11
10.4057
 21
-36.7539
  0
LINE
  8
0
 10
10.4057
 20
-36.7539
 11
10.4763
 21
-37.124
  0
LINE
  8
0
 10
10.4763
 20
-37.124
 11
10.5
 21
-37.5
  0
LINE
  8
0
 10
10.5
 20
-37.5
 11
10.4763
 21
-37.876
  0
LINE
  8
0
 10
10.4763
 20
-37.876
 11
10.4057
 21
-38.2461
  0
LINE
  8
0
 10
10.4057
 20
-38.2461
 11
10.2893
 21
-38.6044
  0
LINE
  8
0
 10
10.2893
 20
-38.6044
 11
10.1289
 21
-38.9453
  0
LINE
  8
0
 10
10.1289
 20
-38.9453
 11
9.92705
 21
-39.2634
  0
LINE
  8
0
 10
9.92705
 20
-39.2634
 11
9.6869
 21
-39.5536
  0
LINE
  8
0
 10
9.6869
 20
-39.5536
 11
9.41226
 21
-39.8115
  0
LINE
  8
0
 10
9.41226
 20
-39.8115
 11
9.10747
 21
-40.033
  0
LINE
  8
0
 10
9.10747
 20
-40.033
 11
8.77733
 21
-40.2145
  0
LINE
  8
0
 10
8.77733
 20
-40.2145
 11
8.42705
 21
-40.3532
  0
LINE
  8
0
 10
8.42705
 20
-40.3532
 11
8.06213
 21
-40.4469
  0
LINE
  8
0
 10
8.06213
 20
-40.4469
 11
7.68837
 21
-40.4941
  0
LINE
  8
0
 10
7.68837
 20
-40.4941
 11
7.31161
 21
-40.4941
  0
LINE
  8
0
 10
-7.68837
 20
-40.4941
 11
-8.06213
 21
-40.4469
  0
LINE
  8
0
 10
-8.06213
 20
-40.4469
 11
-8.42705
 21
-40.3532
  0
LINE
  8
0
 10
-8.42705
 20
-40.3532
 11
-8.77733
 21
-40.2145
  0
LINE
  8
0
 10
-8.77733
 20
-40.2145
 11
-9.10747
 21
-40.033
  0
LINE
  8
0
 10
-9.10747
 20
-40.033
 11
-9.41226
 21
-39.8115
  0
LINE
  8
0
 10
-9.41226
 20
-39.8115
 11
-9.6869
 21
-39.5536
  0
LINE
  8
0
 10
-9.6869
 20
-39.5536
 11
-9.92705
 21
-39.2634
  0
LINE
  8
0
 10
-9.92705
 20
-39.2634
 11
-10.1289
 21
-38.9453
  0
LINE
  8
0
 10
-10.1289
 20
-38.9453
 11
-10.2893
 21
-38.6044
  0
LINE
  8
0
 10
-10.2893
 20
-38.6044
 11
-10.4057
 21
-38.2461
  0
LINE
  8
0
 10
-10.4057
 20
-38.2461
 11
-10.4763
 21
-37.876
  0
LINE
  8
0
 10
-10.4763
 20
-37.876
 11
-10.5
 21
-37.5
  0
LINE
  8
0
 10
-10.5
 20
-37.5
 11
-10.4763
 21
-37.124
  0
LINE
  8
0
 10
-10.4763
 20
-37.124
 11
-10.4057
 21
-36.7539
  0
LINE
  8
0
 10
-10.4057
 20
-36.7539
 11
-10.2893
 21
-36.3956
  0
LINE
  8
0
 10
-10.2893
 20
-36.3956
 11
-10.1289
 21
-36.0547
  0
LINE
  8
0
 10
-10.1289
 20
-36.0547
 11
-9.92705
 21
-35.7366
  0
LINE
  8
0
 10
-9.92705
 20
-35.7366
 11
-9.6869
 21
-35.4464
  0
LINE
  8
0
 10
-9.6869
 20
-35.4464
 11
-9.41226
 21
-35.1885
  0
LINE
  8
0
 10
-9.41226
 20
-35.1885
 11
-9.10747
 21
-34.967
  0
LINE
  8
0
 10
-9.10747
 20
-34.967
 11
-8.77733
 21
-34.7855
  0
LINE
  8
0
 10
-8.77733
 20
-34.7855
 11
-8.42705
 21
-34.6468
  0
LINE
  8
0
 10
-8.42705
 20
-34.6468
 11
-8.06213
 21
-34.5531
  0
LINE
  8
0
 10
-8.06213
 20
-34.5531
 11
-7.68837
 21
-34.5059
  0
LINE
  8
0
 10
-7.68837
 20
-34.5059
 11
-7.31161
 21
-34.5059
  0
LINE
  8
0
 10
-7.31161
 20
-34.5059
 11
-6.93785
 21
-34.5531
  0
LINE
  8
0
 10
-6.93785
 20
-34.5531
 11
-6.57294
 21
-34.6468
  0
LINE
  8
0
 10
-6.57294
 20
-34.6468
 11
-6.22266
 21
-34.7855
  0
LINE
  8
0
 10
-6.22266
 20
-34.7855
 11
-5.89252
 21
-34.967
  0
LINE
  8
0
 10
-5.89252
 20
-34.967
 11
-5.58772
 21
-35.1885
  0
LINE
  8
0
 10
-5.58772
 20
-35.1885
 11
-5.31308
 21
-35.4464
  0
LINE
  8
0
 10
-5.31308
 20
-35.4464
 11
-5.07294
 21
-35.7366
  0
LINE
  8
0
 10
-5.07294
 20
-35.7366
 11
-4.87108
 21
-36.0547
  0
LINE
  8
0
 10
-4.87108
 20
-36.0547
 11
-4.71066
 21
-36.3956
  0
LINE
  8
0
 10
-4.71066
 20
-36.3956
 11
-4.59424
 21
-36.7539
  0
LINE
  8
0
 10
-4.59424
 20
-36.7539
 11
-4.52365
 21
-37.124
  0
LINE
  8
0
 10
-4.52365
 20
-37.124
 11
-4.5
 21
-37.5
  0
LINE
  8
0
 10
-4.5
 20
-37.5
 11
-4.52365
 21
-37.876
  0
LINE
  8
0
 10
-4.52365
 20
-37.876
 11
-4.59424
 21
-38.2461
  0
LINE
  8
0
 10
-4.59424
 20
-38.2461
 11
-4.71066
 21
-38.6044
  0
LINE
  8
0
 10
-4.71066
 20
-38.6044
 11
-4.87108
 21
-38.9453
  0
LINE
  8
0
 10
-4.87108
 20
-38.9453
 11
-5.07294
 21
-39.2634
  0
LINE
  8
0
 10
-5.07294
 20
-39.2634
 11
-5.31308
 21
-39.5536
  0
LINE
  8
0
 10
-5.31308
 20
-39.5536
 11
-5.58772
 21
-39.8115
  0
LINE
  8
0
 10
-5.58772
 20
-39.8115
 11
-5.89252
 21
-40.033
  0
LINE
  8
0
 10
-5.89252
 20
-40.033
 11
-6.22266
 21
-40.2145
  0
LINE
  8
0
 10
-6.22266
 20
-40.2145
 11
-6.57294
 21
-40.3532
  0
LINE
  8
0
 10
-6.57294
 20
-40.3532
 11
-6.93785
 21
-40.4469
  0
LINE
  8
0
 10
-6.93785
 20
-40.4469
 11
-7.31161
 21
-40.4941
  0
LINE
  8
0
 10
-7.31161
 20
-40.4941
 11
-7.68837
 21
-40.4941
  0
LINE
  8
0
 10
-15.113
 20
-39.2964
 11
-15.3373
 21
-39.2681
  0
LINE
  8
0
 10
-15.3373
 20
-39.2681
 11
-15.5562
 21
-39.2119
  0
LINE
  8
0
 10
-15.5562
 20
-39.2119
 11
-15.7664
 21
-39.1287
  0
LINE
  8
0
 10
-15.7664
 20
-39.1287
 11
-15.9645
 21
-39.0198
  0
LINE
  8
0
 10
-15.9645
 20
-39.0198
 11
-16.1474
 21
-38.8869
  0
LINE
  8
0
 10
-16.1474
 20
-38.8869
 11
-16.3121
 21
-38.7322
  0
LINE
  8
0
 10
-16.3121
 20
-38.7322
 11
-16.4562
 21
-38.558
  0
LINE
  8
0
 10
-16.4562
 20
-38.558
 11
-16.5773
 21
-38.3672
  0
LINE
  8
0
 10
-16.5773
 20
-38.3672
 11
-16.6736
 21
-38.1626
  0
LINE
  8
0
 10
-16.6736
 20
-38.1626
 11
-16.7434
 21
-37.9476
  0
LINE
  8
0
 10
-16.7434
 20
-37.9476
 11
-16.7858
 21
-37.7256
  0
LINE
  8
0
 10
-16.7858
 20
-37.7256
 11
-16.8
 21
-37.5
  0
LINE
  8
0
 10
-16.8
 20
-37.5
 11
-16.7858
 21
-37.2744
  0
LINE
  8
0
 10
-16.7858
 20
-37.2744
 11
-16.7434
 21
-37.0524
  0
LINE
  8
0
 10
-16.7434
 20
-37.0524
 11
-16.6736
 21
-36.8374
  0
LINE
  8
0
 10
-16.6736
 20
-36.8374
 11
-16.5773
 21
-36.6328
  0
LINE
  8
0
 10
-16.5773
 20
-36.6328
 11
-16.4562
 21
-36.442
  0
LINE
  8
0
 10
-16.4562
 20
-36.442
 11
-16.3121
 21
-36.2678
  0
LINE
  8
0
 10
-16.3121
 20
-36.2678
 11
-16.1474
 21
-36.1131
  0
LINE
  8
0
 10
-16.1474
 20
-36.1131
 11
-15.9645
 21
-35.9802
  0
LINE
  8
0
 10
-15.9645
 20
-35.9802
 11
-15.7664
 21
-35.8713
  0
LINE
  8
0
 10
-15.7664
 20
-35.8713
 11
-15.5562
 21
-35.7881
  0
LINE
  8
0
 10
-15.5562
 20
-35.7881
 11
-15.3373
 21
-35.7319
  0
LINE
  8
0
 10
-15.3373
 20
-35.7319
 11
-15.113
 21
-35.7036
  0
LINE
  8
0
 10
-15.113
 20
-35.7036
 11
-14.887
 21
-35.7036
  0
LINE
  8
0
 10
-14.887
 20
-35.7036
 11
-14.6627
 21
-35.7319
  0
LINE
  8
0
 10
-14.6627
 20
-35.7319
 11
-14.4438
 21
-35.7881
  0
LINE
  8
0
 10
-14.4438
 20
-35.7881
 11
-14.2336
 21
-35.8713
  0
LINE
  8
0
 10
-14.2336
 20
-35.8713
 11
-14.0355
 21
-35.9802
  0
LINE
  8
0
 10
-14.0355
 20
-35.9802
 11
-13.8526
 21
-36.1131
  0
LINE
  8
0
 10
-13.8526
 20
-36.1131
 11
-13.6879
 21
-36.2678
  0
LINE
  8
0
 10
-13.6879
 20
-36.2678
 11
-13.5438
 21
-36.442
  0
LINE
  8
0
 10
-13.5438
 20
-36.442
 11
-13.4226
 21
-36.6328
  0
LINE
  8
0
 10
-13.4226
 20
-36.6328
 11
-13.3264
 21
-36.8374
  0
LINE
  8
0
 10
-13.3264
 20
-36.8374
 11
-13.2565
 21
-37.0524
  0
LINE
  8
0
 10
-13.2565
 20
-37.0524
 11
-13.2142
 21
-37.2744
  0
LINE
  8
0
 10
-13.2142
 20
-37.2744
 11
-13.2
 21
-37.5
  0
LINE
  8
0
 10
-13.2
 20
-37.5
 11
-13.2142
 21
-37.7256
  0
LINE
  8
0
 10
-13.2142
 20
-37.7256
 11
-13.2565
 21
-37.9476
  0
LINE
  8
0
 10
-13.2565
 20
-37.9476
 11
-13.3264
 21
-38.1626
  0
LINE
  8
0
 10
-13.3264
 20
-38.1626
 11
-13.4226
 21
-38.3672
  0
LINE
  8
0
 10
-13.4226
 20
-38.3672
 11
-13.5438
 21
-38.558
  0
LINE
  8
0
 10
-13.5438
 20
-38.558
 11
-13.6879
 21
-38.7322
  0
LINE
  8
0
 10
-13.6879
 20
-38.7322
 11
-13.8526
 21
-38.8869
  0
LINE
  8
0
 10
-13.8526
 20
-38.8869
 11
-14.0355
 21
-39.0198
  0
LINE
  8
0
 10
-14.0355
 20
-39.0198
 11
-14.2336
 21
-39.1287
  0
LINE
  8
0
 10
-14.2336
 20
-39.1287
 11
-14.4438
 21
-39.2119
  0
LINE
  8
0
 10
-14.4438
 20
-39.2119
 11
-14.6627
 21
-39.2681
  0
LINE
  8
0
 10
-14.6627
 20
-39.2681
 11
-14.887
 21
-39.2964
  0
LINE
  8
0
 10
-14.887
 20
-39.2964
 11
-15.113
 21
-39.2964
  0
LINE
  8
0
 10
14.887
 20
-39.2964
 11
14.6627
 21
-39.2681
  0
LINE
  8
0
 10
14.6627
 20
-39.2681
 11
14.4438
 21
-39.2119
  0
LINE
  8
0
 10
14.4438
 20
-39.2119
 11
14.2336
 21
-39.1287
  0
LINE
  8
0
 10
14.2336
 20
-39.1287
 11
14.0355
 21
-39.0198
  0
LINE
  8
0
 10
14.0355
 20
-39.0198
 11
13.8526
 21
-38.8869
  0
LINE
  8
0
 10
13.8526
 20
-38.8869
 11
13.6879
 21
-38.7322
  0
LINE
  8
0
 10
13.6879
 20
-38.7322
 11
13.5438
 21
-38.558
  0
LINE
  8
0
 10
13.5438
 20
-38.558
 11
13.4226
 21
-38.3672
  0
LINE
  8
0
 10
13.4226
 20
-38.3672
 11
13.3264
 21
-38.1626
  0
LINE
  8
0
 10
13.3264
 20
-38.1626
 11
13.2565
 21
-37.9476
  0
LINE
  8
0
 10
13.2565
 20
-37.9476
 11
13.2142
 21
-37.7256
  0
LINE
  8
0
 10
13.2142
 20
-37.7256
 11
13.2
 21
-37.5
  0
LINE
  8
0
 10
13.2
 20
-37.5
 11
13.2142
 21
-37.2744
  0
LINE
  8
0
 10
13.2142
 20
-37.2744
 11
13.2565
 21
-37.0524
  0
LINE
  8
0
 10
13.2565
 20
-37.0524
 11
13.3264
 21
-36.8374
  0
LINE
  8
0
 10
13.3264
 20
-36.8374
 11
13.4226
 21
-36.6328
  0
LINE
  8
0
 10
13.4226
 20
-36.6328
 11
13.5438
 21
-36.442
  0
LINE
  8
0
 10
13.5438
 20
-36.442
 11
13.6879
 21
-36.2678
  0
LINE
  8
0
 10
13.6879
 20
-36.2678
 11
13.8526
 21
-36.1131
  0
LINE
  8
0
 10
13.8526
 20
-36.1131
 11
14.0355
 21
-35.9802
  0
LINE
  8
0
 10
14.0355
 20
-35.9802
 11
14.2336
 21
-35.8713
  0
LINE
  8
0
 10
14.2336
 20
-35.8713
 11
14.4438
 21
-35.7881
  0
LINE
  8
0
 10
14.4438
 20
-35.7881
 11
14.6627
 21
-35.7319
  0
LINE
  8
0
 10
14.6627
 20
-35.7319
 11
14.887
 21
-35.7036
  0
LINE
  8
0
 10
14.887
 20
-35.7036
 11
15.113
 21
-35.7036
  0
LINE
  8
0
 10
15.113
 20
-35.7036
 11
15.3373
 21
-35.7319
  0
LINE
  8
0
 10
15.3373
 20
-35.7319
 11
15.5562
 21
-35.7881
  0
LINE
  8
0
 10
15.5562
 20
-35.7881
 11
15.7664
 21
-35.8713
  0
LINE
  8
0
 10
15.7664
 20
-35.8713
 11
15.9645
 21
-35.9802
  0
LINE
  8
0
 10
15.9645
 20
-35.9802
 11
16.1474
 21
-36.1131
  0
LINE
  8
0
 10
16.1474
 20
-36.1131
 11
16.3121
 21
-36.2678
  0
LINE
  8
0
 10
16.3121
 20
-36.2678
 11
16.4562
 21
-36.442
  0
LINE
  8
0
 10
16.4562
 20
-36.442
 11
16.5773
 21
-36.6328
  0
LINE
  8
0
 10
16.5773
 20
-36.6328
 11
16.6736
 21
-36.8374
  0
LINE
  8
0
 10
16.6736
 20
-36.8374
 11
16.7434
 21
-37.0524
  0
LINE
  8
0
 10
16.7434
 20
-37.0524
 11
16.7858
 21
-37.2744
  0
LINE
  8
0
 10
16.7858
 20
-37.2744
 11
16.8
 21
-37.5
  0
LINE
  8
0
 10
16.8
 20
-37.5
 11
16.7858
 21
-37.7256
  0
LINE
  8
0
 10
16.7858
 20
-37.7256
 11
16.7434
 21
-37.9476
  0
LINE
  8
0
 10
16.7434
 20
-37.9476
 11
16.6736
 21
-38.1626
  0
LINE
  8
0
 10
16.6736
 20
-38.1626
 11
16.5773
 21
-38.3672
  0
LINE
  8
0
 10
16.5773
 20
-38.3672
 11
16.4562
 21
-38.558
  0
LINE
  8
0
 10
16.4562
 20
-38.558
 11
16.3121
 21
-38.7322
  0
LINE
  8
0
 10
16.3121
 20
-38.7322
 11
16.1474
 21
-38.8869
  0
LINE
  8
0
 10
16.1474
 20
-38.8869
 11
15.9645
 21
-39.0198
  0
LINE
  8
0
 10
15.9645
 20
-39.0198
 11
15.7664
 21
-39.1287
  0
LINE
  8
0
 10
15.7664
 20
-39.1287
 11
15.5562
 21
-39.2119
  0
LINE
  8
0
 10
15.5562
 20
-39.2119
 11
15.3373
 21
-39.2681
  0
LINE
  8
0
 10
15.3373
 20
-39.2681
 11
15.113
 21
-39.2964
  0
LINE
  8
0
 10
15.113
 20
-39.2964
 11
14.887
 21
-39.2964
  0
LINE
  8
0
 10
-0.0941772
 20
-38.997
 11
-0.281067
 21
-38.9734
  0
LINE
  8
0
 10
-0.281067
 20
-38.9734
 11
-0.463516
 21
-38.9266
  0
LINE
  8
0
 10
-0.463516
 20
-38.9266
 11
-0.638657
 21
-38.8572
  0
LINE
  8
0
 10
-0.638657
 20
-38.8572
 11
-0.803726
 21
-38.7665
  0
LINE
  8
0
 10
-0.803726
 20
-38.7665
 11
-0.956131
 21
-38.6558
  0
LINE
  8
0
 10
-0.956131
 20
-38.6558
 11
-1.09344
 21
-38.5268
  0
LINE
  8
0
 10
-1.09344
 20
-38.5268
 11
-1.21352
 21
-38.3817
  0
LINE
  8
0
 10
-1.21352
 20
-38.3817
 11
-1.31445
 21
-38.2226
  0
LINE
  8
0
 10
-1.31445
 20
-38.2226
 11
-1.39465
 21
-38.0522
  0
LINE
  8
0
 10
-1.39465
 20
-38.0522
 11
-1.45287
 21
-37.873
  0
LINE
  8
0
 10
-1.45287
 20
-37.873
 11
-1.48816
 21
-37.688
  0
LINE
  8
0
 10
-1.48816
 20
-37.688
 11
-1.5
 21
-37.5
  0
LINE
  8
0
 10
-1.5
 20
-37.5
 11
-1.48816
 21
-37.312
  0
LINE
  8
0
 10
-1.48816
 20
-37.312
 11
-1.45287
 21
-37.127
  0
LINE
  8
0
 10
-1.45287
 20
-37.127
 11
-1.39465
 21
-36.9478
  0
LINE
  8
0
 10
-1.39465
 20
-36.9478
 11
-1.31445
 21
-36.7774
  0
LINE
  8
0
 10
-1.31445
 20
-36.7774
 11
-1.21352
 21
-36.6183
  0
LINE
  8
0
 10
-1.21352
 20
-36.6183
 11
-1.09344
 21
-36.4732
  0
LINE
  8
0
 10
-1.09344
 20
-36.4732
 11
-0.956131
 21
-36.3442
  0
LINE
  8
0
 10
-0.956131
 20
-36.3442
 11
-0.803726
 21
-36.2335
  0
LINE
  8
0
 10
-0.803726
 20
-36.2335
 11
-0.638657
 21
-36.1428
  0
LINE
  8
0
 10
-0.638657
 20
-36.1428
 11
-0.463516
 21
-36.0734
  0
LINE
  8
0
 10
-0.463516
 20
-36.0734
 11
-0.281067
 21
-36.0266
  0
LINE
  8
0
 10
-0.281067
 20
-36.0266
 11
-0.0941772
 21
-36.003
  0
LINE
  8
0
 10
-0.0941772
 20
-36.003
 11
0.0941772
 21
-36.003
  0
LINE
  8
0
 10
0.0941772
 20
-36.003
 11
0.281067
 21
-36.0266
  0
LINE
  8
0
 10
0.281067
 20
-36.0266
 11
0.463516
 21
-36.0734
  0
LINE
  8
0
 10
0.463516
 20
-36.0734
 11
0.638657
 21
-36.1428
  0
LINE
  8
0
 10
0.638657
 20
-36.1428
 11
0.803726
 21
-36.2335
  0
LINE
  8
0
 10
0.803726
 20
-36.2335
 11
0.956131
 21
-36.3442
  0
LINE
  8
0
 10
0.956131
 20
-36.3442
 11
1.09344
 21
-36.4732
  0
LINE
  8
0
 10
1.09344
 20
-36.4732
 11
1.21352
 21
-36.6183
  0
LINE
  8
0
 10
1.21352
 20
-36.6183
 11
1.31445
 21
-36.7774
  0
LINE
  8
0
 10
1.31445
 20
-36.7774
 11
1.39465
 21
-36.9478
  0
LINE
  8
0
 10
1.39465
 20
-36.9478
 11
1.45287
 21
-37.127
  0
LINE
  8
0
 10
1.45287
 20
-37.127
 11
1.48816
 21
-37.312
  0
LINE
  8
0
 10
1.48816
 20
-37.312
 11
1.5
 21
-37.5
  0
LINE
  8
0
 10
1.5
 20
-37.5
 11
1.48816
 21
-37.688
  0
LINE
  8
0
 10
1.48816
 20
-37.688
 11
1.45287
 21
-37.873
  0
LINE
  8
0
 10
1.45287
 20
-37.873
 11
1.39465
 21
-38.0522
  0
LINE
  8
0
 10
1.39465
 20
-38.0522
 11
1.31445
 21
-38.2226
  0
LINE
  8
0
 10
1.31445
 20
-38.2226
 11
1.21352
 21
-38.3817
  0
LINE
  8
0
 10
1.21352
 20
-38.3817
 11
1.09344
 21
-38.5268
  0
LINE
  8
0
 10
1.09344
 20
-38.5268
 11
0.956131
 21
-38.6558
  0
LINE
  8
0
 10
0.956131
 20
-38.6558
 11
0.803726
 21
-38.7665
  0
LINE
  8
0
 10
0.803726
 20
-38.7665
 11
0.638657
 21
-38.8572
  0
LINE
  8
0
 10
0.638657
 20
-38.8572
 11
0.463516
 21
-38.9266
  0
LINE
  8
0
 10
0.463516
 20
-38.9266
 11
0.281067
 21
-38.9734
  0
LINE
  8
0
 10
0.281067
 20
-38.9734
 11
0.0941772
 21
-38.997
  0
LINE
  8
0
 10
0.0941772
 20
-38.997
 11
-0.0941772
 21
-38.997
  0
ENDSEC
  0
SECTION
  2
OBJECTS
  0
DICTIONARY
  0
ENDSEC
  0
EOF
