  0
SECTION
  2
BLOCKS
  0
ENDSEC
  0
SECTION
  2
ENTITIES
  0
LINE
  8
0
 10
-9
 20
146.25
 11
-6.25
 21
146.25
  0
LINE
  8
0
 10
-6.25
 20
146.25
 11
-6.25
 21
149.5
  0
LINE
  8
0
 10
-6.25
 20
149.5
 11
-9
 21
149.5
  0
LINE
  8
0
 10
-9
 20
149.5
 11
-9
 21
186.5
  0
LINE
  8
0
 10
-9
 20
186.5
 11
-4.5
 21
186.5
  0
LINE
  8
0
 10
-4.5
 20
186.5
 11
-4.5
 21
190.5
  0
LINE
  8
0
 10
-4.5
 20
190.5
 11
4.5
 21
190.5
  0
LINE
  8
0
 10
4.5
 20
190.5
 11
4.5
 21
186.5
  0
LINE
  8
0
 10
4.5
 20
186.5
 11
9
 21
186.5
  0
LINE
  8
0
 10
9
 20
186.5
 11
9
 21
149.5
  0
LINE
  8
0
 10
9
 20
149.5
 11
6.25
 21
149.5
  0
LINE
  8
0
 10
6.25
 20
149.5
 11
6.25
 21
146.25
  0
LINE
  8
0
 10
6.25
 20
146.25
 11
9
 21
146.25
  0
LINE
  8
0
 10
9
 20
146.25
 11
9
 21
131.01
  0
LINE
  8
0
 10
9
 20
131.01
 11
17.3139
 21
131.01
  0
LINE
  8
0
 10
17.3139
 20
131.01
 11
17.9369
 21
131.089
  0
LINE
  8
0
 10
17.9369
 20
131.089
 11
18.5451
 21
131.245
  0
LINE
  8
0
 10
18.5451
 20
131.245
 11
19.1289
 21
131.476
  0
LINE
  8
0
 10
19.1289
 20
131.476
 11
19.6791
 21
131.778
  0
LINE
  8
0
 10
19.6791
 20
131.778
 11
20.1871
 21
132.147
  0
LINE
  8
0
 10
20.1871
 20
132.147
 11
20.6448
 21
132.577
  0
LINE
  8
0
 10
20.6448
 20
132.577
 11
21.0451
 21
133.061
  0
LINE
  8
0
 10
21.0451
 20
133.061
 11
21.3815
 21
133.591
  0
LINE
  8
0
 10
21.3815
 20
133.591
 11
21.6489
 21
134.159
  0
LINE
  8
0
 10
21.6489
 20
134.159
 11
21.8429
 21
134.757
  0
LINE
  8
0
 10
21.8429
 20
134.757
 11
21.9606
 21
135.373
  0
LINE
  8
0
 10
21.9606
 20
135.373
 11
22
 21
136
  0
LINE
  8
0
 10
22
 20
136
 11
22
 21
200
  0
LINE
  8
0
 10
22
 20
200
 11
21.9606
 21
200.627
  0
LINE
  8
0
 10
21.9606
 20
200.627
 11
21.8429
 21
201.243
  0
LINE
  8
0
 10
21.8429
 20
201.243
 11
21.6489
 21
201.841
  0
LINE
  8
0
 10
21.6489
 20
201.841
 11
21.3815
 21
202.409
  0
LINE
  8
0
 10
21.3815
 20
202.409
 11
21.0451
 21
202.939
  0
LINE
  8
0
 10
21.0451
 20
202.939
 11
20.6448
 21
203.423
  0
LINE
  8
0
 10
20.6448
 20
203.423
 11
20.1871
 21
203.853
  0
LINE
  8
0
 10
20.1871
 20
203.853
 11
19.6791
 21
204.222
  0
LINE
  8
0
 10
19.6791
 20
204.222
 11
19.1289
 21
204.524
  0
LINE
  8
0
 10
19.1289
 20
204.524
 11
18.5451
 21
204.755
  0
LINE
  8
0
 10
18.5451
 20
204.755
 11
17.9369
 21
204.911
  0
LINE
  8
0
 10
17.9369
 20
204.911
 11
17.3139
 21
204.99
  0
LINE
  8
0
 10
17.3139
 20
204.99
 11
-17.3139
 21
204.99
  0
LINE
  8
0
 10
-17.3139
 20
204.99
 11
-17.9369
 21
204.911
  0
LINE
  8
0
 10
-17.9369
 20
204.911
 11
-18.5451
 21
204.755
  0
LINE
  8
0
 10
-18.5451
 20
204.755
 11
-19.1289
 21
204.524
  0
LINE
  8
0
 10
-19.1289
 20
204.524
 11
-19.6791
 21
204.222
  0
LINE
  8
0
 10
-19.6791
 20
204.222
 11
-20.1871
 21
203.853
  0
LINE
  8
0
 10
-20.1871
 20
203.853
 11
-20.6448
 21
203.423
  0
LINE
  8
0
 10
-20.6448
 20
203.423
 11
-21.0451
 21
202.939
  0
LINE
  8
0
 10
-21.0451
 20
202.939
 11
-21.3815
 21
202.409
  0
LINE
  8
0
 10
-21.3815
 20
202.409
 11
-21.6489
 21
201.841
  0
LINE
  8
0
 10
-21.6489
 20
201.841
 11
-21.8429
 21
201.243
  0
LINE
  8
0
 10
-21.8429
 20
201.243
 11
-21.9606
 21
200.627
  0
LINE
  8
0
 10
-21.9606
 20
200.627
 11
-22
 21
200
  0
LINE
  8
0
 10
-22
 20
200
 11
-22
 21
136
  0
LINE
  8
0
 10
-22
 20
136
 11
-21.9606
 21
135.373
  0
LINE
  8
0
 10
-21.9606
 20
135.373
 11
-21.8429
 21
134.757
  0
LINE
  8
0
 10
-21.8429
 20
134.757
 11
-21.6489
 21
134.159
  0
LINE
  8
0
 10
-21.6489
 20
134.159
 11
-21.3815
 21
133.591
  0
LINE
  8
0
 10
-21.3815
 20
133.591
 11
-21.0451
 21
133.061
  0
LINE
  8
0
 10
-21.0451
 20
133.061
 11
-20.6448
 21
132.577
  0
LINE
  8
0
 10
-20.6448
 20
132.577
 11
-20.1871
 21
132.147
  0
LINE
  8
0
 10
-20.1871
 20
132.147
 11
-19.6791
 21
131.778
  0
LINE
  8
0
 10
-19.6791
 20
131.778
 11
-19.1289
 21
131.476
  0
LINE
  8
0
 10
-19.1289
 20
131.476
 11
-18.5451
 21
131.245
  0
LINE
  8
0
 10
-18.5451
 20
131.245
 11
-17.9369
 21
131.089
  0
LINE
  8
0
 10
-17.9369
 20
131.089
 11
-17.3139
 21
131.01
  0
LINE
  8
0
 10
-17.3139
 20
131.01
 11
-9
 21
131.01
  0
LINE
  8
0
 10
-9
 20
131.01
 11
-9
 21
146.25
  0
LINE
  8
0
 10
-0.18837
 20
195.006
 11
-0.562134
 21
195.053
  0
LINE
  8
0
 10
-0.562134
 20
195.053
 11
-0.927048
 21
195.147
  0
LINE
  8
0
 10
-0.927048
 20
195.147
 11
-1.27733
 21
195.286
  0
LINE
  8
0
 10
-1.27733
 20
195.286
 11
-1.60747
 21
195.467
  0
LINE
  8
0
 10
-1.60747
 20
195.467
 11
-1.91226
 21
195.688
  0
LINE
  8
0
 10
-1.91226
 20
195.688
 11
-2.1869
 21
195.946
  0
LINE
  8
0
 10
-2.1869
 20
195.946
 11
-2.42705
 21
196.237
  0
LINE
  8
0
 10
-2.42705
 20
196.237
 11
-2.62891
 21
196.555
  0
LINE
  8
0
 10
-2.62891
 20
196.555
 11
-2.78932
 21
196.896
  0
LINE
  8
0
 10
-2.78932
 20
196.896
 11
-2.90575
 21
197.254
  0
LINE
  8
0
 10
-2.90575
 20
197.254
 11
-2.97633
 21
197.624
  0
LINE
  8
0
 10
-2.97633
 20
197.624
 11
-3
 21
198
  0
LINE
  8
0
 10
-3
 20
198
 11
-2.97633
 21
198.376
  0
LINE
  8
0
 10
-2.97633
 20
198.376
 11
-2.90575
 21
198.746
  0
LINE
  8
0
 10
-2.90575
 20
198.746
 11
-2.78932
 21
199.104
  0
LINE
  8
0
 10
-2.78932
 20
199.104
 11
-2.62891
 21
199.445
  0
LINE
  8
0
 10
-2.62891
 20
199.445
 11
-2.42705
 21
199.763
  0
LINE
  8
0
 10
-2.42705
 20
199.763
 11
-2.1869
 21
200.054
  0
LINE
  8
0
 10
-2.1869
 20
200.054
 11
-1.91226
 21
200.312
  0
LINE
  8
0
 10
-1.91226
 20
200.312
 11
-1.60747
 21
200.533
  0
LINE
  8
0
 10
-1.60747
 20
200.533
 11
-1.27733
 21
200.714
  0
LINE
  8
0
 10
-1.27733
 20
200.714
 11
-0.927048
 21
200.853
  0
LINE
  8
0
 10
-0.927048
 20
200.853
 11
-0.562134
 21
200.947
  0
LINE
  8
0
 10
-0.562134
 20
200.947
 11
-0.18837
 21
200.994
  0
LINE
  8
0
 10
-0.18837
 20
200.994
 11
0.18837
 21
200.994
  0
LINE
  8
0
 10
0.18837
 20
200.994
 11
0.562134
 21
200.947
  0
LINE
  8
0
 10
0.562134
 20
200.947
 11
0.927048
 21
200.853
  0
LINE
  8
0
 10
0.927048
 20
200.853
 11
1.27733
 21
200.714
  0
LINE
  8
0
 10
1.27733
 20
200.714
 11
1.60747
 21
200.533
  0
LINE
  8
0
 10
1.60747
 20
200.533
 11
1.91226
 21
200.312
  0
LINE
  8
0
 10
1.91226
 20
200.312
 11
2.1869
 21
200.054
  0
LINE
  8
0
 10
2.1869
 20
200.054
 11
2.42705
 21
199.763
  0
LINE
  8
0
 10
2.42705
 20
199.763
 11
2.62891
 21
199.445
  0
LINE
  8
0
 10
2.62891
 20
199.445
 11
2.78932
 21
199.104
  0
LINE
  8
0
 10
2.78932
 20
199.104
 11
2.90575
 21
198.746
  0
LINE
  8
0
 10
2.90575
 20
198.746
 11
2.97633
 21
198.376
  0
LINE
  8
0
 10
2.97633
 20
198.376
 11
3
 21
198
  0
LINE
  8
0
 10
3
 20
198
 11
2.97633
 21
197.624
  0
LINE
  8
0
 10
2.97633
 20
197.624
 11
2.90575
 21
197.254
  0
LINE
  8
0
 10
2.90575
 20
197.254
 11
2.78932
 21
196.896
  0
LINE
  8
0
 10
2.78932
 20
196.896
 11
2.62891
 21
196.555
  0
LINE
  8
0
 10
2.62891
 20
196.555
 11
2.42705
 21
196.237
  0
LINE
  8
0
 10
2.42705
 20
196.237
 11
2.1869
 21
195.946
  0
LINE
  8
0
 10
2.1869
 20
195.946
 11
1.91226
 21
195.688
  0
LINE
  8
0
 10
1.91226
 20
195.688
 11
1.60747
 21
195.467
  0
LINE
  8
0
 10
1.60747
 20
195.467
 11
1.27733
 21
195.286
  0
LINE
  8
0
 10
1.27733
 20
195.286
 11
0.927048
 21
195.147
  0
LINE
  8
0
 10
0.927048
 20
195.147
 11
0.562134
 21
195.053
  0
LINE
  8
0
 10
0.562134
 20
195.053
 11
0.18837
 21
195.006
  0
LINE
  8
0
 10
0.18837
 20
195.006
 11
-0.18837
 21
195.006
  0
LINE
  8
0
 10
-15.1884
 20
195.006
 11
-15.5621
 21
195.053
  0
LINE
  8
0
 10
-15.5621
 20
195.053
 11
-15.927
 21
195.147
  0
LINE
  8
0
 10
-15.927
 20
195.147
 11
-16.2773
 21
195.286
  0
LINE
  8
0
 10
-16.2773
 20
195.286
 11
-16.6075
 21
195.467
  0
LINE
  8
0
 10
-16.6075
 20
195.467
 11
-16.9123
 21
195.688
  0
LINE
  8
0
 10
-16.9123
 20
195.688
 11
-17.1869
 21
195.946
  0
LINE
  8
0
 10
-17.1869
 20
195.946
 11
-17.427
 21
196.237
  0
LINE
  8
0
 10
-17.427
 20
196.237
 11
-17.6289
 21
196.555
  0
LINE
  8
0
 10
-17.6289
 20
196.555
 11
-17.7893
 21
196.896
  0
LINE
  8
0
 10
-17.7893
 20
196.896
 11
-17.9057
 21
197.254
  0
LINE
  8
0
 10
-17.9057
 20
197.254
 11
-17.9763
 21
197.624
  0
LINE
  8
0
 10
-17.9763
 20
197.624
 11
-18
 21
198
  0
LINE
  8
0
 10
-18
 20
198
 11
-17.9763
 21
198.376
  0
LINE
  8
0
 10
-17.9763
 20
198.376
 11
-17.9057
 21
198.746
  0
LINE
  8
0
 10
-17.9057
 20
198.746
 11
-17.7893
 21
199.104
  0
LINE
  8
0
 10
-17.7893
 20
199.104
 11
-17.6289
 21
199.445
  0
LINE
  8
0
 10
-17.6289
 20
199.445
 11
-17.427
 21
199.763
  0
LINE
  8
0
 10
-17.427
 20
199.763
 11
-17.1869
 21
200.054
  0
LINE
  8
0
 10
-17.1869
 20
200.054
 11
-16.9123
 21
200.312
  0
LINE
  8
0
 10
-16.9123
 20
200.312
 11
-16.6075
 21
200.533
  0
LINE
  8
0
 10
-16.6075
 20
200.533
 11
-16.2773
 21
200.714
  0
LINE
  8
0
 10
-16.2773
 20
200.714
 11
-15.927
 21
200.853
  0
LINE
  8
0
 10
-15.927
 20
200.853
 11
-15.5621
 21
200.947
  0
LINE
  8
0
 10
-15.5621
 20
200.947
 11
-15.1884
 21
200.994
  0
LINE
  8
0
 10
-15.1884
 20
200.994
 11
-14.8116
 21
200.994
  0
LINE
  8
0
 10
-14.8116
 20
200.994
 11
-14.4379
 21
200.947
  0
LINE
  8
0
 10
-14.4379
 20
200.947
 11
-14.0729
 21
200.853
  0
LINE
  8
0
 10
-14.0729
 20
200.853
 11
-13.7227
 21
200.714
  0
LINE
  8
0
 10
-13.7227
 20
200.714
 11
-13.3925
 21
200.533
  0
LINE
  8
0
 10
-13.3925
 20
200.533
 11
-13.0877
 21
200.312
  0
LINE
  8
0
 10
-13.0877
 20
200.312
 11
-12.8131
 21
200.054
  0
LINE
  8
0
 10
-12.8131
 20
200.054
 11
-12.5729
 21
199.763
  0
LINE
  8
0
 10
-12.5729
 20
199.763
 11
-12.3711
 21
199.445
  0
LINE
  8
0
 10
-12.3711
 20
199.445
 11
-12.2107
 21
199.104
  0
LINE
  8
0
 10
-12.2107
 20
199.104
 11
-12.0942
 21
198.746
  0
LINE
  8
0
 10
-12.0942
 20
198.746
 11
-12.0237
 21
198.376
  0
LINE
  8
0
 10
-12.0237
 20
198.376
 11
-12
 21
198
  0
LINE
  8
0
 10
-12
 20
198
 11
-12.0237
 21
197.624
  0
LINE
  8
0
 10
-12.0237
 20
197.624
 11
-12.0942
 21
197.254
  0
LINE
  8
0
 10
-12.0942
 20
197.254
 11
-12.2107
 21
196.896
  0
LINE
  8
0
 10
-12.2107
 20
196.896
 11
-12.3711
 21
196.555
  0
LINE
  8
0
 10
-12.3711
 20
196.555
 11
-12.5729
 21
196.237
  0
LINE
  8
0
 10
-12.5729
 20
196.237
 11
-12.8131
 21
195.946
  0
LINE
  8
0
 10
-12.8131
 20
195.946
 11
-13.0877
 21
195.688
  0
LINE
  8
0
 10
-13.0877
 20
195.688
 11
-13.3925
 21
195.467
  0
LINE
  8
0
 10
-13.3925
 20
195.467
 11
-13.7227
 21
195.286
  0
LINE
  8
0
 10
-13.7227
 20
195.286
 11
-14.0729
 21
195.147
  0
LINE
  8
0
 10
-14.0729
 20
195.147
 11
-14.4379
 21
195.053
  0
LINE
  8
0
 10
-14.4379
 20
195.053
 11
-14.8116
 21
195.006
  0
LINE
  8
0
 10
-14.8116
 20
195.006
 11
-15.1884
 21
195.006
  0
LINE
  8
0
 10
14.8116
 20
195.006
 11
14.4379
 21
195.053
  0
LINE
  8
0
 10
14.4379
 20
195.053
 11
14.0729
 21
195.147
  0
LINE
  8
0
 10
14.0729
 20
195.147
 11
13.7227
 21
195.286
  0
LINE
  8
0
 10
13.7227
 20
195.286
 11
13.3925
 21
195.467
  0
LINE
  8
0
 10
13.3925
 20
195.467
 11
13.0877
 21
195.688
  0
LINE
  8
0
 10
13.0877
 20
195.688
 11
12.8131
 21
195.946
  0
LINE
  8
0
 10
12.8131
 20
195.946
 11
12.5729
 21
196.237
  0
LINE
  8
0
 10
12.5729
 20
196.237
 11
12.3711
 21
196.555
  0
LINE
  8
0
 10
12.3711
 20
196.555
 11
12.2107
 21
196.896
  0
LINE
  8
0
 10
12.2107
 20
196.896
 11
12.0942
 21
197.254
  0
LINE
  8
0
 10
12.0942
 20
197.254
 11
12.0237
 21
197.624
  0
LINE
  8
0
 10
12.0237
 20
197.624
 11
12
 21
198
  0
LINE
  8
0
 10
12
 20
198
 11
12.0237
 21
198.376
  0
LINE
  8
0
 10
12.0237
 20
198.376
 11
12.0942
 21
198.746
  0
LINE
  8
0
 10
12.0942
 20
198.746
 11
12.2107
 21
199.104
  0
LINE
  8
0
 10
12.2107
 20
199.104
 11
12.3711
 21
199.445
  0
LINE
  8
0
 10
12.3711
 20
199.445
 11
12.5729
 21
199.763
  0
LINE
  8
0
 10
12.5729
 20
199.763
 11
12.8131
 21
200.054
  0
LINE
  8
0
 10
12.8131
 20
200.054
 11
13.0877
 21
200.312
  0
LINE
  8
0
 10
13.0877
 20
200.312
 11
13.3925
 21
200.533
  0
LINE
  8
0
 10
13.3925
 20
200.533
 11
13.7227
 21
200.714
  0
LINE
  8
0
 10
13.7227
 20
200.714
 11
14.0729
 21
200.853
  0
LINE
  8
0
 10
14.0729
 20
200.853
 11
14.4379
 21
200.947
  0
LINE
  8
0
 10
14.4379
 20
200.947
 11
14.8116
 21
200.994
  0
LINE
  8
0
 10
14.8116
 20
200.994
 11
15.1884
 21
200.994
  0
LINE
  8
0
 10
15.1884
 20
200.994
 11
15.5621
 21
200.947
  0
LINE
  8
0
 10
15.5621
 20
200.947
 11
15.927
 21
200.853
  0
LINE
  8
0
 10
15.927
 20
200.853
 11
16.2773
 21
200.714
  0
LINE
  8
0
 10
16.2773
 20
200.714
 11
16.6075
 21
200.533
  0
LINE
  8
0
 10
16.6075
 20
200.533
 11
16.9123
 21
200.312
  0
LINE
  8
0
 10
16.9123
 20
200.312
 11
17.1869
 21
200.054
  0
LINE
  8
0
 10
17.1869
 20
200.054
 11
17.427
 21
199.763
  0
LINE
  8
0
 10
17.427
 20
199.763
 11
17.6289
 21
199.445
  0
LINE
  8
0
 10
17.6289
 20
199.445
 11
17.7893
 21
199.104
  0
LINE
  8
0
 10
17.7893
 20
199.104
 11
17.9057
 21
198.746
  0
LINE
  8
0
 10
17.9057
 20
198.746
 11
17.9763
 21
198.376
  0
LINE
  8
0
 10
17.9763
 20
198.376
 11
18
 21
198
  0
LINE
  8
0
 10
18
 20
198
 11
17.9763
 21
197.624
  0
LINE
  8
0
 10
17.9763
 20
197.624
 11
17.9057
 21
197.254
  0
LINE
  8
0
 10
17.9057
 20
197.254
 11
17.7893
 21
196.896
  0
LINE
  8
0
 10
17.7893
 20
196.896
 11
17.6289
 21
196.555
  0
LINE
  8
0
 10
17.6289
 20
196.555
 11
17.427
 21
196.237
  0
LINE
  8
0
 10
17.427
 20
196.237
 11
17.1869
 21
195.946
  0
LINE
  8
0
 10
17.1869
 20
195.946
 11
16.9123
 21
195.688
  0
LINE
  8
0
 10
16.9123
 20
195.688
 11
16.6075
 21
195.467
  0
LINE
  8
0
 10
16.6075
 20
195.467
 11
16.2773
 21
195.286
  0
LINE
  8
0
 10
16.2773
 20
195.286
 11
15.927
 21
195.147
  0
LINE
  8
0
 10
15.927
 20
195.147
 11
15.5621
 21
195.053
  0
LINE
  8
0
 10
15.5621
 20
195.053
 11
15.1884
 21
195.006
  0
LINE
  8
0
 10
15.1884
 20
195.006
 11
14.8116
 21
195.006
  0
LINE
  8
0
 10
-7.59418
 20
196.503
 11
-7.78107
 21
196.527
  0
LINE
  8
0
 10
-7.78107
 20
196.527
 11
-7.96352
 21
196.573
  0
LINE
  8
0
 10
-7.96352
 20
196.573
 11
-8.13866
 21
196.643
  0
LINE
  8
0
 10
-8.13866
 20
196.643
 11
-8.30373
 21
196.734
  0
LINE
  8
0
 10
-8.30373
 20
196.734
 11
-8.45613
 21
196.844
  0
LINE
  8
0
 10
-8.45613
 20
196.844
 11
-8.59344
 21
196.973
  0
LINE
  8
0
 10
-8.59344
 20
196.973
 11
-8.71352
 21
197.118
  0
LINE
  8
0
 10
-8.71352
 20
197.118
 11
-8.81445
 21
197.277
  0
LINE
  8
0
 10
-8.81445
 20
197.277
 11
-8.89465
 21
197.448
  0
LINE
  8
0
 10
-8.89465
 20
197.448
 11
-8.95287
 21
197.627
  0
LINE
  8
0
 10
-8.95287
 20
197.627
 11
-8.98816
 21
197.812
  0
LINE
  8
0
 10
-8.98816
 20
197.812
 11
-9
 21
198
  0
LINE
  8
0
 10
-9
 20
198
 11
-8.98816
 21
198.188
  0
LINE
  8
0
 10
-8.98816
 20
198.188
 11
-8.95287
 21
198.373
  0
LINE
  8
0
 10
-8.95287
 20
198.373
 11
-8.89465
 21
198.552
  0
LINE
  8
0
 10
-8.89465
 20
198.552
 11
-8.81445
 21
198.723
  0
LINE
  8
0
 10
-8.81445
 20
198.723
 11
-8.71352
 21
198.882
  0
LINE
  8
0
 10
-8.71352
 20
198.882
 11
-8.59344
 21
199.027
  0
LINE
  8
0
 10
-8.59344
 20
199.027
 11
-8.45613
 21
199.156
  0
LINE
  8
0
 10
-8.45613
 20
199.156
 11
-8.30373
 21
199.266
  0
LINE
  8
0
 10
-8.30373
 20
199.266
 11
-8.13866
 21
199.357
  0
LINE
  8
0
 10
-8.13866
 20
199.357
 11
-7.96352
 21
199.427
  0
LINE
  8
0
 10
-7.96352
 20
199.427
 11
-7.78107
 21
199.473
  0
LINE
  8
0
 10
-7.78107
 20
199.473
 11
-7.59418
 21
199.497
  0
LINE
  8
0
 10
-7.59418
 20
199.497
 11
-7.40581
 21
199.497
  0
LINE
  8
0
 10
-7.40581
 20
199.497
 11
-7.21892
 21
199.473
  0
LINE
  8
0
 10
-7.21892
 20
199.473
 11
-7.03647
 21
199.427
  0
LINE
  8
0
 10
-7.03647
 20
199.427
 11
-6.86133
 21
199.357
  0
LINE
  8
0
 10
-6.86133
 20
199.357
 11
-6.69626
 21
199.266
  0
LINE
  8
0
 10
-6.69626
 20
199.266
 11
-6.54385
 21
199.156
  0
LINE
  8
0
 10
-6.54385
 20
199.156
 11
-6.40654
 21
199.027
  0
LINE
  8
0
 10
-6.40654
 20
199.027
 11
-6.28647
 21
198.882
  0
LINE
  8
0
 10
-6.28647
 20
198.882
 11
-6.18553
 21
198.723
  0
LINE
  8
0
 10
-6.18553
 20
198.723
 11
-6.10533
 21
198.552
  0
LINE
  8
0
 10
-6.10533
 20
198.552
 11
-6.04712
 21
198.373
  0
LINE
  8
0
 10
-6.04712
 20
198.373
 11
-6.01183
 21
198.188
  0
LINE
  8
0
 10
-6.01183
 20
198.188
 11
-6
 21
198
  0
LINE
  8
0
 10
-6
 20
198
 11
-6.01183
 21
197.812
  0
LINE
  8
0
 10
-6.01183
 20
197.812
 11
-6.04712
 21
197.627
  0
LINE
  8
0
 10
-6.04712
 20
197.627
 11
-6.10533
 21
197.448
  0
LINE
  8
0
 10
-6.10533
 20
197.448
 11
-6.18553
 21
197.277
  0
LINE
  8
0
 10
-6.18553
 20
197.277
 11
-6.28647
 21
197.118
  0
LINE
  8
0
 10
-6.28647
 20
197.118
 11
-6.40654
 21
196.973
  0
LINE
  8
0
 10
-6.40654
 20
196.973
 11
-6.54385
 21
196.844
  0
LINE
  8
0
 10
-6.54385
 20
196.844
 11
-6.69626
 21
196.734
  0
LINE
  8
0
 10
-6.69626
 20
196.734
 11
-6.86133
 21
196.643
  0
LINE
  8
0
 10
-6.86133
 20
196.643
 11
-7.03647
 21
196.573
  0
LINE
  8
0
 10
-7.03647
 20
196.573
 11
-7.21892
 21
196.527
  0
LINE
  8
0
 10
-7.21892
 20
196.527
 11
-7.40581
 21
196.503
  0
LINE
  8
0
 10
-7.40581
 20
196.503
 11
-7.59418
 21
196.503
  0
LINE
  8
0
 10
7.40581
 20
196.503
 11
7.21892
 21
196.527
  0
LINE
  8
0
 10
7.21892
 20
196.527
 11
7.03647
 21
196.573
  0
LINE
  8
0
 10
7.03647
 20
196.573
 11
6.86133
 21
196.643
  0
LINE
  8
0
 10
6.86133
 20
196.643
 11
6.69626
 21
196.734
  0
LINE
  8
0
 10
6.69626
 20
196.734
 11
6.54385
 21
196.844
  0
LINE
  8
0
 10
6.54385
 20
196.844
 11
6.40654
 21
196.973
  0
LINE
  8
0
 10
6.40654
 20
196.973
 11
6.28647
 21
197.118
  0
LINE
  8
0
 10
6.28647
 20
197.118
 11
6.18553
 21
197.277
  0
LINE
  8
0
 10
6.18553
 20
197.277
 11
6.10533
 21
197.448
  0
LINE
  8
0
 10
6.10533
 20
197.448
 11
6.04712
 21
197.627
  0
LINE
  8
0
 10
6.04712
 20
197.627
 11
6.01183
 21
197.812
  0
LINE
  8
0
 10
6.01183
 20
197.812
 11
6
 21
198
  0
LINE
  8
0
 10
6
 20
198
 11
6.01183
 21
198.188
  0
LINE
  8
0
 10
6.01183
 20
198.188
 11
6.04712
 21
198.373
  0
LINE
  8
0
 10
6.04712
 20
198.373
 11
6.10533
 21
198.552
  0
LINE
  8
0
 10
6.10533
 20
198.552
 11
6.18553
 21
198.723
  0
LINE
  8
0
 10
6.18553
 20
198.723
 11
6.28647
 21
198.882
  0
LINE
  8
0
 10
6.28647
 20
198.882
 11
6.40654
 21
199.027
  0
LINE
  8
0
 10
6.40654
 20
199.027
 11
6.54385
 21
199.156
  0
LINE
  8
0
 10
6.54385
 20
199.156
 11
6.69626
 21
199.266
  0
LINE
  8
0
 10
6.69626
 20
199.266
 11
6.86133
 21
199.357
  0
LINE
  8
0
 10
6.86133
 20
199.357
 11
7.03647
 21
199.427
  0
LINE
  8
0
 10
7.03647
 20
199.427
 11
7.21892
 21
199.473
  0
LINE
  8
0
 10
7.21892
 20
199.473
 11
7.40581
 21
199.497
  0
LINE
  8
0
 10
7.40581
 20
199.497
 11
7.59418
 21
199.497
  0
LINE
  8
0
 10
7.59418
 20
199.497
 11
7.78107
 21
199.473
  0
LINE
  8
0
 10
7.78107
 20
199.473
 11
7.96352
 21
199.427
  0
LINE
  8
0
 10
7.96352
 20
199.427
 11
8.13866
 21
199.357
  0
LINE
  8
0
 10
8.13866
 20
199.357
 11
8.30373
 21
199.266
  0
LINE
  8
0
 10
8.30373
 20
199.266
 11
8.45613
 21
199.156
  0
LINE
  8
0
 10
8.45613
 20
199.156
 11
8.59344
 21
199.027
  0
LINE
  8
0
 10
8.59344
 20
199.027
 11
8.71352
 21
198.882
  0
LINE
  8
0
 10
8.71352
 20
198.882
 11
8.81445
 21
198.723
  0
LINE
  8
0
 10
8.81445
 20
198.723
 11
8.89465
 21
198.552
  0
LINE
  8
0
 10
8.89465
 20
198.552
 11
8.95287
 21
198.373
  0
LINE
  8
0
 10
8.95287
 20
198.373
 11
8.98816
 21
198.188
  0
LINE
  8
0
 10
8.98816
 20
198.188
 11
9
 21
198
  0
LINE
  8
0
 10
9
 20
198
 11
8.98816
 21
197.812
  0
LINE
  8
0
 10
8.98816
 20
197.812
 11
8.95287
 21
197.627
  0
LINE
  8
0
 10
8.95287
 20
197.627
 11
8.89465
 21
197.448
  0
LINE
  8
0
 10
8.89465
 20
197.448
 11
8.81445
 21
197.277
  0
LINE
  8
0
 10
8.81445
 20
197.277
 11
8.71352
 21
197.118
  0
LINE
  8
0
 10
8.71352
 20
197.118
 11
8.59344
 21
196.973
  0
LINE
  8
0
 10
8.59344
 20
196.973
 11
8.45613
 21
196.844
  0
LINE
  8
0
 10
8.45613
 20
196.844
 11
8.30373
 21
196.734
  0
LINE
  8
0
 10
8.30373
 20
196.734
 11
8.13866
 21
196.643
  0
LINE
  8
0
 10
8.13866
 20
196.643
 11
7.96352
 21
196.573
  0
LINE
  8
0
 10
7.96352
 20
196.573
 11
7.78107
 21
196.527
  0
LINE
  8
0
 10
7.78107
 20
196.527
 11
7.59418
 21
196.503
  0
LINE
  8
0
 10
7.59418
 20
196.503
 11
7.40581
 21
196.503
  0
LINE
  8
0
 10
-15.0942
 20
189.003
 11
-15.2811
 21
189.027
  0
LINE
  8
0
 10
-15.2811
 20
189.027
 11
-15.4635
 21
189.073
  0
LINE
  8
0
 10
-15.4635
 20
189.073
 11
-15.6387
 21
189.143
  0
LINE
  8
0
 10
-15.6387
 20
189.143
 11
-15.8037
 21
189.234
  0
LINE
  8
0
 10
-15.8037
 20
189.234
 11
-15.9561
 21
189.344
  0
LINE
  8
0
 10
-15.9561
 20
189.344
 11
-16.0934
 21
189.473
  0
LINE
  8
0
 10
-16.0934
 20
189.473
 11
-16.2135
 21
189.618
  0
LINE
  8
0
 10
-16.2135
 20
189.618
 11
-16.3145
 21
189.777
  0
LINE
  8
0
 10
-16.3145
 20
189.777
 11
-16.3947
 21
189.948
  0
LINE
  8
0
 10
-16.3947
 20
189.948
 11
-16.4529
 21
190.127
  0
LINE
  8
0
 10
-16.4529
 20
190.127
 11
-16.4882
 21
190.312
  0
LINE
  8
0
 10
-16.4882
 20
190.312
 11
-16.5
 21
190.5
  0
LINE
  8
0
 10
-16.5
 20
190.5
 11
-16.4882
 21
190.688
  0
LINE
  8
0
 10
-16.4882
 20
190.688
 11
-16.4529
 21
190.873
  0
LINE
  8
0
 10
-16.4529
 20
190.873
 11
-16.3947
 21
191.052
  0
LINE
  8
0
 10
-16.3947
 20
191.052
 11
-16.3145
 21
191.223
  0
LINE
  8
0
 10
-16.3145
 20
191.223
 11
-16.2135
 21
191.382
  0
LINE
  8
0
 10
-16.2135
 20
191.382
 11
-16.0934
 21
191.527
  0
LINE
  8
0
 10
-16.0934
 20
191.527
 11
-15.9561
 21
191.656
  0
LINE
  8
0
 10
-15.9561
 20
191.656
 11
-15.8037
 21
191.766
  0
LINE
  8
0
 10
-15.8037
 20
191.766
 11
-15.6387
 21
191.857
  0
LINE
  8
0
 10
-15.6387
 20
191.857
 11
-15.4635
 21
191.927
  0
LINE
  8
0
 10
-15.4635
 20
191.927
 11
-15.2811
 21
191.973
  0
LINE
  8
0
 10
-15.2811
 20
191.973
 11
-15.0942
 21
191.997
  0
LINE
  8
0
 10
-15.0942
 20
191.997
 11
-14.9058
 21
191.997
  0
LINE
  8
0
 10
-14.9058
 20
191.997
 11
-14.7189
 21
191.973
  0
LINE
  8
0
 10
-14.7189
 20
191.973
 11
-14.5365
 21
191.927
  0
LINE
  8
0
 10
-14.5365
 20
191.927
 11
-14.3613
 21
191.857
  0
LINE
  8
0
 10
-14.3613
 20
191.857
 11
-14.1963
 21
191.766
  0
LINE
  8
0
 10
-14.1963
 20
191.766
 11
-14.0439
 21
191.656
  0
LINE
  8
0
 10
-14.0439
 20
191.656
 11
-13.9065
 21
191.527
  0
LINE
  8
0
 10
-13.9065
 20
191.527
 11
-13.7865
 21
191.382
  0
LINE
  8
0
 10
-13.7865
 20
191.382
 11
-13.6855
 21
191.223
  0
LINE
  8
0
 10
-13.6855
 20
191.223
 11
-13.6053
 21
191.052
  0
LINE
  8
0
 10
-13.6053
 20
191.052
 11
-13.5471
 21
190.873
  0
LINE
  8
0
 10
-13.5471
 20
190.873
 11
-13.5118
 21
190.688
  0
LINE
  8
0
 10
-13.5118
 20
190.688
 11
-13.5
 21
190.5
  0
LINE
  8
0
 10
-13.5
 20
190.5
 11
-13.5118
 21
190.312
  0
LINE
  8
0
 10
-13.5118
 20
190.312
 11
-13.5471
 21
190.127
  0
LINE
  8
0
 10
-13.5471
 20
190.127
 11
-13.6053
 21
189.948
  0
LINE
  8
0
 10
-13.6053
 20
189.948
 11
-13.6855
 21
189.777
  0
LINE
  8
0
 10
-13.6855
 20
189.777
 11
-13.7865
 21
189.618
  0
LINE
  8
0
 10
-13.7865
 20
189.618
 11
-13.9065
 21
189.473
  0
LINE
  8
0
 10
-13.9065
 20
189.473
 11
-14.0439
 21
189.344
  0
LINE
  8
0
 10
-14.0439
 20
189.344
 11
-14.1963
 21
189.234
  0
LINE
  8
0
 10
-14.1963
 20
189.234
 11
-14.3613
 21
189.143
  0
LINE
  8
0
 10
-14.3613
 20
189.143
 11
-14.5365
 21
189.073
  0
LINE
  8
0
 10
-14.5365
 20
189.073
 11
-14.7189
 21
189.027
  0
LINE
  8
0
 10
-14.7189
 20
189.027
 11
-14.9058
 21
189.003
  0
LINE
  8
0
 10
-14.9058
 20
189.003
 11
-15.0942
 21
189.003
  0
LINE
  8
0
 10
14.9058
 20
189.003
 11
14.7189
 21
189.027
  0
LINE
  8
0
 10
14.7189
 20
189.027
 11
14.5365
 21
189.073
  0
LINE
  8
0
 10
14.5365
 20
189.073
 11
14.3613
 21
189.143
  0
LINE
  8
0
 10
14.3613
 20
189.143
 11
14.1963
 21
189.234
  0
LINE
  8
0
 10
14.1963
 20
189.234
 11
14.0439
 21
189.344
  0
LINE
  8
0
 10
14.0439
 20
189.344
 11
13.9065
 21
189.473
  0
LINE
  8
0
 10
13.9065
 20
189.473
 11
13.7865
 21
189.618
  0
LINE
  8
0
 10
13.7865
 20
189.618
 11
13.6855
 21
189.777
  0
LINE
  8
0
 10
13.6855
 20
189.777
 11
13.6053
 21
189.948
  0
LINE
  8
0
 10
13.6053
 20
189.948
 11
13.5471
 21
190.127
  0
LINE
  8
0
 10
13.5471
 20
190.127
 11
13.5118
 21
190.312
  0
LINE
  8
0
 10
13.5118
 20
190.312
 11
13.5
 21
190.5
  0
LINE
  8
0
 10
13.5
 20
190.5
 11
13.5118
 21
190.688
  0
LINE
  8
0
 10
13.5118
 20
190.688
 11
13.5471
 21
190.873
  0
LINE
  8
0
 10
13.5471
 20
190.873
 11
13.6053
 21
191.052
  0
LINE
  8
0
 10
13.6053
 20
191.052
 11
13.6855
 21
191.223
  0
LINE
  8
0
 10
13.6855
 20
191.223
 11
13.7865
 21
191.382
  0
LINE
  8
0
 10
13.7865
 20
191.382
 11
13.9065
 21
191.527
  0
LINE
  8
0
 10
13.9065
 20
191.527
 11
14.0439
 21
191.656
  0
LINE
  8
0
 10
14.0439
 20
191.656
 11
14.1963
 21
191.766
  0
LINE
  8
0
 10
14.1963
 20
191.766
 11
14.3613
 21
191.857
  0
LINE
  8
0
 10
14.3613
 20
191.857
 11
14.5365
 21
191.927
  0
LINE
  8
0
 10
14.5365
 20
191.927
 11
14.7189
 21
191.973
  0
LINE
  8
0
 10
14.7189
 20
191.973
 11
14.9058
 21
191.997
  0
LINE
  8
0
 10
14.9058
 20
191.997
 11
15.0942
 21
191.997
  0
LINE
  8
0
 10
15.0942
 20
191.997
 11
15.2811
 21
191.973
  0
LINE
  8
0
 10
15.2811
 20
191.973
 11
15.4635
 21
191.927
  0
LINE
  8
0
 10
15.4635
 20
191.927
 11
15.6387
 21
191.857
  0
LINE
  8
0
 10
15.6387
 20
191.857
 11
15.8037
 21
191.766
  0
LINE
  8
0
 10
15.8037
 20
191.766
 11
15.9561
 21
191.656
  0
LINE
  8
0
 10
15.9561
 20
191.656
 11
16.0934
 21
191.527
  0
LINE
  8
0
 10
16.0934
 20
191.527
 11
16.2135
 21
191.382
  0
LINE
  8
0
 10
16.2135
 20
191.382
 11
16.3145
 21
191.223
  0
LINE
  8
0
 10
16.3145
 20
191.223
 11
16.3947
 21
191.052
  0
LINE
  8
0
 10
16.3947
 20
191.052
 11
16.4529
 21
190.873
  0
LINE
  8
0
 10
16.4529
 20
190.873
 11
16.4882
 21
190.688
  0
LINE
  8
0
 10
16.4882
 20
190.688
 11
16.5
 21
190.5
  0
LINE
  8
0
 10
16.5
 20
190.5
 11
16.4882
 21
190.312
  0
LINE
  8
0
 10
16.4882
 20
190.312
 11
16.4529
 21
190.127
  0
LINE
  8
0
 10
16.4529
 20
190.127
 11
16.3947
 21
189.948
  0
LINE
  8
0
 10
16.3947
 20
189.948
 11
16.3145
 21
189.777
  0
LINE
  8
0
 10
16.3145
 20
189.777
 11
16.2135
 21
189.618
  0
LINE
  8
0
 10
16.2135
 20
189.618
 11
16.0934
 21
189.473
  0
LINE
  8
0
 10
16.0934
 20
189.473
 11
15.9561
 21
189.344
  0
LINE
  8
0
 10
15.9561
 20
189.344
 11
15.8037
 21
189.234
  0
LINE
  8
0
 10
15.8037
 20
189.234
 11
15.6387
 21
189.143
  0
LINE
  8
0
 10
15.6387
 20
189.143
 11
15.4635
 21
189.073
  0
LINE
  8
0
 10
15.4635
 20
189.073
 11
15.2811
 21
189.027
  0
LINE
  8
0
 10
15.2811
 20
189.027
 11
15.0942
 21
189.003
  0
LINE
  8
0
 10
15.0942
 20
189.003
 11
14.9058
 21
189.003
  0
LINE
  8
0
 10
7.56348
 20
187.422
 11
7.45135
 21
187.436
  0
LINE
  8
0
 10
7.45135
 20
187.436
 11
7.34187
 21
187.464
  0
LINE
  8
0
 10
7.34187
 20
187.464
 11
7.23679
 21
187.506
  0
LINE
  8
0
 10
7.23679
 20
187.506
 11
7.13776
 21
187.56
  0
LINE
  8
0
 10
7.13776
 20
187.56
 11
7.04631
 21
187.627
  0
LINE
  8
0
 10
7.04631
 20
187.627
 11
6.96393
 21
187.704
  0
LINE
  8
0
 10
6.96393
 20
187.704
 11
6.89188
 21
187.791
  0
LINE
  8
0
 10
6.89188
 20
187.791
 11
6.83131
 21
187.886
  0
LINE
  8
0
 10
6.83131
 20
187.886
 11
6.78319
 21
187.989
  0
LINE
  8
0
 10
6.78319
 20
187.989
 11
6.74828
 21
188.096
  0
LINE
  8
0
 10
6.74828
 20
188.096
 11
6.7271
 21
188.207
  0
LINE
  8
0
 10
6.7271
 20
188.207
 11
6.71999
 21
188.32
  0
LINE
  8
0
 10
6.71999
 20
188.32
 11
6.7271
 21
188.433
  0
LINE
  8
0
 10
6.7271
 20
188.433
 11
6.74828
 21
188.544
  0
LINE
  8
0
 10
6.74828
 20
188.544
 11
6.78319
 21
188.651
  0
LINE
  8
0
 10
6.78319
 20
188.651
 11
6.83131
 21
188.754
  0
LINE
  8
0
 10
6.83131
 20
188.754
 11
6.89188
 21
188.849
  0
LINE
  8
0
 10
6.89188
 20
188.849
 11
6.96393
 21
188.936
  0
LINE
  8
0
 10
6.96393
 20
188.936
 11
7.04631
 21
189.013
  0
LINE
  8
0
 10
7.04631
 20
189.013
 11
7.13776
 21
189.08
  0
LINE
  8
0
 10
7.13776
 20
189.08
 11
7.23679
 21
189.134
  0
LINE
  8
0
 10
7.23679
 20
189.134
 11
7.34187
 21
189.176
  0
LINE
  8
0
 10
7.34187
 20
189.176
 11
7.45135
 21
189.204
  0
LINE
  8
0
 10
7.45135
 20
189.204
 11
7.56348
 21
189.218
  0
LINE
  8
0
 10
7.56348
 20
189.218
 11
7.6765
 21
189.218
  0
LINE
  8
0
 10
7.6765
 20
189.218
 11
7.78864
 21
189.204
  0
LINE
  8
0
 10
7.78864
 20
189.204
 11
7.8981
 21
189.176
  0
LINE
  8
0
 10
7.8981
 20
189.176
 11
8.00319
 21
189.134
  0
LINE
  8
0
 10
8.00319
 20
189.134
 11
8.10223
 21
189.08
  0
LINE
  8
0
 10
8.10223
 20
189.08
 11
8.19368
 21
189.013
  0
LINE
  8
0
 10
8.19368
 20
189.013
 11
8.27606
 21
188.936
  0
LINE
  8
0
 10
8.27606
 20
188.936
 11
8.34811
 21
188.849
  0
LINE
  8
0
 10
8.34811
 20
188.849
 11
8.40866
 21
188.754
  0
LINE
  8
0
 10
8.40866
 20
188.754
 11
8.45679
 21
188.651
  0
LINE
  8
0
 10
8.45679
 20
188.651
 11
8.49171
 21
188.544
  0
LINE
  8
0
 10
8.49171
 20
188.544
 11
8.51289
 21
188.433
  0
LINE
  8
0
 10
8.51289
 20
188.433
 11
8.51999
 21
188.32
  0
LINE
  8
0
 10
8.51999
 20
188.32
 11
8.51289
 21
188.207
  0
LINE
  8
0
 10
8.51289
 20
188.207
 11
8.49171
 21
188.096
  0
LINE
  8
0
 10
8.49171
 20
188.096
 11
8.45679
 21
187.989
  0
LINE
  8
0
 10
8.45679
 20
187.989
 11
8.40866
 21
187.886
  0
LINE
  8
0
 10
8.40866
 20
187.886
 11
8.34811
 21
187.791
  0
LINE
  8
0
 10
8.34811
 20
187.791
 11
8.27606
 21
187.704
  0
LINE
  8
0
 10
8.27606
 20
187.704
 11
8.19368
 21
187.627
  0
LINE
  8
0
 10
8.19368
 20
187.627
 11
8.10223
 21
187.56
  0
LINE
  8
0
 10
8.10223
 20
187.56
 11
8.00319
 21
187.506
  0
LINE
  8
0
 10
8.00319
 20
187.506
 11
7.8981
 21
187.464
  0
LINE
  8
0
 10
7.8981
 20
187.464
 11
7.78864
 21
187.436
  0
LINE
  8
0
 10
7.78864
 20
187.436
 11
7.6765
 21
187.422
  0
LINE
  8
0
 10
7.6765
 20
187.422
 11
7.56348
 21
187.422
  0
LINE
  8
0
 10
-7.6765
 20
187.422
 11
-7.78864
 21
187.436
  0
LINE
  8
0
 10
-7.78864
 20
187.436
 11
-7.8981
 21
187.464
  0
LINE
  8
0
 10
-7.8981
 20
187.464
 11
-8.00319
 21
187.506
  0
LINE
  8
0
 10
-8.00319
 20
187.506
 11
-8.10223
 21
187.56
  0
LINE
  8
0
 10
-8.10223
 20
187.56
 11
-8.19368
 21
187.627
  0
LINE
  8
0
 10
-8.19368
 20
187.627
 11
-8.27606
 21
187.704
  0
LINE
  8
0
 10
-8.27606
 20
187.704
 11
-8.34811
 21
187.791
  0
LINE
  8
0
 10
-8.34811
 20
187.791
 11
-8.40866
 21
187.886
  0
LINE
  8
0
 10
-8.40866
 20
187.886
 11
-8.45679
 21
187.989
  0
LINE
  8
0
 10
-8.45679
 20
187.989
 11
-8.49171
 21
188.096
  0
LINE
  8
0
 10
-8.49171
 20
188.096
 11
-8.51289
 21
188.207
  0
LINE
  8
0
 10
-8.51289
 20
188.207
 11
-8.51999
 21
188.32
  0
LINE
  8
0
 10
-8.51999
 20
188.32
 11
-8.51289
 21
188.433
  0
LINE
  8
0
 10
-8.51289
 20
188.433
 11
-8.49171
 21
188.544
  0
LINE
  8
0
 10
-8.49171
 20
188.544
 11
-8.45679
 21
188.651
  0
LINE
  8
0
 10
-8.45679
 20
188.651
 11
-8.40866
 21
188.754
  0
LINE
  8
0
 10
-8.40866
 20
188.754
 11
-8.34811
 21
188.849
  0
LINE
  8
0
 10
-8.34811
 20
188.849
 11
-8.27606
 21
188.936
  0
LINE
  8
0
 10
-8.27606
 20
188.936
 11
-8.19368
 21
189.013
  0
LINE
  8
0
 10
-8.19368
 20
189.013
 11
-8.10223
 21
189.08
  0
LINE
  8
0
 10
-8.10223
 20
189.08
 11
-8.00319
 21
189.134
  0
LINE
  8
0
 10
-8.00319
 20
189.134
 11
-7.8981
 21
189.176
  0
LINE
  8
0
 10
-7.8981
 20
189.176
 11
-7.78864
 21
189.204
  0
LINE
  8
0
 10
-7.78864
 20
189.204
 11
-7.6765
 21
189.218
  0
LINE
  8
0
 10
-7.6765
 20
189.218
 11
-7.56348
 21
189.218
  0
LINE
  8
0
 10
-7.56348
 20
189.218
 11
-7.45135
 21
189.204
  0
LINE
  8
0
 10
-7.45135
 20
189.204
 11
-7.34187
 21
189.176
  0
LINE
  8
0
 10
-7.34187
 20
189.176
 11
-7.23679
 21
189.134
  0
LINE
  8
0
 10
-7.23679
 20
189.134
 11
-7.13776
 21
189.08
  0
LINE
  8
0
 10
-7.13776
 20
189.08
 11
-7.04631
 21
189.013
  0
LINE
  8
0
 10
-7.04631
 20
189.013
 11
-6.96393
 21
188.936
  0
LINE
  8
0
 10
-6.96393
 20
188.936
 11
-6.89188
 21
188.849
  0
LINE
  8
0
 10
-6.89188
 20
188.849
 11
-6.83131
 21
188.754
  0
LINE
  8
0
 10
-6.83131
 20
188.754
 11
-6.78319
 21
188.651
  0
LINE
  8
0
 10
-6.78319
 20
188.651
 11
-6.74828
 21
188.544
  0
LINE
  8
0
 10
-6.74828
 20
188.544
 11
-6.7271
 21
188.433
  0
LINE
  8
0
 10
-6.7271
 20
188.433
 11
-6.71999
 21
188.32
  0
LINE
  8
0
 10
-6.71999
 20
188.32
 11
-6.7271
 21
188.207
  0
LINE
  8
0
 10
-6.7271
 20
188.207
 11
-6.74828
 21
188.096
  0
LINE
  8
0
 10
-6.74828
 20
188.096
 11
-6.78319
 21
187.989
  0
LINE
  8
0
 10
-6.78319
 20
187.989
 11
-6.83131
 21
187.886
  0
LINE
  8
0
 10
-6.83131
 20
187.886
 11
-6.89188
 21
187.791
  0
LINE
  8
0
 10
-6.89188
 20
187.791
 11
-6.96393
 21
187.704
  0
LINE
  8
0
 10
-6.96393
 20
187.704
 11
-7.04631
 21
187.627
  0
LINE
  8
0
 10
-7.04631
 20
187.627
 11
-7.13776
 21
187.56
  0
LINE
  8
0
 10
-7.13776
 20
187.56
 11
-7.23679
 21
187.506
  0
LINE
  8
0
 10
-7.23679
 20
187.506
 11
-7.34187
 21
187.464
  0
LINE
  8
0
 10
-7.34187
 20
187.464
 11
-7.45135
 21
187.436
  0
LINE
  8
0
 10
-7.45135
 20
187.436
 11
-7.56348
 21
187.422
  0
LINE
  8
0
 10
-7.56348
 20
187.422
 11
-7.6765
 21
187.422
  0
LINE
  8
0
 10
-15.1884
 20
180.006
 11
-15.5621
 21
180.053
  0
LINE
  8
0
 10
-15.5621
 20
180.053
 11
-15.927
 21
180.147
  0
LINE
  8
0
 10
-15.927
 20
180.147
 11
-16.2773
 21
180.286
  0
LINE
  8
0
 10
-16.2773
 20
180.286
 11
-16.6075
 21
180.467
  0
LINE
  8
0
 10
-16.6075
 20
180.467
 11
-16.9123
 21
180.688
  0
LINE
  8
0
 10
-16.9123
 20
180.688
 11
-17.1869
 21
180.946
  0
LINE
  8
0
 10
-17.1869
 20
180.946
 11
-17.427
 21
181.237
  0
LINE
  8
0
 10
-17.427
 20
181.237
 11
-17.6289
 21
181.555
  0
LINE
  8
0
 10
-17.6289
 20
181.555
 11
-17.7893
 21
181.896
  0
LINE
  8
0
 10
-17.7893
 20
181.896
 11
-17.9057
 21
182.254
  0
LINE
  8
0
 10
-17.9057
 20
182.254
 11
-17.9763
 21
182.624
  0
LINE
  8
0
 10
-17.9763
 20
182.624
 11
-18
 21
183
  0
LINE
  8
0
 10
-18
 20
183
 11
-17.9763
 21
183.376
  0
LINE
  8
0
 10
-17.9763
 20
183.376
 11
-17.9057
 21
183.746
  0
LINE
  8
0
 10
-17.9057
 20
183.746
 11
-17.7893
 21
184.104
  0
LINE
  8
0
 10
-17.7893
 20
184.104
 11
-17.6289
 21
184.445
  0
LINE
  8
0
 10
-17.6289
 20
184.445
 11
-17.427
 21
184.763
  0
LINE
  8
0
 10
-17.427
 20
184.763
 11
-17.1869
 21
185.054
  0
LINE
  8
0
 10
-17.1869
 20
185.054
 11
-16.9123
 21
185.312
  0
LINE
  8
0
 10
-16.9123
 20
185.312
 11
-16.6075
 21
185.533
  0
LINE
  8
0
 10
-16.6075
 20
185.533
 11
-16.2773
 21
185.714
  0
LINE
  8
0
 10
-16.2773
 20
185.714
 11
-15.927
 21
185.853
  0
LINE
  8
0
 10
-15.927
 20
185.853
 11
-15.5621
 21
185.947
  0
LINE
  8
0
 10
-15.5621
 20
185.947
 11
-15.1884
 21
185.994
  0
LINE
  8
0
 10
-15.1884
 20
185.994
 11
-14.8116
 21
185.994
  0
LINE
  8
0
 10
-14.8116
 20
185.994
 11
-14.4379
 21
185.947
  0
LINE
  8
0
 10
-14.4379
 20
185.947
 11
-14.0729
 21
185.853
  0
LINE
  8
0
 10
-14.0729
 20
185.853
 11
-13.7227
 21
185.714
  0
LINE
  8
0
 10
-13.7227
 20
185.714
 11
-13.3925
 21
185.533
  0
LINE
  8
0
 10
-13.3925
 20
185.533
 11
-13.0877
 21
185.312
  0
LINE
  8
0
 10
-13.0877
 20
185.312
 11
-12.8131
 21
185.054
  0
LINE
  8
0
 10
-12.8131
 20
185.054
 11
-12.5729
 21
184.763
  0
LINE
  8
0
 10
-12.5729
 20
184.763
 11
-12.3711
 21
184.445
  0
LINE
  8
0
 10
-12.3711
 20
184.445
 11
-12.2107
 21
184.104
  0
LINE
  8
0
 10
-12.2107
 20
184.104
 11
-12.0942
 21
183.746
  0
LINE
  8
0
 10
-12.0942
 20
183.746
 11
-12.0237
 21
183.376
  0
LINE
  8
0
 10
-12.0237
 20
183.376
 11
-12
 21
183
  0
LINE
  8
0
 10
-12
 20
183
 11
-12.0237
 21
182.624
  0
LINE
  8
0
 10
-12.0237
 20
182.624
 11
-12.0942
 21
182.254
  0
LINE
  8
0
 10
-12.0942
 20
182.254
 11
-12.2107
 21
181.896
  0
LINE
  8
0
 10
-12.2107
 20
181.896
 11
-12.3711
 21
181.555
  0
LINE
  8
0
 10
-12.3711
 20
181.555
 11
-12.5729
 21
181.237
  0
LINE
  8
0
 10
-12.5729
 20
181.237
 11
-12.8131
 21
180.946
  0
LINE
  8
0
 10
-12.8131
 20
180.946
 11
-13.0877
 21
180.688
  0
LINE
  8
0
 10
-13.0877
 20
180.688
 11
-13.3925
 21
180.467
  0
LINE
  8
0
 10
-13.3925
 20
180.467
 11
-13.7227
 21
180.286
  0
LINE
  8
0
 10
-13.7227
 20
180.286
 11
-14.0729
 21
180.147
  0
LINE
  8
0
 10
-14.0729
 20
180.147
 11
-14.4379
 21
180.053
  0
LINE
  8
0
 10
-14.4379
 20
180.053
 11
-14.8116
 21
180.006
  0
LINE
  8
0
 10
-14.8116
 20
180.006
 11
-15.1884
 21
180.006
  0
LINE
  8
0
 10
14.8116
 20
180.006
 11
14.4379
 21
180.053
  0
LINE
  8
0
 10
14.4379
 20
180.053
 11
14.0729
 21
180.147
  0
LINE
  8
0
 10
14.0729
 20
180.147
 11
13.7227
 21
180.286
  0
LINE
  8
0
 10
13.7227
 20
180.286
 11
13.3925
 21
180.467
  0
LINE
  8
0
 10
13.3925
 20
180.467
 11
13.0877
 21
180.688
  0
LINE
  8
0
 10
13.0877
 20
180.688
 11
12.8131
 21
180.946
  0
LINE
  8
0
 10
12.8131
 20
180.946
 11
12.5729
 21
181.237
  0
LINE
  8
0
 10
12.5729
 20
181.237
 11
12.3711
 21
181.555
  0
LINE
  8
0
 10
12.3711
 20
181.555
 11
12.2107
 21
181.896
  0
LINE
  8
0
 10
12.2107
 20
181.896
 11
12.0942
 21
182.254
  0
LINE
  8
0
 10
12.0942
 20
182.254
 11
12.0237
 21
182.624
  0
LINE
  8
0
 10
12.0237
 20
182.624
 11
12
 21
183
  0
LINE
  8
0
 10
12
 20
183
 11
12.0237
 21
183.376
  0
LINE
  8
0
 10
12.0237
 20
183.376
 11
12.0942
 21
183.746
  0
LINE
  8
0
 10
12.0942
 20
183.746
 11
12.2107
 21
184.104
  0
LINE
  8
0
 10
12.2107
 20
184.104
 11
12.3711
 21
184.445
  0
LINE
  8
0
 10
12.3711
 20
184.445
 11
12.5729
 21
184.763
  0
LINE
  8
0
 10
12.5729
 20
184.763
 11
12.8131
 21
185.054
  0
LINE
  8
0
 10
12.8131
 20
185.054
 11
13.0877
 21
185.312
  0
LINE
  8
0
 10
13.0877
 20
185.312
 11
13.3925
 21
185.533
  0
LINE
  8
0
 10
13.3925
 20
185.533
 11
13.7227
 21
185.714
  0
LINE
  8
0
 10
13.7227
 20
185.714
 11
14.0729
 21
185.853
  0
LINE
  8
0
 10
14.0729
 20
185.853
 11
14.4379
 21
185.947
  0
LINE
  8
0
 10
14.4379
 20
185.947
 11
14.8116
 21
185.994
  0
LINE
  8
0
 10
14.8116
 20
185.994
 11
15.1884
 21
185.994
  0
LINE
  8
0
 10
15.1884
 20
185.994
 11
15.5621
 21
185.947
  0
LINE
  8
0
 10
15.5621
 20
185.947
 11
15.927
 21
185.853
  0
LINE
  8
0
 10
15.927
 20
185.853
 11
16.2773
 21
185.714
  0
LINE
  8
0
 10
16.2773
 20
185.714
 11
16.6075
 21
185.533
  0
LINE
  8
0
 10
16.6075
 20
185.533
 11
16.9123
 21
185.312
  0
LINE
  8
0
 10
16.9123
 20
185.312
 11
17.1869
 21
185.054
  0
LINE
  8
0
 10
17.1869
 20
185.054
 11
17.427
 21
184.763
  0
LINE
  8
0
 10
17.427
 20
184.763
 11
17.6289
 21
184.445
  0
LINE
  8
0
 10
17.6289
 20
184.445
 11
17.7893
 21
184.104
  0
LINE
  8
0
 10
17.7893
 20
184.104
 11
17.9057
 21
183.746
  0
LINE
  8
0
 10
17.9057
 20
183.746
 11
17.9763
 21
183.376
  0
LINE
  8
0
 10
17.9763
 20
183.376
 11
18
 21
183
  0
LINE
  8
0
 10
18
 20
183
 11
17.9763
 21
182.624
  0
LINE
  8
0
 10
17.9763
 20
182.624
 11
17.9057
 21
182.254
  0
LINE
  8
0
 10
17.9057
 20
182.254
 11
17.7893
 21
181.896
  0
LINE
  8
0
 10
17.7893
 20
181.896
 11
17.6289
 21
181.555
  0
LINE
  8
0
 10
17.6289
 20
181.555
 11
17.427
 21
181.237
  0
LINE
  8
0
 10
17.427
 20
181.237
 11
17.1869
 21
180.946
  0
LINE
  8
0
 10
17.1869
 20
180.946
 11
16.9123
 21
180.688
  0
LINE
  8
0
 10
16.9123
 20
180.688
 11
16.6075
 21
180.467
  0
LINE
  8
0
 10
16.6075
 20
180.467
 11
16.2773
 21
180.286
  0
LINE
  8
0
 10
16.2773
 20
180.286
 11
15.927
 21
180.147
  0
LINE
  8
0
 10
15.927
 20
180.147
 11
15.5621
 21
180.053
  0
LINE
  8
0
 10
15.5621
 20
180.053
 11
15.1884
 21
180.006
  0
LINE
  8
0
 10
15.1884
 20
180.006
 11
14.8116
 21
180.006
  0
LINE
  8
0
 10
-15.0942
 20
174.003
 11
-15.2811
 21
174.027
  0
LINE
  8
0
 10
-15.2811
 20
174.027
 11
-15.4635
 21
174.073
  0
LINE
  8
0
 10
-15.4635
 20
174.073
 11
-15.6387
 21
174.143
  0
LINE
  8
0
 10
-15.6387
 20
174.143
 11
-15.8037
 21
174.234
  0
LINE
  8
0
 10
-15.8037
 20
174.234
 11
-15.9561
 21
174.344
  0
LINE
  8
0
 10
-15.9561
 20
174.344
 11
-16.0934
 21
174.473
  0
LINE
  8
0
 10
-16.0934
 20
174.473
 11
-16.2135
 21
174.618
  0
LINE
  8
0
 10
-16.2135
 20
174.618
 11
-16.3145
 21
174.777
  0
LINE
  8
0
 10
-16.3145
 20
174.777
 11
-16.3947
 21
174.948
  0
LINE
  8
0
 10
-16.3947
 20
174.948
 11
-16.4529
 21
175.127
  0
LINE
  8
0
 10
-16.4529
 20
175.127
 11
-16.4882
 21
175.312
  0
LINE
  8
0
 10
-16.4882
 20
175.312
 11
-16.5
 21
175.5
  0
LINE
  8
0
 10
-16.5
 20
175.5
 11
-16.4882
 21
175.688
  0
LINE
  8
0
 10
-16.4882
 20
175.688
 11
-16.4529
 21
175.873
  0
LINE
  8
0
 10
-16.4529
 20
175.873
 11
-16.3947
 21
176.052
  0
LINE
  8
0
 10
-16.3947
 20
176.052
 11
-16.3145
 21
176.223
  0
LINE
  8
0
 10
-16.3145
 20
176.223
 11
-16.2135
 21
176.382
  0
LINE
  8
0
 10
-16.2135
 20
176.382
 11
-16.0934
 21
176.527
  0
LINE
  8
0
 10
-16.0934
 20
176.527
 11
-15.9561
 21
176.656
  0
LINE
  8
0
 10
-15.9561
 20
176.656
 11
-15.8037
 21
176.766
  0
LINE
  8
0
 10
-15.8037
 20
176.766
 11
-15.6387
 21
176.857
  0
LINE
  8
0
 10
-15.6387
 20
176.857
 11
-15.4635
 21
176.927
  0
LINE
  8
0
 10
-15.4635
 20
176.927
 11
-15.2811
 21
176.973
  0
LINE
  8
0
 10
-15.2811
 20
176.973
 11
-15.0942
 21
176.997
  0
LINE
  8
0
 10
-15.0942
 20
176.997
 11
-14.9058
 21
176.997
  0
LINE
  8
0
 10
-14.9058
 20
176.997
 11
-14.7189
 21
176.973
  0
LINE
  8
0
 10
-14.7189
 20
176.973
 11
-14.5365
 21
176.927
  0
LINE
  8
0
 10
-14.5365
 20
176.927
 11
-14.3613
 21
176.857
  0
LINE
  8
0
 10
-14.3613
 20
176.857
 11
-14.1963
 21
176.766
  0
LINE
  8
0
 10
-14.1963
 20
176.766
 11
-14.0439
 21
176.656
  0
LINE
  8
0
 10
-14.0439
 20
176.656
 11
-13.9065
 21
176.527
  0
LINE
  8
0
 10
-13.9065
 20
176.527
 11
-13.7865
 21
176.382
  0
LINE
  8
0
 10
-13.7865
 20
176.382
 11
-13.6855
 21
176.223
  0
LINE
  8
0
 10
-13.6855
 20
176.223
 11
-13.6053
 21
176.052
  0
LINE
  8
0
 10
-13.6053
 20
176.052
 11
-13.5471
 21
175.873
  0
LINE
  8
0
 10
-13.5471
 20
175.873
 11
-13.5118
 21
175.688
  0
LINE
  8
0
 10
-13.5118
 20
175.688
 11
-13.5
 21
175.5
  0
LINE
  8
0
 10
-13.5
 20
175.5
 11
-13.5118
 21
175.312
  0
LINE
  8
0
 10
-13.5118
 20
175.312
 11
-13.5471
 21
175.127
  0
LINE
  8
0
 10
-13.5471
 20
175.127
 11
-13.6053
 21
174.948
  0
LINE
  8
0
 10
-13.6053
 20
174.948
 11
-13.6855
 21
174.777
  0
LINE
  8
0
 10
-13.6855
 20
174.777
 11
-13.7865
 21
174.618
  0
LINE
  8
0
 10
-13.7865
 20
174.618
 11
-13.9065
 21
174.473
  0
LINE
  8
0
 10
-13.9065
 20
174.473
 11
-14.0439
 21
174.344
  0
LINE
  8
0
 10
-14.0439
 20
174.344
 11
-14.1963
 21
174.234
  0
LINE
  8
0
 10
-14.1963
 20
174.234
 11
-14.3613
 21
174.143
  0
LINE
  8
0
 10
-14.3613
 20
174.143
 11
-14.5365
 21
174.073
  0
LINE
  8
0
 10
-14.5365
 20
174.073
 11
-14.7189
 21
174.027
  0
LINE
  8
0
 10
-14.7189
 20
174.027
 11
-14.9058
 21
174.003
  0
LINE
  8
0
 10
-14.9058
 20
174.003
 11
-15.0942
 21
174.003
  0
LINE
  8
0
 10
14.9058
 20
174.003
 11
14.7189
 21
174.027
  0
LINE
  8
0
 10
14.7189
 20
174.027
 11
14.5365
 21
174.073
  0
LINE
  8
0
 10
14.5365
 20
174.073
 11
14.3613
 21
174.143
  0
LINE
  8
0
 10
14.3613
 20
174.143
 11
14.1963
 21
174.234
  0
LINE
  8
0
 10
14.1963
 20
174.234
 11
14.0439
 21
174.344
  0
LINE
  8
0
 10
14.0439
 20
174.344
 11
13.9065
 21
174.473
  0
LINE
  8
0
 10
13.9065
 20
174.473
 11
13.7865
 21
174.618
  0
LINE
  8
0
 10
13.7865
 20
174.618
 11
13.6855
 21
174.777
  0
LINE
  8
0
 10
13.6855
 20
174.777
 11
13.6053
 21
174.948
  0
LINE
  8
0
 10
13.6053
 20
174.948
 11
13.5471
 21
175.127
  0
LINE
  8
0
 10
13.5471
 20
175.127
 11
13.5118
 21
175.312
  0
LINE
  8
0
 10
13.5118
 20
175.312
 11
13.5
 21
175.5
  0
LINE
  8
0
 10
13.5
 20
175.5
 11
13.5118
 21
175.688
  0
LINE
  8
0
 10
13.5118
 20
175.688
 11
13.5471
 21
175.873
  0
LINE
  8
0
 10
13.5471
 20
175.873
 11
13.6053
 21
176.052
  0
LINE
  8
0
 10
13.6053
 20
176.052
 11
13.6855
 21
176.223
  0
LINE
  8
0
 10
13.6855
 20
176.223
 11
13.7865
 21
176.382
  0
LINE
  8
0
 10
13.7865
 20
176.382
 11
13.9065
 21
176.527
  0
LINE
  8
0
 10
13.9065
 20
176.527
 11
14.0439
 21
176.656
  0
LINE
  8
0
 10
14.0439
 20
176.656
 11
14.1963
 21
176.766
  0
LINE
  8
0
 10
14.1963
 20
176.766
 11
14.3613
 21
176.857
  0
LINE
  8
0
 10
14.3613
 20
176.857
 11
14.5365
 21
176.927
  0
LINE
  8
0
 10
14.5365
 20
176.927
 11
14.7189
 21
176.973
  0
LINE
  8
0
 10
14.7189
 20
176.973
 11
14.9058
 21
176.997
  0
LINE
  8
0
 10
14.9058
 20
176.997
 11
15.0942
 21
176.997
  0
LINE
  8
0
 10
15.0942
 20
176.997
 11
15.2811
 21
176.973
  0
LINE
  8
0
 10
15.2811
 20
176.973
 11
15.4635
 21
176.927
  0
LINE
  8
0
 10
15.4635
 20
176.927
 11
15.6387
 21
176.857
  0
LINE
  8
0
 10
15.6387
 20
176.857
 11
15.8037
 21
176.766
  0
LINE
  8
0
 10
15.8037
 20
176.766
 11
15.9561
 21
176.656
  0
LINE
  8
0
 10
15.9561
 20
176.656
 11
16.0934
 21
176.527
  0
LINE
  8
0
 10
16.0934
 20
176.527
 11
16.2135
 21
176.382
  0
LINE
  8
0
 10
16.2135
 20
176.382
 11
16.3145
 21
176.223
  0
LINE
  8
0
 10
16.3145
 20
176.223
 11
16.3947
 21
176.052
  0
LINE
  8
0
 10
16.3947
 20
176.052
 11
16.4529
 21
175.873
  0
LINE
  8
0
 10
16.4529
 20
175.873
 11
16.4882
 21
175.688
  0
LINE
  8
0
 10
16.4882
 20
175.688
 11
16.5
 21
175.5
  0
LINE
  8
0
 10
16.5
 20
175.5
 11
16.4882
 21
175.312
  0
LINE
  8
0
 10
16.4882
 20
175.312
 11
16.4529
 21
175.127
  0
LINE
  8
0
 10
16.4529
 20
175.127
 11
16.3947
 21
174.948
  0
LINE
  8
0
 10
16.3947
 20
174.948
 11
16.3145
 21
174.777
  0
LINE
  8
0
 10
16.3145
 20
174.777
 11
16.2135
 21
174.618
  0
LINE
  8
0
 10
16.2135
 20
174.618
 11
16.0934
 21
174.473
  0
LINE
  8
0
 10
16.0934
 20
174.473
 11
15.9561
 21
174.344
  0
LINE
  8
0
 10
15.9561
 20
174.344
 11
15.8037
 21
174.234
  0
LINE
  8
0
 10
15.8037
 20
174.234
 11
15.6387
 21
174.143
  0
LINE
  8
0
 10
15.6387
 20
174.143
 11
15.4635
 21
174.073
  0
LINE
  8
0
 10
15.4635
 20
174.073
 11
15.2811
 21
174.027
  0
LINE
  8
0
 10
15.2811
 20
174.027
 11
15.0942
 21
174.003
  0
LINE
  8
0
 10
15.0942
 20
174.003
 11
14.9058
 21
174.003
  0
LINE
  8
0
 10
-15.1884
 20
165.006
 11
-15.5621
 21
165.053
  0
LINE
  8
0
 10
-15.5621
 20
165.053
 11
-15.927
 21
165.147
  0
LINE
  8
0
 10
-15.927
 20
165.147
 11
-16.2773
 21
165.286
  0
LINE
  8
0
 10
-16.2773
 20
165.286
 11
-16.6075
 21
165.467
  0
LINE
  8
0
 10
-16.6075
 20
165.467
 11
-16.9123
 21
165.688
  0
LINE
  8
0
 10
-16.9123
 20
165.688
 11
-17.1869
 21
165.946
  0
LINE
  8
0
 10
-17.1869
 20
165.946
 11
-17.427
 21
166.237
  0
LINE
  8
0
 10
-17.427
 20
166.237
 11
-17.6289
 21
166.555
  0
LINE
  8
0
 10
-17.6289
 20
166.555
 11
-17.7893
 21
166.896
  0
LINE
  8
0
 10
-17.7893
 20
166.896
 11
-17.9057
 21
167.254
  0
LINE
  8
0
 10
-17.9057
 20
167.254
 11
-17.9763
 21
167.624
  0
LINE
  8
0
 10
-17.9763
 20
167.624
 11
-18
 21
168
  0
LINE
  8
0
 10
-18
 20
168
 11
-17.9763
 21
168.376
  0
LINE
  8
0
 10
-17.9763
 20
168.376
 11
-17.9057
 21
168.746
  0
LINE
  8
0
 10
-17.9057
 20
168.746
 11
-17.7893
 21
169.104
  0
LINE
  8
0
 10
-17.7893
 20
169.104
 11
-17.6289
 21
169.445
  0
LINE
  8
0
 10
-17.6289
 20
169.445
 11
-17.427
 21
169.763
  0
LINE
  8
0
 10
-17.427
 20
169.763
 11
-17.1869
 21
170.054
  0
LINE
  8
0
 10
-17.1869
 20
170.054
 11
-16.9123
 21
170.312
  0
LINE
  8
0
 10
-16.9123
 20
170.312
 11
-16.6075
 21
170.533
  0
LINE
  8
0
 10
-16.6075
 20
170.533
 11
-16.2773
 21
170.714
  0
LINE
  8
0
 10
-16.2773
 20
170.714
 11
-15.927
 21
170.853
  0
LINE
  8
0
 10
-15.927
 20
170.853
 11
-15.5621
 21
170.947
  0
LINE
  8
0
 10
-15.5621
 20
170.947
 11
-15.1884
 21
170.994
  0
LINE
  8
0
 10
-15.1884
 20
170.994
 11
-14.8116
 21
170.994
  0
LINE
  8
0
 10
-14.8116
 20
170.994
 11
-14.4379
 21
170.947
  0
LINE
  8
0
 10
-14.4379
 20
170.947
 11
-14.0729
 21
170.853
  0
LINE
  8
0
 10
-14.0729
 20
170.853
 11
-13.7227
 21
170.714
  0
LINE
  8
0
 10
-13.7227
 20
170.714
 11
-13.3925
 21
170.533
  0
LINE
  8
0
 10
-13.3925
 20
170.533
 11
-13.0877
 21
170.312
  0
LINE
  8
0
 10
-13.0877
 20
170.312
 11
-12.8131
 21
170.054
  0
LINE
  8
0
 10
-12.8131
 20
170.054
 11
-12.5729
 21
169.763
  0
LINE
  8
0
 10
-12.5729
 20
169.763
 11
-12.3711
 21
169.445
  0
LINE
  8
0
 10
-12.3711
 20
169.445
 11
-12.2107
 21
169.104
  0
LINE
  8
0
 10
-12.2107
 20
169.104
 11
-12.0942
 21
168.746
  0
LINE
  8
0
 10
-12.0942
 20
168.746
 11
-12.0237
 21
168.376
  0
LINE
  8
0
 10
-12.0237
 20
168.376
 11
-12
 21
168
  0
LINE
  8
0
 10
-12
 20
168
 11
-12.0237
 21
167.624
  0
LINE
  8
0
 10
-12.0237
 20
167.624
 11
-12.0942
 21
167.254
  0
LINE
  8
0
 10
-12.0942
 20
167.254
 11
-12.2107
 21
166.896
  0
LINE
  8
0
 10
-12.2107
 20
166.896
 11
-12.3711
 21
166.555
  0
LINE
  8
0
 10
-12.3711
 20
166.555
 11
-12.5729
 21
166.237
  0
LINE
  8
0
 10
-12.5729
 20
166.237
 11
-12.8131
 21
165.946
  0
LINE
  8
0
 10
-12.8131
 20
165.946
 11
-13.0877
 21
165.688
  0
LINE
  8
0
 10
-13.0877
 20
165.688
 11
-13.3925
 21
165.467
  0
LINE
  8
0
 10
-13.3925
 20
165.467
 11
-13.7227
 21
165.286
  0
LINE
  8
0
 10
-13.7227
 20
165.286
 11
-14.0729
 21
165.147
  0
LINE
  8
0
 10
-14.0729
 20
165.147
 11
-14.4379
 21
165.053
  0
LINE
  8
0
 10
-14.4379
 20
165.053
 11
-14.8116
 21
165.006
  0
LINE
  8
0
 10
-14.8116
 20
165.006
 11
-15.1884
 21
165.006
  0
LINE
  8
0
 10
14.8116
 20
165.006
 11
14.4379
 21
165.053
  0
LINE
  8
0
 10
14.4379
 20
165.053
 11
14.0729
 21
165.147
  0
LINE
  8
0
 10
14.0729
 20
165.147
 11
13.7227
 21
165.286
  0
LINE
  8
0
 10
13.7227
 20
165.286
 11
13.3925
 21
165.467
  0
LINE
  8
0
 10
13.3925
 20
165.467
 11
13.0877
 21
165.688
  0
LINE
  8
0
 10
13.0877
 20
165.688
 11
12.8131
 21
165.946
  0
LINE
  8
0
 10
12.8131
 20
165.946
 11
12.5729
 21
166.237
  0
LINE
  8
0
 10
12.5729
 20
166.237
 11
12.3711
 21
166.555
  0
LINE
  8
0
 10
12.3711
 20
166.555
 11
12.2107
 21
166.896
  0
LINE
  8
0
 10
12.2107
 20
166.896
 11
12.0942
 21
167.254
  0
LINE
  8
0
 10
12.0942
 20
167.254
 11
12.0237
 21
167.624
  0
LINE
  8
0
 10
12.0237
 20
167.624
 11
12
 21
168
  0
LINE
  8
0
 10
12
 20
168
 11
12.0237
 21
168.376
  0
LINE
  8
0
 10
12.0237
 20
168.376
 11
12.0942
 21
168.746
  0
LINE
  8
0
 10
12.0942
 20
168.746
 11
12.2107
 21
169.104
  0
LINE
  8
0
 10
12.2107
 20
169.104
 11
12.3711
 21
169.445
  0
LINE
  8
0
 10
12.3711
 20
169.445
 11
12.5729
 21
169.763
  0
LINE
  8
0
 10
12.5729
 20
169.763
 11
12.8131
 21
170.054
  0
LINE
  8
0
 10
12.8131
 20
170.054
 11
13.0877
 21
170.312
  0
LINE
  8
0
 10
13.0877
 20
170.312
 11
13.3925
 21
170.533
  0
LINE
  8
0
 10
13.3925
 20
170.533
 11
13.7227
 21
170.714
  0
LINE
  8
0
 10
13.7227
 20
170.714
 11
14.0729
 21
170.853
  0
LINE
  8
0
 10
14.0729
 20
170.853
 11
14.4379
 21
170.947
  0
LINE
  8
0
 10
14.4379
 20
170.947
 11
14.8116
 21
170.994
  0
LINE
  8
0
 10
14.8116
 20
170.994
 11
15.1884
 21
170.994
  0
LINE
  8
0
 10
15.1884
 20
170.994
 11
15.5621
 21
170.947
  0
LINE
  8
0
 10
15.5621
 20
170.947
 11
15.927
 21
170.853
  0
LINE
  8
0
 10
15.927
 20
170.853
 11
16.2773
 21
170.714
  0
LINE
  8
0
 10
16.2773
 20
170.714
 11
16.6075
 21
170.533
  0
LINE
  8
0
 10
16.6075
 20
170.533
 11
16.9123
 21
170.312
  0
LINE
  8
0
 10
16.9123
 20
170.312
 11
17.1869
 21
170.054
  0
LINE
  8
0
 10
17.1869
 20
170.054
 11
17.427
 21
169.763
  0
LINE
  8
0
 10
17.427
 20
169.763
 11
17.6289
 21
169.445
  0
LINE
  8
0
 10
17.6289
 20
169.445
 11
17.7893
 21
169.104
  0
LINE
  8
0
 10
17.7893
 20
169.104
 11
17.9057
 21
168.746
  0
LINE
  8
0
 10
17.9057
 20
168.746
 11
17.9763
 21
168.376
  0
LINE
  8
0
 10
17.9763
 20
168.376
 11
18
 21
168
  0
LINE
  8
0
 10
18
 20
168
 11
17.9763
 21
167.624
  0
LINE
  8
0
 10
17.9763
 20
167.624
 11
17.9057
 21
167.254
  0
LINE
  8
0
 10
17.9057
 20
167.254
 11
17.7893
 21
166.896
  0
LINE
  8
0
 10
17.7893
 20
166.896
 11
17.6289
 21
166.555
  0
LINE
  8
0
 10
17.6289
 20
166.555
 11
17.427
 21
166.237
  0
LINE
  8
0
 10
17.427
 20
166.237
 11
17.1869
 21
165.946
  0
LINE
  8
0
 10
17.1869
 20
165.946
 11
16.9123
 21
165.688
  0
LINE
  8
0
 10
16.9123
 20
165.688
 11
16.6075
 21
165.467
  0
LINE
  8
0
 10
16.6075
 20
165.467
 11
16.2773
 21
165.286
  0
LINE
  8
0
 10
16.2773
 20
165.286
 11
15.927
 21
165.147
  0
LINE
  8
0
 10
15.927
 20
165.147
 11
15.5621
 21
165.053
  0
LINE
  8
0
 10
15.5621
 20
165.053
 11
15.1884
 21
165.006
  0
LINE
  8
0
 10
15.1884
 20
165.006
 11
14.8116
 21
165.006
  0
LINE
  8
0
 10
-15.0942
 20
159.003
 11
-15.2811
 21
159.027
  0
LINE
  8
0
 10
-15.2811
 20
159.027
 11
-15.4635
 21
159.073
  0
LINE
  8
0
 10
-15.4635
 20
159.073
 11
-15.6387
 21
159.143
  0
LINE
  8
0
 10
-15.6387
 20
159.143
 11
-15.8037
 21
159.234
  0
LINE
  8
0
 10
-15.8037
 20
159.234
 11
-15.9561
 21
159.344
  0
LINE
  8
0
 10
-15.9561
 20
159.344
 11
-16.0934
 21
159.473
  0
LINE
  8
0
 10
-16.0934
 20
159.473
 11
-16.2135
 21
159.618
  0
LINE
  8
0
 10
-16.2135
 20
159.618
 11
-16.3145
 21
159.777
  0
LINE
  8
0
 10
-16.3145
 20
159.777
 11
-16.3947
 21
159.948
  0
LINE
  8
0
 10
-16.3947
 20
159.948
 11
-16.4529
 21
160.127
  0
LINE
  8
0
 10
-16.4529
 20
160.127
 11
-16.4882
 21
160.312
  0
LINE
  8
0
 10
-16.4882
 20
160.312
 11
-16.5
 21
160.5
  0
LINE
  8
0
 10
-16.5
 20
160.5
 11
-16.4882
 21
160.688
  0
LINE
  8
0
 10
-16.4882
 20
160.688
 11
-16.4529
 21
160.873
  0
LINE
  8
0
 10
-16.4529
 20
160.873
 11
-16.3947
 21
161.052
  0
LINE
  8
0
 10
-16.3947
 20
161.052
 11
-16.3145
 21
161.223
  0
LINE
  8
0
 10
-16.3145
 20
161.223
 11
-16.2135
 21
161.382
  0
LINE
  8
0
 10
-16.2135
 20
161.382
 11
-16.0934
 21
161.527
  0
LINE
  8
0
 10
-16.0934
 20
161.527
 11
-15.9561
 21
161.656
  0
LINE
  8
0
 10
-15.9561
 20
161.656
 11
-15.8037
 21
161.766
  0
LINE
  8
0
 10
-15.8037
 20
161.766
 11
-15.6387
 21
161.857
  0
LINE
  8
0
 10
-15.6387
 20
161.857
 11
-15.4635
 21
161.927
  0
LINE
  8
0
 10
-15.4635
 20
161.927
 11
-15.2811
 21
161.973
  0
LINE
  8
0
 10
-15.2811
 20
161.973
 11
-15.0942
 21
161.997
  0
LINE
  8
0
 10
-15.0942
 20
161.997
 11
-14.9058
 21
161.997
  0
LINE
  8
0
 10
-14.9058
 20
161.997
 11
-14.7189
 21
161.973
  0
LINE
  8
0
 10
-14.7189
 20
161.973
 11
-14.5365
 21
161.927
  0
LINE
  8
0
 10
-14.5365
 20
161.927
 11
-14.3613
 21
161.857
  0
LINE
  8
0
 10
-14.3613
 20
161.857
 11
-14.1963
 21
161.766
  0
LINE
  8
0
 10
-14.1963
 20
161.766
 11
-14.0439
 21
161.656
  0
LINE
  8
0
 10
-14.0439
 20
161.656
 11
-13.9065
 21
161.527
  0
LINE
  8
0
 10
-13.9065
 20
161.527
 11
-13.7865
 21
161.382
  0
LINE
  8
0
 10
-13.7865
 20
161.382
 11
-13.6855
 21
161.223
  0
LINE
  8
0
 10
-13.6855
 20
161.223
 11
-13.6053
 21
161.052
  0
LINE
  8
0
 10
-13.6053
 20
161.052
 11
-13.5471
 21
160.873
  0
LINE
  8
0
 10
-13.5471
 20
160.873
 11
-13.5118
 21
160.688
  0
LINE
  8
0
 10
-13.5118
 20
160.688
 11
-13.5
 21
160.5
  0
LINE
  8
0
 10
-13.5
 20
160.5
 11
-13.5118
 21
160.312
  0
LINE
  8
0
 10
-13.5118
 20
160.312
 11
-13.5471
 21
160.127
  0
LINE
  8
0
 10
-13.5471
 20
160.127
 11
-13.6053
 21
159.948
  0
LINE
  8
0
 10
-13.6053
 20
159.948
 11
-13.6855
 21
159.777
  0
LINE
  8
0
 10
-13.6855
 20
159.777
 11
-13.7865
 21
159.618
  0
LINE
  8
0
 10
-13.7865
 20
159.618
 11
-13.9065
 21
159.473
  0
LINE
  8
0
 10
-13.9065
 20
159.473
 11
-14.0439
 21
159.344
  0
LINE
  8
0
 10
-14.0439
 20
159.344
 11
-14.1963
 21
159.234
  0
LINE
  8
0
 10
-14.1963
 20
159.234
 11
-14.3613
 21
159.143
  0
LINE
  8
0
 10
-14.3613
 20
159.143
 11
-14.5365
 21
159.073
  0
LINE
  8
0
 10
-14.5365
 20
159.073
 11
-14.7189
 21
159.027
  0
LINE
  8
0
 10
-14.7189
 20
159.027
 11
-14.9058
 21
159.003
  0
LINE
  8
0
 10
-14.9058
 20
159.003
 11
-15.0942
 21
159.003
  0
LINE
  8
0
 10
14.9058
 20
159.003
 11
14.7189
 21
159.027
  0
LINE
  8
0
 10
14.7189
 20
159.027
 11
14.5365
 21
159.073
  0
LINE
  8
0
 10
14.5365
 20
159.073
 11
14.3613
 21
159.143
  0
LINE
  8
0
 10
14.3613
 20
159.143
 11
14.1963
 21
159.234
  0
LINE
  8
0
 10
14.1963
 20
159.234
 11
14.0439
 21
159.344
  0
LINE
  8
0
 10
14.0439
 20
159.344
 11
13.9065
 21
159.473
  0
LINE
  8
0
 10
13.9065
 20
159.473
 11
13.7865
 21
159.618
  0
LINE
  8
0
 10
13.7865
 20
159.618
 11
13.6855
 21
159.777
  0
LINE
  8
0
 10
13.6855
 20
159.777
 11
13.6053
 21
159.948
  0
LINE
  8
0
 10
13.6053
 20
159.948
 11
13.5471
 21
160.127
  0
LINE
  8
0
 10
13.5471
 20
160.127
 11
13.5118
 21
160.312
  0
LINE
  8
0
 10
13.5118
 20
160.312
 11
13.5
 21
160.5
  0
LINE
  8
0
 10
13.5
 20
160.5
 11
13.5118
 21
160.688
  0
LINE
  8
0
 10
13.5118
 20
160.688
 11
13.5471
 21
160.873
  0
LINE
  8
0
 10
13.5471
 20
160.873
 11
13.6053
 21
161.052
  0
LINE
  8
0
 10
13.6053
 20
161.052
 11
13.6855
 21
161.223
  0
LINE
  8
0
 10
13.6855
 20
161.223
 11
13.7865
 21
161.382
  0
LINE
  8
0
 10
13.7865
 20
161.382
 11
13.9065
 21
161.527
  0
LINE
  8
0
 10
13.9065
 20
161.527
 11
14.0439
 21
161.656
  0
LINE
  8
0
 10
14.0439
 20
161.656
 11
14.1963
 21
161.766
  0
LINE
  8
0
 10
14.1963
 20
161.766
 11
14.3613
 21
161.857
  0
LINE
  8
0
 10
14.3613
 20
161.857
 11
14.5365
 21
161.927
  0
LINE
  8
0
 10
14.5365
 20
161.927
 11
14.7189
 21
161.973
  0
LINE
  8
0
 10
14.7189
 20
161.973
 11
14.9058
 21
161.997
  0
LINE
  8
0
 10
14.9058
 20
161.997
 11
15.0942
 21
161.997
  0
LINE
  8
0
 10
15.0942
 20
161.997
 11
15.2811
 21
161.973
  0
LINE
  8
0
 10
15.2811
 20
161.973
 11
15.4635
 21
161.927
  0
LINE
  8
0
 10
15.4635
 20
161.927
 11
15.6387
 21
161.857
  0
LINE
  8
0
 10
15.6387
 20
161.857
 11
15.8037
 21
161.766
  0
LINE
  8
0
 10
15.8037
 20
161.766
 11
15.9561
 21
161.656
  0
LINE
  8
0
 10
15.9561
 20
161.656
 11
16.0934
 21
161.527
  0
LINE
  8
0
 10
16.0934
 20
161.527
 11
16.2135
 21
161.382
  0
LINE
  8
0
 10
16.2135
 20
161.382
 11
16.3145
 21
161.223
  0
LINE
  8
0
 10
16.3145
 20
161.223
 11
16.3947
 21
161.052
  0
LINE
  8
0
 10
16.3947
 20
161.052
 11
16.4529
 21
160.873
  0
LINE
  8
0
 10
16.4529
 20
160.873
 11
16.4882
 21
160.688
  0
LINE
  8
0
 10
16.4882
 20
160.688
 11
16.5
 21
160.5
  0
LINE
  8
0
 10
16.5
 20
160.5
 11
16.4882
 21
160.312
  0
LINE
  8
0
 10
16.4882
 20
160.312
 11
16.4529
 21
160.127
  0
LINE
  8
0
 10
16.4529
 20
160.127
 11
16.3947
 21
159.948
  0
LINE
  8
0
 10
16.3947
 20
159.948
 11
16.3145
 21
159.777
  0
LINE
  8
0
 10
16.3145
 20
159.777
 11
16.2135
 21
159.618
  0
LINE
  8
0
 10
16.2135
 20
159.618
 11
16.0934
 21
159.473
  0
LINE
  8
0
 10
16.0934
 20
159.473
 11
15.9561
 21
159.344
  0
LINE
  8
0
 10
15.9561
 20
159.344
 11
15.8037
 21
159.234
  0
LINE
  8
0
 10
15.8037
 20
159.234
 11
15.6387
 21
159.143
  0
LINE
  8
0
 10
15.6387
 20
159.143
 11
15.4635
 21
159.073
  0
LINE
  8
0
 10
15.4635
 20
159.073
 11
15.2811
 21
159.027
  0
LINE
  8
0
 10
15.2811
 20
159.027
 11
15.0942
 21
159.003
  0
LINE
  8
0
 10
15.0942
 20
159.003
 11
14.9058
 21
159.003
  0
LINE
  8
0
 10
14.8116
 20
150.006
 11
14.4379
 21
150.053
  0
LINE
  8
0
 10
14.4379
 20
150.053
 11
14.0729
 21
150.147
  0
LINE
  8
0
 10
14.0729
 20
150.147
 11
13.7227
 21
150.286
  0
LINE
  8
0
 10
13.7227
 20
150.286
 11
13.3925
 21
150.467
  0
LINE
  8
0
 10
13.3925
 20
150.467
 11
13.0877
 21
150.688
  0
LINE
  8
0
 10
13.0877
 20
150.688
 11
12.8131
 21
150.946
  0
LINE
  8
0
 10
12.8131
 20
150.946
 11
12.5729
 21
151.237
  0
LINE
  8
0
 10
12.5729
 20
151.237
 11
12.3711
 21
151.555
  0
LINE
  8
0
 10
12.3711
 20
151.555
 11
12.2107
 21
151.896
  0
LINE
  8
0
 10
12.2107
 20
151.896
 11
12.0942
 21
152.254
  0
LINE
  8
0
 10
12.0942
 20
152.254
 11
12.0237
 21
152.624
  0
LINE
  8
0
 10
12.0237
 20
152.624
 11
12
 21
153
  0
LINE
  8
0
 10
12
 20
153
 11
12.0237
 21
153.376
  0
LINE
  8
0
 10
12.0237
 20
153.376
 11
12.0942
 21
153.746
  0
LINE
  8
0
 10
12.0942
 20
153.746
 11
12.2107
 21
154.104
  0
LINE
  8
0
 10
12.2107
 20
154.104
 11
12.3711
 21
154.445
  0
LINE
  8
0
 10
12.3711
 20
154.445
 11
12.5729
 21
154.763
  0
LINE
  8
0
 10
12.5729
 20
154.763
 11
12.8131
 21
155.054
  0
LINE
  8
0
 10
12.8131
 20
155.054
 11
13.0877
 21
155.312
  0
LINE
  8
0
 10
13.0877
 20
155.312
 11
13.3925
 21
155.533
  0
LINE
  8
0
 10
13.3925
 20
155.533
 11
13.7227
 21
155.714
  0
LINE
  8
0
 10
13.7227
 20
155.714
 11
14.0729
 21
155.853
  0
LINE
  8
0
 10
14.0729
 20
155.853
 11
14.4379
 21
155.947
  0
LINE
  8
0
 10
14.4379
 20
155.947
 11
14.8116
 21
155.994
  0
LINE
  8
0
 10
14.8116
 20
155.994
 11
15.1884
 21
155.994
  0
LINE
  8
0
 10
15.1884
 20
155.994
 11
15.5621
 21
155.947
  0
LINE
  8
0
 10
15.5621
 20
155.947
 11
15.927
 21
155.853
  0
LINE
  8
0
 10
15.927
 20
155.853
 11
16.2773
 21
155.714
  0
LINE
  8
0
 10
16.2773
 20
155.714
 11
16.6075
 21
155.533
  0
LINE
  8
0
 10
16.6075
 20
155.533
 11
16.9123
 21
155.312
  0
LINE
  8
0
 10
16.9123
 20
155.312
 11
17.1869
 21
155.054
  0
LINE
  8
0
 10
17.1869
 20
155.054
 11
17.427
 21
154.763
  0
LINE
  8
0
 10
17.427
 20
154.763
 11
17.6289
 21
154.445
  0
LINE
  8
0
 10
17.6289
 20
154.445
 11
17.7893
 21
154.104
  0
LINE
  8
0
 10
17.7893
 20
154.104
 11
17.9057
 21
153.746
  0
LINE
  8
0
 10
17.9057
 20
153.746
 11
17.9763
 21
153.376
  0
LINE
  8
0
 10
17.9763
 20
153.376
 11
18
 21
153
  0
LINE
  8
0
 10
18
 20
153
 11
17.9763
 21
152.624
  0
LINE
  8
0
 10
17.9763
 20
152.624
 11
17.9057
 21
152.254
  0
LINE
  8
0
 10
17.9057
 20
152.254
 11
17.7893
 21
151.896
  0
LINE
  8
0
 10
17.7893
 20
151.896
 11
17.6289
 21
151.555
  0
LINE
  8
0
 10
17.6289
 20
151.555
 11
17.427
 21
151.237
  0
LINE
  8
0
 10
17.427
 20
151.237
 11
17.1869
 21
150.946
  0
LINE
  8
0
 10
17.1869
 20
150.946
 11
16.9123
 21
150.688
  0
LINE
  8
0
 10
16.9123
 20
150.688
 11
16.6075
 21
150.467
  0
LINE
  8
0
 10
16.6075
 20
150.467
 11
16.2773
 21
150.286
  0
LINE
  8
0
 10
16.2773
 20
150.286
 11
15.927
 21
150.147
  0
LINE
  8
0
 10
15.927
 20
150.147
 11
15.5621
 21
150.053
  0
LINE
  8
0
 10
15.5621
 20
150.053
 11
15.1884
 21
150.006
  0
LINE
  8
0
 10
15.1884
 20
150.006
 11
14.8116
 21
150.006
  0
LINE
  8
0
 10
-15.1884
 20
150.006
 11
-15.5621
 21
150.053
  0
LINE
  8
0
 10
-15.5621
 20
150.053
 11
-15.927
 21
150.147
  0
LINE
  8
0
 10
-15.927
 20
150.147
 11
-16.2773
 21
150.286
  0
LINE
  8
0
 10
-16.2773
 20
150.286
 11
-16.6075
 21
150.467
  0
LINE
  8
0
 10
-16.6075
 20
150.467
 11
-16.9123
 21
150.688
  0
LINE
  8
0
 10
-16.9123
 20
150.688
 11
-17.1869
 21
150.946
  0
LINE
  8
0
 10
-17.1869
 20
150.946
 11
-17.427
 21
151.237
  0
LINE
  8
0
 10
-17.427
 20
151.237
 11
-17.6289
 21
151.555
  0
LINE
  8
0
 10
-17.6289
 20
151.555
 11
-17.7893
 21
151.896
  0
LINE
  8
0
 10
-17.7893
 20
151.896
 11
-17.9057
 21
152.254
  0
LINE
  8
0
 10
-17.9057
 20
152.254
 11
-17.9763
 21
152.624
  0
LINE
  8
0
 10
-17.9763
 20
152.624
 11
-18
 21
153
  0
LINE
  8
0
 10
-18
 20
153
 11
-17.9763
 21
153.376
  0
LINE
  8
0
 10
-17.9763
 20
153.376
 11
-17.9057
 21
153.746
  0
LINE
  8
0
 10
-17.9057
 20
153.746
 11
-17.7893
 21
154.104
  0
LINE
  8
0
 10
-17.7893
 20
154.104
 11
-17.6289
 21
154.445
  0
LINE
  8
0
 10
-17.6289
 20
154.445
 11
-17.427
 21
154.763
  0
LINE
  8
0
 10
-17.427
 20
154.763
 11
-17.1869
 21
155.054
  0
LINE
  8
0
 10
-17.1869
 20
155.054
 11
-16.9123
 21
155.312
  0
LINE
  8
0
 10
-16.9123
 20
155.312
 11
-16.6075
 21
155.533
  0
LINE
  8
0
 10
-16.6075
 20
155.533
 11
-16.2773
 21
155.714
  0
LINE
  8
0
 10
-16.2773
 20
155.714
 11
-15.927
 21
155.853
  0
LINE
  8
0
 10
-15.927
 20
155.853
 11
-15.5621
 21
155.947
  0
LINE
  8
0
 10
-15.5621
 20
155.947
 11
-15.1884
 21
155.994
  0
LINE
  8
0
 10
-15.1884
 20
155.994
 11
-14.8116
 21
155.994
  0
LINE
  8
0
 10
-14.8116
 20
155.994
 11
-14.4379
 21
155.947
  0
LINE
  8
0
 10
-14.4379
 20
155.947
 11
-14.0729
 21
155.853
  0
LINE
  8
0
 10
-14.0729
 20
155.853
 11
-13.7227
 21
155.714
  0
LINE
  8
0
 10
-13.7227
 20
155.714
 11
-13.3925
 21
155.533
  0
LINE
  8
0
 10
-13.3925
 20
155.533
 11
-13.0877
 21
155.312
  0
LINE
  8
0
 10
-13.0877
 20
155.312
 11
-12.8131
 21
155.054
  0
LINE
  8
0
 10
-12.8131
 20
155.054
 11
-12.5729
 21
154.763
  0
LINE
  8
0
 10
-12.5729
 20
154.763
 11
-12.3711
 21
154.445
  0
LINE
  8
0
 10
-12.3711
 20
154.445
 11
-12.2107
 21
154.104
  0
LINE
  8
0
 10
-12.2107
 20
154.104
 11
-12.0942
 21
153.746
  0
LINE
  8
0
 10
-12.0942
 20
153.746
 11
-12.0237
 21
153.376
  0
LINE
  8
0
 10
-12.0237
 20
153.376
 11
-12
 21
153
  0
LINE
  8
0
 10
-12
 20
153
 11
-12.0237
 21
152.624
  0
LINE
  8
0
 10
-12.0237
 20
152.624
 11
-12.0942
 21
152.254
  0
LINE
  8
0
 10
-12.0942
 20
152.254
 11
-12.2107
 21
151.896
  0
LINE
  8
0
 10
-12.2107
 20
151.896
 11
-12.3711
 21
151.555
  0
LINE
  8
0
 10
-12.3711
 20
151.555
 11
-12.5729
 21
151.237
  0
LINE
  8
0
 10
-12.5729
 20
151.237
 11
-12.8131
 21
150.946
  0
LINE
  8
0
 10
-12.8131
 20
150.946
 11
-13.0877
 21
150.688
  0
LINE
  8
0
 10
-13.0877
 20
150.688
 11
-13.3925
 21
150.467
  0
LINE
  8
0
 10
-13.3925
 20
150.467
 11
-13.7227
 21
150.286
  0
LINE
  8
0
 10
-13.7227
 20
150.286
 11
-14.0729
 21
150.147
  0
LINE
  8
0
 10
-14.0729
 20
150.147
 11
-14.4379
 21
150.053
  0
LINE
  8
0
 10
-14.4379
 20
150.053
 11
-14.8116
 21
150.006
  0
LINE
  8
0
 10
-14.8116
 20
150.006
 11
-15.1884
 21
150.006
  0
LINE
  8
0
 10
-7.6765
 20
146.782
 11
-7.78864
 21
146.796
  0
LINE
  8
0
 10
-7.78864
 20
146.796
 11
-7.8981
 21
146.824
  0
LINE
  8
0
 10
-7.8981
 20
146.824
 11
-8.00319
 21
146.866
  0
LINE
  8
0
 10
-8.00319
 20
146.866
 11
-8.10223
 21
146.92
  0
LINE
  8
0
 10
-8.10223
 20
146.92
 11
-8.19368
 21
146.987
  0
LINE
  8
0
 10
-8.19368
 20
146.987
 11
-8.27606
 21
147.064
  0
LINE
  8
0
 10
-8.27606
 20
147.064
 11
-8.34811
 21
147.151
  0
LINE
  8
0
 10
-8.34811
 20
147.151
 11
-8.40866
 21
147.246
  0
LINE
  8
0
 10
-8.40866
 20
147.246
 11
-8.45679
 21
147.349
  0
LINE
  8
0
 10
-8.45679
 20
147.349
 11
-8.49171
 21
147.456
  0
LINE
  8
0
 10
-8.49171
 20
147.456
 11
-8.51289
 21
147.567
  0
LINE
  8
0
 10
-8.51289
 20
147.567
 11
-8.51999
 21
147.68
  0
LINE
  8
0
 10
-8.51999
 20
147.68
 11
-8.51289
 21
147.793
  0
LINE
  8
0
 10
-8.51289
 20
147.793
 11
-8.49171
 21
147.904
  0
LINE
  8
0
 10
-8.49171
 20
147.904
 11
-8.45679
 21
148.011
  0
LINE
  8
0
 10
-8.45679
 20
148.011
 11
-8.40866
 21
148.114
  0
LINE
  8
0
 10
-8.40866
 20
148.114
 11
-8.34811
 21
148.209
  0
LINE
  8
0
 10
-8.34811
 20
148.209
 11
-8.27606
 21
148.296
  0
LINE
  8
0
 10
-8.27606
 20
148.296
 11
-8.19368
 21
148.373
  0
LINE
  8
0
 10
-8.19368
 20
148.373
 11
-8.10223
 21
148.44
  0
LINE
  8
0
 10
-8.10223
 20
148.44
 11
-8.00319
 21
148.494
  0
LINE
  8
0
 10
-8.00319
 20
148.494
 11
-7.8981
 21
148.536
  0
LINE
  8
0
 10
-7.8981
 20
148.536
 11
-7.78864
 21
148.564
  0
LINE
  8
0
 10
-7.78864
 20
148.564
 11
-7.6765
 21
148.578
  0
LINE
  8
0
 10
-7.6765
 20
148.578
 11
-7.56348
 21
148.578
  0
LINE
  8
0
 10
-7.56348
 20
148.578
 11
-7.45135
 21
148.564
  0
LINE
  8
0
 10
-7.45135
 20
148.564
 11
-7.34187
 21
148.536
  0
LINE
  8
0
 10
-7.34187
 20
148.536
 11
-7.23679
 21
148.494
  0
LINE
  8
0
 10
-7.23679
 20
148.494
 11
-7.13776
 21
148.44
  0
LINE
  8
0
 10
-7.13776
 20
148.44
 11
-7.04631
 21
148.373
  0
LINE
  8
0
 10
-7.04631
 20
148.373
 11
-6.96393
 21
148.296
  0
LINE
  8
0
 10
-6.96393
 20
148.296
 11
-6.89188
 21
148.209
  0
LINE
  8
0
 10
-6.89188
 20
148.209
 11
-6.83131
 21
148.114
  0
LINE
  8
0
 10
-6.83131
 20
148.114
 11
-6.78319
 21
148.011
  0
LINE
  8
0
 10
-6.78319
 20
148.011
 11
-6.74828
 21
147.904
  0
LINE
  8
0
 10
-6.74828
 20
147.904
 11
-6.7271
 21
147.793
  0
LINE
  8
0
 10
-6.7271
 20
147.793
 11
-6.71999
 21
147.68
  0
LINE
  8
0
 10
-6.71999
 20
147.68
 11
-6.7271
 21
147.567
  0
LINE
  8
0
 10
-6.7271
 20
147.567
 11
-6.74828
 21
147.456
  0
LINE
  8
0
 10
-6.74828
 20
147.456
 11
-6.78319
 21
147.349
  0
LINE
  8
0
 10
-6.78319
 20
147.349
 11
-6.83131
 21
147.246
  0
LINE
  8
0
 10
-6.83131
 20
147.246
 11
-6.89188
 21
147.151
  0
LINE
  8
0
 10
-6.89188
 20
147.151
 11
-6.96393
 21
147.064
  0
LINE
  8
0
 10
-6.96393
 20
147.064
 11
-7.04631
 21
146.987
  0
LINE
  8
0
 10
-7.04631
 20
146.987
 11
-7.13776
 21
146.92
  0
LINE
  8
0
 10
-7.13776
 20
146.92
 11
-7.23679
 21
146.866
  0
LINE
  8
0
 10
-7.23679
 20
146.866
 11
-7.34187
 21
146.824
  0
LINE
  8
0
 10
-7.34187
 20
146.824
 11
-7.45135
 21
146.796
  0
LINE
  8
0
 10
-7.45135
 20
146.796
 11
-7.56348
 21
146.782
  0
LINE
  8
0
 10
-7.56348
 20
146.782
 11
-7.6765
 21
146.782
  0
LINE
  8
0
 10
7.56348
 20
146.782
 11
7.45135
 21
146.796
  0
LINE
  8
0
 10
7.45135
 20
146.796
 11
7.34187
 21
146.824
  0
LINE
  8
0
 10
7.34187
 20
146.824
 11
7.23679
 21
146.866
  0
LINE
  8
0
 10
7.23679
 20
146.866
 11
7.13776
 21
146.92
  0
LINE
  8
0
 10
7.13776
 20
146.92
 11
7.04631
 21
146.987
  0
LINE
  8
0
 10
7.04631
 20
146.987
 11
6.96393
 21
147.064
  0
LINE
  8
0
 10
6.96393
 20
147.064
 11
6.89188
 21
147.151
  0
LINE
  8
0
 10
6.89188
 20
147.151
 11
6.83131
 21
147.246
  0
LINE
  8
0
 10
6.83131
 20
147.246
 11
6.78319
 21
147.349
  0
LINE
  8
0
 10
6.78319
 20
147.349
 11
6.74828
 21
147.456
  0
LINE
  8
0
 10
6.74828
 20
147.456
 11
6.7271
 21
147.567
  0
LINE
  8
0
 10
6.7271
 20
147.567
 11
6.71999
 21
147.68
  0
LINE
  8
0
 10
6.71999
 20
147.68
 11
6.7271
 21
147.793
  0
LINE
  8
0
 10
6.7271
 20
147.793
 11
6.74828
 21
147.904
  0
LINE
  8
0
 10
6.74828
 20
147.904
 11
6.78319
 21
148.011
  0
LINE
  8
0
 10
6.78319
 20
148.011
 11
6.83131
 21
148.114
  0
LINE
  8
0
 10
6.83131
 20
148.114
 11
6.89188
 21
148.209
  0
LINE
  8
0
 10
6.89188
 20
148.209
 11
6.96393
 21
148.296
  0
LINE
  8
0
 10
6.96393
 20
148.296
 11
7.04631
 21
148.373
  0
LINE
  8
0
 10
7.04631
 20
148.373
 11
7.13776
 21
148.44
  0
LINE
  8
0
 10
7.13776
 20
148.44
 11
7.23679
 21
148.494
  0
LINE
  8
0
 10
7.23679
 20
148.494
 11
7.34187
 21
148.536
  0
LINE
  8
0
 10
7.34187
 20
148.536
 11
7.45135
 21
148.564
  0
LINE
  8
0
 10
7.45135
 20
148.564
 11
7.56348
 21
148.578
  0
LINE
  8
0
 10
7.56348
 20
148.578
 11
7.6765
 21
148.578
  0
LINE
  8
0
 10
7.6765
 20
148.578
 11
7.78864
 21
148.564
  0
LINE
  8
0
 10
7.78864
 20
148.564
 11
7.8981
 21
148.536
  0
LINE
  8
0
 10
7.8981
 20
148.536
 11
8.00319
 21
148.494
  0
LINE
  8
0
 10
8.00319
 20
148.494
 11
8.10223
 21
148.44
  0
LINE
  8
0
 10
8.10223
 20
148.44
 11
8.19368
 21
148.373
  0
LINE
  8
0
 10
8.19368
 20
148.373
 11
8.27606
 21
148.296
  0
LINE
  8
0
 10
8.27606
 20
148.296
 11
8.34811
 21
148.209
  0
LINE
  8
0
 10
8.34811
 20
148.209
 11
8.40866
 21
148.114
  0
LINE
  8
0
 10
8.40866
 20
148.114
 11
8.45679
 21
148.011
  0
LINE
  8
0
 10
8.45679
 20
148.011
 11
8.49171
 21
147.904
  0
LINE
  8
0
 10
8.49171
 20
147.904
 11
8.51289
 21
147.793
  0
LINE
  8
0
 10
8.51289
 20
147.793
 11
8.51999
 21
147.68
  0
LINE
  8
0
 10
8.51999
 20
147.68
 11
8.51289
 21
147.567
  0
LINE
  8
0
 10
8.51289
 20
147.567
 11
8.49171
 21
147.456
  0
LINE
  8
0
 10
8.49171
 20
147.456
 11
8.45679
 21
147.349
  0
LINE
  8
0
 10
8.45679
 20
147.349
 11
8.40866
 21
147.246
  0
LINE
  8
0
 10
8.40866
 20
147.246
 11
8.34811
 21
147.151
  0
LINE
  8
0
 10
8.34811
 20
147.151
 11
8.27606
 21
147.064
  0
LINE
  8
0
 10
8.27606
 20
147.064
 11
8.19368
 21
146.987
  0
LINE
  8
0
 10
8.19368
 20
146.987
 11
8.10223
 21
146.92
  0
LINE
  8
0
 10
8.10223
 20
146.92
 11
8.00319
 21
146.866
  0
LINE
  8
0
 10
8.00319
 20
146.866
 11
7.8981
 21
146.824
  0
LINE
  8
0
 10
7.8981
 20
146.824
 11
7.78864
 21
146.796
  0
LINE
  8
0
 10
7.78864
 20
146.796
 11
7.6765
 21
146.782
  0
LINE
  8
0
 10
7.6765
 20
146.782
 11
7.56348
 21
146.782
  0
LINE
  8
0
 10
14.9058
 20
144.003
 11
14.7189
 21
144.027
  0
LINE
  8
0
 10
14.7189
 20
144.027
 11
14.5365
 21
144.073
  0
LINE
  8
0
 10
14.5365
 20
144.073
 11
14.3613
 21
144.143
  0
LINE
  8
0
 10
14.3613
 20
144.143
 11
14.1963
 21
144.234
  0
LINE
  8
0
 10
14.1963
 20
144.234
 11
14.0439
 21
144.344
  0
LINE
  8
0
 10
14.0439
 20
144.344
 11
13.9065
 21
144.473
  0
LINE
  8
0
 10
13.9065
 20
144.473
 11
13.7865
 21
144.618
  0
LINE
  8
0
 10
13.7865
 20
144.618
 11
13.6855
 21
144.777
  0
LINE
  8
0
 10
13.6855
 20
144.777
 11
13.6053
 21
144.948
  0
LINE
  8
0
 10
13.6053
 20
144.948
 11
13.5471
 21
145.127
  0
LINE
  8
0
 10
13.5471
 20
145.127
 11
13.5118
 21
145.312
  0
LINE
  8
0
 10
13.5118
 20
145.312
 11
13.5
 21
145.5
  0
LINE
  8
0
 10
13.5
 20
145.5
 11
13.5118
 21
145.688
  0
LINE
  8
0
 10
13.5118
 20
145.688
 11
13.5471
 21
145.873
  0
LINE
  8
0
 10
13.5471
 20
145.873
 11
13.6053
 21
146.052
  0
LINE
  8
0
 10
13.6053
 20
146.052
 11
13.6855
 21
146.223
  0
LINE
  8
0
 10
13.6855
 20
146.223
 11
13.7865
 21
146.382
  0
LINE
  8
0
 10
13.7865
 20
146.382
 11
13.9065
 21
146.527
  0
LINE
  8
0
 10
13.9065
 20
146.527
 11
14.0439
 21
146.656
  0
LINE
  8
0
 10
14.0439
 20
146.656
 11
14.1963
 21
146.766
  0
LINE
  8
0
 10
14.1963
 20
146.766
 11
14.3613
 21
146.857
  0
LINE
  8
0
 10
14.3613
 20
146.857
 11
14.5365
 21
146.927
  0
LINE
  8
0
 10
14.5365
 20
146.927
 11
14.7189
 21
146.973
  0
LINE
  8
0
 10
14.7189
 20
146.973
 11
14.9058
 21
146.997
  0
LINE
  8
0
 10
14.9058
 20
146.997
 11
15.0942
 21
146.997
  0
LINE
  8
0
 10
15.0942
 20
146.997
 11
15.2811
 21
146.973
  0
LINE
  8
0
 10
15.2811
 20
146.973
 11
15.4635
 21
146.927
  0
LINE
  8
0
 10
15.4635
 20
146.927
 11
15.6387
 21
146.857
  0
LINE
  8
0
 10
15.6387
 20
146.857
 11
15.8037
 21
146.766
  0
LINE
  8
0
 10
15.8037
 20
146.766
 11
15.9561
 21
146.656
  0
LINE
  8
0
 10
15.9561
 20
146.656
 11
16.0934
 21
146.527
  0
LINE
  8
0
 10
16.0934
 20
146.527
 11
16.2135
 21
146.382
  0
LINE
  8
0
 10
16.2135
 20
146.382
 11
16.3145
 21
146.223
  0
LINE
  8
0
 10
16.3145
 20
146.223
 11
16.3947
 21
146.052
  0
LINE
  8
0
 10
16.3947
 20
146.052
 11
16.4529
 21
145.873
  0
LINE
  8
0
 10
16.4529
 20
145.873
 11
16.4882
 21
145.688
  0
LINE
  8
0
 10
16.4882
 20
145.688
 11
16.5
 21
145.5
  0
LINE
  8
0
 10
16.5
 20
145.5
 11
16.4882
 21
145.312
  0
LINE
  8
0
 10
16.4882
 20
145.312
 11
16.4529
 21
145.127
  0
LINE
  8
0
 10
16.4529
 20
145.127
 11
16.3947
 21
144.948
  0
LINE
  8
0
 10
16.3947
 20
144.948
 11
16.3145
 21
144.777
  0
LINE
  8
0
 10
16.3145
 20
144.777
 11
16.2135
 21
144.618
  0
LINE
  8
0
 10
16.2135
 20
144.618
 11
16.0934
 21
144.473
  0
LINE
  8
0
 10
16.0934
 20
144.473
 11
15.9561
 21
144.344
  0
LINE
  8
0
 10
15.9561
 20
144.344
 11
15.8037
 21
144.234
  0
LINE
  8
0
 10
15.8037
 20
144.234
 11
15.6387
 21
144.143
  0
LINE
  8
0
 10
15.6387
 20
144.143
 11
15.4635
 21
144.073
  0
LINE
  8
0
 10
15.4635
 20
144.073
 11
15.2811
 21
144.027
  0
LINE
  8
0
 10
15.2811
 20
144.027
 11
15.0942
 21
144.003
  0
LINE
  8
0
 10
15.0942
 20
144.003
 11
14.9058
 21
144.003
  0
LINE
  8
0
 10
-15.0942
 20
144.003
 11
-15.2811
 21
144.027
  0
LINE
  8
0
 10
-15.2811
 20
144.027
 11
-15.4635
 21
144.073
  0
LINE
  8
0
 10
-15.4635
 20
144.073
 11
-15.6387
 21
144.143
  0
LINE
  8
0
 10
-15.6387
 20
144.143
 11
-15.8037
 21
144.234
  0
LINE
  8
0
 10
-15.8037
 20
144.234
 11
-15.9561
 21
144.344
  0
LINE
  8
0
 10
-15.9561
 20
144.344
 11
-16.0934
 21
144.473
  0
LINE
  8
0
 10
-16.0934
 20
144.473
 11
-16.2135
 21
144.618
  0
LINE
  8
0
 10
-16.2135
 20
144.618
 11
-16.3145
 21
144.777
  0
LINE
  8
0
 10
-16.3145
 20
144.777
 11
-16.3947
 21
144.948
  0
LINE
  8
0
 10
-16.3947
 20
144.948
 11
-16.4529
 21
145.127
  0
LINE
  8
0
 10
-16.4529
 20
145.127
 11
-16.4882
 21
145.312
  0
LINE
  8
0
 10
-16.4882
 20
145.312
 11
-16.5
 21
145.5
  0
LINE
  8
0
 10
-16.5
 20
145.5
 11
-16.4882
 21
145.688
  0
LINE
  8
0
 10
-16.4882
 20
145.688
 11
-16.4529
 21
145.873
  0
LINE
  8
0
 10
-16.4529
 20
145.873
 11
-16.3947
 21
146.052
  0
LINE
  8
0
 10
-16.3947
 20
146.052
 11
-16.3145
 21
146.223
  0
LINE
  8
0
 10
-16.3145
 20
146.223
 11
-16.2135
 21
146.382
  0
LINE
  8
0
 10
-16.2135
 20
146.382
 11
-16.0934
 21
146.527
  0
LINE
  8
0
 10
-16.0934
 20
146.527
 11
-15.9561
 21
146.656
  0
LINE
  8
0
 10
-15.9561
 20
146.656
 11
-15.8037
 21
146.766
  0
LINE
  8
0
 10
-15.8037
 20
146.766
 11
-15.6387
 21
146.857
  0
LINE
  8
0
 10
-15.6387
 20
146.857
 11
-15.4635
 21
146.927
  0
LINE
  8
0
 10
-15.4635
 20
146.927
 11
-15.2811
 21
146.973
  0
LINE
  8
0
 10
-15.2811
 20
146.973
 11
-15.0942
 21
146.997
  0
LINE
  8
0
 10
-15.0942
 20
146.997
 11
-14.9058
 21
146.997
  0
LINE
  8
0
 10
-14.9058
 20
146.997
 11
-14.7189
 21
146.973
  0
LINE
  8
0
 10
-14.7189
 20
146.973
 11
-14.5365
 21
146.927
  0
LINE
  8
0
 10
-14.5365
 20
146.927
 11
-14.3613
 21
146.857
  0
LINE
  8
0
 10
-14.3613
 20
146.857
 11
-14.1963
 21
146.766
  0
LINE
  8
0
 10
-14.1963
 20
146.766
 11
-14.0439
 21
146.656
  0
LINE
  8
0
 10
-14.0439
 20
146.656
 11
-13.9065
 21
146.527
  0
LINE
  8
0
 10
-13.9065
 20
146.527
 11
-13.7865
 21
146.382
  0
LINE
  8
0
 10
-13.7865
 20
146.382
 11
-13.6855
 21
146.223
  0
LINE
  8
0
 10
-13.6855
 20
146.223
 11
-13.6053
 21
146.052
  0
LINE
  8
0
 10
-13.6053
 20
146.052
 11
-13.5471
 21
145.873
  0
LINE
  8
0
 10
-13.5471
 20
145.873
 11
-13.5118
 21
145.688
  0
LINE
  8
0
 10
-13.5118
 20
145.688
 11
-13.5
 21
145.5
  0
LINE
  8
0
 10
-13.5
 20
145.5
 11
-13.5118
 21
145.312
  0
LINE
  8
0
 10
-13.5118
 20
145.312
 11
-13.5471
 21
145.127
  0
LINE
  8
0
 10
-13.5471
 20
145.127
 11
-13.6053
 21
144.948
  0
LINE
  8
0
 10
-13.6053
 20
144.948
 11
-13.6855
 21
144.777
  0
LINE
  8
0
 10
-13.6855
 20
144.777
 11
-13.7865
 21
144.618
  0
LINE
  8
0
 10
-13.7865
 20
144.618
 11
-13.9065
 21
144.473
  0
LINE
  8
0
 10
-13.9065
 20
144.473
 11
-14.0439
 21
144.344
  0
LINE
  8
0
 10
-14.0439
 20
144.344
 11
-14.1963
 21
144.234
  0
LINE
  8
0
 10
-14.1963
 20
144.234
 11
-14.3613
 21
144.143
  0
LINE
  8
0
 10
-14.3613
 20
144.143
 11
-14.5365
 21
144.073
  0
LINE
  8
0
 10
-14.5365
 20
144.073
 11
-14.7189
 21
144.027
  0
LINE
  8
0
 10
-14.7189
 20
144.027
 11
-14.9058
 21
144.003
  0
LINE
  8
0
 10
-14.9058
 20
144.003
 11
-15.0942
 21
144.003
  0
LINE
  8
0
 10
14.8116
 20
135.006
 11
14.4379
 21
135.053
  0
LINE
  8
0
 10
14.4379
 20
135.053
 11
14.0729
 21
135.147
  0
LINE
  8
0
 10
14.0729
 20
135.147
 11
13.7227
 21
135.286
  0
LINE
  8
0
 10
13.7227
 20
135.286
 11
13.3925
 21
135.467
  0
LINE
  8
0
 10
13.3925
 20
135.467
 11
13.0877
 21
135.688
  0
LINE
  8
0
 10
13.0877
 20
135.688
 11
12.8131
 21
135.946
  0
LINE
  8
0
 10
12.8131
 20
135.946
 11
12.5729
 21
136.237
  0
LINE
  8
0
 10
12.5729
 20
136.237
 11
12.3711
 21
136.555
  0
LINE
  8
0
 10
12.3711
 20
136.555
 11
12.2107
 21
136.896
  0
LINE
  8
0
 10
12.2107
 20
136.896
 11
12.0942
 21
137.254
  0
LINE
  8
0
 10
12.0942
 20
137.254
 11
12.0237
 21
137.624
  0
LINE
  8
0
 10
12.0237
 20
137.624
 11
12
 21
138
  0
LINE
  8
0
 10
12
 20
138
 11
12.0237
 21
138.376
  0
LINE
  8
0
 10
12.0237
 20
138.376
 11
12.0942
 21
138.746
  0
LINE
  8
0
 10
12.0942
 20
138.746
 11
12.2107
 21
139.104
  0
LINE
  8
0
 10
12.2107
 20
139.104
 11
12.3711
 21
139.445
  0
LINE
  8
0
 10
12.3711
 20
139.445
 11
12.5729
 21
139.763
  0
LINE
  8
0
 10
12.5729
 20
139.763
 11
12.8131
 21
140.054
  0
LINE
  8
0
 10
12.8131
 20
140.054
 11
13.0877
 21
140.312
  0
LINE
  8
0
 10
13.0877
 20
140.312
 11
13.3925
 21
140.533
  0
LINE
  8
0
 10
13.3925
 20
140.533
 11
13.7227
 21
140.714
  0
LINE
  8
0
 10
13.7227
 20
140.714
 11
14.0729
 21
140.853
  0
LINE
  8
0
 10
14.0729
 20
140.853
 11
14.4379
 21
140.947
  0
LINE
  8
0
 10
14.4379
 20
140.947
 11
14.8116
 21
140.994
  0
LINE
  8
0
 10
14.8116
 20
140.994
 11
15.1884
 21
140.994
  0
LINE
  8
0
 10
15.1884
 20
140.994
 11
15.5621
 21
140.947
  0
LINE
  8
0
 10
15.5621
 20
140.947
 11
15.927
 21
140.853
  0
LINE
  8
0
 10
15.927
 20
140.853
 11
16.2773
 21
140.714
  0
LINE
  8
0
 10
16.2773
 20
140.714
 11
16.6075
 21
140.533
  0
LINE
  8
0
 10
16.6075
 20
140.533
 11
16.9123
 21
140.312
  0
LINE
  8
0
 10
16.9123
 20
140.312
 11
17.1869
 21
140.054
  0
LINE
  8
0
 10
17.1869
 20
140.054
 11
17.427
 21
139.763
  0
LINE
  8
0
 10
17.427
 20
139.763
 11
17.6289
 21
139.445
  0
LINE
  8
0
 10
17.6289
 20
139.445
 11
17.7893
 21
139.104
  0
LINE
  8
0
 10
17.7893
 20
139.104
 11
17.9057
 21
138.746
  0
LINE
  8
0
 10
17.9057
 20
138.746
 11
17.9763
 21
138.376
  0
LINE
  8
0
 10
17.9763
 20
138.376
 11
18
 21
138
  0
LINE
  8
0
 10
18
 20
138
 11
17.9763
 21
137.624
  0
LINE
  8
0
 10
17.9763
 20
137.624
 11
17.9057
 21
137.254
  0
LINE
  8
0
 10
17.9057
 20
137.254
 11
17.7893
 21
136.896
  0
LINE
  8
0
 10
17.7893
 20
136.896
 11
17.6289
 21
136.555
  0
LINE
  8
0
 10
17.6289
 20
136.555
 11
17.427
 21
136.237
  0
LINE
  8
0
 10
17.427
 20
136.237
 11
17.1869
 21
135.946
  0
LINE
  8
0
 10
17.1869
 20
135.946
 11
16.9123
 21
135.688
  0
LINE
  8
0
 10
16.9123
 20
135.688
 11
16.6075
 21
135.467
  0
LINE
  8
0
 10
16.6075
 20
135.467
 11
16.2773
 21
135.286
  0
LINE
  8
0
 10
16.2773
 20
135.286
 11
15.927
 21
135.147
  0
LINE
  8
0
 10
15.927
 20
135.147
 11
15.5621
 21
135.053
  0
LINE
  8
0
 10
15.5621
 20
135.053
 11
15.1884
 21
135.006
  0
LINE
  8
0
 10
15.1884
 20
135.006
 11
14.8116
 21
135.006
  0
LINE
  8
0
 10
-15.1884
 20
135.006
 11
-15.5621
 21
135.053
  0
LINE
  8
0
 10
-15.5621
 20
135.053
 11
-15.927
 21
135.147
  0
LINE
  8
0
 10
-15.927
 20
135.147
 11
-16.2773
 21
135.286
  0
LINE
  8
0
 10
-16.2773
 20
135.286
 11
-16.6075
 21
135.467
  0
LINE
  8
0
 10
-16.6075
 20
135.467
 11
-16.9123
 21
135.688
  0
LINE
  8
0
 10
-16.9123
 20
135.688
 11
-17.1869
 21
135.946
  0
LINE
  8
0
 10
-17.1869
 20
135.946
 11
-17.427
 21
136.237
  0
LINE
  8
0
 10
-17.427
 20
136.237
 11
-17.6289
 21
136.555
  0
LINE
  8
0
 10
-17.6289
 20
136.555
 11
-17.7893
 21
136.896
  0
LINE
  8
0
 10
-17.7893
 20
136.896
 11
-17.9057
 21
137.254
  0
LINE
  8
0
 10
-17.9057
 20
137.254
 11
-17.9763
 21
137.624
  0
LINE
  8
0
 10
-17.9763
 20
137.624
 11
-18
 21
138
  0
LINE
  8
0
 10
-18
 20
138
 11
-17.9763
 21
138.376
  0
LINE
  8
0
 10
-17.9763
 20
138.376
 11
-17.9057
 21
138.746
  0
LINE
  8
0
 10
-17.9057
 20
138.746
 11
-17.7893
 21
139.104
  0
LINE
  8
0
 10
-17.7893
 20
139.104
 11
-17.6289
 21
139.445
  0
LINE
  8
0
 10
-17.6289
 20
139.445
 11
-17.427
 21
139.763
  0
LINE
  8
0
 10
-17.427
 20
139.763
 11
-17.1869
 21
140.054
  0
LINE
  8
0
 10
-17.1869
 20
140.054
 11
-16.9123
 21
140.312
  0
LINE
  8
0
 10
-16.9123
 20
140.312
 11
-16.6075
 21
140.533
  0
LINE
  8
0
 10
-16.6075
 20
140.533
 11
-16.2773
 21
140.714
  0
LINE
  8
0
 10
-16.2773
 20
140.714
 11
-15.927
 21
140.853
  0
LINE
  8
0
 10
-15.927
 20
140.853
 11
-15.5621
 21
140.947
  0
LINE
  8
0
 10
-15.5621
 20
140.947
 11
-15.1884
 21
140.994
  0
LINE
  8
0
 10
-15.1884
 20
140.994
 11
-14.8116
 21
140.994
  0
LINE
  8
0
 10
-14.8116
 20
140.994
 11
-14.4379
 21
140.947
  0
LINE
  8
0
 10
-14.4379
 20
140.947
 11
-14.0729
 21
140.853
  0
LINE
  8
0
 10
-14.0729
 20
140.853
 11
-13.7227
 21
140.714
  0
LINE
  8
0
 10
-13.7227
 20
140.714
 11
-13.3925
 21
140.533
  0
LINE
  8
0
 10
-13.3925
 20
140.533
 11
-13.0877
 21
140.312
  0
LINE
  8
0
 10
-13.0877
 20
140.312
 11
-12.8131
 21
140.054
  0
LINE
  8
0
 10
-12.8131
 20
140.054
 11
-12.5729
 21
139.763
  0
LINE
  8
0
 10
-12.5729
 20
139.763
 11
-12.3711
 21
139.445
  0
LINE
  8
0
 10
-12.3711
 20
139.445
 11
-12.2107
 21
139.104
  0
LINE
  8
0
 10
-12.2107
 20
139.104
 11
-12.0942
 21
138.746
  0
LINE
  8
0
 10
-12.0942
 20
138.746
 11
-12.0237
 21
138.376
  0
LINE
  8
0
 10
-12.0237
 20
138.376
 11
-12
 21
138
  0
LINE
  8
0
 10
-12
 20
138
 11
-12.0237
 21
137.624
  0
LINE
  8
0
 10
-12.0237
 20
137.624
 11
-12.0942
 21
137.254
  0
LINE
  8
0
 10
-12.0942
 20
137.254
 11
-12.2107
 21
136.896
  0
LINE
  8
0
 10
-12.2107
 20
136.896
 11
-12.3711
 21
136.555
  0
LINE
  8
0
 10
-12.3711
 20
136.555
 11
-12.5729
 21
136.237
  0
LINE
  8
0
 10
-12.5729
 20
136.237
 11
-12.8131
 21
135.946
  0
LINE
  8
0
 10
-12.8131
 20
135.946
 11
-13.0877
 21
135.688
  0
LINE
  8
0
 10
-13.0877
 20
135.688
 11
-13.3925
 21
135.467
  0
LINE
  8
0
 10
-13.3925
 20
135.467
 11
-13.7227
 21
135.286
  0
LINE
  8
0
 10
-13.7227
 20
135.286
 11
-14.0729
 21
135.147
  0
LINE
  8
0
 10
-14.0729
 20
135.147
 11
-14.4379
 21
135.053
  0
LINE
  8
0
 10
-14.4379
 20
135.053
 11
-14.8116
 21
135.006
  0
LINE
  8
0
 10
-14.8116
 20
135.006
 11
-15.1884
 21
135.006
  0
LINE
  8
0
 10
-9
 20
62.25
 11
-6.25
 21
62.25
  0
LINE
  8
0
 10
-6.25
 20
62.25
 11
-6.25
 21
65.5
  0
LINE
  8
0
 10
-6.25
 20
65.5
 11
-9
 21
65.5
  0
LINE
  8
0
 10
-9
 20
65.5
 11
-9
 21
102.5
  0
LINE
  8
0
 10
-9
 20
102.5
 11
-4.5
 21
102.5
  0
LINE
  8
0
 10
-4.5
 20
102.5
 11
-4.5
 21
106.5
  0
LINE
  8
0
 10
-4.5
 20
106.5
 11
4.5
 21
106.5
  0
LINE
  8
0
 10
4.5
 20
106.5
 11
4.5
 21
102.5
  0
LINE
  8
0
 10
4.5
 20
102.5
 11
9
 21
102.5
  0
LINE
  8
0
 10
9
 20
102.5
 11
9
 21
65.5
  0
LINE
  8
0
 10
9
 20
65.5
 11
6.25
 21
65.5
  0
LINE
  8
0
 10
6.25
 20
65.5
 11
6.25
 21
62.25
  0
LINE
  8
0
 10
6.25
 20
62.25
 11
9
 21
62.25
  0
LINE
  8
0
 10
9
 20
62.25
 11
9
 21
47.0099
  0
LINE
  8
0
 10
9
 20
47.0099
 11
17.3139
 21
47.0099
  0
LINE
  8
0
 10
17.3139
 20
47.0099
 11
17.9369
 21
47.0886
  0
LINE
  8
0
 10
17.9369
 20
47.0886
 11
18.5451
 21
47.2447
  0
LINE
  8
0
 10
18.5451
 20
47.2447
 11
19.1289
 21
47.4759
  0
LINE
  8
0
 10
19.1289
 20
47.4759
 11
19.6791
 21
47.7784
  0
LINE
  8
0
 10
19.6791
 20
47.7784
 11
20.1871
 21
48.1474
  0
LINE
  8
0
 10
20.1871
 20
48.1474
 11
20.6448
 21
48.5773
  0
LINE
  8
0
 10
20.6448
 20
48.5773
 11
21.0451
 21
49.0611
  0
LINE
  8
0
 10
21.0451
 20
49.0611
 11
21.3815
 21
49.5912
  0
LINE
  8
0
 10
21.3815
 20
49.5912
 11
21.6489
 21
50.1594
  0
LINE
  8
0
 10
21.6489
 20
50.1594
 11
21.8429
 21
50.7566
  0
LINE
  8
0
 10
21.8429
 20
50.7566
 11
21.9606
 21
51.3733
  0
LINE
  8
0
 10
21.9606
 20
51.3733
 11
22
 21
52
  0
LINE
  8
0
 10
22
 20
52
 11
22
 21
116
  0
LINE
  8
0
 10
22
 20
116
 11
21.9606
 21
116.627
  0
LINE
  8
0
 10
21.9606
 20
116.627
 11
21.8429
 21
117.243
  0
LINE
  8
0
 10
21.8429
 20
117.243
 11
21.6489
 21
117.841
  0
LINE
  8
0
 10
21.6489
 20
117.841
 11
21.3815
 21
118.409
  0
LINE
  8
0
 10
21.3815
 20
118.409
 11
21.0451
 21
118.939
  0
LINE
  8
0
 10
21.0451
 20
118.939
 11
20.6448
 21
119.423
  0
LINE
  8
0
 10
20.6448
 20
119.423
 11
20.1871
 21
119.853
  0
LINE
  8
0
 10
20.1871
 20
119.853
 11
19.6791
 21
120.222
  0
LINE
  8
0
 10
19.6791
 20
120.222
 11
19.1289
 21
120.524
  0
LINE
  8
0
 10
19.1289
 20
120.524
 11
18.5451
 21
120.755
  0
LINE
  8
0
 10
18.5451
 20
120.755
 11
17.9369
 21
120.911
  0
LINE
  8
0
 10
17.9369
 20
120.911
 11
17.3139
 21
120.99
  0
LINE
  8
0
 10
17.3139
 20
120.99
 11
-17.3139
 21
120.99
  0
LINE
  8
0
 10
-17.3139
 20
120.99
 11
-17.9369
 21
120.911
  0
LINE
  8
0
 10
-17.9369
 20
120.911
 11
-18.5451
 21
120.755
  0
LINE
  8
0
 10
-18.5451
 20
120.755
 11
-19.1289
 21
120.524
  0
LINE
  8
0
 10
-19.1289
 20
120.524
 11
-19.6791
 21
120.222
  0
LINE
  8
0
 10
-19.6791
 20
120.222
 11
-20.1871
 21
119.853
  0
LINE
  8
0
 10
-20.1871
 20
119.853
 11
-20.6448
 21
119.423
  0
LINE
  8
0
 10
-20.6448
 20
119.423
 11
-21.0451
 21
118.939
  0
LINE
  8
0
 10
-21.0451
 20
118.939
 11
-21.3815
 21
118.409
  0
LINE
  8
0
 10
-21.3815
 20
118.409
 11
-21.6489
 21
117.841
  0
LINE
  8
0
 10
-21.6489
 20
117.841
 11
-21.8429
 21
117.243
  0
LINE
  8
0
 10
-21.8429
 20
117.243
 11
-21.9606
 21
116.627
  0
LINE
  8
0
 10
-21.9606
 20
116.627
 11
-22
 21
116
  0
LINE
  8
0
 10
-22
 20
116
 11
-22
 21
52
  0
LINE
  8
0
 10
-22
 20
52
 11
-21.9606
 21
51.3733
  0
LINE
  8
0
 10
-21.9606
 20
51.3733
 11
-21.8429
 21
50.7566
  0
LINE
  8
0
 10
-21.8429
 20
50.7566
 11
-21.6489
 21
50.1594
  0
LINE
  8
0
 10
-21.6489
 20
50.1594
 11
-21.3815
 21
49.5912
  0
LINE
  8
0
 10
-21.3815
 20
49.5912
 11
-21.0451
 21
49.0611
  0
LINE
  8
0
 10
-21.0451
 20
49.0611
 11
-20.6448
 21
48.5773
  0
LINE
  8
0
 10
-20.6448
 20
48.5773
 11
-20.1871
 21
48.1474
  0
LINE
  8
0
 10
-20.1871
 20
48.1474
 11
-19.6791
 21
47.7784
  0
LINE
  8
0
 10
-19.6791
 20
47.7784
 11
-19.1289
 21
47.4759
  0
LINE
  8
0
 10
-19.1289
 20
47.4759
 11
-18.5451
 21
47.2447
  0
LINE
  8
0
 10
-18.5451
 20
47.2447
 11
-17.9369
 21
47.0886
  0
LINE
  8
0
 10
-17.9369
 20
47.0886
 11
-17.3139
 21
47.0099
  0
LINE
  8
0
 10
-17.3139
 20
47.0099
 11
-9
 21
47.0099
  0
LINE
  8
0
 10
-9
 20
47.0099
 11
-9
 21
62.25
  0
LINE
  8
0
 10
-15.1884
 20
111.006
 11
-15.5621
 21
111.053
  0
LINE
  8
0
 10
-15.5621
 20
111.053
 11
-15.927
 21
111.147
  0
LINE
  8
0
 10
-15.927
 20
111.147
 11
-16.2773
 21
111.286
  0
LINE
  8
0
 10
-16.2773
 20
111.286
 11
-16.6075
 21
111.467
  0
LINE
  8
0
 10
-16.6075
 20
111.467
 11
-16.9123
 21
111.688
  0
LINE
  8
0
 10
-16.9123
 20
111.688
 11
-17.1869
 21
111.946
  0
LINE
  8
0
 10
-17.1869
 20
111.946
 11
-17.427
 21
112.237
  0
LINE
  8
0
 10
-17.427
 20
112.237
 11
-17.6289
 21
112.555
  0
LINE
  8
0
 10
-17.6289
 20
112.555
 11
-17.7893
 21
112.896
  0
LINE
  8
0
 10
-17.7893
 20
112.896
 11
-17.9057
 21
113.254
  0
LINE
  8
0
 10
-17.9057
 20
113.254
 11
-17.9763
 21
113.624
  0
LINE
  8
0
 10
-17.9763
 20
113.624
 11
-18
 21
114
  0
LINE
  8
0
 10
-18
 20
114
 11
-17.9763
 21
114.376
  0
LINE
  8
0
 10
-17.9763
 20
114.376
 11
-17.9057
 21
114.746
  0
LINE
  8
0
 10
-17.9057
 20
114.746
 11
-17.7893
 21
115.104
  0
LINE
  8
0
 10
-17.7893
 20
115.104
 11
-17.6289
 21
115.445
  0
LINE
  8
0
 10
-17.6289
 20
115.445
 11
-17.427
 21
115.763
  0
LINE
  8
0
 10
-17.427
 20
115.763
 11
-17.1869
 21
116.054
  0
LINE
  8
0
 10
-17.1869
 20
116.054
 11
-16.9123
 21
116.312
  0
LINE
  8
0
 10
-16.9123
 20
116.312
 11
-16.6075
 21
116.533
  0
LINE
  8
0
 10
-16.6075
 20
116.533
 11
-16.2773
 21
116.714
  0
LINE
  8
0
 10
-16.2773
 20
116.714
 11
-15.927
 21
116.853
  0
LINE
  8
0
 10
-15.927
 20
116.853
 11
-15.5621
 21
116.947
  0
LINE
  8
0
 10
-15.5621
 20
116.947
 11
-15.1884
 21
116.994
  0
LINE
  8
0
 10
-15.1884
 20
116.994
 11
-14.8116
 21
116.994
  0
LINE
  8
0
 10
-14.8116
 20
116.994
 11
-14.4379
 21
116.947
  0
LINE
  8
0
 10
-14.4379
 20
116.947
 11
-14.0729
 21
116.853
  0
LINE
  8
0
 10
-14.0729
 20
116.853
 11
-13.7227
 21
116.714
  0
LINE
  8
0
 10
-13.7227
 20
116.714
 11
-13.3925
 21
116.533
  0
LINE
  8
0
 10
-13.3925
 20
116.533
 11
-13.0877
 21
116.312
  0
LINE
  8
0
 10
-13.0877
 20
116.312
 11
-12.8131
 21
116.054
  0
LINE
  8
0
 10
-12.8131
 20
116.054
 11
-12.5729
 21
115.763
  0
LINE
  8
0
 10
-12.5729
 20
115.763
 11
-12.3711
 21
115.445
  0
LINE
  8
0
 10
-12.3711
 20
115.445
 11
-12.2107
 21
115.104
  0
LINE
  8
0
 10
-12.2107
 20
115.104
 11
-12.0942
 21
114.746
  0
LINE
  8
0
 10
-12.0942
 20
114.746
 11
-12.0237
 21
114.376
  0
LINE
  8
0
 10
-12.0237
 20
114.376
 11
-12
 21
114
  0
LINE
  8
0
 10
-12
 20
114
 11
-12.0237
 21
113.624
  0
LINE
  8
0
 10
-12.0237
 20
113.624
 11
-12.0942
 21
113.254
  0
LINE
  8
0
 10
-12.0942
 20
113.254
 11
-12.2107
 21
112.896
  0
LINE
  8
0
 10
-12.2107
 20
112.896
 11
-12.3711
 21
112.555
  0
LINE
  8
0
 10
-12.3711
 20
112.555
 11
-12.5729
 21
112.237
  0
LINE
  8
0
 10
-12.5729
 20
112.237
 11
-12.8131
 21
111.946
  0
LINE
  8
0
 10
-12.8131
 20
111.946
 11
-13.0877
 21
111.688
  0
LINE
  8
0
 10
-13.0877
 20
111.688
 11
-13.3925
 21
111.467
  0
LINE
  8
0
 10
-13.3925
 20
111.467
 11
-13.7227
 21
111.286
  0
LINE
  8
0
 10
-13.7227
 20
111.286
 11
-14.0729
 21
111.147
  0
LINE
  8
0
 10
-14.0729
 20
111.147
 11
-14.4379
 21
111.053
  0
LINE
  8
0
 10
-14.4379
 20
111.053
 11
-14.8116
 21
111.006
  0
LINE
  8
0
 10
-14.8116
 20
111.006
 11
-15.1884
 21
111.006
  0
LINE
  8
0
 10
14.8116
 20
111.006
 11
14.4379
 21
111.053
  0
LINE
  8
0
 10
14.4379
 20
111.053
 11
14.0729
 21
111.147
  0
LINE
  8
0
 10
14.0729
 20
111.147
 11
13.7227
 21
111.286
  0
LINE
  8
0
 10
13.7227
 20
111.286
 11
13.3925
 21
111.467
  0
LINE
  8
0
 10
13.3925
 20
111.467
 11
13.0877
 21
111.688
  0
LINE
  8
0
 10
13.0877
 20
111.688
 11
12.8131
 21
111.946
  0
LINE
  8
0
 10
12.8131
 20
111.946
 11
12.5729
 21
112.237
  0
LINE
  8
0
 10
12.5729
 20
112.237
 11
12.3711
 21
112.555
  0
LINE
  8
0
 10
12.3711
 20
112.555
 11
12.2107
 21
112.896
  0
LINE
  8
0
 10
12.2107
 20
112.896
 11
12.0942
 21
113.254
  0
LINE
  8
0
 10
12.0942
 20
113.254
 11
12.0237
 21
113.624
  0
LINE
  8
0
 10
12.0237
 20
113.624
 11
12
 21
114
  0
LINE
  8
0
 10
12
 20
114
 11
12.0237
 21
114.376
  0
LINE
  8
0
 10
12.0237
 20
114.376
 11
12.0942
 21
114.746
  0
LINE
  8
0
 10
12.0942
 20
114.746
 11
12.2107
 21
115.104
  0
LINE
  8
0
 10
12.2107
 20
115.104
 11
12.3711
 21
115.445
  0
LINE
  8
0
 10
12.3711
 20
115.445
 11
12.5729
 21
115.763
  0
LINE
  8
0
 10
12.5729
 20
115.763
 11
12.8131
 21
116.054
  0
LINE
  8
0
 10
12.8131
 20
116.054
 11
13.0877
 21
116.312
  0
LINE
  8
0
 10
13.0877
 20
116.312
 11
13.3925
 21
116.533
  0
LINE
  8
0
 10
13.3925
 20
116.533
 11
13.7227
 21
116.714
  0
LINE
  8
0
 10
13.7227
 20
116.714
 11
14.0729
 21
116.853
  0
LINE
  8
0
 10
14.0729
 20
116.853
 11
14.4379
 21
116.947
  0
LINE
  8
0
 10
14.4379
 20
116.947
 11
14.8116
 21
116.994
  0
LINE
  8
0
 10
14.8116
 20
116.994
 11
15.1884
 21
116.994
  0
LINE
  8
0
 10
15.1884
 20
116.994
 11
15.5621
 21
116.947
  0
LINE
  8
0
 10
15.5621
 20
116.947
 11
15.927
 21
116.853
  0
LINE
  8
0
 10
15.927
 20
116.853
 11
16.2773
 21
116.714
  0
LINE
  8
0
 10
16.2773
 20
116.714
 11
16.6075
 21
116.533
  0
LINE
  8
0
 10
16.6075
 20
116.533
 11
16.9123
 21
116.312
  0
LINE
  8
0
 10
16.9123
 20
116.312
 11
17.1869
 21
116.054
  0
LINE
  8
0
 10
17.1869
 20
116.054
 11
17.427
 21
115.763
  0
LINE
  8
0
 10
17.427
 20
115.763
 11
17.6289
 21
115.445
  0
LINE
  8
0
 10
17.6289
 20
115.445
 11
17.7893
 21
115.104
  0
LINE
  8
0
 10
17.7893
 20
115.104
 11
17.9057
 21
114.746
  0
LINE
  8
0
 10
17.9057
 20
114.746
 11
17.9763
 21
114.376
  0
LINE
  8
0
 10
17.9763
 20
114.376
 11
18
 21
114
  0
LINE
  8
0
 10
18
 20
114
 11
17.9763
 21
113.624
  0
LINE
  8
0
 10
17.9763
 20
113.624
 11
17.9057
 21
113.254
  0
LINE
  8
0
 10
17.9057
 20
113.254
 11
17.7893
 21
112.896
  0
LINE
  8
0
 10
17.7893
 20
112.896
 11
17.6289
 21
112.555
  0
LINE
  8
0
 10
17.6289
 20
112.555
 11
17.427
 21
112.237
  0
LINE
  8
0
 10
17.427
 20
112.237
 11
17.1869
 21
111.946
  0
LINE
  8
0
 10
17.1869
 20
111.946
 11
16.9123
 21
111.688
  0
LINE
  8
0
 10
16.9123
 20
111.688
 11
16.6075
 21
111.467
  0
LINE
  8
0
 10
16.6075
 20
111.467
 11
16.2773
 21
111.286
  0
LINE
  8
0
 10
16.2773
 20
111.286
 11
15.927
 21
111.147
  0
LINE
  8
0
 10
15.927
 20
111.147
 11
15.5621
 21
111.053
  0
LINE
  8
0
 10
15.5621
 20
111.053
 11
15.1884
 21
111.006
  0
LINE
  8
0
 10
15.1884
 20
111.006
 11
14.8116
 21
111.006
  0
LINE
  8
0
 10
-0.18837
 20
111.006
 11
-0.562134
 21
111.053
  0
LINE
  8
0
 10
-0.562134
 20
111.053
 11
-0.927048
 21
111.147
  0
LINE
  8
0
 10
-0.927048
 20
111.147
 11
-1.27733
 21
111.286
  0
LINE
  8
0
 10
-1.27733
 20
111.286
 11
-1.60747
 21
111.467
  0
LINE
  8
0
 10
-1.60747
 20
111.467
 11
-1.91226
 21
111.688
  0
LINE
  8
0
 10
-1.91226
 20
111.688
 11
-2.1869
 21
111.946
  0
LINE
  8
0
 10
-2.1869
 20
111.946
 11
-2.42705
 21
112.237
  0
LINE
  8
0
 10
-2.42705
 20
112.237
 11
-2.62891
 21
112.555
  0
LINE
  8
0
 10
-2.62891
 20
112.555
 11
-2.78932
 21
112.896
  0
LINE
  8
0
 10
-2.78932
 20
112.896
 11
-2.90575
 21
113.254
  0
LINE
  8
0
 10
-2.90575
 20
113.254
 11
-2.97633
 21
113.624
  0
LINE
  8
0
 10
-2.97633
 20
113.624
 11
-3
 21
114
  0
LINE
  8
0
 10
-3
 20
114
 11
-2.97633
 21
114.376
  0
LINE
  8
0
 10
-2.97633
 20
114.376
 11
-2.90575
 21
114.746
  0
LINE
  8
0
 10
-2.90575
 20
114.746
 11
-2.78932
 21
115.104
  0
LINE
  8
0
 10
-2.78932
 20
115.104
 11
-2.62891
 21
115.445
  0
LINE
  8
0
 10
-2.62891
 20
115.445
 11
-2.42705
 21
115.763
  0
LINE
  8
0
 10
-2.42705
 20
115.763
 11
-2.1869
 21
116.054
  0
LINE
  8
0
 10
-2.1869
 20
116.054
 11
-1.91226
 21
116.312
  0
LINE
  8
0
 10
-1.91226
 20
116.312
 11
-1.60747
 21
116.533
  0
LINE
  8
0
 10
-1.60747
 20
116.533
 11
-1.27733
 21
116.714
  0
LINE
  8
0
 10
-1.27733
 20
116.714
 11
-0.927048
 21
116.853
  0
LINE
  8
0
 10
-0.927048
 20
116.853
 11
-0.562134
 21
116.947
  0
LINE
  8
0
 10
-0.562134
 20
116.947
 11
-0.18837
 21
116.994
  0
LINE
  8
0
 10
-0.18837
 20
116.994
 11
0.18837
 21
116.994
  0
LINE
  8
0
 10
0.18837
 20
116.994
 11
0.562134
 21
116.947
  0
LINE
  8
0
 10
0.562134
 20
116.947
 11
0.927048
 21
116.853
  0
LINE
  8
0
 10
0.927048
 20
116.853
 11
1.27733
 21
116.714
  0
LINE
  8
0
 10
1.27733
 20
116.714
 11
1.60747
 21
116.533
  0
LINE
  8
0
 10
1.60747
 20
116.533
 11
1.91226
 21
116.312
  0
LINE
  8
0
 10
1.91226
 20
116.312
 11
2.1869
 21
116.054
  0
LINE
  8
0
 10
2.1869
 20
116.054
 11
2.42705
 21
115.763
  0
LINE
  8
0
 10
2.42705
 20
115.763
 11
2.62891
 21
115.445
  0
LINE
  8
0
 10
2.62891
 20
115.445
 11
2.78932
 21
115.104
  0
LINE
  8
0
 10
2.78932
 20
115.104
 11
2.90575
 21
114.746
  0
LINE
  8
0
 10
2.90575
 20
114.746
 11
2.97633
 21
114.376
  0
LINE
  8
0
 10
2.97633
 20
114.376
 11
3
 21
114
  0
LINE
  8
0
 10
3
 20
114
 11
2.97633
 21
113.624
  0
LINE
  8
0
 10
2.97633
 20
113.624
 11
2.90575
 21
113.254
  0
LINE
  8
0
 10
2.90575
 20
113.254
 11
2.78932
 21
112.896
  0
LINE
  8
0
 10
2.78932
 20
112.896
 11
2.62891
 21
112.555
  0
LINE
  8
0
 10
2.62891
 20
112.555
 11
2.42705
 21
112.237
  0
LINE
  8
0
 10
2.42705
 20
112.237
 11
2.1869
 21
111.946
  0
LINE
  8
0
 10
2.1869
 20
111.946
 11
1.91226
 21
111.688
  0
LINE
  8
0
 10
1.91226
 20
111.688
 11
1.60747
 21
111.467
  0
LINE
  8
0
 10
1.60747
 20
111.467
 11
1.27733
 21
111.286
  0
LINE
  8
0
 10
1.27733
 20
111.286
 11
0.927048
 21
111.147
  0
LINE
  8
0
 10
0.927048
 20
111.147
 11
0.562134
 21
111.053
  0
LINE
  8
0
 10
0.562134
 20
111.053
 11
0.18837
 21
111.006
  0
LINE
  8
0
 10
0.18837
 20
111.006
 11
-0.18837
 21
111.006
  0
LINE
  8
0
 10
7.40581
 20
112.503
 11
7.21892
 21
112.527
  0
LINE
  8
0
 10
7.21892
 20
112.527
 11
7.03647
 21
112.573
  0
LINE
  8
0
 10
7.03647
 20
112.573
 11
6.86133
 21
112.643
  0
LINE
  8
0
 10
6.86133
 20
112.643
 11
6.69626
 21
112.734
  0
LINE
  8
0
 10
6.69626
 20
112.734
 11
6.54385
 21
112.844
  0
LINE
  8
0
 10
6.54385
 20
112.844
 11
6.40654
 21
112.973
  0
LINE
  8
0
 10
6.40654
 20
112.973
 11
6.28647
 21
113.118
  0
LINE
  8
0
 10
6.28647
 20
113.118
 11
6.18553
 21
113.277
  0
LINE
  8
0
 10
6.18553
 20
113.277
 11
6.10533
 21
113.448
  0
LINE
  8
0
 10
6.10533
 20
113.448
 11
6.04712
 21
113.627
  0
LINE
  8
0
 10
6.04712
 20
113.627
 11
6.01183
 21
113.812
  0
LINE
  8
0
 10
6.01183
 20
113.812
 11
6
 21
114
  0
LINE
  8
0
 10
6
 20
114
 11
6.01183
 21
114.188
  0
LINE
  8
0
 10
6.01183
 20
114.188
 11
6.04712
 21
114.373
  0
LINE
  8
0
 10
6.04712
 20
114.373
 11
6.10533
 21
114.552
  0
LINE
  8
0
 10
6.10533
 20
114.552
 11
6.18553
 21
114.723
  0
LINE
  8
0
 10
6.18553
 20
114.723
 11
6.28647
 21
114.882
  0
LINE
  8
0
 10
6.28647
 20
114.882
 11
6.40654
 21
115.027
  0
LINE
  8
0
 10
6.40654
 20
115.027
 11
6.54385
 21
115.156
  0
LINE
  8
0
 10
6.54385
 20
115.156
 11
6.69626
 21
115.266
  0
LINE
  8
0
 10
6.69626
 20
115.266
 11
6.86133
 21
115.357
  0
LINE
  8
0
 10
6.86133
 20
115.357
 11
7.03647
 21
115.427
  0
LINE
  8
0
 10
7.03647
 20
115.427
 11
7.21892
 21
115.473
  0
LINE
  8
0
 10
7.21892
 20
115.473
 11
7.40581
 21
115.497
  0
LINE
  8
0
 10
7.40581
 20
115.497
 11
7.59418
 21
115.497
  0
LINE
  8
0
 10
7.59418
 20
115.497
 11
7.78107
 21
115.473
  0
LINE
  8
0
 10
7.78107
 20
115.473
 11
7.96352
 21
115.427
  0
LINE
  8
0
 10
7.96352
 20
115.427
 11
8.13866
 21
115.357
  0
LINE
  8
0
 10
8.13866
 20
115.357
 11
8.30373
 21
115.266
  0
LINE
  8
0
 10
8.30373
 20
115.266
 11
8.45613
 21
115.156
  0
LINE
  8
0
 10
8.45613
 20
115.156
 11
8.59344
 21
115.027
  0
LINE
  8
0
 10
8.59344
 20
115.027
 11
8.71352
 21
114.882
  0
LINE
  8
0
 10
8.71352
 20
114.882
 11
8.81445
 21
114.723
  0
LINE
  8
0
 10
8.81445
 20
114.723
 11
8.89465
 21
114.552
  0
LINE
  8
0
 10
8.89465
 20
114.552
 11
8.95287
 21
114.373
  0
LINE
  8
0
 10
8.95287
 20
114.373
 11
8.98816
 21
114.188
  0
LINE
  8
0
 10
8.98816
 20
114.188
 11
9
 21
114
  0
LINE
  8
0
 10
9
 20
114
 11
8.98816
 21
113.812
  0
LINE
  8
0
 10
8.98816
 20
113.812
 11
8.95287
 21
113.627
  0
LINE
  8
0
 10
8.95287
 20
113.627
 11
8.89465
 21
113.448
  0
LINE
  8
0
 10
8.89465
 20
113.448
 11
8.81445
 21
113.277
  0
LINE
  8
0
 10
8.81445
 20
113.277
 11
8.71352
 21
113.118
  0
LINE
  8
0
 10
8.71352
 20
113.118
 11
8.59344
 21
112.973
  0
LINE
  8
0
 10
8.59344
 20
112.973
 11
8.45613
 21
112.844
  0
LINE
  8
0
 10
8.45613
 20
112.844
 11
8.30373
 21
112.734
  0
LINE
  8
0
 10
8.30373
 20
112.734
 11
8.13866
 21
112.643
  0
LINE
  8
0
 10
8.13866
 20
112.643
 11
7.96352
 21
112.573
  0
LINE
  8
0
 10
7.96352
 20
112.573
 11
7.78107
 21
112.527
  0
LINE
  8
0
 10
7.78107
 20
112.527
 11
7.59418
 21
112.503
  0
LINE
  8
0
 10
7.59418
 20
112.503
 11
7.40581
 21
112.503
  0
LINE
  8
0
 10
-7.59418
 20
112.503
 11
-7.78107
 21
112.527
  0
LINE
  8
0
 10
-7.78107
 20
112.527
 11
-7.96352
 21
112.573
  0
LINE
  8
0
 10
-7.96352
 20
112.573
 11
-8.13866
 21
112.643
  0
LINE
  8
0
 10
-8.13866
 20
112.643
 11
-8.30373
 21
112.734
  0
LINE
  8
0
 10
-8.30373
 20
112.734
 11
-8.45613
 21
112.844
  0
LINE
  8
0
 10
-8.45613
 20
112.844
 11
-8.59344
 21
112.973
  0
LINE
  8
0
 10
-8.59344
 20
112.973
 11
-8.71352
 21
113.118
  0
LINE
  8
0
 10
-8.71352
 20
113.118
 11
-8.81445
 21
113.277
  0
LINE
  8
0
 10
-8.81445
 20
113.277
 11
-8.89465
 21
113.448
  0
LINE
  8
0
 10
-8.89465
 20
113.448
 11
-8.95287
 21
113.627
  0
LINE
  8
0
 10
-8.95287
 20
113.627
 11
-8.98816
 21
113.812
  0
LINE
  8
0
 10
-8.98816
 20
113.812
 11
-9
 21
114
  0
LINE
  8
0
 10
-9
 20
114
 11
-8.98816
 21
114.188
  0
LINE
  8
0
 10
-8.98816
 20
114.188
 11
-8.95287
 21
114.373
  0
LINE
  8
0
 10
-8.95287
 20
114.373
 11
-8.89465
 21
114.552
  0
LINE
  8
0
 10
-8.89465
 20
114.552
 11
-8.81445
 21
114.723
  0
LINE
  8
0
 10
-8.81445
 20
114.723
 11
-8.71352
 21
114.882
  0
LINE
  8
0
 10
-8.71352
 20
114.882
 11
-8.59344
 21
115.027
  0
LINE
  8
0
 10
-8.59344
 20
115.027
 11
-8.45613
 21
115.156
  0
LINE
  8
0
 10
-8.45613
 20
115.156
 11
-8.30373
 21
115.266
  0
LINE
  8
0
 10
-8.30373
 20
115.266
 11
-8.13866
 21
115.357
  0
LINE
  8
0
 10
-8.13866
 20
115.357
 11
-7.96352
 21
115.427
  0
LINE
  8
0
 10
-7.96352
 20
115.427
 11
-7.78107
 21
115.473
  0
LINE
  8
0
 10
-7.78107
 20
115.473
 11
-7.59418
 21
115.497
  0
LINE
  8
0
 10
-7.59418
 20
115.497
 11
-7.40581
 21
115.497
  0
LINE
  8
0
 10
-7.40581
 20
115.497
 11
-7.21892
 21
115.473
  0
LINE
  8
0
 10
-7.21892
 20
115.473
 11
-7.03647
 21
115.427
  0
LINE
  8
0
 10
-7.03647
 20
115.427
 11
-6.86133
 21
115.357
  0
LINE
  8
0
 10
-6.86133
 20
115.357
 11
-6.69626
 21
115.266
  0
LINE
  8
0
 10
-6.69626
 20
115.266
 11
-6.54385
 21
115.156
  0
LINE
  8
0
 10
-6.54385
 20
115.156
 11
-6.40654
 21
115.027
  0
LINE
  8
0
 10
-6.40654
 20
115.027
 11
-6.28647
 21
114.882
  0
LINE
  8
0
 10
-6.28647
 20
114.882
 11
-6.18553
 21
114.723
  0
LINE
  8
0
 10
-6.18553
 20
114.723
 11
-6.10533
 21
114.552
  0
LINE
  8
0
 10
-6.10533
 20
114.552
 11
-6.04712
 21
114.373
  0
LINE
  8
0
 10
-6.04712
 20
114.373
 11
-6.01183
 21
114.188
  0
LINE
  8
0
 10
-6.01183
 20
114.188
 11
-6
 21
114
  0
LINE
  8
0
 10
-6
 20
114
 11
-6.01183
 21
113.812
  0
LINE
  8
0
 10
-6.01183
 20
113.812
 11
-6.04712
 21
113.627
  0
LINE
  8
0
 10
-6.04712
 20
113.627
 11
-6.10533
 21
113.448
  0
LINE
  8
0
 10
-6.10533
 20
113.448
 11
-6.18553
 21
113.277
  0
LINE
  8
0
 10
-6.18553
 20
113.277
 11
-6.28647
 21
113.118
  0
LINE
  8
0
 10
-6.28647
 20
113.118
 11
-6.40654
 21
112.973
  0
LINE
  8
0
 10
-6.40654
 20
112.973
 11
-6.54385
 21
112.844
  0
LINE
  8
0
 10
-6.54385
 20
112.844
 11
-6.69626
 21
112.734
  0
LINE
  8
0
 10
-6.69626
 20
112.734
 11
-6.86133
 21
112.643
  0
LINE
  8
0
 10
-6.86133
 20
112.643
 11
-7.03647
 21
112.573
  0
LINE
  8
0
 10
-7.03647
 20
112.573
 11
-7.21892
 21
112.527
  0
LINE
  8
0
 10
-7.21892
 20
112.527
 11
-7.40581
 21
112.503
  0
LINE
  8
0
 10
-7.40581
 20
112.503
 11
-7.59418
 21
112.503
  0
LINE
  8
0
 10
-15.0942
 20
105.003
 11
-15.2811
 21
105.027
  0
LINE
  8
0
 10
-15.2811
 20
105.027
 11
-15.4635
 21
105.073
  0
LINE
  8
0
 10
-15.4635
 20
105.073
 11
-15.6387
 21
105.143
  0
LINE
  8
0
 10
-15.6387
 20
105.143
 11
-15.8037
 21
105.234
  0
LINE
  8
0
 10
-15.8037
 20
105.234
 11
-15.9561
 21
105.344
  0
LINE
  8
0
 10
-15.9561
 20
105.344
 11
-16.0934
 21
105.473
  0
LINE
  8
0
 10
-16.0934
 20
105.473
 11
-16.2135
 21
105.618
  0
LINE
  8
0
 10
-16.2135
 20
105.618
 11
-16.3145
 21
105.777
  0
LINE
  8
0
 10
-16.3145
 20
105.777
 11
-16.3947
 21
105.948
  0
LINE
  8
0
 10
-16.3947
 20
105.948
 11
-16.4529
 21
106.127
  0
LINE
  8
0
 10
-16.4529
 20
106.127
 11
-16.4882
 21
106.312
  0
LINE
  8
0
 10
-16.4882
 20
106.312
 11
-16.5
 21
106.5
  0
LINE
  8
0
 10
-16.5
 20
106.5
 11
-16.4882
 21
106.688
  0
LINE
  8
0
 10
-16.4882
 20
106.688
 11
-16.4529
 21
106.873
  0
LINE
  8
0
 10
-16.4529
 20
106.873
 11
-16.3947
 21
107.052
  0
LINE
  8
0
 10
-16.3947
 20
107.052
 11
-16.3145
 21
107.223
  0
LINE
  8
0
 10
-16.3145
 20
107.223
 11
-16.2135
 21
107.382
  0
LINE
  8
0
 10
-16.2135
 20
107.382
 11
-16.0934
 21
107.527
  0
LINE
  8
0
 10
-16.0934
 20
107.527
 11
-15.9561
 21
107.656
  0
LINE
  8
0
 10
-15.9561
 20
107.656
 11
-15.8037
 21
107.766
  0
LINE
  8
0
 10
-15.8037
 20
107.766
 11
-15.6387
 21
107.857
  0
LINE
  8
0
 10
-15.6387
 20
107.857
 11
-15.4635
 21
107.927
  0
LINE
  8
0
 10
-15.4635
 20
107.927
 11
-15.2811
 21
107.973
  0
LINE
  8
0
 10
-15.2811
 20
107.973
 11
-15.0942
 21
107.997
  0
LINE
  8
0
 10
-15.0942
 20
107.997
 11
-14.9058
 21
107.997
  0
LINE
  8
0
 10
-14.9058
 20
107.997
 11
-14.7189
 21
107.973
  0
LINE
  8
0
 10
-14.7189
 20
107.973
 11
-14.5365
 21
107.927
  0
LINE
  8
0
 10
-14.5365
 20
107.927
 11
-14.3613
 21
107.857
  0
LINE
  8
0
 10
-14.3613
 20
107.857
 11
-14.1963
 21
107.766
  0
LINE
  8
0
 10
-14.1963
 20
107.766
 11
-14.0439
 21
107.656
  0
LINE
  8
0
 10
-14.0439
 20
107.656
 11
-13.9065
 21
107.527
  0
LINE
  8
0
 10
-13.9065
 20
107.527
 11
-13.7865
 21
107.382
  0
LINE
  8
0
 10
-13.7865
 20
107.382
 11
-13.6855
 21
107.223
  0
LINE
  8
0
 10
-13.6855
 20
107.223
 11
-13.6053
 21
107.052
  0
LINE
  8
0
 10
-13.6053
 20
107.052
 11
-13.5471
 21
106.873
  0
LINE
  8
0
 10
-13.5471
 20
106.873
 11
-13.5118
 21
106.688
  0
LINE
  8
0
 10
-13.5118
 20
106.688
 11
-13.5
 21
106.5
  0
LINE
  8
0
 10
-13.5
 20
106.5
 11
-13.5118
 21
106.312
  0
LINE
  8
0
 10
-13.5118
 20
106.312
 11
-13.5471
 21
106.127
  0
LINE
  8
0
 10
-13.5471
 20
106.127
 11
-13.6053
 21
105.948
  0
LINE
  8
0
 10
-13.6053
 20
105.948
 11
-13.6855
 21
105.777
  0
LINE
  8
0
 10
-13.6855
 20
105.777
 11
-13.7865
 21
105.618
  0
LINE
  8
0
 10
-13.7865
 20
105.618
 11
-13.9065
 21
105.473
  0
LINE
  8
0
 10
-13.9065
 20
105.473
 11
-14.0439
 21
105.344
  0
LINE
  8
0
 10
-14.0439
 20
105.344
 11
-14.1963
 21
105.234
  0
LINE
  8
0
 10
-14.1963
 20
105.234
 11
-14.3613
 21
105.143
  0
LINE
  8
0
 10
-14.3613
 20
105.143
 11
-14.5365
 21
105.073
  0
LINE
  8
0
 10
-14.5365
 20
105.073
 11
-14.7189
 21
105.027
  0
LINE
  8
0
 10
-14.7189
 20
105.027
 11
-14.9058
 21
105.003
  0
LINE
  8
0
 10
-14.9058
 20
105.003
 11
-15.0942
 21
105.003
  0
LINE
  8
0
 10
14.9058
 20
105.003
 11
14.7189
 21
105.027
  0
LINE
  8
0
 10
14.7189
 20
105.027
 11
14.5365
 21
105.073
  0
LINE
  8
0
 10
14.5365
 20
105.073
 11
14.3613
 21
105.143
  0
LINE
  8
0
 10
14.3613
 20
105.143
 11
14.1963
 21
105.234
  0
LINE
  8
0
 10
14.1963
 20
105.234
 11
14.0439
 21
105.344
  0
LINE
  8
0
 10
14.0439
 20
105.344
 11
13.9065
 21
105.473
  0
LINE
  8
0
 10
13.9065
 20
105.473
 11
13.7865
 21
105.618
  0
LINE
  8
0
 10
13.7865
 20
105.618
 11
13.6855
 21
105.777
  0
LINE
  8
0
 10
13.6855
 20
105.777
 11
13.6053
 21
105.948
  0
LINE
  8
0
 10
13.6053
 20
105.948
 11
13.5471
 21
106.127
  0
LINE
  8
0
 10
13.5471
 20
106.127
 11
13.5118
 21
106.312
  0
LINE
  8
0
 10
13.5118
 20
106.312
 11
13.5
 21
106.5
  0
LINE
  8
0
 10
13.5
 20
106.5
 11
13.5118
 21
106.688
  0
LINE
  8
0
 10
13.5118
 20
106.688
 11
13.5471
 21
106.873
  0
LINE
  8
0
 10
13.5471
 20
106.873
 11
13.6053
 21
107.052
  0
LINE
  8
0
 10
13.6053
 20
107.052
 11
13.6855
 21
107.223
  0
LINE
  8
0
 10
13.6855
 20
107.223
 11
13.7865
 21
107.382
  0
LINE
  8
0
 10
13.7865
 20
107.382
 11
13.9065
 21
107.527
  0
LINE
  8
0
 10
13.9065
 20
107.527
 11
14.0439
 21
107.656
  0
LINE
  8
0
 10
14.0439
 20
107.656
 11
14.1963
 21
107.766
  0
LINE
  8
0
 10
14.1963
 20
107.766
 11
14.3613
 21
107.857
  0
LINE
  8
0
 10
14.3613
 20
107.857
 11
14.5365
 21
107.927
  0
LINE
  8
0
 10
14.5365
 20
107.927
 11
14.7189
 21
107.973
  0
LINE
  8
0
 10
14.7189
 20
107.973
 11
14.9058
 21
107.997
  0
LINE
  8
0
 10
14.9058
 20
107.997
 11
15.0942
 21
107.997
  0
LINE
  8
0
 10
15.0942
 20
107.997
 11
15.2811
 21
107.973
  0
LINE
  8
0
 10
15.2811
 20
107.973
 11
15.4635
 21
107.927
  0
LINE
  8
0
 10
15.4635
 20
107.927
 11
15.6387
 21
107.857
  0
LINE
  8
0
 10
15.6387
 20
107.857
 11
15.8037
 21
107.766
  0
LINE
  8
0
 10
15.8037
 20
107.766
 11
15.9561
 21
107.656
  0
LINE
  8
0
 10
15.9561
 20
107.656
 11
16.0934
 21
107.527
  0
LINE
  8
0
 10
16.0934
 20
107.527
 11
16.2135
 21
107.382
  0
LINE
  8
0
 10
16.2135
 20
107.382
 11
16.3145
 21
107.223
  0
LINE
  8
0
 10
16.3145
 20
107.223
 11
16.3947
 21
107.052
  0
LINE
  8
0
 10
16.3947
 20
107.052
 11
16.4529
 21
106.873
  0
LINE
  8
0
 10
16.4529
 20
106.873
 11
16.4882
 21
106.688
  0
LINE
  8
0
 10
16.4882
 20
106.688
 11
16.5
 21
106.5
  0
LINE
  8
0
 10
16.5
 20
106.5
 11
16.4882
 21
106.312
  0
LINE
  8
0
 10
16.4882
 20
106.312
 11
16.4529
 21
106.127
  0
LINE
  8
0
 10
16.4529
 20
106.127
 11
16.3947
 21
105.948
  0
LINE
  8
0
 10
16.3947
 20
105.948
 11
16.3145
 21
105.777
  0
LINE
  8
0
 10
16.3145
 20
105.777
 11
16.2135
 21
105.618
  0
LINE
  8
0
 10
16.2135
 20
105.618
 11
16.0934
 21
105.473
  0
LINE
  8
0
 10
16.0934
 20
105.473
 11
15.9561
 21
105.344
  0
LINE
  8
0
 10
15.9561
 20
105.344
 11
15.8037
 21
105.234
  0
LINE
  8
0
 10
15.8037
 20
105.234
 11
15.6387
 21
105.143
  0
LINE
  8
0
 10
15.6387
 20
105.143
 11
15.4635
 21
105.073
  0
LINE
  8
0
 10
15.4635
 20
105.073
 11
15.2811
 21
105.027
  0
LINE
  8
0
 10
15.2811
 20
105.027
 11
15.0942
 21
105.003
  0
LINE
  8
0
 10
15.0942
 20
105.003
 11
14.9058
 21
105.003
  0
LINE
  8
0
 10
7.56348
 20
103.422
 11
7.45135
 21
103.436
  0
LINE
  8
0
 10
7.45135
 20
103.436
 11
7.34187
 21
103.464
  0
LINE
  8
0
 10
7.34187
 20
103.464
 11
7.23679
 21
103.506
  0
LINE
  8
0
 10
7.23679
 20
103.506
 11
7.13776
 21
103.56
  0
LINE
  8
0
 10
7.13776
 20
103.56
 11
7.04631
 21
103.627
  0
LINE
  8
0
 10
7.04631
 20
103.627
 11
6.96393
 21
103.704
  0
LINE
  8
0
 10
6.96393
 20
103.704
 11
6.89188
 21
103.791
  0
LINE
  8
0
 10
6.89188
 20
103.791
 11
6.83131
 21
103.886
  0
LINE
  8
0
 10
6.83131
 20
103.886
 11
6.78319
 21
103.989
  0
LINE
  8
0
 10
6.78319
 20
103.989
 11
6.74828
 21
104.096
  0
LINE
  8
0
 10
6.74828
 20
104.096
 11
6.7271
 21
104.207
  0
LINE
  8
0
 10
6.7271
 20
104.207
 11
6.71999
 21
104.32
  0
LINE
  8
0
 10
6.71999
 20
104.32
 11
6.7271
 21
104.433
  0
LINE
  8
0
 10
6.7271
 20
104.433
 11
6.74828
 21
104.544
  0
LINE
  8
0
 10
6.74828
 20
104.544
 11
6.78319
 21
104.651
  0
LINE
  8
0
 10
6.78319
 20
104.651
 11
6.83131
 21
104.754
  0
LINE
  8
0
 10
6.83131
 20
104.754
 11
6.89188
 21
104.849
  0
LINE
  8
0
 10
6.89188
 20
104.849
 11
6.96393
 21
104.936
  0
LINE
  8
0
 10
6.96393
 20
104.936
 11
7.04631
 21
105.013
  0
LINE
  8
0
 10
7.04631
 20
105.013
 11
7.13776
 21
105.08
  0
LINE
  8
0
 10
7.13776
 20
105.08
 11
7.23679
 21
105.134
  0
LINE
  8
0
 10
7.23679
 20
105.134
 11
7.34187
 21
105.176
  0
LINE
  8
0
 10
7.34187
 20
105.176
 11
7.45135
 21
105.204
  0
LINE
  8
0
 10
7.45135
 20
105.204
 11
7.56348
 21
105.218
  0
LINE
  8
0
 10
7.56348
 20
105.218
 11
7.6765
 21
105.218
  0
LINE
  8
0
 10
7.6765
 20
105.218
 11
7.78864
 21
105.204
  0
LINE
  8
0
 10
7.78864
 20
105.204
 11
7.8981
 21
105.176
  0
LINE
  8
0
 10
7.8981
 20
105.176
 11
8.00319
 21
105.134
  0
LINE
  8
0
 10
8.00319
 20
105.134
 11
8.10223
 21
105.08
  0
LINE
  8
0
 10
8.10223
 20
105.08
 11
8.19368
 21
105.013
  0
LINE
  8
0
 10
8.19368
 20
105.013
 11
8.27606
 21
104.936
  0
LINE
  8
0
 10
8.27606
 20
104.936
 11
8.34811
 21
104.849
  0
LINE
  8
0
 10
8.34811
 20
104.849
 11
8.40866
 21
104.754
  0
LINE
  8
0
 10
8.40866
 20
104.754
 11
8.45679
 21
104.651
  0
LINE
  8
0
 10
8.45679
 20
104.651
 11
8.49171
 21
104.544
  0
LINE
  8
0
 10
8.49171
 20
104.544
 11
8.51289
 21
104.433
  0
LINE
  8
0
 10
8.51289
 20
104.433
 11
8.51999
 21
104.32
  0
LINE
  8
0
 10
8.51999
 20
104.32
 11
8.51289
 21
104.207
  0
LINE
  8
0
 10
8.51289
 20
104.207
 11
8.49171
 21
104.096
  0
LINE
  8
0
 10
8.49171
 20
104.096
 11
8.45679
 21
103.989
  0
LINE
  8
0
 10
8.45679
 20
103.989
 11
8.40866
 21
103.886
  0
LINE
  8
0
 10
8.40866
 20
103.886
 11
8.34811
 21
103.791
  0
LINE
  8
0
 10
8.34811
 20
103.791
 11
8.27606
 21
103.704
  0
LINE
  8
0
 10
8.27606
 20
103.704
 11
8.19368
 21
103.627
  0
LINE
  8
0
 10
8.19368
 20
103.627
 11
8.10223
 21
103.56
  0
LINE
  8
0
 10
8.10223
 20
103.56
 11
8.00319
 21
103.506
  0
LINE
  8
0
 10
8.00319
 20
103.506
 11
7.8981
 21
103.464
  0
LINE
  8
0
 10
7.8981
 20
103.464
 11
7.78864
 21
103.436
  0
LINE
  8
0
 10
7.78864
 20
103.436
 11
7.6765
 21
103.422
  0
LINE
  8
0
 10
7.6765
 20
103.422
 11
7.56348
 21
103.422
  0
LINE
  8
0
 10
-7.6765
 20
103.422
 11
-7.78864
 21
103.436
  0
LINE
  8
0
 10
-7.78864
 20
103.436
 11
-7.8981
 21
103.464
  0
LINE
  8
0
 10
-7.8981
 20
103.464
 11
-8.00319
 21
103.506
  0
LINE
  8
0
 10
-8.00319
 20
103.506
 11
-8.10223
 21
103.56
  0
LINE
  8
0
 10
-8.10223
 20
103.56
 11
-8.19368
 21
103.627
  0
LINE
  8
0
 10
-8.19368
 20
103.627
 11
-8.27606
 21
103.704
  0
LINE
  8
0
 10
-8.27606
 20
103.704
 11
-8.34811
 21
103.791
  0
LINE
  8
0
 10
-8.34811
 20
103.791
 11
-8.40866
 21
103.886
  0
LINE
  8
0
 10
-8.40866
 20
103.886
 11
-8.45679
 21
103.989
  0
LINE
  8
0
 10
-8.45679
 20
103.989
 11
-8.49171
 21
104.096
  0
LINE
  8
0
 10
-8.49171
 20
104.096
 11
-8.51289
 21
104.207
  0
LINE
  8
0
 10
-8.51289
 20
104.207
 11
-8.51999
 21
104.32
  0
LINE
  8
0
 10
-8.51999
 20
104.32
 11
-8.51289
 21
104.433
  0
LINE
  8
0
 10
-8.51289
 20
104.433
 11
-8.49171
 21
104.544
  0
LINE
  8
0
 10
-8.49171
 20
104.544
 11
-8.45679
 21
104.651
  0
LINE
  8
0
 10
-8.45679
 20
104.651
 11
-8.40866
 21
104.754
  0
LINE
  8
0
 10
-8.40866
 20
104.754
 11
-8.34811
 21
104.849
  0
LINE
  8
0
 10
-8.34811
 20
104.849
 11
-8.27606
 21
104.936
  0
LINE
  8
0
 10
-8.27606
 20
104.936
 11
-8.19368
 21
105.013
  0
LINE
  8
0
 10
-8.19368
 20
105.013
 11
-8.10223
 21
105.08
  0
LINE
  8
0
 10
-8.10223
 20
105.08
 11
-8.00319
 21
105.134
  0
LINE
  8
0
 10
-8.00319
 20
105.134
 11
-7.8981
 21
105.176
  0
LINE
  8
0
 10
-7.8981
 20
105.176
 11
-7.78864
 21
105.204
  0
LINE
  8
0
 10
-7.78864
 20
105.204
 11
-7.6765
 21
105.218
  0
LINE
  8
0
 10
-7.6765
 20
105.218
 11
-7.56348
 21
105.218
  0
LINE
  8
0
 10
-7.56348
 20
105.218
 11
-7.45135
 21
105.204
  0
LINE
  8
0
 10
-7.45135
 20
105.204
 11
-7.34187
 21
105.176
  0
LINE
  8
0
 10
-7.34187
 20
105.176
 11
-7.23679
 21
105.134
  0
LINE
  8
0
 10
-7.23679
 20
105.134
 11
-7.13776
 21
105.08
  0
LINE
  8
0
 10
-7.13776
 20
105.08
 11
-7.04631
 21
105.013
  0
LINE
  8
0
 10
-7.04631
 20
105.013
 11
-6.96393
 21
104.936
  0
LINE
  8
0
 10
-6.96393
 20
104.936
 11
-6.89188
 21
104.849
  0
LINE
  8
0
 10
-6.89188
 20
104.849
 11
-6.83131
 21
104.754
  0
LINE
  8
0
 10
-6.83131
 20
104.754
 11
-6.78319
 21
104.651
  0
LINE
  8
0
 10
-6.78319
 20
104.651
 11
-6.74828
 21
104.544
  0
LINE
  8
0
 10
-6.74828
 20
104.544
 11
-6.7271
 21
104.433
  0
LINE
  8
0
 10
-6.7271
 20
104.433
 11
-6.71999
 21
104.32
  0
LINE
  8
0
 10
-6.71999
 20
104.32
 11
-6.7271
 21
104.207
  0
LINE
  8
0
 10
-6.7271
 20
104.207
 11
-6.74828
 21
104.096
  0
LINE
  8
0
 10
-6.74828
 20
104.096
 11
-6.78319
 21
103.989
  0
LINE
  8
0
 10
-6.78319
 20
103.989
 11
-6.83131
 21
103.886
  0
LINE
  8
0
 10
-6.83131
 20
103.886
 11
-6.89188
 21
103.791
  0
LINE
  8
0
 10
-6.89188
 20
103.791
 11
-6.96393
 21
103.704
  0
LINE
  8
0
 10
-6.96393
 20
103.704
 11
-7.04631
 21
103.627
  0
LINE
  8
0
 10
-7.04631
 20
103.627
 11
-7.13776
 21
103.56
  0
LINE
  8
0
 10
-7.13776
 20
103.56
 11
-7.23679
 21
103.506
  0
LINE
  8
0
 10
-7.23679
 20
103.506
 11
-7.34187
 21
103.464
  0
LINE
  8
0
 10
-7.34187
 20
103.464
 11
-7.45135
 21
103.436
  0
LINE
  8
0
 10
-7.45135
 20
103.436
 11
-7.56348
 21
103.422
  0
LINE
  8
0
 10
-7.56348
 20
103.422
 11
-7.6765
 21
103.422
  0
LINE
  8
0
 10
14.8116
 20
96.0059
 11
14.4379
 21
96.0531
  0
LINE
  8
0
 10
14.4379
 20
96.0531
 11
14.0729
 21
96.1468
  0
LINE
  8
0
 10
14.0729
 20
96.1468
 11
13.7227
 21
96.2855
  0
LINE
  8
0
 10
13.7227
 20
96.2855
 11
13.3925
 21
96.467
  0
LINE
  8
0
 10
13.3925
 20
96.467
 11
13.0877
 21
96.6884
  0
LINE
  8
0
 10
13.0877
 20
96.6884
 11
12.8131
 21
96.9464
  0
LINE
  8
0
 10
12.8131
 20
96.9464
 11
12.5729
 21
97.2366
  0
LINE
  8
0
 10
12.5729
 20
97.2366
 11
12.3711
 21
97.5547
  0
LINE
  8
0
 10
12.3711
 20
97.5547
 11
12.2107
 21
97.8956
  0
LINE
  8
0
 10
12.2107
 20
97.8956
 11
12.0942
 21
98.2539
  0
LINE
  8
0
 10
12.0942
 20
98.2539
 11
12.0237
 21
98.624
  0
LINE
  8
0
 10
12.0237
 20
98.624
 11
12
 21
99
  0
LINE
  8
0
 10
12
 20
99
 11
12.0237
 21
99.376
  0
LINE
  8
0
 10
12.0237
 20
99.376
 11
12.0942
 21
99.7461
  0
LINE
  8
0
 10
12.0942
 20
99.7461
 11
12.2107
 21
100.104
  0
LINE
  8
0
 10
12.2107
 20
100.104
 11
12.3711
 21
100.445
  0
LINE
  8
0
 10
12.3711
 20
100.445
 11
12.5729
 21
100.763
  0
LINE
  8
0
 10
12.5729
 20
100.763
 11
12.8131
 21
101.054
  0
LINE
  8
0
 10
12.8131
 20
101.054
 11
13.0877
 21
101.312
  0
LINE
  8
0
 10
13.0877
 20
101.312
 11
13.3925
 21
101.533
  0
LINE
  8
0
 10
13.3925
 20
101.533
 11
13.7227
 21
101.714
  0
LINE
  8
0
 10
13.7227
 20
101.714
 11
14.0729
 21
101.853
  0
LINE
  8
0
 10
14.0729
 20
101.853
 11
14.4379
 21
101.947
  0
LINE
  8
0
 10
14.4379
 20
101.947
 11
14.8116
 21
101.994
  0
LINE
  8
0
 10
14.8116
 20
101.994
 11
15.1884
 21
101.994
  0
LINE
  8
0
 10
15.1884
 20
101.994
 11
15.5621
 21
101.947
  0
LINE
  8
0
 10
15.5621
 20
101.947
 11
15.927
 21
101.853
  0
LINE
  8
0
 10
15.927
 20
101.853
 11
16.2773
 21
101.714
  0
LINE
  8
0
 10
16.2773
 20
101.714
 11
16.6075
 21
101.533
  0
LINE
  8
0
 10
16.6075
 20
101.533
 11
16.9123
 21
101.312
  0
LINE
  8
0
 10
16.9123
 20
101.312
 11
17.1869
 21
101.054
  0
LINE
  8
0
 10
17.1869
 20
101.054
 11
17.427
 21
100.763
  0
LINE
  8
0
 10
17.427
 20
100.763
 11
17.6289
 21
100.445
  0
LINE
  8
0
 10
17.6289
 20
100.445
 11
17.7893
 21
100.104
  0
LINE
  8
0
 10
17.7893
 20
100.104
 11
17.9057
 21
99.7461
  0
LINE
  8
0
 10
17.9057
 20
99.7461
 11
17.9763
 21
99.376
  0
LINE
  8
0
 10
17.9763
 20
99.376
 11
18
 21
99
  0
LINE
  8
0
 10
18
 20
99
 11
17.9763
 21
98.624
  0
LINE
  8
0
 10
17.9763
 20
98.624
 11
17.9057
 21
98.2539
  0
LINE
  8
0
 10
17.9057
 20
98.2539
 11
17.7893
 21
97.8956
  0
LINE
  8
0
 10
17.7893
 20
97.8956
 11
17.6289
 21
97.5547
  0
LINE
  8
0
 10
17.6289
 20
97.5547
 11
17.427
 21
97.2366
  0
LINE
  8
0
 10
17.427
 20
97.2366
 11
17.1869
 21
96.9464
  0
LINE
  8
0
 10
17.1869
 20
96.9464
 11
16.9123
 21
96.6884
  0
LINE
  8
0
 10
16.9123
 20
96.6884
 11
16.6075
 21
96.467
  0
LINE
  8
0
 10
16.6075
 20
96.467
 11
16.2773
 21
96.2855
  0
LINE
  8
0
 10
16.2773
 20
96.2855
 11
15.927
 21
96.1468
  0
LINE
  8
0
 10
15.927
 20
96.1468
 11
15.5621
 21
96.0531
  0
LINE
  8
0
 10
15.5621
 20
96.0531
 11
15.1884
 21
96.0059
  0
LINE
  8
0
 10
15.1884
 20
96.0059
 11
14.8116
 21
96.0059
  0
LINE
  8
0
 10
-15.1884
 20
96.0059
 11
-15.5621
 21
96.0531
  0
LINE
  8
0
 10
-15.5621
 20
96.0531
 11
-15.927
 21
96.1468
  0
LINE
  8
0
 10
-15.927
 20
96.1468
 11
-16.2773
 21
96.2855
  0
LINE
  8
0
 10
-16.2773
 20
96.2855
 11
-16.6075
 21
96.467
  0
LINE
  8
0
 10
-16.6075
 20
96.467
 11
-16.9123
 21
96.6884
  0
LINE
  8
0
 10
-16.9123
 20
96.6884
 11
-17.1869
 21
96.9464
  0
LINE
  8
0
 10
-17.1869
 20
96.9464
 11
-17.427
 21
97.2366
  0
LINE
  8
0
 10
-17.427
 20
97.2366
 11
-17.6289
 21
97.5547
  0
LINE
  8
0
 10
-17.6289
 20
97.5547
 11
-17.7893
 21
97.8956
  0
LINE
  8
0
 10
-17.7893
 20
97.8956
 11
-17.9057
 21
98.2539
  0
LINE
  8
0
 10
-17.9057
 20
98.2539
 11
-17.9763
 21
98.624
  0
LINE
  8
0
 10
-17.9763
 20
98.624
 11
-18
 21
99
  0
LINE
  8
0
 10
-18
 20
99
 11
-17.9763
 21
99.376
  0
LINE
  8
0
 10
-17.9763
 20
99.376
 11
-17.9057
 21
99.7461
  0
LINE
  8
0
 10
-17.9057
 20
99.7461
 11
-17.7893
 21
100.104
  0
LINE
  8
0
 10
-17.7893
 20
100.104
 11
-17.6289
 21
100.445
  0
LINE
  8
0
 10
-17.6289
 20
100.445
 11
-17.427
 21
100.763
  0
LINE
  8
0
 10
-17.427
 20
100.763
 11
-17.1869
 21
101.054
  0
LINE
  8
0
 10
-17.1869
 20
101.054
 11
-16.9123
 21
101.312
  0
LINE
  8
0
 10
-16.9123
 20
101.312
 11
-16.6075
 21
101.533
  0
LINE
  8
0
 10
-16.6075
 20
101.533
 11
-16.2773
 21
101.714
  0
LINE
  8
0
 10
-16.2773
 20
101.714
 11
-15.927
 21
101.853
  0
LINE
  8
0
 10
-15.927
 20
101.853
 11
-15.5621
 21
101.947
  0
LINE
  8
0
 10
-15.5621
 20
101.947
 11
-15.1884
 21
101.994
  0
LINE
  8
0
 10
-15.1884
 20
101.994
 11
-14.8116
 21
101.994
  0
LINE
  8
0
 10
-14.8116
 20
101.994
 11
-14.4379
 21
101.947
  0
LINE
  8
0
 10
-14.4379
 20
101.947
 11
-14.0729
 21
101.853
  0
LINE
  8
0
 10
-14.0729
 20
101.853
 11
-13.7227
 21
101.714
  0
LINE
  8
0
 10
-13.7227
 20
101.714
 11
-13.3925
 21
101.533
  0
LINE
  8
0
 10
-13.3925
 20
101.533
 11
-13.0877
 21
101.312
  0
LINE
  8
0
 10
-13.0877
 20
101.312
 11
-12.8131
 21
101.054
  0
LINE
  8
0
 10
-12.8131
 20
101.054
 11
-12.5729
 21
100.763
  0
LINE
  8
0
 10
-12.5729
 20
100.763
 11
-12.3711
 21
100.445
  0
LINE
  8
0
 10
-12.3711
 20
100.445
 11
-12.2107
 21
100.104
  0
LINE
  8
0
 10
-12.2107
 20
100.104
 11
-12.0942
 21
99.7461
  0
LINE
  8
0
 10
-12.0942
 20
99.7461
 11
-12.0237
 21
99.376
  0
LINE
  8
0
 10
-12.0237
 20
99.376
 11
-12
 21
99
  0
LINE
  8
0
 10
-12
 20
99
 11
-12.0237
 21
98.624
  0
LINE
  8
0
 10
-12.0237
 20
98.624
 11
-12.0942
 21
98.2539
  0
LINE
  8
0
 10
-12.0942
 20
98.2539
 11
-12.2107
 21
97.8956
  0
LINE
  8
0
 10
-12.2107
 20
97.8956
 11
-12.3711
 21
97.5547
  0
LINE
  8
0
 10
-12.3711
 20
97.5547
 11
-12.5729
 21
97.2366
  0
LINE
  8
0
 10
-12.5729
 20
97.2366
 11
-12.8131
 21
96.9464
  0
LINE
  8
0
 10
-12.8131
 20
96.9464
 11
-13.0877
 21
96.6884
  0
LINE
  8
0
 10
-13.0877
 20
96.6884
 11
-13.3925
 21
96.467
  0
LINE
  8
0
 10
-13.3925
 20
96.467
 11
-13.7227
 21
96.2855
  0
LINE
  8
0
 10
-13.7227
 20
96.2855
 11
-14.0729
 21
96.1468
  0
LINE
  8
0
 10
-14.0729
 20
96.1468
 11
-14.4379
 21
96.0531
  0
LINE
  8
0
 10
-14.4379
 20
96.0531
 11
-14.8116
 21
96.0059
  0
LINE
  8
0
 10
-14.8116
 20
96.0059
 11
-15.1884
 21
96.0059
  0
LINE
  8
0
 10
14.9058
 20
90.0029
 11
14.7189
 21
90.0266
  0
LINE
  8
0
 10
14.7189
 20
90.0266
 11
14.5365
 21
90.0734
  0
LINE
  8
0
 10
14.5365
 20
90.0734
 11
14.3613
 21
90.1427
  0
LINE
  8
0
 10
14.3613
 20
90.1427
 11
14.1963
 21
90.2335
  0
LINE
  8
0
 10
14.1963
 20
90.2335
 11
14.0439
 21
90.3442
  0
LINE
  8
0
 10
14.0439
 20
90.3442
 11
13.9065
 21
90.4732
  0
LINE
  8
0
 10
13.9065
 20
90.4732
 11
13.7865
 21
90.6183
  0
LINE
  8
0
 10
13.7865
 20
90.6183
 11
13.6855
 21
90.7774
  0
LINE
  8
0
 10
13.6855
 20
90.7774
 11
13.6053
 21
90.9478
  0
LINE
  8
0
 10
13.6053
 20
90.9478
 11
13.5471
 21
91.127
  0
LINE
  8
0
 10
13.5471
 20
91.127
 11
13.5118
 21
91.312
  0
LINE
  8
0
 10
13.5118
 20
91.312
 11
13.5
 21
91.5
  0
LINE
  8
0
 10
13.5
 20
91.5
 11
13.5118
 21
91.688
  0
LINE
  8
0
 10
13.5118
 20
91.688
 11
13.5471
 21
91.873
  0
LINE
  8
0
 10
13.5471
 20
91.873
 11
13.6053
 21
92.0522
  0
LINE
  8
0
 10
13.6053
 20
92.0522
 11
13.6855
 21
92.2226
  0
LINE
  8
0
 10
13.6855
 20
92.2226
 11
13.7865
 21
92.3817
  0
LINE
  8
0
 10
13.7865
 20
92.3817
 11
13.9065
 21
92.5268
  0
LINE
  8
0
 10
13.9065
 20
92.5268
 11
14.0439
 21
92.6558
  0
LINE
  8
0
 10
14.0439
 20
92.6558
 11
14.1963
 21
92.7665
  0
LINE
  8
0
 10
14.1963
 20
92.7665
 11
14.3613
 21
92.8572
  0
LINE
  8
0
 10
14.3613
 20
92.8572
 11
14.5365
 21
92.9266
  0
LINE
  8
0
 10
14.5365
 20
92.9266
 11
14.7189
 21
92.9734
  0
LINE
  8
0
 10
14.7189
 20
92.9734
 11
14.9058
 21
92.997
  0
LINE
  8
0
 10
14.9058
 20
92.997
 11
15.0942
 21
92.997
  0
LINE
  8
0
 10
15.0942
 20
92.997
 11
15.2811
 21
92.9734
  0
LINE
  8
0
 10
15.2811
 20
92.9734
 11
15.4635
 21
92.9266
  0
LINE
  8
0
 10
15.4635
 20
92.9266
 11
15.6387
 21
92.8572
  0
LINE
  8
0
 10
15.6387
 20
92.8572
 11
15.8037
 21
92.7665
  0
LINE
  8
0
 10
15.8037
 20
92.7665
 11
15.9561
 21
92.6558
  0
LINE
  8
0
 10
15.9561
 20
92.6558
 11
16.0934
 21
92.5268
  0
LINE
  8
0
 10
16.0934
 20
92.5268
 11
16.2135
 21
92.3817
  0
LINE
  8
0
 10
16.2135
 20
92.3817
 11
16.3145
 21
92.2226
  0
LINE
  8
0
 10
16.3145
 20
92.2226
 11
16.3947
 21
92.0522
  0
LINE
  8
0
 10
16.3947
 20
92.0522
 11
16.4529
 21
91.873
  0
LINE
  8
0
 10
16.4529
 20
91.873
 11
16.4882
 21
91.688
  0
LINE
  8
0
 10
16.4882
 20
91.688
 11
16.5
 21
91.5
  0
LINE
  8
0
 10
16.5
 20
91.5
 11
16.4882
 21
91.312
  0
LINE
  8
0
 10
16.4882
 20
91.312
 11
16.4529
 21
91.127
  0
LINE
  8
0
 10
16.4529
 20
91.127
 11
16.3947
 21
90.9478
  0
LINE
  8
0
 10
16.3947
 20
90.9478
 11
16.3145
 21
90.7774
  0
LINE
  8
0
 10
16.3145
 20
90.7774
 11
16.2135
 21
90.6183
  0
LINE
  8
0
 10
16.2135
 20
90.6183
 11
16.0934
 21
90.4732
  0
LINE
  8
0
 10
16.0934
 20
90.4732
 11
15.9561
 21
90.3442
  0
LINE
  8
0
 10
15.9561
 20
90.3442
 11
15.8037
 21
90.2335
  0
LINE
  8
0
 10
15.8037
 20
90.2335
 11
15.6387
 21
90.1427
  0
LINE
  8
0
 10
15.6387
 20
90.1427
 11
15.4635
 21
90.0734
  0
LINE
  8
0
 10
15.4635
 20
90.0734
 11
15.2811
 21
90.0266
  0
LINE
  8
0
 10
15.2811
 20
90.0266
 11
15.0942
 21
90.0029
  0
LINE
  8
0
 10
15.0942
 20
90.0029
 11
14.9058
 21
90.0029
  0
LINE
  8
0
 10
-15.0942
 20
90.0029
 11
-15.2811
 21
90.0266
  0
LINE
  8
0
 10
-15.2811
 20
90.0266
 11
-15.4635
 21
90.0734
  0
LINE
  8
0
 10
-15.4635
 20
90.0734
 11
-15.6387
 21
90.1427
  0
LINE
  8
0
 10
-15.6387
 20
90.1427
 11
-15.8037
 21
90.2335
  0
LINE
  8
0
 10
-15.8037
 20
90.2335
 11
-15.9561
 21
90.3442
  0
LINE
  8
0
 10
-15.9561
 20
90.3442
 11
-16.0934
 21
90.4732
  0
LINE
  8
0
 10
-16.0934
 20
90.4732
 11
-16.2135
 21
90.6183
  0
LINE
  8
0
 10
-16.2135
 20
90.6183
 11
-16.3145
 21
90.7774
  0
LINE
  8
0
 10
-16.3145
 20
90.7774
 11
-16.3947
 21
90.9478
  0
LINE
  8
0
 10
-16.3947
 20
90.9478
 11
-16.4529
 21
91.127
  0
LINE
  8
0
 10
-16.4529
 20
91.127
 11
-16.4882
 21
91.312
  0
LINE
  8
0
 10
-16.4882
 20
91.312
 11
-16.5
 21
91.5
  0
LINE
  8
0
 10
-16.5
 20
91.5
 11
-16.4882
 21
91.688
  0
LINE
  8
0
 10
-16.4882
 20
91.688
 11
-16.4529
 21
91.873
  0
LINE
  8
0
 10
-16.4529
 20
91.873
 11
-16.3947
 21
92.0522
  0
LINE
  8
0
 10
-16.3947
 20
92.0522
 11
-16.3145
 21
92.2226
  0
LINE
  8
0
 10
-16.3145
 20
92.2226
 11
-16.2135
 21
92.3817
  0
LINE
  8
0
 10
-16.2135
 20
92.3817
 11
-16.0934
 21
92.5268
  0
LINE
  8
0
 10
-16.0934
 20
92.5268
 11
-15.9561
 21
92.6558
  0
LINE
  8
0
 10
-15.9561
 20
92.6558
 11
-15.8037
 21
92.7665
  0
LINE
  8
0
 10
-15.8037
 20
92.7665
 11
-15.6387
 21
92.8572
  0
LINE
  8
0
 10
-15.6387
 20
92.8572
 11
-15.4635
 21
92.9266
  0
LINE
  8
0
 10
-15.4635
 20
92.9266
 11
-15.2811
 21
92.9734
  0
LINE
  8
0
 10
-15.2811
 20
92.9734
 11
-15.0942
 21
92.997
  0
LINE
  8
0
 10
-15.0942
 20
92.997
 11
-14.9058
 21
92.997
  0
LINE
  8
0
 10
-14.9058
 20
92.997
 11
-14.7189
 21
92.9734
  0
LINE
  8
0
 10
-14.7189
 20
92.9734
 11
-14.5365
 21
92.9266
  0
LINE
  8
0
 10
-14.5365
 20
92.9266
 11
-14.3613
 21
92.8572
  0
LINE
  8
0
 10
-14.3613
 20
92.8572
 11
-14.1963
 21
92.7665
  0
LINE
  8
0
 10
-14.1963
 20
92.7665
 11
-14.0439
 21
92.6558
  0
LINE
  8
0
 10
-14.0439
 20
92.6558
 11
-13.9065
 21
92.5268
  0
LINE
  8
0
 10
-13.9065
 20
92.5268
 11
-13.7865
 21
92.3817
  0
LINE
  8
0
 10
-13.7865
 20
92.3817
 11
-13.6855
 21
92.2226
  0
LINE
  8
0
 10
-13.6855
 20
92.2226
 11
-13.6053
 21
92.0522
  0
LINE
  8
0
 10
-13.6053
 20
92.0522
 11
-13.5471
 21
91.873
  0
LINE
  8
0
 10
-13.5471
 20
91.873
 11
-13.5118
 21
91.688
  0
LINE
  8
0
 10
-13.5118
 20
91.688
 11
-13.5
 21
91.5
  0
LINE
  8
0
 10
-13.5
 20
91.5
 11
-13.5118
 21
91.312
  0
LINE
  8
0
 10
-13.5118
 20
91.312
 11
-13.5471
 21
91.127
  0
LINE
  8
0
 10
-13.5471
 20
91.127
 11
-13.6053
 21
90.9478
  0
LINE
  8
0
 10
-13.6053
 20
90.9478
 11
-13.6855
 21
90.7774
  0
LINE
  8
0
 10
-13.6855
 20
90.7774
 11
-13.7865
 21
90.6183
  0
LINE
  8
0
 10
-13.7865
 20
90.6183
 11
-13.9065
 21
90.4732
  0
LINE
  8
0
 10
-13.9065
 20
90.4732
 11
-14.0439
 21
90.3442
  0
LINE
  8
0
 10
-14.0439
 20
90.3442
 11
-14.1963
 21
90.2335
  0
LINE
  8
0
 10
-14.1963
 20
90.2335
 11
-14.3613
 21
90.1427
  0
LINE
  8
0
 10
-14.3613
 20
90.1427
 11
-14.5365
 21
90.0734
  0
LINE
  8
0
 10
-14.5365
 20
90.0734
 11
-14.7189
 21
90.0266
  0
LINE
  8
0
 10
-14.7189
 20
90.0266
 11
-14.9058
 21
90.0029
  0
LINE
  8
0
 10
-14.9058
 20
90.0029
 11
-15.0942
 21
90.0029
  0
LINE
  8
0
 10
14.8116
 20
81.0059
 11
14.4379
 21
81.0531
  0
LINE
  8
0
 10
14.4379
 20
81.0531
 11
14.0729
 21
81.1468
  0
LINE
  8
0
 10
14.0729
 20
81.1468
 11
13.7227
 21
81.2855
  0
LINE
  8
0
 10
13.7227
 20
81.2855
 11
13.3925
 21
81.467
  0
LINE
  8
0
 10
13.3925
 20
81.467
 11
13.0877
 21
81.6885
  0
LINE
  8
0
 10
13.0877
 20
81.6885
 11
12.8131
 21
81.9464
  0
LINE
  8
0
 10
12.8131
 20
81.9464
 11
12.5729
 21
82.2366
  0
LINE
  8
0
 10
12.5729
 20
82.2366
 11
12.3711
 21
82.5547
  0
LINE
  8
0
 10
12.3711
 20
82.5547
 11
12.2107
 21
82.8956
  0
LINE
  8
0
 10
12.2107
 20
82.8956
 11
12.0942
 21
83.2539
  0
LINE
  8
0
 10
12.0942
 20
83.2539
 11
12.0237
 21
83.624
  0
LINE
  8
0
 10
12.0237
 20
83.624
 11
12
 21
84
  0
LINE
  8
0
 10
12
 20
84
 11
12.0237
 21
84.376
  0
LINE
  8
0
 10
12.0237
 20
84.376
 11
12.0942
 21
84.7461
  0
LINE
  8
0
 10
12.0942
 20
84.7461
 11
12.2107
 21
85.1044
  0
LINE
  8
0
 10
12.2107
 20
85.1044
 11
12.3711
 21
85.4453
  0
LINE
  8
0
 10
12.3711
 20
85.4453
 11
12.5729
 21
85.7634
  0
LINE
  8
0
 10
12.5729
 20
85.7634
 11
12.8131
 21
86.0536
  0
LINE
  8
0
 10
12.8131
 20
86.0536
 11
13.0877
 21
86.3115
  0
LINE
  8
0
 10
13.0877
 20
86.3115
 11
13.3925
 21
86.533
  0
LINE
  8
0
 10
13.3925
 20
86.533
 11
13.7227
 21
86.7145
  0
LINE
  8
0
 10
13.7227
 20
86.7145
 11
14.0729
 21
86.8532
  0
LINE
  8
0
 10
14.0729
 20
86.8532
 11
14.4379
 21
86.9469
  0
LINE
  8
0
 10
14.4379
 20
86.9469
 11
14.8116
 21
86.9941
  0
LINE
  8
0
 10
14.8116
 20
86.9941
 11
15.1884
 21
86.9941
  0
LINE
  8
0
 10
15.1884
 20
86.9941
 11
15.5621
 21
86.9469
  0
LINE
  8
0
 10
15.5621
 20
86.9469
 11
15.927
 21
86.8532
  0
LINE
  8
0
 10
15.927
 20
86.8532
 11
16.2773
 21
86.7145
  0
LINE
  8
0
 10
16.2773
 20
86.7145
 11
16.6075
 21
86.533
  0
LINE
  8
0
 10
16.6075
 20
86.533
 11
16.9123
 21
86.3115
  0
LINE
  8
0
 10
16.9123
 20
86.3115
 11
17.1869
 21
86.0536
  0
LINE
  8
0
 10
17.1869
 20
86.0536
 11
17.427
 21
85.7634
  0
LINE
  8
0
 10
17.427
 20
85.7634
 11
17.6289
 21
85.4453
  0
LINE
  8
0
 10
17.6289
 20
85.4453
 11
17.7893
 21
85.1044
  0
LINE
  8
0
 10
17.7893
 20
85.1044
 11
17.9057
 21
84.7461
  0
LINE
  8
0
 10
17.9057
 20
84.7461
 11
17.9763
 21
84.376
  0
LINE
  8
0
 10
17.9763
 20
84.376
 11
18
 21
84
  0
LINE
  8
0
 10
18
 20
84
 11
17.9763
 21
83.624
  0
LINE
  8
0
 10
17.9763
 20
83.624
 11
17.9057
 21
83.2539
  0
LINE
  8
0
 10
17.9057
 20
83.2539
 11
17.7893
 21
82.8956
  0
LINE
  8
0
 10
17.7893
 20
82.8956
 11
17.6289
 21
82.5547
  0
LINE
  8
0
 10
17.6289
 20
82.5547
 11
17.427
 21
82.2366
  0
LINE
  8
0
 10
17.427
 20
82.2366
 11
17.1869
 21
81.9464
  0
LINE
  8
0
 10
17.1869
 20
81.9464
 11
16.9123
 21
81.6885
  0
LINE
  8
0
 10
16.9123
 20
81.6885
 11
16.6075
 21
81.467
  0
LINE
  8
0
 10
16.6075
 20
81.467
 11
16.2773
 21
81.2855
  0
LINE
  8
0
 10
16.2773
 20
81.2855
 11
15.927
 21
81.1468
  0
LINE
  8
0
 10
15.927
 20
81.1468
 11
15.5621
 21
81.0531
  0
LINE
  8
0
 10
15.5621
 20
81.0531
 11
15.1884
 21
81.0059
  0
LINE
  8
0
 10
15.1884
 20
81.0059
 11
14.8116
 21
81.0059
  0
LINE
  8
0
 10
-15.1884
 20
81.0059
 11
-15.5621
 21
81.0531
  0
LINE
  8
0
 10
-15.5621
 20
81.0531
 11
-15.927
 21
81.1468
  0
LINE
  8
0
 10
-15.927
 20
81.1468
 11
-16.2773
 21
81.2855
  0
LINE
  8
0
 10
-16.2773
 20
81.2855
 11
-16.6075
 21
81.467
  0
LINE
  8
0
 10
-16.6075
 20
81.467
 11
-16.9123
 21
81.6885
  0
LINE
  8
0
 10
-16.9123
 20
81.6885
 11
-17.1869
 21
81.9464
  0
LINE
  8
0
 10
-17.1869
 20
81.9464
 11
-17.427
 21
82.2366
  0
LINE
  8
0
 10
-17.427
 20
82.2366
 11
-17.6289
 21
82.5547
  0
LINE
  8
0
 10
-17.6289
 20
82.5547
 11
-17.7893
 21
82.8956
  0
LINE
  8
0
 10
-17.7893
 20
82.8956
 11
-17.9057
 21
83.2539
  0
LINE
  8
0
 10
-17.9057
 20
83.2539
 11
-17.9763
 21
83.624
  0
LINE
  8
0
 10
-17.9763
 20
83.624
 11
-18
 21
84
  0
LINE
  8
0
 10
-18
 20
84
 11
-17.9763
 21
84.376
  0
LINE
  8
0
 10
-17.9763
 20
84.376
 11
-17.9057
 21
84.7461
  0
LINE
  8
0
 10
-17.9057
 20
84.7461
 11
-17.7893
 21
85.1044
  0
LINE
  8
0
 10
-17.7893
 20
85.1044
 11
-17.6289
 21
85.4453
  0
LINE
  8
0
 10
-17.6289
 20
85.4453
 11
-17.427
 21
85.7634
  0
LINE
  8
0
 10
-17.427
 20
85.7634
 11
-17.1869
 21
86.0536
  0
LINE
  8
0
 10
-17.1869
 20
86.0536
 11
-16.9123
 21
86.3115
  0
LINE
  8
0
 10
-16.9123
 20
86.3115
 11
-16.6075
 21
86.533
  0
LINE
  8
0
 10
-16.6075
 20
86.533
 11
-16.2773
 21
86.7145
  0
LINE
  8
0
 10
-16.2773
 20
86.7145
 11
-15.927
 21
86.8532
  0
LINE
  8
0
 10
-15.927
 20
86.8532
 11
-15.5621
 21
86.9469
  0
LINE
  8
0
 10
-15.5621
 20
86.9469
 11
-15.1884
 21
86.9941
  0
LINE
  8
0
 10
-15.1884
 20
86.9941
 11
-14.8116
 21
86.9941
  0
LINE
  8
0
 10
-14.8116
 20
86.9941
 11
-14.4379
 21
86.9469
  0
LINE
  8
0
 10
-14.4379
 20
86.9469
 11
-14.0729
 21
86.8532
  0
LINE
  8
0
 10
-14.0729
 20
86.8532
 11
-13.7227
 21
86.7145
  0
LINE
  8
0
 10
-13.7227
 20
86.7145
 11
-13.3925
 21
86.533
  0
LINE
  8
0
 10
-13.3925
 20
86.533
 11
-13.0877
 21
86.3115
  0
LINE
  8
0
 10
-13.0877
 20
86.3115
 11
-12.8131
 21
86.0536
  0
LINE
  8
0
 10
-12.8131
 20
86.0536
 11
-12.5729
 21
85.7634
  0
LINE
  8
0
 10
-12.5729
 20
85.7634
 11
-12.3711
 21
85.4453
  0
LINE
  8
0
 10
-12.3711
 20
85.4453
 11
-12.2107
 21
85.1044
  0
LINE
  8
0
 10
-12.2107
 20
85.1044
 11
-12.0942
 21
84.7461
  0
LINE
  8
0
 10
-12.0942
 20
84.7461
 11
-12.0237
 21
84.376
  0
LINE
  8
0
 10
-12.0237
 20
84.376
 11
-12
 21
84
  0
LINE
  8
0
 10
-12
 20
84
 11
-12.0237
 21
83.624
  0
LINE
  8
0
 10
-12.0237
 20
83.624
 11
-12.0942
 21
83.2539
  0
LINE
  8
0
 10
-12.0942
 20
83.2539
 11
-12.2107
 21
82.8956
  0
LINE
  8
0
 10
-12.2107
 20
82.8956
 11
-12.3711
 21
82.5547
  0
LINE
  8
0
 10
-12.3711
 20
82.5547
 11
-12.5729
 21
82.2366
  0
LINE
  8
0
 10
-12.5729
 20
82.2366
 11
-12.8131
 21
81.9464
  0
LINE
  8
0
 10
-12.8131
 20
81.9464
 11
-13.0877
 21
81.6885
  0
LINE
  8
0
 10
-13.0877
 20
81.6885
 11
-13.3925
 21
81.467
  0
LINE
  8
0
 10
-13.3925
 20
81.467
 11
-13.7227
 21
81.2855
  0
LINE
  8
0
 10
-13.7227
 20
81.2855
 11
-14.0729
 21
81.1468
  0
LINE
  8
0
 10
-14.0729
 20
81.1468
 11
-14.4379
 21
81.0531
  0
LINE
  8
0
 10
-14.4379
 20
81.0531
 11
-14.8116
 21
81.0059
  0
LINE
  8
0
 10
-14.8116
 20
81.0059
 11
-15.1884
 21
81.0059
  0
LINE
  8
0
 10
14.9058
 20
75.003
 11
14.7189
 21
75.0266
  0
LINE
  8
0
 10
14.7189
 20
75.0266
 11
14.5365
 21
75.0734
  0
LINE
  8
0
 10
14.5365
 20
75.0734
 11
14.3613
 21
75.1428
  0
LINE
  8
0
 10
14.3613
 20
75.1428
 11
14.1963
 21
75.2335
  0
LINE
  8
0
 10
14.1963
 20
75.2335
 11
14.0439
 21
75.3442
  0
LINE
  8
0
 10
14.0439
 20
75.3442
 11
13.9065
 21
75.4732
  0
LINE
  8
0
 10
13.9065
 20
75.4732
 11
13.7865
 21
75.6183
  0
LINE
  8
0
 10
13.7865
 20
75.6183
 11
13.6855
 21
75.7774
  0
LINE
  8
0
 10
13.6855
 20
75.7774
 11
13.6053
 21
75.9478
  0
LINE
  8
0
 10
13.6053
 20
75.9478
 11
13.5471
 21
76.127
  0
LINE
  8
0
 10
13.5471
 20
76.127
 11
13.5118
 21
76.312
  0
LINE
  8
0
 10
13.5118
 20
76.312
 11
13.5
 21
76.5
  0
LINE
  8
0
 10
13.5
 20
76.5
 11
13.5118
 21
76.688
  0
LINE
  8
0
 10
13.5118
 20
76.688
 11
13.5471
 21
76.873
  0
LINE
  8
0
 10
13.5471
 20
76.873
 11
13.6053
 21
77.0522
  0
LINE
  8
0
 10
13.6053
 20
77.0522
 11
13.6855
 21
77.2226
  0
LINE
  8
0
 10
13.6855
 20
77.2226
 11
13.7865
 21
77.3817
  0
LINE
  8
0
 10
13.7865
 20
77.3817
 11
13.9065
 21
77.5268
  0
LINE
  8
0
 10
13.9065
 20
77.5268
 11
14.0439
 21
77.6558
  0
LINE
  8
0
 10
14.0439
 20
77.6558
 11
14.1963
 21
77.7665
  0
LINE
  8
0
 10
14.1963
 20
77.7665
 11
14.3613
 21
77.8573
  0
LINE
  8
0
 10
14.3613
 20
77.8573
 11
14.5365
 21
77.9266
  0
LINE
  8
0
 10
14.5365
 20
77.9266
 11
14.7189
 21
77.9734
  0
LINE
  8
0
 10
14.7189
 20
77.9734
 11
14.9058
 21
77.9971
  0
LINE
  8
0
 10
14.9058
 20
77.9971
 11
15.0942
 21
77.9971
  0
LINE
  8
0
 10
15.0942
 20
77.9971
 11
15.2811
 21
77.9734
  0
LINE
  8
0
 10
15.2811
 20
77.9734
 11
15.4635
 21
77.9266
  0
LINE
  8
0
 10
15.4635
 20
77.9266
 11
15.6387
 21
77.8573
  0
LINE
  8
0
 10
15.6387
 20
77.8573
 11
15.8037
 21
77.7665
  0
LINE
  8
0
 10
15.8037
 20
77.7665
 11
15.9561
 21
77.6558
  0
LINE
  8
0
 10
15.9561
 20
77.6558
 11
16.0934
 21
77.5268
  0
LINE
  8
0
 10
16.0934
 20
77.5268
 11
16.2135
 21
77.3817
  0
LINE
  8
0
 10
16.2135
 20
77.3817
 11
16.3145
 21
77.2226
  0
LINE
  8
0
 10
16.3145
 20
77.2226
 11
16.3947
 21
77.0522
  0
LINE
  8
0
 10
16.3947
 20
77.0522
 11
16.4529
 21
76.873
  0
LINE
  8
0
 10
16.4529
 20
76.873
 11
16.4882
 21
76.688
  0
LINE
  8
0
 10
16.4882
 20
76.688
 11
16.5
 21
76.5
  0
LINE
  8
0
 10
16.5
 20
76.5
 11
16.4882
 21
76.312
  0
LINE
  8
0
 10
16.4882
 20
76.312
 11
16.4529
 21
76.127
  0
LINE
  8
0
 10
16.4529
 20
76.127
 11
16.3947
 21
75.9478
  0
LINE
  8
0
 10
16.3947
 20
75.9478
 11
16.3145
 21
75.7774
  0
LINE
  8
0
 10
16.3145
 20
75.7774
 11
16.2135
 21
75.6183
  0
LINE
  8
0
 10
16.2135
 20
75.6183
 11
16.0934
 21
75.4732
  0
LINE
  8
0
 10
16.0934
 20
75.4732
 11
15.9561
 21
75.3442
  0
LINE
  8
0
 10
15.9561
 20
75.3442
 11
15.8037
 21
75.2335
  0
LINE
  8
0
 10
15.8037
 20
75.2335
 11
15.6387
 21
75.1428
  0
LINE
  8
0
 10
15.6387
 20
75.1428
 11
15.4635
 21
75.0734
  0
LINE
  8
0
 10
15.4635
 20
75.0734
 11
15.2811
 21
75.0266
  0
LINE
  8
0
 10
15.2811
 20
75.0266
 11
15.0942
 21
75.003
  0
LINE
  8
0
 10
15.0942
 20
75.003
 11
14.9058
 21
75.003
  0
LINE
  8
0
 10
-15.0942
 20
75.003
 11
-15.2811
 21
75.0266
  0
LINE
  8
0
 10
-15.2811
 20
75.0266
 11
-15.4635
 21
75.0734
  0
LINE
  8
0
 10
-15.4635
 20
75.0734
 11
-15.6387
 21
75.1428
  0
LINE
  8
0
 10
-15.6387
 20
75.1428
 11
-15.8037
 21
75.2335
  0
LINE
  8
0
 10
-15.8037
 20
75.2335
 11
-15.9561
 21
75.3442
  0
LINE
  8
0
 10
-15.9561
 20
75.3442
 11
-16.0934
 21
75.4732
  0
LINE
  8
0
 10
-16.0934
 20
75.4732
 11
-16.2135
 21
75.6183
  0
LINE
  8
0
 10
-16.2135
 20
75.6183
 11
-16.3145
 21
75.7774
  0
LINE
  8
0
 10
-16.3145
 20
75.7774
 11
-16.3947
 21
75.9478
  0
LINE
  8
0
 10
-16.3947
 20
75.9478
 11
-16.4529
 21
76.127
  0
LINE
  8
0
 10
-16.4529
 20
76.127
 11
-16.4882
 21
76.312
  0
LINE
  8
0
 10
-16.4882
 20
76.312
 11
-16.5
 21
76.5
  0
LINE
  8
0
 10
-16.5
 20
76.5
 11
-16.4882
 21
76.688
  0
LINE
  8
0
 10
-16.4882
 20
76.688
 11
-16.4529
 21
76.873
  0
LINE
  8
0
 10
-16.4529
 20
76.873
 11
-16.3947
 21
77.0522
  0
LINE
  8
0
 10
-16.3947
 20
77.0522
 11
-16.3145
 21
77.2226
  0
LINE
  8
0
 10
-16.3145
 20
77.2226
 11
-16.2135
 21
77.3817
  0
LINE
  8
0
 10
-16.2135
 20
77.3817
 11
-16.0934
 21
77.5268
  0
LINE
  8
0
 10
-16.0934
 20
77.5268
 11
-15.9561
 21
77.6558
  0
LINE
  8
0
 10
-15.9561
 20
77.6558
 11
-15.8037
 21
77.7665
  0
LINE
  8
0
 10
-15.8037
 20
77.7665
 11
-15.6387
 21
77.8573
  0
LINE
  8
0
 10
-15.6387
 20
77.8573
 11
-15.4635
 21
77.9266
  0
LINE
  8
0
 10
-15.4635
 20
77.9266
 11
-15.2811
 21
77.9734
  0
LINE
  8
0
 10
-15.2811
 20
77.9734
 11
-15.0942
 21
77.9971
  0
LINE
  8
0
 10
-15.0942
 20
77.9971
 11
-14.9058
 21
77.9971
  0
LINE
  8
0
 10
-14.9058
 20
77.9971
 11
-14.7189
 21
77.9734
  0
LINE
  8
0
 10
-14.7189
 20
77.9734
 11
-14.5365
 21
77.9266
  0
LINE
  8
0
 10
-14.5365
 20
77.9266
 11
-14.3613
 21
77.8573
  0
LINE
  8
0
 10
-14.3613
 20
77.8573
 11
-14.1963
 21
77.7665
  0
LINE
  8
0
 10
-14.1963
 20
77.7665
 11
-14.0439
 21
77.6558
  0
LINE
  8
0
 10
-14.0439
 20
77.6558
 11
-13.9065
 21
77.5268
  0
LINE
  8
0
 10
-13.9065
 20
77.5268
 11
-13.7865
 21
77.3817
  0
LINE
  8
0
 10
-13.7865
 20
77.3817
 11
-13.6855
 21
77.2226
  0
LINE
  8
0
 10
-13.6855
 20
77.2226
 11
-13.6053
 21
77.0522
  0
LINE
  8
0
 10
-13.6053
 20
77.0522
 11
-13.5471
 21
76.873
  0
LINE
  8
0
 10
-13.5471
 20
76.873
 11
-13.5118
 21
76.688
  0
LINE
  8
0
 10
-13.5118
 20
76.688
 11
-13.5
 21
76.5
  0
LINE
  8
0
 10
-13.5
 20
76.5
 11
-13.5118
 21
76.312
  0
LINE
  8
0
 10
-13.5118
 20
76.312
 11
-13.5471
 21
76.127
  0
LINE
  8
0
 10
-13.5471
 20
76.127
 11
-13.6053
 21
75.9478
  0
LINE
  8
0
 10
-13.6053
 20
75.9478
 11
-13.6855
 21
75.7774
  0
LINE
  8
0
 10
-13.6855
 20
75.7774
 11
-13.7865
 21
75.6183
  0
LINE
  8
0
 10
-13.7865
 20
75.6183
 11
-13.9065
 21
75.4732
  0
LINE
  8
0
 10
-13.9065
 20
75.4732
 11
-14.0439
 21
75.3442
  0
LINE
  8
0
 10
-14.0439
 20
75.3442
 11
-14.1963
 21
75.2335
  0
LINE
  8
0
 10
-14.1963
 20
75.2335
 11
-14.3613
 21
75.1428
  0
LINE
  8
0
 10
-14.3613
 20
75.1428
 11
-14.5365
 21
75.0734
  0
LINE
  8
0
 10
-14.5365
 20
75.0734
 11
-14.7189
 21
75.0266
  0
LINE
  8
0
 10
-14.7189
 20
75.0266
 11
-14.9058
 21
75.003
  0
LINE
  8
0
 10
-14.9058
 20
75.003
 11
-15.0942
 21
75.003
  0
LINE
  8
0
 10
14.8116
 20
66.0059
 11
14.4379
 21
66.0531
  0
LINE
  8
0
 10
14.4379
 20
66.0531
 11
14.0729
 21
66.1468
  0
LINE
  8
0
 10
14.0729
 20
66.1468
 11
13.7227
 21
66.2855
  0
LINE
  8
0
 10
13.7227
 20
66.2855
 11
13.3925
 21
66.467
  0
LINE
  8
0
 10
13.3925
 20
66.467
 11
13.0877
 21
66.6885
  0
LINE
  8
0
 10
13.0877
 20
66.6885
 11
12.8131
 21
66.9464
  0
LINE
  8
0
 10
12.8131
 20
66.9464
 11
12.5729
 21
67.2366
  0
LINE
  8
0
 10
12.5729
 20
67.2366
 11
12.3711
 21
67.5547
  0
LINE
  8
0
 10
12.3711
 20
67.5547
 11
12.2107
 21
67.8956
  0
LINE
  8
0
 10
12.2107
 20
67.8956
 11
12.0942
 21
68.2539
  0
LINE
  8
0
 10
12.0942
 20
68.2539
 11
12.0237
 21
68.624
  0
LINE
  8
0
 10
12.0237
 20
68.624
 11
12
 21
69
  0
LINE
  8
0
 10
12
 20
69
 11
12.0237
 21
69.376
  0
LINE
  8
0
 10
12.0237
 20
69.376
 11
12.0942
 21
69.7461
  0
LINE
  8
0
 10
12.0942
 20
69.7461
 11
12.2107
 21
70.1044
  0
LINE
  8
0
 10
12.2107
 20
70.1044
 11
12.3711
 21
70.4453
  0
LINE
  8
0
 10
12.3711
 20
70.4453
 11
12.5729
 21
70.7634
  0
LINE
  8
0
 10
12.5729
 20
70.7634
 11
12.8131
 21
71.0536
  0
LINE
  8
0
 10
12.8131
 20
71.0536
 11
13.0877
 21
71.3116
  0
LINE
  8
0
 10
13.0877
 20
71.3116
 11
13.3925
 21
71.533
  0
LINE
  8
0
 10
13.3925
 20
71.533
 11
13.7227
 21
71.7145
  0
LINE
  8
0
 10
13.7227
 20
71.7145
 11
14.0729
 21
71.8532
  0
LINE
  8
0
 10
14.0729
 20
71.8532
 11
14.4379
 21
71.9469
  0
LINE
  8
0
 10
14.4379
 20
71.9469
 11
14.8116
 21
71.9941
  0
LINE
  8
0
 10
14.8116
 20
71.9941
 11
15.1884
 21
71.9941
  0
LINE
  8
0
 10
15.1884
 20
71.9941
 11
15.5621
 21
71.9469
  0
LINE
  8
0
 10
15.5621
 20
71.9469
 11
15.927
 21
71.8532
  0
LINE
  8
0
 10
15.927
 20
71.8532
 11
16.2773
 21
71.7145
  0
LINE
  8
0
 10
16.2773
 20
71.7145
 11
16.6075
 21
71.533
  0
LINE
  8
0
 10
16.6075
 20
71.533
 11
16.9123
 21
71.3116
  0
LINE
  8
0
 10
16.9123
 20
71.3116
 11
17.1869
 21
71.0536
  0
LINE
  8
0
 10
17.1869
 20
71.0536
 11
17.427
 21
70.7634
  0
LINE
  8
0
 10
17.427
 20
70.7634
 11
17.6289
 21
70.4453
  0
LINE
  8
0
 10
17.6289
 20
70.4453
 11
17.7893
 21
70.1044
  0
LINE
  8
0
 10
17.7893
 20
70.1044
 11
17.9057
 21
69.7461
  0
LINE
  8
0
 10
17.9057
 20
69.7461
 11
17.9763
 21
69.376
  0
LINE
  8
0
 10
17.9763
 20
69.376
 11
18
 21
69
  0
LINE
  8
0
 10
18
 20
69
 11
17.9763
 21
68.624
  0
LINE
  8
0
 10
17.9763
 20
68.624
 11
17.9057
 21
68.2539
  0
LINE
  8
0
 10
17.9057
 20
68.2539
 11
17.7893
 21
67.8956
  0
LINE
  8
0
 10
17.7893
 20
67.8956
 11
17.6289
 21
67.5547
  0
LINE
  8
0
 10
17.6289
 20
67.5547
 11
17.427
 21
67.2366
  0
LINE
  8
0
 10
17.427
 20
67.2366
 11
17.1869
 21
66.9464
  0
LINE
  8
0
 10
17.1869
 20
66.9464
 11
16.9123
 21
66.6885
  0
LINE
  8
0
 10
16.9123
 20
66.6885
 11
16.6075
 21
66.467
  0
LINE
  8
0
 10
16.6075
 20
66.467
 11
16.2773
 21
66.2855
  0
LINE
  8
0
 10
16.2773
 20
66.2855
 11
15.927
 21
66.1468
  0
LINE
  8
0
 10
15.927
 20
66.1468
 11
15.5621
 21
66.0531
  0
LINE
  8
0
 10
15.5621
 20
66.0531
 11
15.1884
 21
66.0059
  0
LINE
  8
0
 10
15.1884
 20
66.0059
 11
14.8116
 21
66.0059
  0
LINE
  8
0
 10
-15.1884
 20
66.0059
 11
-15.5621
 21
66.0531
  0
LINE
  8
0
 10
-15.5621
 20
66.0531
 11
-15.927
 21
66.1468
  0
LINE
  8
0
 10
-15.927
 20
66.1468
 11
-16.2773
 21
66.2855
  0
LINE
  8
0
 10
-16.2773
 20
66.2855
 11
-16.6075
 21
66.467
  0
LINE
  8
0
 10
-16.6075
 20
66.467
 11
-16.9123
 21
66.6885
  0
LINE
  8
0
 10
-16.9123
 20
66.6885
 11
-17.1869
 21
66.9464
  0
LINE
  8
0
 10
-17.1869
 20
66.9464
 11
-17.427
 21
67.2366
  0
LINE
  8
0
 10
-17.427
 20
67.2366
 11
-17.6289
 21
67.5547
  0
LINE
  8
0
 10
-17.6289
 20
67.5547
 11
-17.7893
 21
67.8956
  0
LINE
  8
0
 10
-17.7893
 20
67.8956
 11
-17.9057
 21
68.2539
  0
LINE
  8
0
 10
-17.9057
 20
68.2539
 11
-17.9763
 21
68.624
  0
LINE
  8
0
 10
-17.9763
 20
68.624
 11
-18
 21
69
  0
LINE
  8
0
 10
-18
 20
69
 11
-17.9763
 21
69.376
  0
LINE
  8
0
 10
-17.9763
 20
69.376
 11
-17.9057
 21
69.7461
  0
LINE
  8
0
 10
-17.9057
 20
69.7461
 11
-17.7893
 21
70.1044
  0
LINE
  8
0
 10
-17.7893
 20
70.1044
 11
-17.6289
 21
70.4453
  0
LINE
  8
0
 10
-17.6289
 20
70.4453
 11
-17.427
 21
70.7634
  0
LINE
  8
0
 10
-17.427
 20
70.7634
 11
-17.1869
 21
71.0536
  0
LINE
  8
0
 10
-17.1869
 20
71.0536
 11
-16.9123
 21
71.3116
  0
LINE
  8
0
 10
-16.9123
 20
71.3116
 11
-16.6075
 21
71.533
  0
LINE
  8
0
 10
-16.6075
 20
71.533
 11
-16.2773
 21
71.7145
  0
LINE
  8
0
 10
-16.2773
 20
71.7145
 11
-15.927
 21
71.8532
  0
LINE
  8
0
 10
-15.927
 20
71.8532
 11
-15.5621
 21
71.9469
  0
LINE
  8
0
 10
-15.5621
 20
71.9469
 11
-15.1884
 21
71.9941
  0
LINE
  8
0
 10
-15.1884
 20
71.9941
 11
-14.8116
 21
71.9941
  0
LINE
  8
0
 10
-14.8116
 20
71.9941
 11
-14.4379
 21
71.9469
  0
LINE
  8
0
 10
-14.4379
 20
71.9469
 11
-14.0729
 21
71.8532
  0
LINE
  8
0
 10
-14.0729
 20
71.8532
 11
-13.7227
 21
71.7145
  0
LINE
  8
0
 10
-13.7227
 20
71.7145
 11
-13.3925
 21
71.533
  0
LINE
  8
0
 10
-13.3925
 20
71.533
 11
-13.0877
 21
71.3116
  0
LINE
  8
0
 10
-13.0877
 20
71.3116
 11
-12.8131
 21
71.0536
  0
LINE
  8
0
 10
-12.8131
 20
71.0536
 11
-12.5729
 21
70.7634
  0
LINE
  8
0
 10
-12.5729
 20
70.7634
 11
-12.3711
 21
70.4453
  0
LINE
  8
0
 10
-12.3711
 20
70.4453
 11
-12.2107
 21
70.1044
  0
LINE
  8
0
 10
-12.2107
 20
70.1044
 11
-12.0942
 21
69.7461
  0
LINE
  8
0
 10
-12.0942
 20
69.7461
 11
-12.0237
 21
69.376
  0
LINE
  8
0
 10
-12.0237
 20
69.376
 11
-12
 21
69
  0
LINE
  8
0
 10
-12
 20
69
 11
-12.0237
 21
68.624
  0
LINE
  8
0
 10
-12.0237
 20
68.624
 11
-12.0942
 21
68.2539
  0
LINE
  8
0
 10
-12.0942
 20
68.2539
 11
-12.2107
 21
67.8956
  0
LINE
  8
0
 10
-12.2107
 20
67.8956
 11
-12.3711
 21
67.5547
  0
LINE
  8
0
 10
-12.3711
 20
67.5547
 11
-12.5729
 21
67.2366
  0
LINE
  8
0
 10
-12.5729
 20
67.2366
 11
-12.8131
 21
66.9464
  0
LINE
  8
0
 10
-12.8131
 20
66.9464
 11
-13.0877
 21
66.6885
  0
LINE
  8
0
 10
-13.0877
 20
66.6885
 11
-13.3925
 21
66.467
  0
LINE
  8
0
 10
-13.3925
 20
66.467
 11
-13.7227
 21
66.2855
  0
LINE
  8
0
 10
-13.7227
 20
66.2855
 11
-14.0729
 21
66.1468
  0
LINE
  8
0
 10
-14.0729
 20
66.1468
 11
-14.4379
 21
66.0531
  0
LINE
  8
0
 10
-14.4379
 20
66.0531
 11
-14.8116
 21
66.0059
  0
LINE
  8
0
 10
-14.8116
 20
66.0059
 11
-15.1884
 21
66.0059
  0
LINE
  8
0
 10
-7.6765
 20
62.7818
 11
-7.78864
 21
62.7959
  0
LINE
  8
0
 10
-7.78864
 20
62.7959
 11
-7.8981
 21
62.8241
  0
LINE
  8
0
 10
-7.8981
 20
62.8241
 11
-8.00319
 21
62.8657
  0
LINE
  8
0
 10
-8.00319
 20
62.8657
 11
-8.10223
 21
62.9201
  0
LINE
  8
0
 10
-8.10223
 20
62.9201
 11
-8.19368
 21
62.9865
  0
LINE
  8
0
 10
-8.19368
 20
62.9865
 11
-8.27606
 21
63.0639
  0
LINE
  8
0
 10
-8.27606
 20
63.0639
 11
-8.34811
 21
63.151
  0
LINE
  8
0
 10
-8.34811
 20
63.151
 11
-8.40866
 21
63.2464
  0
LINE
  8
0
 10
-8.40866
 20
63.2464
 11
-8.45679
 21
63.3487
  0
LINE
  8
0
 10
-8.45679
 20
63.3487
 11
-8.49171
 21
63.4562
  0
LINE
  8
0
 10
-8.49171
 20
63.4562
 11
-8.51289
 21
63.5672
  0
LINE
  8
0
 10
-8.51289
 20
63.5672
 11
-8.51999
 21
63.68
  0
LINE
  8
0
 10
-8.51999
 20
63.68
 11
-8.51289
 21
63.7928
  0
LINE
  8
0
 10
-8.51289
 20
63.7928
 11
-8.49171
 21
63.9038
  0
LINE
  8
0
 10
-8.49171
 20
63.9038
 11
-8.45679
 21
64.0113
  0
LINE
  8
0
 10
-8.45679
 20
64.0113
 11
-8.40866
 21
64.1136
  0
LINE
  8
0
 10
-8.40866
 20
64.1136
 11
-8.34811
 21
64.209
  0
LINE
  8
0
 10
-8.34811
 20
64.209
 11
-8.27606
 21
64.2961
  0
LINE
  8
0
 10
-8.27606
 20
64.2961
 11
-8.19368
 21
64.3735
  0
LINE
  8
0
 10
-8.19368
 20
64.3735
 11
-8.10223
 21
64.4399
  0
LINE
  8
0
 10
-8.10223
 20
64.4399
 11
-8.00319
 21
64.4944
  0
LINE
  8
0
 10
-8.00319
 20
64.4944
 11
-7.8981
 21
64.5359
  0
LINE
  8
0
 10
-7.8981
 20
64.5359
 11
-7.78864
 21
64.5641
  0
LINE
  8
0
 10
-7.78864
 20
64.5641
 11
-7.6765
 21
64.5782
  0
LINE
  8
0
 10
-7.6765
 20
64.5782
 11
-7.56348
 21
64.5782
  0
LINE
  8
0
 10
-7.56348
 20
64.5782
 11
-7.45135
 21
64.5641
  0
LINE
  8
0
 10
-7.45135
 20
64.5641
 11
-7.34187
 21
64.5359
  0
LINE
  8
0
 10
-7.34187
 20
64.5359
 11
-7.23679
 21
64.4944
  0
LINE
  8
0
 10
-7.23679
 20
64.4944
 11
-7.13776
 21
64.4399
  0
LINE
  8
0
 10
-7.13776
 20
64.4399
 11
-7.04631
 21
64.3735
  0
LINE
  8
0
 10
-7.04631
 20
64.3735
 11
-6.96393
 21
64.2961
  0
LINE
  8
0
 10
-6.96393
 20
64.2961
 11
-6.89188
 21
64.209
  0
LINE
  8
0
 10
-6.89188
 20
64.209
 11
-6.83131
 21
64.1136
  0
LINE
  8
0
 10
-6.83131
 20
64.1136
 11
-6.78319
 21
64.0113
  0
LINE
  8
0
 10
-6.78319
 20
64.0113
 11
-6.74828
 21
63.9038
  0
LINE
  8
0
 10
-6.74828
 20
63.9038
 11
-6.7271
 21
63.7928
  0
LINE
  8
0
 10
-6.7271
 20
63.7928
 11
-6.71999
 21
63.68
  0
LINE
  8
0
 10
-6.71999
 20
63.68
 11
-6.7271
 21
63.5672
  0
LINE
  8
0
 10
-6.7271
 20
63.5672
 11
-6.74828
 21
63.4562
  0
LINE
  8
0
 10
-6.74828
 20
63.4562
 11
-6.78319
 21
63.3487
  0
LINE
  8
0
 10
-6.78319
 20
63.3487
 11
-6.83131
 21
63.2464
  0
LINE
  8
0
 10
-6.83131
 20
63.2464
 11
-6.89188
 21
63.151
  0
LINE
  8
0
 10
-6.89188
 20
63.151
 11
-6.96393
 21
63.0639
  0
LINE
  8
0
 10
-6.96393
 20
63.0639
 11
-7.04631
 21
62.9865
  0
LINE
  8
0
 10
-7.04631
 20
62.9865
 11
-7.13776
 21
62.9201
  0
LINE
  8
0
 10
-7.13776
 20
62.9201
 11
-7.23679
 21
62.8657
  0
LINE
  8
0
 10
-7.23679
 20
62.8657
 11
-7.34187
 21
62.8241
  0
LINE
  8
0
 10
-7.34187
 20
62.8241
 11
-7.45135
 21
62.7959
  0
LINE
  8
0
 10
-7.45135
 20
62.7959
 11
-7.56348
 21
62.7818
  0
LINE
  8
0
 10
-7.56348
 20
62.7818
 11
-7.6765
 21
62.7818
  0
LINE
  8
0
 10
7.56348
 20
62.7818
 11
7.45135
 21
62.7959
  0
LINE
  8
0
 10
7.45135
 20
62.7959
 11
7.34187
 21
62.8241
  0
LINE
  8
0
 10
7.34187
 20
62.8241
 11
7.23679
 21
62.8657
  0
LINE
  8
0
 10
7.23679
 20
62.8657
 11
7.13776
 21
62.9201
  0
LINE
  8
0
 10
7.13776
 20
62.9201
 11
7.04631
 21
62.9865
  0
LINE
  8
0
 10
7.04631
 20
62.9865
 11
6.96393
 21
63.0639
  0
LINE
  8
0
 10
6.96393
 20
63.0639
 11
6.89188
 21
63.151
  0
LINE
  8
0
 10
6.89188
 20
63.151
 11
6.83131
 21
63.2464
  0
LINE
  8
0
 10
6.83131
 20
63.2464
 11
6.78319
 21
63.3487
  0
LINE
  8
0
 10
6.78319
 20
63.3487
 11
6.74828
 21
63.4562
  0
LINE
  8
0
 10
6.74828
 20
63.4562
 11
6.7271
 21
63.5672
  0
LINE
  8
0
 10
6.7271
 20
63.5672
 11
6.71999
 21
63.68
  0
LINE
  8
0
 10
6.71999
 20
63.68
 11
6.7271
 21
63.7928
  0
LINE
  8
0
 10
6.7271
 20
63.7928
 11
6.74828
 21
63.9038
  0
LINE
  8
0
 10
6.74828
 20
63.9038
 11
6.78319
 21
64.0113
  0
LINE
  8
0
 10
6.78319
 20
64.0113
 11
6.83131
 21
64.1136
  0
LINE
  8
0
 10
6.83131
 20
64.1136
 11
6.89188
 21
64.209
  0
LINE
  8
0
 10
6.89188
 20
64.209
 11
6.96393
 21
64.2961
  0
LINE
  8
0
 10
6.96393
 20
64.2961
 11
7.04631
 21
64.3735
  0
LINE
  8
0
 10
7.04631
 20
64.3735
 11
7.13776
 21
64.4399
  0
LINE
  8
0
 10
7.13776
 20
64.4399
 11
7.23679
 21
64.4944
  0
LINE
  8
0
 10
7.23679
 20
64.4944
 11
7.34187
 21
64.5359
  0
LINE
  8
0
 10
7.34187
 20
64.5359
 11
7.45135
 21
64.5641
  0
LINE
  8
0
 10
7.45135
 20
64.5641
 11
7.56348
 21
64.5782
  0
LINE
  8
0
 10
7.56348
 20
64.5782
 11
7.6765
 21
64.5782
  0
LINE
  8
0
 10
7.6765
 20
64.5782
 11
7.78864
 21
64.5641
  0
LINE
  8
0
 10
7.78864
 20
64.5641
 11
7.8981
 21
64.5359
  0
LINE
  8
0
 10
7.8981
 20
64.5359
 11
8.00319
 21
64.4944
  0
LINE
  8
0
 10
8.00319
 20
64.4944
 11
8.10223
 21
64.4399
  0
LINE
  8
0
 10
8.10223
 20
64.4399
 11
8.19368
 21
64.3735
  0
LINE
  8
0
 10
8.19368
 20
64.3735
 11
8.27606
 21
64.2961
  0
LINE
  8
0
 10
8.27606
 20
64.2961
 11
8.34811
 21
64.209
  0
LINE
  8
0
 10
8.34811
 20
64.209
 11
8.40866
 21
64.1136
  0
LINE
  8
0
 10
8.40866
 20
64.1136
 11
8.45679
 21
64.0113
  0
LINE
  8
0
 10
8.45679
 20
64.0113
 11
8.49171
 21
63.9038
  0
LINE
  8
0
 10
8.49171
 20
63.9038
 11
8.51289
 21
63.7928
  0
LINE
  8
0
 10
8.51289
 20
63.7928
 11
8.51999
 21
63.68
  0
LINE
  8
0
 10
8.51999
 20
63.68
 11
8.51289
 21
63.5672
  0
LINE
  8
0
 10
8.51289
 20
63.5672
 11
8.49171
 21
63.4562
  0
LINE
  8
0
 10
8.49171
 20
63.4562
 11
8.45679
 21
63.3487
  0
LINE
  8
0
 10
8.45679
 20
63.3487
 11
8.40866
 21
63.2464
  0
LINE
  8
0
 10
8.40866
 20
63.2464
 11
8.34811
 21
63.151
  0
LINE
  8
0
 10
8.34811
 20
63.151
 11
8.27606
 21
63.0639
  0
LINE
  8
0
 10
8.27606
 20
63.0639
 11
8.19368
 21
62.9865
  0
LINE
  8
0
 10
8.19368
 20
62.9865
 11
8.10223
 21
62.9201
  0
LINE
  8
0
 10
8.10223
 20
62.9201
 11
8.00319
 21
62.8657
  0
LINE
  8
0
 10
8.00319
 20
62.8657
 11
7.8981
 21
62.8241
  0
LINE
  8
0
 10
7.8981
 20
62.8241
 11
7.78864
 21
62.7959
  0
LINE
  8
0
 10
7.78864
 20
62.7959
 11
7.6765
 21
62.7818
  0
LINE
  8
0
 10
7.6765
 20
62.7818
 11
7.56348
 21
62.7818
  0
LINE
  8
0
 10
-15.0942
 20
60.003
 11
-15.2811
 21
60.0266
  0
LINE
  8
0
 10
-15.2811
 20
60.0266
 11
-15.4635
 21
60.0734
  0
LINE
  8
0
 10
-15.4635
 20
60.0734
 11
-15.6387
 21
60.1428
  0
LINE
  8
0
 10
-15.6387
 20
60.1428
 11
-15.8037
 21
60.2335
  0
LINE
  8
0
 10
-15.8037
 20
60.2335
 11
-15.9561
 21
60.3442
  0
LINE
  8
0
 10
-15.9561
 20
60.3442
 11
-16.0934
 21
60.4732
  0
LINE
  8
0
 10
-16.0934
 20
60.4732
 11
-16.2135
 21
60.6183
  0
LINE
  8
0
 10
-16.2135
 20
60.6183
 11
-16.3145
 21
60.7774
  0
LINE
  8
0
 10
-16.3145
 20
60.7774
 11
-16.3947
 21
60.9478
  0
LINE
  8
0
 10
-16.3947
 20
60.9478
 11
-16.4529
 21
61.127
  0
LINE
  8
0
 10
-16.4529
 20
61.127
 11
-16.4882
 21
61.312
  0
LINE
  8
0
 10
-16.4882
 20
61.312
 11
-16.5
 21
61.5
  0
LINE
  8
0
 10
-16.5
 20
61.5
 11
-16.4882
 21
61.688
  0
LINE
  8
0
 10
-16.4882
 20
61.688
 11
-16.4529
 21
61.873
  0
LINE
  8
0
 10
-16.4529
 20
61.873
 11
-16.3947
 21
62.0522
  0
LINE
  8
0
 10
-16.3947
 20
62.0522
 11
-16.3145
 21
62.2226
  0
LINE
  8
0
 10
-16.3145
 20
62.2226
 11
-16.2135
 21
62.3817
  0
LINE
  8
0
 10
-16.2135
 20
62.3817
 11
-16.0934
 21
62.5268
  0
LINE
  8
0
 10
-16.0934
 20
62.5268
 11
-15.9561
 21
62.6558
  0
LINE
  8
0
 10
-15.9561
 20
62.6558
 11
-15.8037
 21
62.7665
  0
LINE
  8
0
 10
-15.8037
 20
62.7665
 11
-15.6387
 21
62.8573
  0
LINE
  8
0
 10
-15.6387
 20
62.8573
 11
-15.4635
 21
62.9266
  0
LINE
  8
0
 10
-15.4635
 20
62.9266
 11
-15.2811
 21
62.9734
  0
LINE
  8
0
 10
-15.2811
 20
62.9734
 11
-15.0942
 21
62.997
  0
LINE
  8
0
 10
-15.0942
 20
62.997
 11
-14.9058
 21
62.997
  0
LINE
  8
0
 10
-14.9058
 20
62.997
 11
-14.7189
 21
62.9734
  0
LINE
  8
0
 10
-14.7189
 20
62.9734
 11
-14.5365
 21
62.9266
  0
LINE
  8
0
 10
-14.5365
 20
62.9266
 11
-14.3613
 21
62.8573
  0
LINE
  8
0
 10
-14.3613
 20
62.8573
 11
-14.1963
 21
62.7665
  0
LINE
  8
0
 10
-14.1963
 20
62.7665
 11
-14.0439
 21
62.6558
  0
LINE
  8
0
 10
-14.0439
 20
62.6558
 11
-13.9065
 21
62.5268
  0
LINE
  8
0
 10
-13.9065
 20
62.5268
 11
-13.7865
 21
62.3817
  0
LINE
  8
0
 10
-13.7865
 20
62.3817
 11
-13.6855
 21
62.2226
  0
LINE
  8
0
 10
-13.6855
 20
62.2226
 11
-13.6053
 21
62.0522
  0
LINE
  8
0
 10
-13.6053
 20
62.0522
 11
-13.5471
 21
61.873
  0
LINE
  8
0
 10
-13.5471
 20
61.873
 11
-13.5118
 21
61.688
  0
LINE
  8
0
 10
-13.5118
 20
61.688
 11
-13.5
 21
61.5
  0
LINE
  8
0
 10
-13.5
 20
61.5
 11
-13.5118
 21
61.312
  0
LINE
  8
0
 10
-13.5118
 20
61.312
 11
-13.5471
 21
61.127
  0
LINE
  8
0
 10
-13.5471
 20
61.127
 11
-13.6053
 21
60.9478
  0
LINE
  8
0
 10
-13.6053
 20
60.9478
 11
-13.6855
 21
60.7774
  0
LINE
  8
0
 10
-13.6855
 20
60.7774
 11
-13.7865
 21
60.6183
  0
LINE
  8
0
 10
-13.7865
 20
60.6183
 11
-13.9065
 21
60.4732
  0
LINE
  8
0
 10
-13.9065
 20
60.4732
 11
-14.0439
 21
60.3442
  0
LINE
  8
0
 10
-14.0439
 20
60.3442
 11
-14.1963
 21
60.2335
  0
LINE
  8
0
 10
-14.1963
 20
60.2335
 11
-14.3613
 21
60.1428
  0
LINE
  8
0
 10
-14.3613
 20
60.1428
 11
-14.5365
 21
60.0734
  0
LINE
  8
0
 10
-14.5365
 20
60.0734
 11
-14.7189
 21
60.0266
  0
LINE
  8
0
 10
-14.7189
 20
60.0266
 11
-14.9058
 21
60.003
  0
LINE
  8
0
 10
-14.9058
 20
60.003
 11
-15.0942
 21
60.003
  0
LINE
  8
0
 10
14.9058
 20
60.003
 11
14.7189
 21
60.0266
  0
LINE
  8
0
 10
14.7189
 20
60.0266
 11
14.5365
 21
60.0734
  0
LINE
  8
0
 10
14.5365
 20
60.0734
 11
14.3613
 21
60.1428
  0
LINE
  8
0
 10
14.3613
 20
60.1428
 11
14.1963
 21
60.2335
  0
LINE
  8
0
 10
14.1963
 20
60.2335
 11
14.0439
 21
60.3442
  0
LINE
  8
0
 10
14.0439
 20
60.3442
 11
13.9065
 21
60.4732
  0
LINE
  8
0
 10
13.9065
 20
60.4732
 11
13.7865
 21
60.6183
  0
LINE
  8
0
 10
13.7865
 20
60.6183
 11
13.6855
 21
60.7774
  0
LINE
  8
0
 10
13.6855
 20
60.7774
 11
13.6053
 21
60.9478
  0
LINE
  8
0
 10
13.6053
 20
60.9478
 11
13.5471
 21
61.127
  0
LINE
  8
0
 10
13.5471
 20
61.127
 11
13.5118
 21
61.312
  0
LINE
  8
0
 10
13.5118
 20
61.312
 11
13.5
 21
61.5
  0
LINE
  8
0
 10
13.5
 20
61.5
 11
13.5118
 21
61.688
  0
LINE
  8
0
 10
13.5118
 20
61.688
 11
13.5471
 21
61.873
  0
LINE
  8
0
 10
13.5471
 20
61.873
 11
13.6053
 21
62.0522
  0
LINE
  8
0
 10
13.6053
 20
62.0522
 11
13.6855
 21
62.2226
  0
LINE
  8
0
 10
13.6855
 20
62.2226
 11
13.7865
 21
62.3817
  0
LINE
  8
0
 10
13.7865
 20
62.3817
 11
13.9065
 21
62.5268
  0
LINE
  8
0
 10
13.9065
 20
62.5268
 11
14.0439
 21
62.6558
  0
LINE
  8
0
 10
14.0439
 20
62.6558
 11
14.1963
 21
62.7665
  0
LINE
  8
0
 10
14.1963
 20
62.7665
 11
14.3613
 21
62.8573
  0
LINE
  8
0
 10
14.3613
 20
62.8573
 11
14.5365
 21
62.9266
  0
LINE
  8
0
 10
14.5365
 20
62.9266
 11
14.7189
 21
62.9734
  0
LINE
  8
0
 10
14.7189
 20
62.9734
 11
14.9058
 21
62.997
  0
LINE
  8
0
 10
14.9058
 20
62.997
 11
15.0942
 21
62.997
  0
LINE
  8
0
 10
15.0942
 20
62.997
 11
15.2811
 21
62.9734
  0
LINE
  8
0
 10
15.2811
 20
62.9734
 11
15.4635
 21
62.9266
  0
LINE
  8
0
 10
15.4635
 20
62.9266
 11
15.6387
 21
62.8573
  0
LINE
  8
0
 10
15.6387
 20
62.8573
 11
15.8037
 21
62.7665
  0
LINE
  8
0
 10
15.8037
 20
62.7665
 11
15.9561
 21
62.6558
  0
LINE
  8
0
 10
15.9561
 20
62.6558
 11
16.0934
 21
62.5268
  0
LINE
  8
0
 10
16.0934
 20
62.5268
 11
16.2135
 21
62.3817
  0
LINE
  8
0
 10
16.2135
 20
62.3817
 11
16.3145
 21
62.2226
  0
LINE
  8
0
 10
16.3145
 20
62.2226
 11
16.3947
 21
62.0522
  0
LINE
  8
0
 10
16.3947
 20
62.0522
 11
16.4529
 21
61.873
  0
LINE
  8
0
 10
16.4529
 20
61.873
 11
16.4882
 21
61.688
  0
LINE
  8
0
 10
16.4882
 20
61.688
 11
16.5
 21
61.5
  0
LINE
  8
0
 10
16.5
 20
61.5
 11
16.4882
 21
61.312
  0
LINE
  8
0
 10
16.4882
 20
61.312
 11
16.4529
 21
61.127
  0
LINE
  8
0
 10
16.4529
 20
61.127
 11
16.3947
 21
60.9478
  0
LINE
  8
0
 10
16.3947
 20
60.9478
 11
16.3145
 21
60.7774
  0
LINE
  8
0
 10
16.3145
 20
60.7774
 11
16.2135
 21
60.6183
  0
LINE
  8
0
 10
16.2135
 20
60.6183
 11
16.0934
 21
60.4732
  0
LINE
  8
0
 10
16.0934
 20
60.4732
 11
15.9561
 21
60.3442
  0
LINE
  8
0
 10
15.9561
 20
60.3442
 11
15.8037
 21
60.2335
  0
LINE
  8
0
 10
15.8037
 20
60.2335
 11
15.6387
 21
60.1428
  0
LINE
  8
0
 10
15.6387
 20
60.1428
 11
15.4635
 21
60.0734
  0
LINE
  8
0
 10
15.4635
 20
60.0734
 11
15.2811
 21
60.0266
  0
LINE
  8
0
 10
15.2811
 20
60.0266
 11
15.0942
 21
60.003
  0
LINE
  8
0
 10
15.0942
 20
60.003
 11
14.9058
 21
60.003
  0
LINE
  8
0
 10
-15.1884
 20
51.0059
 11
-15.5621
 21
51.0531
  0
LINE
  8
0
 10
-15.5621
 20
51.0531
 11
-15.927
 21
51.1468
  0
LINE
  8
0
 10
-15.927
 20
51.1468
 11
-16.2773
 21
51.2855
  0
LINE
  8
0
 10
-16.2773
 20
51.2855
 11
-16.6075
 21
51.467
  0
LINE
  8
0
 10
-16.6075
 20
51.467
 11
-16.9123
 21
51.6885
  0
LINE
  8
0
 10
-16.9123
 20
51.6885
 11
-17.1869
 21
51.9464
  0
LINE
  8
0
 10
-17.1869
 20
51.9464
 11
-17.427
 21
52.2366
  0
LINE
  8
0
 10
-17.427
 20
52.2366
 11
-17.6289
 21
52.5547
  0
LINE
  8
0
 10
-17.6289
 20
52.5547
 11
-17.7893
 21
52.8956
  0
LINE
  8
0
 10
-17.7893
 20
52.8956
 11
-17.9057
 21
53.2539
  0
LINE
  8
0
 10
-17.9057
 20
53.2539
 11
-17.9763
 21
53.624
  0
LINE
  8
0
 10
-17.9763
 20
53.624
 11
-18
 21
54
  0
LINE
  8
0
 10
-18
 20
54
 11
-17.9763
 21
54.376
  0
LINE
  8
0
 10
-17.9763
 20
54.376
 11
-17.9057
 21
54.7461
  0
LINE
  8
0
 10
-17.9057
 20
54.7461
 11
-17.7893
 21
55.1044
  0
LINE
  8
0
 10
-17.7893
 20
55.1044
 11
-17.6289
 21
55.4453
  0
LINE
  8
0
 10
-17.6289
 20
55.4453
 11
-17.427
 21
55.7634
  0
LINE
  8
0
 10
-17.427
 20
55.7634
 11
-17.1869
 21
56.0536
  0
LINE
  8
0
 10
-17.1869
 20
56.0536
 11
-16.9123
 21
56.3116
  0
LINE
  8
0
 10
-16.9123
 20
56.3116
 11
-16.6075
 21
56.533
  0
LINE
  8
0
 10
-16.6075
 20
56.533
 11
-16.2773
 21
56.7145
  0
LINE
  8
0
 10
-16.2773
 20
56.7145
 11
-15.927
 21
56.8532
  0
LINE
  8
0
 10
-15.927
 20
56.8532
 11
-15.5621
 21
56.9469
  0
LINE
  8
0
 10
-15.5621
 20
56.9469
 11
-15.1884
 21
56.9941
  0
LINE
  8
0
 10
-15.1884
 20
56.9941
 11
-14.8116
 21
56.9941
  0
LINE
  8
0
 10
-14.8116
 20
56.9941
 11
-14.4379
 21
56.9469
  0
LINE
  8
0
 10
-14.4379
 20
56.9469
 11
-14.0729
 21
56.8532
  0
LINE
  8
0
 10
-14.0729
 20
56.8532
 11
-13.7227
 21
56.7145
  0
LINE
  8
0
 10
-13.7227
 20
56.7145
 11
-13.3925
 21
56.533
  0
LINE
  8
0
 10
-13.3925
 20
56.533
 11
-13.0877
 21
56.3116
  0
LINE
  8
0
 10
-13.0877
 20
56.3116
 11
-12.8131
 21
56.0536
  0
LINE
  8
0
 10
-12.8131
 20
56.0536
 11
-12.5729
 21
55.7634
  0
LINE
  8
0
 10
-12.5729
 20
55.7634
 11
-12.3711
 21
55.4453
  0
LINE
  8
0
 10
-12.3711
 20
55.4453
 11
-12.2107
 21
55.1044
  0
LINE
  8
0
 10
-12.2107
 20
55.1044
 11
-12.0942
 21
54.7461
  0
LINE
  8
0
 10
-12.0942
 20
54.7461
 11
-12.0237
 21
54.376
  0
LINE
  8
0
 10
-12.0237
 20
54.376
 11
-12
 21
54
  0
LINE
  8
0
 10
-12
 20
54
 11
-12.0237
 21
53.624
  0
LINE
  8
0
 10
-12.0237
 20
53.624
 11
-12.0942
 21
53.2539
  0
LINE
  8
0
 10
-12.0942
 20
53.2539
 11
-12.2107
 21
52.8956
  0
LINE
  8
0
 10
-12.2107
 20
52.8956
 11
-12.3711
 21
52.5547
  0
LINE
  8
0
 10
-12.3711
 20
52.5547
 11
-12.5729
 21
52.2366
  0
LINE
  8
0
 10
-12.5729
 20
52.2366
 11
-12.8131
 21
51.9464
  0
LINE
  8
0
 10
-12.8131
 20
51.9464
 11
-13.0877
 21
51.6885
  0
LINE
  8
0
 10
-13.0877
 20
51.6885
 11
-13.3925
 21
51.467
  0
LINE
  8
0
 10
-13.3925
 20
51.467
 11
-13.7227
 21
51.2855
  0
LINE
  8
0
 10
-13.7227
 20
51.2855
 11
-14.0729
 21
51.1468
  0
LINE
  8
0
 10
-14.0729
 20
51.1468
 11
-14.4379
 21
51.0531
  0
LINE
  8
0
 10
-14.4379
 20
51.0531
 11
-14.8116
 21
51.0059
  0
LINE
  8
0
 10
-14.8116
 20
51.0059
 11
-15.1884
 21
51.0059
  0
LINE
  8
0
 10
14.8116
 20
51.0059
 11
14.4379
 21
51.0531
  0
LINE
  8
0
 10
14.4379
 20
51.0531
 11
14.0729
 21
51.1468
  0
LINE
  8
0
 10
14.0729
 20
51.1468
 11
13.7227
 21
51.2855
  0
LINE
  8
0
 10
13.7227
 20
51.2855
 11
13.3925
 21
51.467
  0
LINE
  8
0
 10
13.3925
 20
51.467
 11
13.0877
 21
51.6885
  0
LINE
  8
0
 10
13.0877
 20
51.6885
 11
12.8131
 21
51.9464
  0
LINE
  8
0
 10
12.8131
 20
51.9464
 11
12.5729
 21
52.2366
  0
LINE
  8
0
 10
12.5729
 20
52.2366
 11
12.3711
 21
52.5547
  0
LINE
  8
0
 10
12.3711
 20
52.5547
 11
12.2107
 21
52.8956
  0
LINE
  8
0
 10
12.2107
 20
52.8956
 11
12.0942
 21
53.2539
  0
LINE
  8
0
 10
12.0942
 20
53.2539
 11
12.0237
 21
53.624
  0
LINE
  8
0
 10
12.0237
 20
53.624
 11
12
 21
54
  0
LINE
  8
0
 10
12
 20
54
 11
12.0237
 21
54.376
  0
LINE
  8
0
 10
12.0237
 20
54.376
 11
12.0942
 21
54.7461
  0
LINE
  8
0
 10
12.0942
 20
54.7461
 11
12.2107
 21
55.1044
  0
LINE
  8
0
 10
12.2107
 20
55.1044
 11
12.3711
 21
55.4453
  0
LINE
  8
0
 10
12.3711
 20
55.4453
 11
12.5729
 21
55.7634
  0
LINE
  8
0
 10
12.5729
 20
55.7634
 11
12.8131
 21
56.0536
  0
LINE
  8
0
 10
12.8131
 20
56.0536
 11
13.0877
 21
56.3116
  0
LINE
  8
0
 10
13.0877
 20
56.3116
 11
13.3925
 21
56.533
  0
LINE
  8
0
 10
13.3925
 20
56.533
 11
13.7227
 21
56.7145
  0
LINE
  8
0
 10
13.7227
 20
56.7145
 11
14.0729
 21
56.8532
  0
LINE
  8
0
 10
14.0729
 20
56.8532
 11
14.4379
 21
56.9469
  0
LINE
  8
0
 10
14.4379
 20
56.9469
 11
14.8116
 21
56.9941
  0
LINE
  8
0
 10
14.8116
 20
56.9941
 11
15.1884
 21
56.9941
  0
LINE
  8
0
 10
15.1884
 20
56.9941
 11
15.5621
 21
56.9469
  0
LINE
  8
0
 10
15.5621
 20
56.9469
 11
15.927
 21
56.8532
  0
LINE
  8
0
 10
15.927
 20
56.8532
 11
16.2773
 21
56.7145
  0
LINE
  8
0
 10
16.2773
 20
56.7145
 11
16.6075
 21
56.533
  0
LINE
  8
0
 10
16.6075
 20
56.533
 11
16.9123
 21
56.3116
  0
LINE
  8
0
 10
16.9123
 20
56.3116
 11
17.1869
 21
56.0536
  0
LINE
  8
0
 10
17.1869
 20
56.0536
 11
17.427
 21
55.7634
  0
LINE
  8
0
 10
17.427
 20
55.7634
 11
17.6289
 21
55.4453
  0
LINE
  8
0
 10
17.6289
 20
55.4453
 11
17.7893
 21
55.1044
  0
LINE
  8
0
 10
17.7893
 20
55.1044
 11
17.9057
 21
54.7461
  0
LINE
  8
0
 10
17.9057
 20
54.7461
 11
17.9763
 21
54.376
  0
LINE
  8
0
 10
17.9763
 20
54.376
 11
18
 21
54
  0
LINE
  8
0
 10
18
 20
54
 11
17.9763
 21
53.624
  0
LINE
  8
0
 10
17.9763
 20
53.624
 11
17.9057
 21
53.2539
  0
LINE
  8
0
 10
17.9057
 20
53.2539
 11
17.7893
 21
52.8956
  0
LINE
  8
0
 10
17.7893
 20
52.8956
 11
17.6289
 21
52.5547
  0
LINE
  8
0
 10
17.6289
 20
52.5547
 11
17.427
 21
52.2366
  0
LINE
  8
0
 10
17.427
 20
52.2366
 11
17.1869
 21
51.9464
  0
LINE
  8
0
 10
17.1869
 20
51.9464
 11
16.9123
 21
51.6885
  0
LINE
  8
0
 10
16.9123
 20
51.6885
 11
16.6075
 21
51.467
  0
LINE
  8
0
 10
16.6075
 20
51.467
 11
16.2773
 21
51.2855
  0
LINE
  8
0
 10
16.2773
 20
51.2855
 11
15.927
 21
51.1468
  0
LINE
  8
0
 10
15.927
 20
51.1468
 11
15.5621
 21
51.0531
  0
LINE
  8
0
 10
15.5621
 20
51.0531
 11
15.1884
 21
51.0059
  0
LINE
  8
0
 10
15.1884
 20
51.0059
 11
14.8116
 21
51.0059
  0
ENDSEC
  0
SECTION
  2
OBJECTS
  0
DICTIONARY
  0
ENDSEC
  0
EOF
